<svg id="Layer_1" data-name="Layer 1" xmlns="http://www.w3.org/2000/svg" viewBox="0 0 300 300"><path d="M450.5,300a150,150,0,1,1-150-150A150,150,0,0,1,450.5,300Z" transform="translate(-150.5 -150)" fill="#f3b43e"/><path d="M339.73,402.42c-7.67-5.77-19.62-9.56-32.31-9.84h-.66v-.28l-6.25.14-6.25-.14v.28h-.66c-12.69.28-24.64,4.07-32.31,9.84S253,414,253.58,420.94c.45,5.26,93.43,6.75,93.88,1.48C348.06,415.46,347.4,408.19,339.73,402.42Z" transform="translate(-150.5 -150)" fill="#403c3d"/><rect x="131.54" y="233.94" width="36.96" height="53.15" fill="#a36833"/><path d="M345,314.39c-2.37,13.43,5.6,24.62,17.79,27s24-4.87,26.35-18.31-5.61-26.27-17.8-28.68S347.38,301,345,314.39Z" transform="translate(-150.5 -150)" fill="#a36833"/><path d="M256.12,314.39c2.36,13.43-5.6,24.62-17.8,27s-24-4.87-26.34-18.31,5.6-26.27,17.79-28.68S253.76,301,256.12,314.39Z" transform="translate(-150.5 -150)" fill="#a36833"/><path d="M363.21,230c-12.25-16.65-31.37-27.59-51.66-28.39l-1.05,0,0-.8-10,.4-10-.4,0,.8-1.05,0c-20.29.8-39.41,11.74-51.66,28.39s-13.33,33.37-12.37,53.47c.72,15.19,2.86,39.72,3.61,54.91,12.31,46.05,42.94,53.91,71.45,53.91s60.16-7.86,71.44-53.91c.76-15.19,2.89-35.43,3.62-50.62C376.54,267.66,375.48,246.66,363.21,230Z" transform="translate(-150.5 -150)" fill="#a36833"/><path d="M336.66,416a4.76,4.76,0,0,1-.53-.19h0c-4-1.38-17.1-6.36-17.1-6.36L301.41,433.5l-19-24.37s-12.7,4.77-17.56,6.31h0l-2,.77h0c-14.25,5.37-24.5,10.25-31.26,17A149,149,0,0,0,279,448.44c4.31.61,8.67,1.06,13.08,1.31.73,0,1.46.06,2.19.09,2.08.08,4.17.16,6.28.16s4.2-.08,6.28-.16c.84,0,1.69-.07,2.53-.12q6.53-.37,12.89-1.31a148.84,148.84,0,0,0,47.39-15.28C362.8,426.33,349.85,419.56,336.66,416Z" transform="translate(-150.5 -150)" fill="#403c3d"/><path d="M268.39,311.54c0,5.56-3.8,10.07-8.48,10.07s-8.49-4.51-8.49-10.07,3.8-10.07,8.49-10.07S268.39,306,268.39,311.54Z" transform="translate(-150.5 -150)" fill="#331907"/><path d="M270.61,318.56c0,2.75-4.79,5-10.7,5s-10.71-2.23-10.71-5S270.61,315.81,270.61,318.56Z" transform="translate(-150.5 -150)" fill="#a36833"/><path d="M345.58,311.54c0,5.56-3.8,10.07-8.49,10.07s-8.48-4.51-8.48-10.07,3.8-10.07,8.48-10.07S345.58,306,345.58,311.54Z" transform="translate(-150.5 -150)" fill="#331907"/><path d="M247.6,293.3a2.82,2.82,0,0,1-2-4.78c3.8-4,10.87-5.12,16.2-4.84,2.78.15,9.56.94,12.69,5a2.83,2.83,0,0,1-4.49,3.44c-.9-1.18-3.95-2.57-8.5-2.81-5-.26-9.79,1-11.81,3.09A2.84,2.84,0,0,1,247.6,293.3Z" transform="translate(-150.5 -150)" fill="#331907"/><path d="M293.6,345.91h-.2a2.82,2.82,0,0,1-2.62-3c.37-5.09.93-25.1.93-31.22a2.83,2.83,0,1,1,5.66,0c0,5.79-.54,26-.95,31.63A2.83,2.83,0,0,1,293.6,345.91Z" transform="translate(-150.5 -150)" fill="#754423"/><path d="M349.53,293.3a2.84,2.84,0,0,1-2-.88c-2.05-2.16-6.91-3.41-12.08-3.08-4.44.28-7.37,1.62-8.2,2.76a2.83,2.83,0,1,1-4.55-3.37c3-4,9.67-4.86,12.4-5,5.44-.34,12.65.75,16.53,4.82a2.83,2.83,0,0,1-2.05,4.78Z" transform="translate(-150.5 -150)" fill="#331907"/><path d="M229.53,290.85c10.13,1.86,13.86-15.66,10-21.08,15.2,4.2,27.11-6.83,29-13.67,1.7,11.88,20.74,8.72,21.21-1.27.47,8.81,25.46,12.35,34.92.48-.73,12.59,17.85,14.34,25,6.14-2.86,9.49,9.1,17.37,14.81,11.85-4.71,10.37,4.33,22.55,8.43,20.34-4.79,4.43-5.87,15.22-.65,20.05,6.41,5.94,10.34-4.37,9.43-9.92,12-6,10.81-28,1.94-27.95,12-3.36,9.24-27.67-1.33-26.31,5-3.19,5-16.33-5.18-15.07,7.16-8.27,1.27-26.4-12.35-22.34,3.25-12.33-22.44-20.74-32-9.85,4.61-10.89-14.24-12.85-21.13-5.6,4.4-3.59,5.51-12.12-.55-13.61-8.43-2.07-16.37,4.24-18.37,12.56-2.95-12.89-20.16-10.68-18.94,1.93-6.4-9.31-21.25,1.06-20.87,13.75-7.45-8.92-25.36,1.45-22.06,14.65-12-.7-26.87,17.21-13,37.4-4.13-.95-9.14,4.32-9.14,12.46,0,4.82,3.45,9.78,7.49,11.94-4,1.84-5.88,9.74-1.28,18.23,3.75,6.92,10.12,8.8,14.76,6.94C237.77,309.62,232.94,295.81,229.53,290.85Z" transform="translate(-150.5 -150)" fill="#331907"/><path d="M300.86,441.44a2.15,2.15,0,0,1-.75-.13l-43.1-16a2.14,2.14,0,1,1,1.49-4L300.87,437l43.47-15.76a2.14,2.14,0,0,1,1.46,4l-44.21,16A2,2,0,0,1,300.86,441.44Z" transform="translate(-150.5 -150)" fill="#131314"/><path d="M275.34,357.3c9.45,19.25,44.28,12.47,46.67-.88Z" transform="translate(-150.5 -150)" fill="#fff"/><path d="M297.83,371.61h0c-11.49,0-20.46-4.84-24.61-13.28a2.35,2.35,0,0,1,2.07-3.39l46.68-.88a2.35,2.35,0,0,1,2.36,2.77C322.68,366.08,309.56,371.61,297.83,371.61Zm-18.25-12c5.36,6.54,14.29,7.33,18.25,7.33,9,0,17.47-3.48,20.64-8.06Z" transform="translate(-150.5 -150)" fill="#754423"/><path d="M348,318.56c0,2.75-4.79,5-10.71,5s-10.71-2.23-10.71-5S348,315.81,348,318.56Z" transform="translate(-150.5 -150)" fill="#a36833"/></svg>