<svg id="Layer_1" data-name="Layer 1" xmlns="http://www.w3.org/2000/svg" viewBox="0 0 300 300"><path d="M450.5,300a150,150,0,1,1-150-150A150,150,0,0,1,450.5,300Z" transform="translate(-150.5 -150)" fill="#facb4c"/><path d="M386.65,280.06c0,54.63-37.87,94.48-84.59,94.48s-84.59-39.85-84.59-94.48,31.65-89.95,84.59-89.95S386.65,225.42,386.65,280.06Z" transform="translate(-150.5 -150)" fill="#331907"/><rect x="131.54" y="233.94" width="36.96" height="45.25" fill="#865b2f"/><path d="M336.66,416a4.76,4.76,0,0,1-.53-.19c-1.78-.65-70.49-.64-71.26-.35l-2,.77h0c-14.25,5.37-24.5,10.25-31.26,17A149,149,0,0,0,279,448.44c4.31.61,8.67,1.06,13.08,1.31.73,0,1.46.06,2.19.09,2.08.08,4.17.16,6.28.16s4.2-.08,6.28-.16c.84,0,1.69-.07,2.53-.12q6.53-.37,12.89-1.31a148.84,148.84,0,0,0,47.39-15.28C362.8,426.33,349.85,419.56,336.66,416Z" transform="translate(-150.5 -150)" fill="#6daf6d"/><path d="M345,314.39c-2.37,13.43,5.6,24.62,17.79,27s24-4.87,26.35-18.31-5.61-26.27-17.8-28.68S347.38,301,345,314.39Z" transform="translate(-150.5 -150)" fill="#865b2f"/><path d="M256.12,314.39c2.36,13.43-5.6,24.62-17.8,27s-24-4.87-26.34-18.31,5.6-26.27,17.79-28.68S253.76,301,256.12,314.39Z" transform="translate(-150.5 -150)" fill="#865b2f"/><path d="M365.48,227.49c-12.71-17.27-32.53-28.6-53.58-29.44l-1.09,0,0-.83-10.37.41-10.37-.41,0,.83-1.09,0c-21,.84-40.87,12.17-53.58,29.44s-9.21,34.62-8.27,55.46c.71,15.76-1.59,41.19-.81,56.95,12.77,47.75,44.53,55.91,74.1,55.91s62.39-8.16,74.1-55.91c.78-15.76-1.51-36.75-.8-52.5C374.69,266.55,378.2,244.78,365.48,227.49Z" transform="translate(-150.5 -150)" fill="#865b2f"/><path d="M336.1,415.78c-4-1.38-17.1-6.36-17.1-6.36a196.81,196.81,0,0,0-36.54-.29s-12.75,4.79-17.59,6.32c10.25,9.07,23.23,11.17,35.65,11.17S325.87,424.57,336.1,415.78Z" transform="translate(-150.5 -150)" fill="#865b2f"/><path d="M271.57,311.84c0,5.83-4,10.55-8.89,10.55s-8.88-4.72-8.88-10.55,4-10.54,8.88-10.54S271.57,306,271.57,311.84Z" transform="translate(-150.5 -150)" fill="#331907"/><path d="M345.77,311.84c0,5.83-4,10.55-8.89,10.55S328,317.67,328,311.84s4-10.54,8.88-10.54S345.77,306,345.77,311.84Z" transform="translate(-150.5 -150)" fill="#331907"/><path d="M292.93,341.34h-.21a3.21,3.21,0,0,1-2.74-3.54c.38-6,1.33-17.77,1.33-24.94a3,3,0,1,1,5.93,0c0,7.44-.95,19.19-1.35,25.41A3.13,3.13,0,0,1,292.93,341.34Z" transform="translate(-150.5 -150)" fill="#5f3a1b"/><path d="M300.76,372.22c-8,0-15.83-2.58-21.06-7.76a2.93,2.93,0,1,1,4.12-4.17c7.42,7.33,24.59,8.92,34.78-.11a2.93,2.93,0,0,1,3.89,4.39C316.73,369.68,308.68,372.22,300.76,372.22Z" transform="translate(-150.5 -150)" fill="#563217"/><path d="M251.84,292.77a4.34,4.34,0,0,1-4-3,4.78,4.78,0,0,1,2.45-6,37.5,37.5,0,0,1,25.1-1.19,4.7,4.7,0,0,1,3,5.71,4.29,4.29,0,0,1-5.3,3.27,29.45,29.45,0,0,0-19.69.88A4,4,0,0,1,251.84,292.77Z" transform="translate(-150.5 -150)" fill="#331907"/><path d="M349.08,292.77a4.34,4.34,0,0,0,4-3,4.79,4.79,0,0,0-2.45-6,37.5,37.5,0,0,0-25.1-1.19,4.7,4.7,0,0,0-3,5.71,4.29,4.29,0,0,0,5.3,3.27,29.42,29.42,0,0,1,19.68.88A4,4,0,0,0,349.08,292.77Z" transform="translate(-150.5 -150)" fill="#331907"/><path d="M350.4,204.61c-19.79-14.19-60.72-15.6-83.5-7.57-15.87,5.59-31.08,20.17-36.74,37.15-.7,2.12-1.32,4.18-1.87,6.23A54.82,54.82,0,0,0,225,263.69c-.18,4.92-.15,5.89,0,12.13v56.33c0,7.38,1.91,16.7,3.29,24,6.8,36,47.84,48.76,71.16,48.76l1.4,0c.46,0-.19,0,.27,0,23.32,0,61.64-11.51,71.17-48.77,1.83-7.15,3.28-14.35,3.28-21.73V288.43c1.09-3.06,1.83-1.75,1.83-4.52C377.42,264.69,382.59,227.67,350.4,204.61ZM364.24,314v6c0,15.77-6.48,34-17.05,39.53-4-12.95-16.63-14.47-30.31-15.34a278.74,278.74,0,0,0-33.11,0c-13.25.58-25.71,3.73-30.31,15.34-11.43-8.4-17.05-23.76-17.05-39.53V289.2c0-10.55-1.31-38.62,16.84-38.62,12,0,10.79,3,47.28,3,32.28,0,39.42-3.95,51.5-3.95a10.37,10.37,0,0,1,4.79,1.06c4.81,2.44,7.42,6.37,7.42,33.41Z" transform="translate(-150.5 -150)" fill="#331907"/><path d="M321.36,356.83c0,5.95-10.46,10.78-21,10.78s-21-4.83-21-10.78Z" transform="translate(-150.5 -150)" fill="#fff"/></svg>