<svg id="Layer_1" data-name="Layer 1" xmlns="http://www.w3.org/2000/svg" viewBox="0 0 300 300"><path d="M450.5,300a150,150,0,1,1-150-150A150,150,0,0,1,450.5,300Z" transform="translate(-150.5 -150)" fill="#dd6f8e"/><path d="M395.83,278c0,46.51-42.89,77.92-94.78,77.92s-88.42-37.12-88.42-82.48,36.54-81.79,88.42-81.79c23.31,0,38.82,22.69,59.69,28.39C386.3,227.05,395.83,252.34,395.83,278Z" transform="translate(-150.5 -150)" fill="#331907"/><rect x="131.54" y="233.94" width="36.96" height="45.25" fill="#f4cd98"/><path d="M336.66,416a4.76,4.76,0,0,1-.53-.19c-1.78-.65-70.49-.64-71.26-.35l-2,.77h0c-14.25,5.37-24.5,10.25-31.26,17A149,149,0,0,0,279,448.44c4.31.61,8.67,1.06,13.08,1.31.73,0,1.46.06,2.19.09,2.08.08,4.17.16,6.28.16s4.2-.08,6.28-.16c.84,0,1.69-.07,2.53-.12q6.53-.37,12.89-1.31a148.84,148.84,0,0,0,47.39-15.28C362.8,426.33,349.85,419.56,336.66,416Z" transform="translate(-150.5 -150)" fill="#3c313f"/><path d="M345,314.39c-2.37,13.43,5.6,24.62,17.79,27s24-4.87,26.35-18.31-5.61-26.27-17.8-28.68S347.38,301,345,314.39Z" transform="translate(-150.5 -150)" fill="#f4cd98"/><path d="M256.12,314.39c2.36,13.43-5.6,24.62-17.8,27s-24-4.87-26.34-18.31,5.6-26.27,17.79-28.68S253.76,301,256.12,314.39Z" transform="translate(-150.5 -150)" fill="#f4cd98"/><path d="M363.21,230c-12.25-16.65-31.37-27.59-51.66-28.39l-1.05,0,0-.8-10,.4-10-.4,0,.8-1.05,0c-20.29.8-39.41,11.74-51.66,28.39s-13.33,33.37-12.37,53.47c.72,15.19,2.86,39.72,3.61,54.91,12.31,46.05,42.94,53.91,71.45,53.91s60.16-7.86,71.44-53.91c.76-15.19,2.89-35.43,3.62-50.62C376.54,267.66,375.48,246.66,363.21,230Z" transform="translate(-150.5 -150)" fill="#f4cd98"/><path d="M336.1,415.78c-4-1.38-17.1-6.36-17.1-6.36a196.81,196.81,0,0,0-36.54-.29s-12.75,4.79-17.59,6.32c10.25,9.07,23.23,11.17,35.65,11.17S325.87,424.57,336.1,415.78Z" transform="translate(-150.5 -150)" fill="#f4cd98"/><path d="M293.6,345.91h-.2a2.82,2.82,0,0,1-2.62-3c.37-5.09.93-25.1.93-31.22a2.83,2.83,0,1,1,5.66,0c0,5.79-.54,26-.95,31.63A2.83,2.83,0,0,1,293.6,345.91Z" transform="translate(-150.5 -150)" fill="#c68659"/><path d="M359.08,254.13s-23.58,14-61.9,18.79c-73.22,9.12-75,40.76-75,40.76s-20.58-12.57-12.29-55.13c11.94-61.31,93.95-86.21,133.18-59.68,12,8.14,20.56,17.35,26.44,27,10.14,16.62,15.85,35.46,14.73,51.34-1.86,26.48-16.58,46.42-16.58,46.42S368.89,273.47,359.08,254.13Z" transform="translate(-150.5 -150)" fill="#331907"/><path d="M239.3,265.79c-5.45,22.8-4.59,57.83-4.59,57.83S220,303.68,218.13,277.2a72.46,72.46,0,0,1,2.65-23.55C227.1,257.4,233.23,261.52,239.3,265.79Z" transform="translate(-150.5 -150)" fill="#331907"/><path d="M251.06,298.65a2.89,2.89,0,0,1-1.14-5.55c9.41-4,20-4,26.34,0a2.89,2.89,0,0,1,.91,4C276.32,298.42,251.43,298.65,251.06,298.65Z" transform="translate(-150.5 -150)" fill="#331907"/><path d="M326.9,299.78a2.88,2.88,0,0,1-1.67-5.24c5-3.53,20.64-4.63,27-.87a2.89,2.89,0,0,1,1,3.95C352.47,299,327.48,299.78,326.9,299.78Z" transform="translate(-150.5 -150)" fill="#331907"/><path d="M274.59,317.78a2.85,2.85,0,0,1-1.68-.54c-6-4.3-13.85-5-22.11-1.86a2.89,2.89,0,0,1-2-5.41c10.13-3.79,19.89-2.88,27.5,2.58a2.89,2.89,0,0,1-1.68,5.23Z" transform="translate(-150.5 -150)" fill="#331907"/><path d="M326.45,317.78a2.89,2.89,0,0,1-1.69-5.23c7.61-5.46,17.39-6.37,27.5-2.58a2.89,2.89,0,0,1-2,5.41c-8.27-3.11-16.12-2.44-22.11,1.86A2.85,2.85,0,0,1,326.45,317.78Z" transform="translate(-150.5 -150)" fill="#331907"/><path d="M275,357.71c7.33,17.86,45.13,12.11,47.16-.17Z" transform="translate(-150.5 -150)" fill="#fff"/><path d="M298.13,371.17h0c-13-.5-21.85-4.73-25.1-12.65a2.16,2.16,0,0,1,.21-2,2.11,2.11,0,0,1,1.76-.95l47.17-.17h0a2.13,2.13,0,0,1,1.63.75,2.1,2.1,0,0,1,.48,1.73C322.9,366.2,309.83,371.08,298.13,371.17Zm-19.58-11.34c4.3,6.31,16.2,7.07,19.57,7.07h0c7.27,0,18.4-3.12,20.95-7.21Z" transform="translate(-150.5 -150)" fill="#c68659"/></svg>