<svg id="Layer_1" data-name="Layer 1" xmlns="http://www.w3.org/2000/svg" viewBox="0 0 300 300"><path d="M450.5,300a150,150,0,1,1-150-150A150,150,0,0,1,450.5,300Z" transform="translate(-150.5 -150)" fill="#2d7e9e"/><path d="M343.87,308.62c-2.41,13.7,5.71,25.11,18.14,27.57s24.47-5,26.87-18.67-5.71-26.8-18.14-29.25S346.27,294.92,343.87,308.62Z" transform="translate(-150.5 -150)" fill="#eaae78"/><path d="M257.11,308.62c2.41,13.7-5.71,25.11-18.15,27.57s-24.46-5-26.86-18.67,5.71-26.8,18.14-29.25S254.71,294.92,257.11,308.62Z" transform="translate(-150.5 -150)" fill="#eaae78"/><path d="M362.54,216.34c-12.14-16.49-31.07-27.32-51.17-28.12l-1.05,0,0-.79-9.91.4-9.9-.4,0,.79-1,0c-20.1.8-39,11.63-51.17,28.12s-13.77,37.3-12.81,57.21c.73,15,3.39,39.33,4.14,54.38,12.19,45.61,42.52,53.4,70.76,53.4s59.59-7.79,70.77-53.4c.74-15.05,3.4-39.34,4.13-54.38C376.3,253.64,374.68,232.85,362.54,216.34Z" transform="translate(-150.5 -150)" fill="#eaae78"/><rect x="131.46" y="222.91" width="36.96" height="43.11" fill="#eaae78"/><path d="M245.36,289.56a2.83,2.83,0,0,1-1.91-4.92c5.31-4.85,22.33-7,30-2.48a2.83,2.83,0,0,1-2.88,4.87c-5.34-3.16-19.66-1.55-23.32,1.79A2.78,2.78,0,0,1,245.36,289.56Z" transform="translate(-150.5 -150)" fill="#331907"/><path d="M354.25,290.69a2.81,2.81,0,0,1-2.2-1c-2.81-3.47-17.68-5.14-23.74-2.67a2.83,2.83,0,0,1-2.14-5.24c7.22-2.93,25.23-1.87,30.27,4.34a2.82,2.82,0,0,1-2.19,4.61Z" transform="translate(-150.5 -150)" fill="#331907"/><path d="M295.92,335.51h-.2a2.84,2.84,0,0,1-2.62-3c.37-5.09.94-25.1.94-31.22a2.83,2.83,0,1,1,5.65,0c0,5.79-.54,26-.95,31.63A2.83,2.83,0,0,1,295.92,335.51Z" transform="translate(-150.5 -150)" fill="#b7805c"/><path d="M238.92,244.05c-1,2.08-.66,12.93,11.44,12.57,10.55-.32,16.43-6.72,21.79-12.19,0,0-9.93,15.64,3.22,18.79s25.73-14.14,25.73-14.14c-1.83,1.35-2.13,8.72,3.17,11.12,8.06,3.64,26.66.82,47.58-26.52,19.36,24.51,20.93,66.93,21.08,69.92.06,1.22.38,4.47,2,4.16,1.78-.35,2-6.91,2.16-8.32a232.45,232.45,0,0,0,1.61-29.95c0-18.36,5.32-53.71-27.9-75.74-20.44-13.55-62.67-14.9-86.18-7.23-16.38,5.35-32.08,19.27-37.92,35.48-6.4,17.81-6.24,31.73-4.13,67,.23,3.83.68,7.66,1.21,11.45A74,74,0,0,0,225,308c1.34,5.4,3.2,1.55,3.14-1.81C228.08,301.09,226.35,263.53,238.92,244.05Z" transform="translate(-150.5 -150)" fill="#331907"/><path d="M270.81,310.82a2.79,2.79,0,0,1-1.25-.29c-8.37-4.14-20-2.19-22.48-.29a2.83,2.83,0,1,1-3.45-4.49c4.47-3.43,18.7-5.11,28.44-.29a2.83,2.83,0,0,1-1.26,5.36Z" transform="translate(-150.5 -150)" fill="#331907"/><path d="M366.38,427.06a55.32,55.32,0,0,0-7.81-9.18c.08-.36-31.32-21.14-31.44-21-1.68-1.07-7.28-4.64-7-4.57s-19.59,11.46-19.59,11.46l-19.59-11.46L274,396.94c-.14-.15-30.47,19.43-30.41,19.87a57,57,0,0,0-8.94,10.25c-1.12,1.71-2.27,3.73-3.43,5.95a147.56,147.56,0,0,0,14.86,6.76,149.29,149.29,0,0,0,46.87,10c2.51.12,5,.19,7.58.19s5.07-.07,7.58-.19A150.05,150.05,0,0,0,369.82,433C368.65,430.79,367.5,428.77,366.38,427.06Z" transform="translate(-150.5 -150)" fill="#abe7f4"/><path d="M350.47,310.35a2.86,2.86,0,0,1-1.23-.28c-5.06-2.45-16.56-3.59-22.1-.14a2.83,2.83,0,0,1-3-4.81c7.56-4.7,21.14-3.25,27.56-.14a2.83,2.83,0,0,1-1.24,5.37Z" transform="translate(-150.5 -150)" fill="#331907"/><path d="M280.86,422.45a1.42,1.42,0,0,1-.88-2.53l19.58-15.47a1.41,1.41,0,0,1,1.75,2.22l-19.58,15.47A1.38,1.38,0,0,1,280.86,422.45Z" transform="translate(-150.5 -150)" fill="#6ebbc5"/><path d="M320,422.45a1.38,1.38,0,0,1-.87-.31l-19.58-15.47a1.41,1.41,0,0,1,1.75-2.22l19.58,15.47a1.42,1.42,0,0,1-.88,2.53Z" transform="translate(-150.5 -150)" fill="#6ebbc5"/><path d="M274.44,397.81a2,2,0,0,0-.47-.87,1.85,1.85,0,0,0-.47-.41,1.82,1.82,0,0,0-.91-.24,2,2,0,0,0-.67.13c-10.23,3.88-21.42,11.8-27.89,17.41a1.89,1.89,0,0,0-.64,1.67c.06.44.11.87.17,1.31,1.06,8.29,1.95,15.72,2.49,23a149.29,149.29,0,0,0,46.87,10c-.34-.6-.66-1.2-1-1.81C280.21,426.18,274.51,398.16,274.44,397.81Z" transform="translate(-150.5 -150)" fill="#3c313f"/><path d="M358.57,417.88c.08-.36.15-.72.23-1.07a1.88,1.88,0,0,0-.56-1.85c-7.07-6.41-18.83-14.63-29.16-18.54a2,2,0,0,0-.67-.13,1.85,1.85,0,0,0-.91.24,1.65,1.65,0,0,0-.37.33,1.9,1.9,0,0,0-.57.95c-.07.35-5.78,28.42-17.52,50.25-.32.59-.63,1.17-1,1.75A149,149,0,0,0,355,439.74,154,154,0,0,1,358.57,417.88Z" transform="translate(-150.5 -150)" fill="#3c313f"/><path d="M324.78,345.81c-8.76,26.73-45.7,18.8-48.57.57Z" transform="translate(-150.5 -150)" fill="#fff"/><path d="M273.88,346.7a2.13,2.13,0,0,1,.54-1.76,2.35,2.35,0,0,1,1.76-.77l48.58-.57a2.39,2.39,0,0,1,1.91.89,2.1,2.1,0,0,1,.37,2c-3.76,11.45-12.82,18.29-24.86,18.79h0C288.27,365.82,275.58,357.5,273.88,346.7Zm5.35,1.86c2.82,7.26,12.52,12.68,22.74,12.26h0c8.88-.36,15.81-5,19.42-12.75Z" transform="translate(-150.5 -150)" fill="#b7805c"/></svg>