<svg id="Layer_1" data-name="Layer 1" xmlns="http://www.w3.org/2000/svg" viewBox="0 0 300 300"><path d="M450.5,300a150,150,0,1,1-150-150A150,150,0,0,1,450.5,300Z" transform="translate(-150.5 -150)" fill="#facb4c"/><path d="M343.93,318.61c-2.41,13.7,5.7,25.11,18.14,27.57s24.46-5,26.87-18.67-5.71-26.79-18.15-29.25S346.33,304.91,343.93,318.61Z" transform="translate(-150.5 -150)" fill="#e8ae7e"/><path d="M257.17,318.61c2.41,13.7-5.71,25.11-18.15,27.57s-24.46-5-26.86-18.67,5.71-26.79,18.14-29.25S254.77,304.91,257.17,318.61Z" transform="translate(-150.5 -150)" fill="#e8ae7e"/><path d="M362.6,226.33c-12.15-16.49-31.08-27.32-51.18-28.12l-1,0,0-.79-9.91.4-9.9-.4,0,.79-1,0c-20.1.8-39,11.63-51.17,28.12s-13.77,37.3-12.81,57.21c.73,15,3.39,39.33,4.13,54.38,12.2,45.61,42.53,53.4,70.77,53.4s59.58-7.79,70.76-53.4c.75-15.05,3.42-39.33,4.14-54.38C376.36,263.63,374.74,242.84,362.6,226.33Z" transform="translate(-150.5 -150)" fill="#e8ae7e"/><rect x="131.52" y="232.9" width="36.96" height="45.25" fill="#e8ae7e"/><path d="M270.76,311.13c0,5.56-3.79,10.07-8.48,10.07s-8.48-4.51-8.48-10.07,3.8-10.07,8.48-10.07S270.76,305.57,270.76,311.13Z" transform="translate(-150.5 -150)" fill="#3a1e0a"/><path d="M348,311.13c0,5.56-3.79,10.07-8.48,10.07S331,316.69,331,311.13s3.8-10.07,8.49-10.07S348,305.57,348,311.13Z" transform="translate(-150.5 -150)" fill="#3a1e0a"/><path d="M250,292.89a2.83,2.83,0,0,1-2-4.78c3.81-4,10.87-5.12,16.21-4.84,2.77.15,9.56.94,12.69,5a2.83,2.83,0,0,1-4.49,3.44c-.91-1.18-3.95-2.56-8.51-2.81-5.05-.26-9.79,1-11.8,3.09A2.86,2.86,0,0,1,250,292.89Z" transform="translate(-150.5 -150)" fill="#3a1e0a"/><path d="M296,343.27h-.2a2.7,2.7,0,0,1-2.62-2.84c.37-4.78.93-23.59.93-29.34a2.84,2.84,0,0,1,5.66,0c0,5.44-.54,24.4-.95,29.72A2.77,2.77,0,0,1,296,343.27Z" transform="translate(-150.5 -150)" fill="#ba7e56"/><path d="M300.5,450a149.37,149.37,0,0,0,72.4-18.62c-6.64-8.65-18.78-13.24-46-21.89L319,404.11S314.73,407,300.5,407,282,404.11,282,404.11l-8.15,5.73c-27.23,8.63-39.19,13-45.75,21.55A149.31,149.31,0,0,0,300.5,450Z" transform="translate(-150.5 -150)" fill="#9b6b4b"/><path d="M277.13,357.57c9.46,19.26,44.29,12.48,46.68-.88Z" transform="translate(-150.5 -150)" fill="#fff"/><path d="M299.63,371.88h0c-11.5,0-20.47-4.83-24.62-13.27a2.38,2.38,0,0,1,.11-2.27,2.35,2.35,0,0,1,2-1.12l46.68-.88a2.33,2.33,0,0,1,1.83.82,2.38,2.38,0,0,1,.53,1.95C324.48,366.36,311.36,371.88,299.63,371.88Zm-18.25-12c5.35,6.54,14.28,7.32,18.25,7.32,9,0,17.47-3.47,20.64-8.05Z" transform="translate(-150.5 -150)" fill="#c68659"/><path d="M351.91,292.89a2.84,2.84,0,0,1-2.05-.88c-2.06-2.16-6.92-3.41-12.08-3.07-4.44.27-7.37,1.61-8.21,2.75a2.83,2.83,0,0,1-4.55-3.37c3-4,9.67-4.86,12.41-5,5.44-.34,12.65.75,16.52,4.82a2.82,2.82,0,0,1-2,4.78Z" transform="translate(-150.5 -150)" fill="#3a1e0a"/><path d="M372.75,332.08c.61-6.72,3.57-24.16-.5-21.84-4.24,2.42-3.29-4.5-3.51-.82-1.1,18.79-4.14,27.9-6.07,31.78-4.62,9.25-10.78,13.81-25.46,13.22-6.28-.25-12.34-7.83-37.95-7.83-21.85,0-29.82,7-39.35,7A27.67,27.67,0,0,1,236.52,341c-1.88-2.75-3.25-8-3.58-11.24-.31-3-1-14.74-1.25-17.34-1.21-15-5.95-9.37-6.08,2.21,0,3.7,2,31.49,8.71,46.84,9.53,22,27.77,36.61,66.45,37.16,38.41.55,59.13-18.37,65.76-38.82A164,164,0,0,0,372.75,332.08Z" transform="translate(-150.5 -150)" fill="#3a1e0a"/><path d="M232.25,301.23c.56-11-3.41-38.81,11.15-45,5.59-2.39,11.7-2.53,17.34-2,20.38,2,39.37,12,74.95,6.2,19.81-3.2,25-6.63,30.28-10.83,2.21-1.74,2.74,30.49,2.83,40.75.05,4.74,0,9.26-.07,14,0,2.79,0,5.57-.08,8.35,0,1.14-.26,4,3.46,4,2.73,0,3.07-7.24,3.18-8.56,1.59-20.84,2.38-32.1,1.45-51.55-.45-9.4-.27-9.22-1-17.58,3-2.39,6.58-7.31,6.86-11.43.41-6.12-4.86-10.32-7.45-7.55,4.9-5.23,11.76-14.38,8-21.87-4.17-8.36-14.45-2.4-20.35.62,2.86-2.58,5-7.4,1-10.28-1.83-1.32-5.59-.45-7.63,0-5.67,1.31-10.8,5.86-17,4.74,2.67-6.07-4.36-5.15-8.08-4.44-7.33,1.39-12.55.11-20.09-.84-24.24-3-42.49,1.66-62.57,14.15.73-6.49-4.87-10.22-9.38-4.33-3.38,4.41-1.13,12.68-1.13,12.68s-10.75.26-11.65,8c-.75,6.45,5.59,5.23,5.59,5.23-2.24,2.81-3.49,8.29-4.13,10.56a91.58,91.58,0,0,0-2.91,24.51c0,26.73,0,19,0,45.41,0,2.37,1,19.78,3.78,21.64s3.79-10,3.74-12.55C232.19,309.4,232,306,232.25,301.23Z" transform="translate(-150.5 -150)" fill="#3a1e0a"/><path d="M278.84,359.73c8.32,16.78,39,10.88,41.06-.77Z" transform="translate(-150.5 -150)" fill="#fff"/></svg>