<svg id="Layer_1" data-name="Layer 1" xmlns="http://www.w3.org/2000/svg" viewBox="0 0 300 300"><path d="M450.5,300a150,150,0,1,1-150-150A150,150,0,0,1,450.5,300Z" transform="translate(-150.5 -150)" fill="#548c58"/><path d="M269.33,417l-4.68,1.59a.69.69,0,0,0-.59.39l-.41.81c-13.23,4.78-22.92,9-29.65,14.68a150.15,150.15,0,0,0,18.36,7.6c4.46,1.51,9,2.8,13.65,3.89C265.62,436.32,267,427,269.33,417Z" transform="translate(-150.5 -150)" fill="#3c313f"/><path d="M329.59,416.94c-1.29-.67-10.15-1.93-10.15-1.93l-18.37,5.12-18.38-4.85s-8.84,1.12-10.21,1.73c0,0-3.48,18.7-1.12,19.13,7,1.3,25.88,7.74,27.9,7.74,2.39,0,5.65-1,8-1.1,7.29-.35,12.36-1.7,19.34-3C328.67,439.34,329.59,416.94,329.59,416.94Z" transform="translate(-150.5 -150)" fill="#e0aa79"/><path d="M367.66,434.12c-6.71-5.48-16.27-9.67-29.24-14.35L338,419a.69.69,0,0,0-.59-.39s-1.11,18.1-2.27,27.35a148.64,148.64,0,0,0,32.51-11.81Z" transform="translate(-150.5 -150)" fill="#3c313f"/><path d="M344.54,318.61c-2.41,13.7,5.72,25.1,18.15,27.56s24.46-5,26.87-18.66-5.71-26.8-18.15-29.26S347,304.91,344.54,318.61Z" transform="translate(-150.5 -150)" fill="#e0aa79"/><path d="M257.79,318.61c2.41,13.7-5.71,25.1-18.15,27.56s-24.46-5-26.86-18.66,5.71-26.8,18.14-29.26S255.38,304.91,257.79,318.61Z" transform="translate(-150.5 -150)" fill="#e0aa79"/><path d="M363.21,226.33C351.07,209.84,332.14,199,312,198.21l-1,0,0-.79-9.9.39-9.9-.39,0,.79-1,0c-20.1.8-39,11.63-51.17,28.12s-13.77,37.3-12.81,57.21c.73,15,3.39,39.33,4.14,54.38,12.19,45.61,42.52,53.4,70.76,53.4s59.58-7.79,70.76-53.4c.75-15.05,3.41-39.34,4.14-54.38C377,263.63,375.36,242.84,363.21,226.33Z" transform="translate(-150.5 -150)" fill="#e0aa79"/><rect x="132.14" y="232.9" width="36.96" height="48.41" fill="#e0aa79"/><path d="M251,285.26a2.83,2.83,0,0,1-2-4.78c4.85-5.11,19.05-8.27,27.38-2.51a2.83,2.83,0,1,1-3.21,4.65c-6.09-4.2-17.05-1.43-20.07,1.76A2.84,2.84,0,0,1,251,285.26Z" transform="translate(-150.5 -150)" fill="#331907"/><path d="M352.53,288.6a2.8,2.8,0,0,1-2-.88c-4.33-4.54-14.67-4.42-20.86.26a2.82,2.82,0,1,1-3.4-4.51c8.52-6.45,22-6.27,28.36.35a2.83,2.83,0,0,1-2.05,4.78Z" transform="translate(-150.5 -150)" fill="#331907"/><path d="M329.59,416.94c-7.94,14.37-49,15.2-57.11.07,0,0-7.15,10.8-6.65,20.24,2.34.55,4.81,9.75,7.19,10.19a150,150,0,0,0,21.44,2.41c2,.08,4,.15,6,.15,2.39,0,4.77-.07,7.13-.18a149.4,149.4,0,0,0,21.42-2.57c2.59-.5,5.53-9.09,8.07-9.72C336,428.06,329.59,416.94,329.59,416.94Z" transform="translate(-150.5 -150)" fill="#fff"/><path d="M230.65,300.73c.56-11-1.74-39.84,11.27-45,5.71-2.28,16.9.11,22.62.66a459.45,459.45,0,0,0,67.9,1.2c9.75-.62,23.86-3.18,28.45-2.56,12.5,1.71,10.94,24.72,11.05,35,.05,4.74,0,9.27-.05,14,0,2.79,0,5.57-.08,8.36,0,1.13.07,4.17,1.63,4,1.74-.19,2.38-6.27,2.64-7.57,2.06-9.85,3-20.65,5.72-30.24,4.39-15.73,7.74-39.09,2.06-52.13-1.62-3.73-10.82-15.24-20-14.54,9.15-18.08-9.06-27.63-23.87-28.23-23.91-1-43.64,4.46-66,12a105.86,105.86,0,0,0-32.54,17.32c-9.11,7-13.85,13-16.6,23.86-5.86,23.19-1.77,49.58,1.63,72.85a65,65,0,0,0,1.25,7.05c1.3,5,3.1,1.43,3-1.69C230.76,310.22,230.41,305.5,230.65,300.73Z" transform="translate(-150.5 -150)" fill="#331907"/><path d="M272.48,417l0-1.1-7.85,2.67a.69.69,0,0,0-.59.39l-.41.81-11.29,22.28A148.44,148.44,0,0,0,273,447.44L272.43,422Z" transform="translate(-150.5 -150)" fill="#54485a"/><path d="M338,419a.69.69,0,0,0-.59-.39l-7.84-2.67v1l.05,5.06-.59,25.25a147.75,147.75,0,0,0,20.51-5.5l-11.14-22Z" transform="translate(-150.5 -150)" fill="#54485a"/><path d="M296.32,346.15h-.21a2.82,2.82,0,0,1-2.6-3c.36-5.09.93-25,.93-31.05a2.81,2.81,0,1,1,5.62,0c0,6.29-.56,26.15-.94,31.45A2.81,2.81,0,0,1,296.32,346.15Z" transform="translate(-150.5 -150)" fill="#af744b"/><path d="M300.56,366.83c-6.72,0-13.43-1.59-17.46-5.57a2.81,2.81,0,0,1,3.95-4c3.68,3.64,13,5,21.64,3.09,8.23-1.79,14.12-5.85,16.14-11.15a2.82,2.82,0,0,1,5.26,2c-2.72,7.1-10.08,12.44-20.21,14.64A45.43,45.43,0,0,1,300.56,366.83Z" transform="translate(-150.5 -150)" fill="#af744b"/><path d="M377,298c-.47-.36-11.46-9.36-38.95-9.95-14.24-.3-22.52,2.61-27.82,6.05-4,2.61-6.41,5.4-9.74,5.66-3.33-.26-5.73-3-9.74-5.66-5.3-3.44-13.58-6.35-27.82-6.05-27.49.59-38.48,9.59-38.95,9.95a3.39,3.39,0,0,0-1.2,3.45l1.68,8a3.16,3.16,0,0,0,2.9,2.5l4,.2A40.39,40.39,0,0,0,238.16,329c8.16,12.45,25.83,13,37.47,9.39a29.26,29.26,0,0,0,14.16-9.81c3.5-4.77,5-10.05,10.71-10.63,5.68.58,7.21,5.86,10.71,10.63a29.26,29.26,0,0,0,14.16,9.81C337,342,354.68,341.41,362.84,329a40.39,40.39,0,0,0,6.75-16.82l4-.2a3.16,3.16,0,0,0,2.9-2.5l1.68-8A3.39,3.39,0,0,0,377,298Z" transform="translate(-150.5 -150)" fill="#403c3d"/><path d="M292.91,312.15c1.51-5.85-2.16-12-7.57-14.38-4.91-2.14-10.73-3.63-19.74-3.44A96,96,0,0,0,248.68,296c-4.07.8-9.81,1.71-12,5.85a10.11,10.11,0,0,0-1.21,4.67,27.39,27.39,0,0,0,.64,4.93l0,.08c0,.09,1.72,8.47,6.49,14.48,6.26,7.89,18.74,11.25,31.81,7.28A24.75,24.75,0,0,0,286,325.48C291.1,319.1,292.36,314.27,292.91,312.15Z" transform="translate(-150.5 -150)" fill="#131314"/><path d="M308.09,312.15c-1.51-5.85,2.16-12,7.57-14.38,4.91-2.14,10.73-3.63,19.74-3.44A96,96,0,0,1,352.32,296c4.07.8,9.81,1.71,12,5.85a10.11,10.11,0,0,1,1.21,4.67,27.39,27.39,0,0,1-.64,4.93s0,0,0,.08S363.17,320,358.4,326c-6.26,7.89-18.74,11.25-31.81,7.28A24.75,24.75,0,0,1,315,325.48C309.9,319.1,308.64,314.27,308.09,312.15Z" transform="translate(-150.5 -150)" fill="#131314"/></svg>