<svg id="Layer_1" data-name="Layer 1" xmlns="http://www.w3.org/2000/svg" viewBox="0 0 300 300"><path d="M450.5,300a150,150,0,1,1-150-150A150,150,0,0,1,450.5,300Z" transform="translate(-150.5 -150)" fill="#87c6db"/><rect x="131.52" y="232.9" width="36.96" height="45.25" fill="#e8ae7e"/><path d="M300.5,450a149.37,149.37,0,0,0,72.4-18.62c-6.64-8.65-18.78-13.24-46-21.89L319,404.11,300.5,414,282,404.11l-8.15,5.73c-27.23,8.63-39.19,13-45.75,21.55A149.31,149.31,0,0,0,300.5,450Z" transform="translate(-150.5 -150)" fill="#1e5e8b"/><path d="M281.34,434.11l-7.87-21.76a1.43,1.43,0,1,1,2.69-1l6.48,17.91,16.91-14.16a1.43,1.43,0,1,1,1.84,2.19Z" transform="translate(-150.5 -150)" fill="#134768"/><path d="M319.59,434.11l-20-16.79a1.43,1.43,0,1,1,1.84-2.19l16.92,14.17,6.57-17.7a1.43,1.43,0,1,1,2.68,1Z" transform="translate(-150.5 -150)" fill="#134768"/><path d="M360.41,237.53c-11.56-16.63-28.37-28.89-48.26-29.69l-1,0V207s-6.91.19-11.88.39l-9.8-.39v.78l-1,0c-19.89.8-36.2,13.41-48.26,29.69-20,27-10.75,64.94-10.75,93.77,0,47.32,41.87,63.37,69.82,63.37s72.36-16.39,72.36-63.37C371.62,302.6,380.81,266.86,360.41,237.53Z" transform="translate(-150.5 -150)" fill="#e8ae7e"/><path d="M343.25,318.29c-2.47,14.07,5.86,25.79,18.64,28.31s25.13-5.09,27.6-19.17-5.86-27.53-18.64-30.05S345.72,304.21,343.25,318.29Z" transform="translate(-150.5 -150)" fill="#e8ae7e"/><path d="M253.38,318.32c2.46,13.95-1.71,25.56-14.37,28.07s-24.91-5.06-27.36-19,5.82-27.28,18.48-29.78S250.93,304.37,253.38,318.32Z" transform="translate(-150.5 -150)" fill="#e8ae7e"/><path d="M379,292.52s17.4-54.53-30.6-87.1c-20.67-14-59.64-13.09-83.61-5.28-16.69,5.45-30.4,16.81-37.5,32.88-13,29.45-5.25,59.5-5.25,59.5,0,3.3,2.51,6.72,3.59,8.89a23,23,0,0,1,2.78,10.3v19.43A64.15,64.15,0,0,0,232.7,355c12.14,30.31,38.09,41.6,67.8,41.6,30,0,56.08-12.64,67.8-41.6a63.72,63.72,0,0,0,4.31-23.87V311.71c0-4.21,1.44-5.44,2.63-9.47C376.06,299.46,379,295.82,379,292.52Zm-62,87c-5.73.14-7.89-5.2-8.29-9.62-.22-2.46-5.68-1.58-8.2-1.65s-7.88-.79-8.24,1.65c-.7,4.7-2.56,9.76-8.29,9.62-24.45-.56-42.34-18.22-46.11-46.86a75.76,75.76,0,0,1-.57-10c-.53-21.37-.82-41.74,0-57.53,0-11.25,6.3-16.12,11.47-16.12,11.93,0,13.18,3.73,49.44,3.73,32.08,0,39.39-4.85,51.4-4.85,7.5,0,14.07,5.56,14.07,17.33,1.22,14.82.84,34.87,0,56.4a68.43,68.43,0,0,1-1.35,14.28C357.18,360.21,340.29,379,317,379.49Z" transform="translate(-150.5 -150)" fill="#331907"/><path d="M269.86,312.09c0,5.56-3.79,10.06-8.48,10.06s-8.49-4.5-8.49-10.06S256.7,302,261.38,302,269.86,306.52,269.86,312.09Z" transform="translate(-150.5 -150)" fill="#331907"/><path d="M344.91,312.09c0,5.56-3.8,10.06-8.49,10.06s-8.48-4.5-8.48-10.06,3.8-10.07,8.48-10.07S344.91,306.52,344.91,312.09Z" transform="translate(-150.5 -150)" fill="#331907"/><path d="M249.08,293.84a2.83,2.83,0,0,1-2.05-4.78c3.81-4,10.87-5.11,16.21-4.83,2.77.15,9.56.93,12.69,5a2.83,2.83,0,1,1-4.49,3.44c-.91-1.18-3.95-2.56-8.51-2.8-5.05-.27-9.79,1-11.8,3.08A2.82,2.82,0,0,1,249.08,293.84Z" transform="translate(-150.5 -150)" fill="#331907"/><path d="M292.94,344.31h-.21a2.73,2.73,0,0,1-2.62-2.85c.37-4.8.94-23.65.94-29.42a2.84,2.84,0,0,1,5.66,0c0,5.46-.55,24.47-.95,29.8A2.77,2.77,0,0,1,292.94,344.31Z" transform="translate(-150.5 -150)" fill="#bc835c"/><path d="M348.87,293.84a2.79,2.79,0,0,1-2.05-.88c-2.06-2.16-6.92-3.4-12.09-3.07-4.44.28-7.36,1.62-8.2,2.76a2.83,2.83,0,0,1-4.55-3.37c3-4,9.67-4.86,12.41-5,5.44-.34,12.65.75,16.52,4.82a2.82,2.82,0,0,1-2,4.78Z" transform="translate(-150.5 -150)" fill="#331907"/><path d="M275.5,357.15c9.46,19.25,44.28,12.48,46.68-.88Z" transform="translate(-150.5 -150)" fill="#fff"/><path d="M298,371.46h0c-11.49,0-20.46-4.83-24.61-13.27a2.36,2.36,0,0,1,2.07-3.4l46.68-.87a2.34,2.34,0,0,1,2.36,2.76C322.84,365.94,309.72,371.46,298,371.46Zm-18.25-12C285.1,366,294,366.75,298,366.75c9,0,17.47-3.47,20.64-8.05Z" transform="translate(-150.5 -150)" fill="#bc835c"/><path d="M330.75,356.2c-5.89-9.12-20.44-9.12-28.41-9.54-.76,0-2.92,0-3.68,0-8,.42-22.52.42-28.41,9.54s-1.64,19.35.19,23.66,12.83,10.61,10.94-3.79,2-17,18-17h2.28c15.94,0,19.37,3,18.28,17.47s9.55,7.58,11.14,3.18S336.65,365.31,330.75,356.2Z" transform="translate(-150.5 -150)" fill="#331907"/></svg>