<svg id="Layer_1" data-name="Layer 1" xmlns="http://www.w3.org/2000/svg" viewBox="0 0 300 300"><path d="M450.5,300a150,150,0,1,1-150-150A150,150,0,0,1,450.5,300Z" transform="translate(-150.5 -150)" fill="#dd6f8e"/><path d="M351.88,441a149.83,149.83,0,0,0,33.93-17.6L384,282.79c0-51.53-28.57-85.81-83.46-85.81-50.69,0-83.44,32.68-83.44,85.81l-1.86,140.56a149.36,149.36,0,0,0,36,18.33C266.62,447.07,335.86,446.8,351.88,441Z" transform="translate(-150.5 -150)" fill="#331907"/><path d="M359,232.55c-12.51-17.75-25.36-18.29-46.08-19.15H290.35c-20.72.86-33.57,1.4-46.08,19.15s-7.78,22.36-6.79,43.79c.75,16.18-8.92,4.83-2.23,49.84s45.79,59.46,66.36,59.46,56.73-12.07,66.37-59.46-3-33.66-2.24-49.84C366.72,254.91,371.47,250.31,359,232.55Z" transform="translate(-150.5 -150)" fill="#8e5f35"/><path d="M269.21,433.5c-3.68-3.68-10.53-2.61-16.47-2.24-.11.41-.24.86-.37,1.36l.89.3c-.57,2.18-1.28,5.15-2.08,8.74q6.85,2.38,14,4.12C266.57,446.11,272.62,436.91,269.21,433.5Z" transform="translate(-150.5 -150)" fill="#8e5f35"/><path d="M301.34,427.08c10.61-3.54,14.16-12.39,16.2-25a21.26,21.26,0,0,1-3.42-3.94c-.12.65-9.92.1-12.51.91-2.62-.82-12.26-.36-12.33-1,0,0-1.41,4.6-2.83,5.8C286.26,415.74,285.88,430.94,301.34,427.08Z" transform="translate(-150.5 -150)" fill="#8e5f35"/><path d="M351.89,441c-.68-3-1.28-5.5-1.78-7.47l.91-.25c-.22-.82-.42-1.54-.6-2.17-5.69-.35-17.59,1.71-19.52,6-1.17,2.62,6.47,8.34,6.66,8.29A149.58,149.58,0,0,0,351.89,441Z" transform="translate(-150.5 -150)" fill="#8e5f35"/><rect x="138.5" y="230.57" width="25.22" height="38.96" fill="#8e5f35"/><path d="M297.14,342.75h-.23a2.56,2.56,0,0,1-2.32-2.78c.35-3.9.89-19.16.89-23.83a2.57,2.57,0,1,1,5.13,0c0,4.44-.52,19.93-.91,24.29A2.57,2.57,0,0,1,297.14,342.75Z" transform="translate(-150.5 -150)" fill="#5f3a1b"/><path d="M273.84,314.38c0,6-4.08,10.81-9.11,10.81s-9.1-4.84-9.1-10.81,4.08-10.81,9.1-10.81S273.84,308.42,273.84,314.38Z" transform="translate(-150.5 -150)" fill="#331907"/><path d="M276.22,297.32a2.76,2.76,0,0,1-2.08-.93,11.35,11.35,0,0,0-8.51-3.61c-3.89-.07-7.93,1.41-10.09,3.68a2.78,2.78,0,0,1-4-3.83c3.26-3.43,8.73-5.48,14.21-5.4a16.86,16.86,0,0,1,12.58,5.48,2.78,2.78,0,0,1-2.08,4.61Z" transform="translate(-150.5 -150)" fill="#331907"/><path d="M329.26,297a2.77,2.77,0,0,1-2.19-4.49c2.35-3,6.76-5,11.53-5.19a16.48,16.48,0,0,1,13,5,2.79,2.79,0,0,1-.1,3.93,2.76,2.76,0,0,1-3.92-.1,11.1,11.1,0,0,0-8.68-3.27c-3.57.16-6.35,1.71-7.42,3.07A2.75,2.75,0,0,1,329.26,297Z" transform="translate(-150.5 -150)" fill="#331907"/><path d="M347.47,314.38c0,6-4.08,10.81-9.1,10.81s-9.11-4.84-9.11-10.81,4.08-10.81,9.11-10.81S347.47,308.41,347.47,314.38Z" transform="translate(-150.5 -150)" fill="#331907"/><path d="M282.11,420.44a1.43,1.43,0,0,1-.88-2.56l9.81-7.67a1.43,1.43,0,0,1,2,.25,1.41,1.41,0,0,1-.25,2L283,420.13A1.39,1.39,0,0,1,282.11,420.44Z" transform="translate(-150.5 -150)" fill="#b0adb2"/><path d="M321.47,420.44a1.45,1.45,0,0,1-.85-.29l-10.71-8.08a1.43,1.43,0,1,1,1.73-2.28l10.7,8.08a1.43,1.43,0,0,1-.87,2.57Z" transform="translate(-150.5 -150)" fill="#b0adb2"/><path d="M320.52,400.38" transform="translate(-150.5 -150)" fill="#3c313f"/><path d="M271.62,338c0,4.91-5.76,8.89-12.86,8.89s-12.86-4-12.86-8.89,5.76-8.88,12.86-8.88S271.62,333.06,271.62,338Z" transform="translate(-150.5 -150)" fill="#af6751" opacity="0.6"/><path d="M357.2,338c0,4.91-5.76,8.89-12.86,8.89s-12.86-4-12.86-8.89,5.76-8.88,12.86-8.88S357.2,333.06,357.2,338Z" transform="translate(-150.5 -150)" fill="#af6751" opacity="0.6"/><path d="M225.12,297.49S290,283.07,347.71,242.12c0,0,19.75,34,22.24,81.9,0,0,22.79-91-33.11-110.62S212.3,224,225.12,297.49Z" transform="translate(-150.5 -150)" fill="#331907"/><path d="M281.62,356c7.32,17.87,36.56,12.11,38.6-.17Z" transform="translate(-150.5 -150)" fill="#fff"/><path d="M300.46,369.49h0c-9.79,0-17.57-4.73-20.82-12.65a2.15,2.15,0,0,1,2-2.95l38.6-.17h0a2.14,2.14,0,0,1,1.62.75,2.12,2.12,0,0,1,.48,1.74C321,364.52,310.13,369.49,300.46,369.49Zm-15.29-11.34c4.3,6.32,11.91,7.07,15.29,7.07h0c7.27,0,14.12-3.11,16.67-7.21Z" transform="translate(-150.5 -150)" fill="#5f3a1b"/><path d="M351,433.24c-.37-1.41-.69-2.56-1-3.37-4.71-14.29-7.38-18.76-19.19-25,0-.06-16.92-7.54-17.06-6.9C310.53,412.52,301,425.1,301,425.1S291.4,410.76,289.28,398c-.11-.65-17.33,7.2-17.35,7.08-12.27,6.49-14.16,10.81-18.77,24.77-.22.69-.49,1.62-.79,2.75l.89.3c4.92,1.69,9.59,3.29,14.37,4.64-.09.21-.15.42-.24.63a36.1,36.1,0,0,0-2.22,7.59,150.65,150.65,0,0,0,34.54,4.2l.79,0c.88,0,1.75-.05,2.62-.07a150.24,150.24,0,0,0,34.44-4.55,34.91,34.91,0,0,0-1.64-5.8c4.6-2.22,9-4.71,14.19-6.09Z" transform="translate(-150.5 -150)" fill="#a3d685"/></svg>