<svg id="Layer_1" data-name="Layer 1" xmlns="http://www.w3.org/2000/svg" viewBox="0 0 300 300"><path d="M450.5,300a150,150,0,1,1-150-150A150,150,0,0,1,450.5,300Z" transform="translate(-150.5 -150)" fill="#9cceb4"/><path d="M390.45,382.14c0,42.44-30,61.34-72.41,61.34H283c-42.44,0-72.41-18.9-72.41-61.34l2.22-106c0-42.45,37-88,87.73-88h0c54.89,0,87.73,45.51,87.73,88Z" transform="translate(-150.5 -150)" fill="#3a1e0a"/><rect x="138.5" y="222.89" width="25.23" height="38.95" fill="#bc784a"/><path d="M350.05,421c-5.2-15.36-7.94-19.07-23.18-26.27L317,390.27v.08c-1.51-1.17-12.79,16-15.48,16.84-2.68-.82-14.2-17.84-15.85-16.75l0-.09-9.75,4.59C261,402,258.26,406,253.18,421c-1,2.95-2.76,10.42-4.79,19.7a149.52,149.52,0,0,0,20.57,6l2.5.52a151.08,151.08,0,0,0,24.89,2.73c1.38,0,2.76.1,4.15.1.6,0,1.2,0,1.8-.05,1.4,0,2.79-.05,4.18-.1a149.71,149.71,0,0,0,25.6-3.21c.7-.15,1.38-.32,2.07-.48a147.53,147.53,0,0,0,20.51-6.28C352.71,431,351,423.86,350.05,421Z" transform="translate(-150.5 -150)" fill="#dd6f8e"/><path d="M317,390.35c-1.51-1.17-2.78-2.26-2.78-2.26s-10.14,5.33-12.82,6.15c-2.68-.82-12.4-6.15-12.4-6.15s-1.68,1.26-3.33,2.35l.83,3.4,14,56.16c.6,0,1.2,0,1.8-.05l14.3-57.33Z" transform="translate(-150.5 -150)" fill="#fff"/><path d="M244.31,225.73c12.51-17.74,25.36-18.29,46.08-19.15h22.52c20.72.86,33.56,1.41,46.07,19.15s7.78,22.37,6.8,43.79c-.75,16.18,8.92,4.83,2.23,49.85s-45.79,59.45-66.36,59.45-56.73-12.07-66.37-59.45,3-33.67,2.24-49.85C236.53,248.1,231.79,243.49,244.31,225.73Z" transform="translate(-150.5 -150)" fill="#bc784a"/><path d="M297.15,336.12h-.24a2.55,2.55,0,0,1-2.32-2.78c.35-3.89.89-19.16.89-23.83a2.57,2.57,0,1,1,5.13,0c0,4.44-.52,19.94-.91,24.29A2.56,2.56,0,0,1,297.15,336.12Z" transform="translate(-150.5 -150)" fill="#8b5632"/><path d="M300.59,356.43c-7.38,0-15.94-1.81-20.62-7a2.56,2.56,0,0,1,3.8-3.44c3.38,3.74,11,5.8,19.46,5.22,6.51-.44,12-2.43,13.76-4.94a2.56,2.56,0,1,1,4.23,2.89c-2.68,3.92-9.27,6.59-17.64,7.17C302.62,356.39,301.61,356.43,300.59,356.43Z" transform="translate(-150.5 -150)" fill="#8b5632"/><path d="M273.84,307.75c0,6-4.08,10.81-9.1,10.81s-9.11-4.84-9.11-10.81,4.08-10.8,9.11-10.8S273.84,301.79,273.84,307.75Z" transform="translate(-150.5 -150)" fill="#3a1e0a"/><path d="M276.22,288.56a2.79,2.79,0,0,1-2.08-.94,11.42,11.42,0,0,0-8.51-3.61c-3.9-.06-7.94,1.42-10.09,3.68a2.77,2.77,0,1,1-4-3.82c3.25-3.43,8.7-5.5,14.2-5.41a16.88,16.88,0,0,1,12.58,5.48,2.77,2.77,0,0,1-.24,3.92A2.73,2.73,0,0,1,276.22,288.56Z" transform="translate(-150.5 -150)" fill="#3a1e0a"/><path d="M329.26,288.25a2.77,2.77,0,0,1-2.18-4.49c2.33-3,6.75-5,11.51-5.2a16.57,16.57,0,0,1,13,5,2.78,2.78,0,0,1-4,3.83,11.15,11.15,0,0,0-8.68-3.28c-3.57.17-6.34,1.72-7.41,3.08A2.78,2.78,0,0,1,329.26,288.25Z" transform="translate(-150.5 -150)" fill="#3a1e0a"/><path d="M347.47,307.75c0,6-4.08,10.81-9.1,10.81s-9.11-4.84-9.11-10.81,4.08-10.81,9.11-10.81S347.47,301.79,347.47,307.75Z" transform="translate(-150.5 -150)" fill="#3a1e0a"/><path d="M283.62,199.32c-17.13,3.9-29.57,10.48-39.93,24.63-5.23,7.13-5.24,8.19-.42,16.8,3.5,6.25,27.89,23.33,80.65,19.66a40,40,0,0,1,38.51,21.27c2.93,5.69,5.54,13,7.61,22.95,2.17,10.41,10.27-15,11.25-25,1.95-19.86-7.18-38.79-19-53.92C342.82,200.68,315.81,192,283.62,199.32Z" transform="translate(-150.5 -150)" fill="#3a1e0a"/><path d="M229.76,288.57c-5.79-13.85-5.45-53.15,12.79-59C247.73,237.32,237.31,284.64,229.76,288.57Z" transform="translate(-150.5 -150)" fill="#3a1e0a"/><path d="M291.17,405.76a1.2,1.2,0,0,1-.95-.45,1.23,1.23,0,0,1,.17-1.73l10.23-8.36a1.23,1.23,0,0,1,1.56,1.91l-10.24,8.36A1.23,1.23,0,0,1,291.17,405.76Z" transform="translate(-150.5 -150)" fill="#b0adb2"/><path d="M311.63,405.76a1.27,1.27,0,0,1-.78-.27l-10.23-8.36a1.23,1.23,0,0,1,1.56-1.91l10.23,8.36a1.23,1.23,0,0,1,.17,1.73A1.2,1.2,0,0,1,311.63,405.76Z" transform="translate(-150.5 -150)" fill="#b0adb2"/><path d="M271.62,331.34c0,4.91-5.76,8.88-12.86,8.88s-12.86-4-12.86-8.88,5.76-8.89,12.86-8.89S271.62,326.43,271.62,331.34Z" transform="translate(-150.5 -150)" fill="#c15a49" opacity="0.8"/><path d="M357.2,331.34c0,4.91-5.76,8.88-12.86,8.88s-12.86-4-12.86-8.88,5.76-8.89,12.86-8.89S357.2,326.43,357.2,331.34Z" transform="translate(-150.5 -150)" fill="#c15a49" opacity="0.8"/></svg>