<svg id="Layer_1" data-name="Layer 1" xmlns="http://www.w3.org/2000/svg" viewBox="0 0 300 300"><path d="M450.5,300a150,150,0,1,1-150-150A150,150,0,0,1,450.5,300Z" transform="translate(-150.5 -150)" fill="#87c6db"/><path d="M344.5,214.47l-.9.92.08.21a13.27,13.27,0,0,1-10.33,17.58h0l-.72,1.55a13.26,13.26,0,0,1-18.42,6.06l-1.75-1-2.87,2.6a13.28,13.28,0,0,1-18-.17l-2.74-2.59-1.66.86A13.27,13.27,0,0,1,268.91,234l-.65-1.51h0a13.27,13.27,0,0,1-10.78-17.28l0-.12-.64-.62a13.59,13.59,0,0,1,.8-20.16l.43-.36h0a13.59,13.59,0,0,1,12.16-16.5h.07l.3-.91a13.59,13.59,0,0,1,18.18-8.25l.91.38.9-.95a13.6,13.6,0,0,1,19.76,0l.89.95.92-.38a13.58,13.58,0,0,1,18.17,8.25l.3.91h.08A13.59,13.59,0,0,1,342.89,194h0l.64.53A13.58,13.58,0,0,1,344.5,214.47Z" transform="translate(-150.5 -150)" fill="#331907"/><path d="M249.57,307.55c1.27,10.23-4.62,19.37-13.16,20.43s-16.48-6.38-17.75-16.6S223.29,292,231.83,291,248.3,297.33,249.57,307.55Z" transform="translate(-150.5 -150)" fill="#8e5f35"/><path d="M351.43,307.55c-1.27,10.23,4.62,19.37,13.16,20.43s16.48-6.38,17.75-16.6S377.71,292,369.17,291,352.69,297.33,351.43,307.55Z" transform="translate(-150.5 -150)" fill="#8e5f35"/><path d="M354.43,421.16c-5.71-14.3-11.73-17.43-38.79-29.57-4.76-1.72-11.92.12-15.14,1.13-3.22-1-10.38-2.85-15.15-1.13-20.11,9-28.59,13.07-34,20.42C283,425.2,320.68,428.52,354.43,421.16Z" transform="translate(-150.5 -150)" fill="#8e5f35"/><path d="M358,225.15c-12.55-17.79-25.43-18.34-46.19-19.2H289.21c-20.77.86-33.64,1.41-46.18,19.2s-7.8,22.41-6.81,43.88c.75,16.23-8.95,4.85-2.24,50s45.9,59.6,66.52,59.6S358.25,366.2,367,319c8.86-47.65-3-33.74-2.24-50C365.77,247.56,370.52,243,358,225.15Z" transform="translate(-150.5 -150)" fill="#8e5f35"/><rect x="134.86" y="219.4" width="30.28" height="46.75" fill="#8e5f35"/><path d="M296,335.6h-.23a2.57,2.57,0,0,1-2.33-2.79c.35-3.9.89-19.2.89-23.88a2.58,2.58,0,0,1,5.15,0c0,4.44-.53,20-.92,24.34A2.57,2.57,0,0,1,296,335.6Z" transform="translate(-150.5 -150)" fill="#5f3a1b"/><path d="M299.47,356c-7.39,0-16-1.82-20.67-7a2.57,2.57,0,1,1,3.81-3.46c3.4,3.76,11.08,5.81,19.52,5.24,6.52-.45,12.06-2.44,13.78-5a2.57,2.57,0,0,1,4.24,2.9c-2.68,3.93-9.29,6.61-17.68,7.18C301.51,355.92,300.5,356,299.47,356Z" transform="translate(-150.5 -150)" fill="#5f3a1b"/><path d="M272.66,307.17c0,6-4.08,10.83-9.12,10.83s-9.13-4.85-9.13-10.83,4.09-10.83,9.13-10.83S272.66,301.19,272.66,307.17Z" transform="translate(-150.5 -150)" fill="#331907"/><path d="M275.05,287.93A2.77,2.77,0,0,1,273,287a11.42,11.42,0,0,0-8.54-3.61c-3.79-.06-7.95,1.41-10.11,3.68a2.78,2.78,0,1,1-4-3.83c3.26-3.44,8.72-5.48,14.23-5.42a17,17,0,0,1,12.61,5.49,2.78,2.78,0,0,1-.24,3.93A2.75,2.75,0,0,1,275.05,287.93Z" transform="translate(-150.5 -150)" fill="#331907"/><path d="M328.21,287.62a2.75,2.75,0,0,1-1.71-.59,2.78,2.78,0,0,1-.47-3.91c2.34-3,6.76-5,11.54-5.21a16.57,16.57,0,0,1,13,5,2.78,2.78,0,0,1-4,3.84,11.14,11.14,0,0,0-8.69-3.29c-3.58.17-6.36,1.72-7.44,3.08A2.73,2.73,0,0,1,328.21,287.62Z" transform="translate(-150.5 -150)" fill="#331907"/><path d="M346.47,307.17c0,6-4.09,10.83-9.13,10.83s-9.12-4.85-9.12-10.83,4.08-10.84,9.12-10.84S346.47,301.18,346.47,307.17Z" transform="translate(-150.5 -150)" fill="#331907"/><path d="M270.43,330.81c0,4.92-5.76,8.9-12.88,8.9s-12.89-4-12.89-8.9,5.77-8.9,12.89-8.9S270.43,325.89,270.43,330.81Z" transform="translate(-150.5 -150)" fill="#af6751" opacity="0.6"/><path d="M356.22,330.81c0,4.92-5.77,8.9-12.89,8.9s-12.89-4-12.89-8.9,5.77-8.9,12.89-8.9S356.22,325.89,356.22,330.81Z" transform="translate(-150.5 -150)" fill="#af6751" opacity="0.6"/><path d="M255,210.62c19.82-13.29,50.61-14.59,73.42-7.07,12.45,4.11,42.61,15,45.89,56,4.34,29.77-6,48.34-6,48.34S374,238.2,299.67,238.2s-66.18,73.54-66.18,73.54-6.79-10.42-7.79-27.93v0C221.9,264.24,222.79,232.24,255,210.62Z" transform="translate(-150.5 -150)" fill="#331907"/><path d="M358.64,429.63c-6.93-20.95-10.14-24.26-34.38-35.37a1.14,1.14,0,0,0-1,0,1.41,1.41,0,0,0-.57.84c-5.53,15.62-37.3,16.34-43-.4l-.05-.24a1.12,1.12,0,0,0-1.57-.83c-25.39,11.58-28.73,14.94-35.68,36-.53,1.6-1.24,4.3-2.07,7.76a150,150,0,0,0,120.42,0C359.88,433.93,359.17,431.23,358.64,429.63Z" transform="translate(-150.5 -150)" fill="#fff"/><path d="M242.89,344.92a10.49,10.49,0,0,1-8.78,5.26c-6,0-10.91-5.79-10.91-12.9s4.89-12.89,10.91-12.89a2.14,2.14,0,0,0,0-4.28c-8.38,0-15.19,7.7-15.19,17.17s6.81,17.18,15.19,17.18a14.43,14.43,0,0,0,11.21-5.61C244.47,347.59,243.67,346.27,242.89,344.92Z" transform="translate(-150.5 -150)" fill="#ffed4a"/><path d="M358.11,344.92a10.49,10.49,0,0,0,8.78,5.26c6,0,10.91-5.79,10.91-12.9s-4.89-12.89-10.91-12.89a2.14,2.14,0,0,1,0-4.28c8.38,0,15.19,7.7,15.19,17.17s-6.81,17.18-15.19,17.18a14.43,14.43,0,0,1-11.21-5.61C356.53,347.59,357.33,346.27,358.11,344.92Z" transform="translate(-150.5 -150)" fill="#ffed4a"/></svg>