<svg id="Layer_1" data-name="Layer 1" xmlns="http://www.w3.org/2000/svg" viewBox="0 0 300 300"><path d="M450.5,300a150,150,0,1,1-150-150A150,150,0,0,1,450.5,300Z" transform="translate(-150.5 -150)" fill="#facb4c"/><path d="M249.57,307.55c1.27,10.23-4.62,19.37-13.16,20.43s-16.48-6.38-17.75-16.6S223.29,292,231.83,291,248.3,297.33,249.57,307.55Z" transform="translate(-150.5 -150)" fill="#bc784a"/><path d="M351.43,307.55c-1.27,10.23,4.62,19.37,13.16,20.43s16.48-6.38,17.75-16.6S377.71,292,369.17,291,352.69,297.33,351.43,307.55Z" transform="translate(-150.5 -150)" fill="#bc784a"/><path d="M354.43,421.16c-5.71-14.3-11.73-17.43-38.79-29.57-4.76-1.72-11.92.12-15.14,1.13-3.22-1-10.38-2.85-15.15-1.13-20.11,9-28.59,13.07-34,20.42C283,425.2,320.68,428.52,354.43,421.16Z" transform="translate(-150.5 -150)" fill="#bc784a"/><path d="M358,225.15c-12.55-17.79-25.43-18.34-46.19-19.2H289.21c-20.77.86-33.64,1.41-46.18,19.2s-7.8,22.41-6.81,43.88c.75,16.23-8.95,4.85-2.24,50s45.9,59.6,66.52,59.6S358.25,366.2,367,319c8.86-47.65-3-33.74-2.24-50C365.77,247.56,370.52,243,358,225.15Z" transform="translate(-150.5 -150)" fill="#bc784a"/><rect x="134.86" y="219.4" width="30.28" height="46.75" fill="#bc784a"/><path d="M296,335.6h-.23a2.57,2.57,0,0,1-2.33-2.79c.35-3.9.89-19.2.89-23.88a2.58,2.58,0,0,1,5.15,0c0,4.44-.53,20-.92,24.34A2.57,2.57,0,0,1,296,335.6Z" transform="translate(-150.5 -150)" fill="#8b5632"/><path d="M272.66,307.17c0,6-4.08,10.83-9.12,10.83s-9.13-4.85-9.13-10.83,4.09-10.83,9.13-10.83S272.66,301.19,272.66,307.17Z" transform="translate(-150.5 -150)" fill="#3a1e0a"/><path d="M275.05,287.93A2.77,2.77,0,0,1,273,287a11.42,11.42,0,0,0-8.54-3.61c-3.79-.06-7.95,1.41-10.11,3.68a2.78,2.78,0,1,1-4-3.83c3.26-3.44,8.72-5.48,14.23-5.42a17,17,0,0,1,12.61,5.49,2.78,2.78,0,0,1-.24,3.93A2.75,2.75,0,0,1,275.05,287.93Z" transform="translate(-150.5 -150)" fill="#3a1e0a"/><path d="M328.21,287.62a2.75,2.75,0,0,1-1.71-.59,2.78,2.78,0,0,1-.47-3.91c2.34-3,6.76-5,11.54-5.21a16.57,16.57,0,0,1,13,5,2.78,2.78,0,0,1-4,3.84,11.14,11.14,0,0,0-8.69-3.29c-3.58.17-6.36,1.72-7.44,3.08A2.73,2.73,0,0,1,328.21,287.62Z" transform="translate(-150.5 -150)" fill="#3a1e0a"/><path d="M346.47,307.17c0,6-4.09,10.83-9.13,10.83s-9.12-4.85-9.12-10.83,4.08-10.84,9.12-10.84S346.47,301.18,346.47,307.17Z" transform="translate(-150.5 -150)" fill="#3a1e0a"/><path d="M270.43,330.81c0,4.92-5.76,8.9-12.88,8.9s-12.89-4-12.89-8.9,5.77-8.9,12.89-8.9S270.43,325.89,270.43,330.81Z" transform="translate(-150.5 -150)" fill="#c15a49" opacity="0.8"/><path d="M356.22,330.81c0,4.92-5.77,8.9-12.89,8.9s-12.89-4-12.89-8.9,5.77-8.9,12.89-8.9S356.22,325.89,356.22,330.81Z" transform="translate(-150.5 -150)" fill="#c15a49" opacity="0.8"/><path d="M256.67,208.37c20.49-13.59,50-14.94,73.6-7.24,12.89,4.2,44.08,15.33,47.47,57.23,4.49,30.44-6.24,49.42-6.24,49.42s-1.55-27.32-55.3-42.31c-35.23-9.82-47.06-20.93-47.06-20.93s-3.82,15.15-18.84,30.76c-20,20.81-18.21,36.44-18.21,36.44s-7-10.65-8.05-28.56v0C220.11,263.17,223.34,230.47,256.67,208.37Z" transform="translate(-150.5 -150)" fill="#492309"/><path d="M345.55,198.57c0,24.51-18.33,28.56-40.94,28.56s-40.93-6.08-40.93-28.56C263.68,182.8,282,170,304.61,170S345.55,182.8,345.55,198.57Z" transform="translate(-150.5 -150)" fill="#492309"/><path d="M358.64,429.63c-6.93-20.95-10.14-24.26-34.38-35.37a1.14,1.14,0,0,0-1,0,1.41,1.41,0,0,0-.57.84c-2.77,7.81-21.44,26.54-21.44,26.54s-18.72-18.57-21.57-26.94l-.05-.24a1.12,1.12,0,0,0-1.57-.83c-25.39,11.58-28.73,14.94-35.68,36-.53,1.6-1.24,4.3-2.07,7.76a150,150,0,0,0,120.42,0C359.88,433.93,359.17,431.23,358.64,429.63Z" transform="translate(-150.5 -150)" fill="#3c313f"/><path d="M279.9,345.78c7.33,17.87,36.57,12.11,38.6-.17Z" transform="translate(-150.5 -150)" fill="#fff"/><path d="M298.75,359.25h0c-9.78,0-17.56-4.74-20.81-12.66a2.14,2.14,0,0,1,2-2.95l38.59-.17h0a2.17,2.17,0,0,1,1.63.75,2.19,2.19,0,0,1,.48,1.74C319.23,354.28,308.41,359.25,298.75,359.25Zm-15.3-11.35c4.31,6.32,11.92,7.07,15.29,7.07h0c7.27,0,14.12-3.11,16.67-7.21Z" transform="translate(-150.5 -150)" fill="#8b5632"/></svg>