<svg id="Layer_1" data-name="Layer 1" xmlns="http://www.w3.org/2000/svg" viewBox="0 0 300 300"><path d="M450.5,300a150,150,0,1,1-150-150A150,150,0,0,1,450.5,300Z" transform="translate(-150.5 -149.99)" fill="#b3365e"/><path d="M351.88,440.94a149.79,149.79,0,0,0,33.93-17.59L384,282.79c0-51.53-28.57-85.82-83.46-85.82-50.69,0-83.44,32.68-83.44,85.82l-1.86,140.55a149.36,149.36,0,0,0,36,18.33C266.62,447.06,335.86,446.79,351.88,440.94Z" transform="translate(-150.5 -149.99)" fill="#331907"/><path d="M359,232.54c-12.51-17.74-25.36-18.29-46.08-19.15H290.35c-20.72.86-33.57,1.41-46.08,19.15s-7.78,22.36-6.79,43.79c.75,16.18-8.92,4.83-2.23,49.85s45.79,59.45,66.36,59.45,56.73-12.07,66.37-59.45-3-33.67-2.24-49.85C366.72,254.9,371.47,250.3,359,232.54Z" transform="translate(-150.5 -149.99)" fill="#f7bf7c"/><path d="M350.06,429.86c-4.71-14.29-7.38-18.76-19.19-25,0-.07-10.93-5.29-11.2-5.12a1,1,0,0,0-.32.38c-2.25-1.56-5.13-4.09-5.13-4.09-.12.65-10,2.15-12.61,3-2.62-.82-12.55-2.32-12.61-3a39.75,39.75,0,0,1-5.45,4.46c0-.3-.05-.18-.31-.34s-11.29,5-11.31,4.92c-12.27,6.48-14.16,10.8-18.77,24.76a51,51,0,0,0-2,11.79q6.85,2.39,14,4.12a150.65,150.65,0,0,0,34.54,4.2l.79,0c.88,0,1.75-.05,2.62-.06a150.24,150.24,0,0,0,34.44-4.56A146.79,146.79,0,0,0,351.89,441,40.73,40.73,0,0,0,350.06,429.86Z" transform="translate(-150.5 -149.99)" fill="#87c6db"/><rect x="138.5" y="230.57" width="25.22" height="38.96" fill="#f7bf7c"/><path d="M297.14,342.74h-.23a2.56,2.56,0,0,1-2.32-2.78c.35-3.89.89-19.16.89-23.83a2.57,2.57,0,0,1,5.13,0c0,4.44-.52,19.93-.91,24.29A2.57,2.57,0,0,1,297.14,342.74Z" transform="translate(-150.5 -149.99)" fill="#c68659"/><path d="M320.52,400.37" transform="translate(-150.5 -149.99)" fill="#3c313f"/><path d="M271.62,334.09c0,4.91-5.76,8.88-12.86,8.88s-12.86-4-12.86-8.88,5.76-8.88,12.86-8.88S271.62,329.18,271.62,334.09Z" transform="translate(-150.5 -149.99)" fill="#ef9d75" opacity="0.7"/><path d="M357.2,334.09c0,4.91-5.76,8.88-12.86,8.88s-12.86-4-12.86-8.88,5.76-8.88,12.86-8.88S357.2,329.18,357.2,334.09Z" transform="translate(-150.5 -149.99)" fill="#ef9d75" opacity="0.7"/><path d="M225.12,297.48S290,283.07,347.71,242.12c0,0,19.75,33.95,22.24,81.89,0,0,22.79-91-33.11-110.62S212.3,224,225.12,297.48Z" transform="translate(-150.5 -149.99)" fill="#331907"/><path d="M281.62,356c7.32,17.87,36.56,12.11,38.6-.17Z" transform="translate(-150.5 -149.99)" fill="#fff"/><path d="M300.46,369.49h0c-9.79,0-17.57-4.74-20.82-12.66a2.15,2.15,0,0,1,2-2.95l38.6-.17h0a2.12,2.12,0,0,1,1.62.76,2.09,2.09,0,0,1,.48,1.73C321,364.52,310.13,369.49,300.46,369.49Zm-15.29-11.35c4.3,6.32,11.91,7.07,15.29,7.07h0c7.27,0,14.12-3.11,16.67-7.21Z" transform="translate(-150.5 -149.99)" fill="#c68659"/><path d="M319.25,400.57a.87.87,0,0,1,.1-.42c-2.25-1.56-5.13-4.09-5.13-4.09-.12.65-.27,1.28-.41,1.92-.08.35-.16.7-.25,1-3.19,12.89-21.9,12.44-24.21-.63,0-.13-.05-.26-.07-.39-.11-.65-.22-1.3-.28-1.95a39.75,39.75,0,0,1-5.45,4.46.43.43,0,0,0,0,.05c0,.36-.23,24.54,16.15,49.4h0c1.15,0,2.27,0,3.4-.05C319.47,425.08,319.25,400.93,319.25,400.57Z" transform="translate(-150.5 -149.99)" fill="#fff"/><path d="M253.5,299.88a2.88,2.88,0,0,1-1.13-5.54c9.41-4,20-4,26.34,0a2.88,2.88,0,0,1,.9,4C278.77,299.66,253.88,299.88,253.5,299.88Z" transform="translate(-150.5 -149.99)" fill="#331907"/><path d="M325.07,301a2.89,2.89,0,0,1-1.67-5.25c5-3.53,20.63-4.63,27-.87a2.9,2.9,0,0,1,1,4C350.64,300.23,325.64,301,325.07,301Z" transform="translate(-150.5 -149.99)" fill="#331907"/><path d="M277,319a2.81,2.81,0,0,1-1.67-.55c-6-4.3-13.85-5-22.11-1.86a2.88,2.88,0,1,1-2-5.4c10.13-3.8,19.89-2.88,27.5,2.57A2.89,2.89,0,0,1,277,319Z" transform="translate(-150.5 -149.99)" fill="#331907"/><path d="M324.61,319a2.89,2.89,0,0,1-1.68-5.24c7.61-5.45,17.38-6.37,27.5-2.57a2.88,2.88,0,1,1-2,5.4c-8.27-3.1-16.12-2.44-22.11,1.86A2.84,2.84,0,0,1,324.61,319Z" transform="translate(-150.5 -149.99)" fill="#331907"/></svg>