<svg id="Layer_1" data-name="Layer 1" xmlns="http://www.w3.org/2000/svg" viewBox="0 0 300 300"><path d="M450.5,300a150,150,0,1,1-150-150A150,150,0,0,1,450.5,300Z" transform="translate(-150.5 -149.99)" fill="#ec6f46"/><path d="M351.88,440.94a149.79,149.79,0,0,0,33.93-17.59L384,282.79c0-51.53-28.57-85.82-83.46-85.82-50.69,0-83.44,32.68-83.44,85.82l-1.86,140.55a149.36,149.36,0,0,0,36,18.33C266.62,447.06,335.86,446.79,351.88,440.94Z" transform="translate(-150.5 -149.99)" fill="#3a1e0a"/><path d="M359,232.54c-12.51-17.74-25.36-18.29-46.08-19.15H290.35c-20.72.86-33.57,1.41-46.08,19.15s-12.12,43.79-12.12,43.79-3.59,4.83,3.1,49.85,45.79,59.45,66.36,59.45,58.51-11.74,66.37-59.45c6.44-39.14,3.09-49.85,3.09-49.85S371.47,250.3,359,232.54Z" transform="translate(-150.5 -149.99)" fill="#f4cd98"/><path d="M350.06,429.86c-4.71-14.29-7.38-18.76-19.19-25,0-.07-10.93-5.29-11.2-5.12a1,1,0,0,0-.32.38c-2.25-1.56-5.13-4.09-5.13-4.09-.12.65-10,2.15-12.61,3-2.62-.82-12.55-2.32-12.61-3a39.75,39.75,0,0,1-5.45,4.46c0-.3-.05-.18-.31-.34s-11.29,5-11.31,4.92c-12.27,6.48-14.16,10.8-18.77,24.76a51,51,0,0,0-2,11.79q6.85,2.39,14,4.12a150.65,150.65,0,0,0,34.54,4.2l.79,0c.88,0,1.75-.05,2.62-.06a150.24,150.24,0,0,0,34.44-4.56A146.79,146.79,0,0,0,351.89,441,40.73,40.73,0,0,0,350.06,429.86Z" transform="translate(-150.5 -149.99)" fill="#c63b21"/><rect x="138.5" y="230.57" width="25.22" height="38.96" fill="#f4cd98"/><path d="M297.14,342.74h-.23a2.56,2.56,0,0,1-2.32-2.78c.35-3.89.89-19.16.89-23.83a2.57,2.57,0,0,1,5.13,0c0,4.44-.52,19.93-.91,24.29A2.57,2.57,0,0,1,297.14,342.74Z" transform="translate(-150.5 -149.99)" fill="#c68659"/><path d="M320.52,400.37" transform="translate(-150.5 -149.99)" fill="#3c313f"/><path d="M271.62,334.09c0,4.91-5.76,8.88-12.86,8.88s-12.86-4-12.86-8.88,5.76-8.88,12.86-8.88S271.62,329.18,271.62,334.09Z" transform="translate(-150.5 -149.99)" fill="#f2ba94"/><path d="M357.2,334.09c0,4.91-5.76,8.88-12.86,8.88s-12.86-4-12.86-8.88,5.76-8.88,12.86-8.88S357.2,329.18,357.2,334.09Z" transform="translate(-150.5 -149.99)" fill="#f2ba94"/><path d="M319.25,400.57a.87.87,0,0,1,.1-.42c-2.25-1.56-5.13-4.09-5.13-4.09-.12.65-.27,1.28-.41,1.92-.08.35-.16.7-.25,1-3.19,12.89-21.9,12.44-24.21-.63,0-.13-.05-.26-.07-.39-.11-.65-.22-1.3-.28-1.95a39.75,39.75,0,0,1-5.45,4.46.43.43,0,0,0,0,.05c0,.36-.23,24.54,16.15,49.4h0c1.15,0,2.27,0,3.4-.05C319.47,425.08,319.25,400.93,319.25,400.57Z" transform="translate(-150.5 -149.99)" fill="#c63b21"/><path d="M360.61,288.15a1043.58,1043.58,0,0,0-117.73,0c-7.87-.14-10.77-1-11.47-11.6l.43-37.59c28.18-49.18,117.43-46.42,139,2.21l1.24,35.11C371.79,287.59,369.72,288,360.61,288.15Z" transform="translate(-150.5 -149.99)" fill="#3a1e0a"/><path d="M253,299.1a2.78,2.78,0,0,1-1.09-5.34c9.08-3.86,19.28-3.86,25.4,0a2.78,2.78,0,0,1-3,4.71c-3.74-2.35-11.68-3.22-20.26.42A2.76,2.76,0,0,1,253,299.1Z" transform="translate(-150.5 -149.99)" fill="#3a1e0a"/><path d="M324.67,299.13a2.78,2.78,0,0,1-1.6-5.05c4.81-3.4,19.9-4.46,26.05-.83A2.78,2.78,0,1,1,346.3,298c-4.21-2.48-16.73-1.74-20,.58A2.75,2.75,0,0,1,324.67,299.13Z" transform="translate(-150.5 -149.99)" fill="#3a1e0a"/><path d="M277.21,318.43a2.78,2.78,0,0,1-1.62-.53c-5.79-4.15-13.35-4.79-21.31-1.8a2.78,2.78,0,1,1-2-5.21c9.75-3.66,19.17-2.78,26.51,2.49a2.79,2.79,0,0,1-1.62,5.05Z" transform="translate(-150.5 -149.99)" fill="#3a1e0a"/><path d="M323.41,318.43a2.79,2.79,0,0,1-1.63-5.05c7.34-5.26,16.75-6.15,26.52-2.49a2.78,2.78,0,1,1-2,5.21c-8-3-15.53-2.35-21.31,1.8A2.8,2.8,0,0,1,323.41,318.43Z" transform="translate(-150.5 -149.99)" fill="#3a1e0a"/><path d="M371.32,306.62H230.44a2.78,2.78,0,1,1,0-5.55H371.32a2.78,2.78,0,1,1,0,5.55Z" transform="translate(-150.5 -149.99)" fill="#3a1e0a"/><path d="M273.24,333.14c-6.16,0-13.42-.22-18.47-.37-2.39-.07-4.18-.12-4.94-.12-2.28,0-5.59-.28-7.91-2.63-3.16-3.2-3.1-8.54-3-17.39,0-1.83,0-3.85,0-6a2.78,2.78,0,1,1,5.56,0c0,2.21,0,4.24,0,6.1-.09,6.89-.16,11.87,1.38,13.42.23.24,1,1,4,1,.78,0,2.64.06,5.11.13,7.14.21,20.43.61,26.33.15,3.93-.3,4.36-.86,4.29-16.51,0-1.54,0-3.19,0-5a2.78,2.78,0,1,1,5.55,0c0,1.77,0,3.42,0,4.95.07,14.64.1,21.33-9.4,22.07C279.54,333.08,276.55,333.14,273.24,333.14Z" transform="translate(-150.5 -149.99)" fill="#3a1e0a"/><path d="M329.69,333.92a73.34,73.34,0,0,1-9.52-.41c-10.88-1.8-10.77-8.53-10.58-20.74,0-2.06.08-4.34.08-6.88a2.78,2.78,0,1,1,5.55,0c0,2.57,0,4.89-.07,7-.22,13.23.17,14.22,5.93,15.17,3.73.61,17.44.24,24,.06,2.15,0,3.77-.1,4.48-.1,4.69,0,5.18-.78,5.7-2.27,1-2.94,1-9,1-19.08l2.78,0,2.78,0c0,11,0,17.08-1.35,20.92-1.94,5.52-6.66,6-10.94,6-.69,0-2.25,0-4.33.11C340,333.79,334.36,333.92,329.69,333.92Z" transform="translate(-150.5 -149.99)" fill="#3a1e0a"/><path d="M301.14,365.22c-7-.26-14.88-2.39-19.34-7.15a2.7,2.7,0,1,1,3.94-3.7c3.73,4,12.28,6.2,20.35,5.29,5.39-.61,9.55-2.58,11.11-5.27a2.7,2.7,0,0,1,4.67,2.73c-2.5,4.28-7.89,7.09-15.18,7.91A38.52,38.52,0,0,1,301.14,365.22Z" transform="translate(-150.5 -149.99)" fill="#c68659"/></svg>