<svg id="Layer_1" data-name="Layer 1" xmlns="http://www.w3.org/2000/svg" viewBox="0 0 300 300"><path d="M450.5,300a150,150,0,1,1-150-150A150,150,0,0,1,450.5,300Z" transform="translate(-150.5 -150)" fill="#9b6b4b"/><path d="M394.38,336.75c3.89,53.95-64.53,65-93.88,65-32.54,0-99.51-8.29-93.88-65,.66-6.64,6.24-18.44,6.24-42.79,0-48.56,21.35-95.85,87.64-95.85,71.77,0,87.63,47,87.63,95.31C388.13,318.31,393.89,329.93,394.38,336.75Z" transform="translate(-150.5 -150)" fill="#331907"/><path d="M229.61,282.66c.83,16.64-1.23,23.21,2.67,45.84,7.94,46.08,46.76,59,67.76,59s60.66-12.78,67.78-59c3-19.15,2.31-29.2,3.13-45.84l.18-11.6h0c-2.42,9.67-7.12,11.6-16.95,11.6H246.84c-9.64,0-14.63-2.48-16.66-11.2l-.6-.82Z" transform="translate(-150.5 -150)" fill="#f4cd98"/><path d="M268.05,442.69c.68-2.82,1.37-5.59,2.08-8.29A11.58,11.58,0,0,0,268.05,442.69Z" transform="translate(-150.5 -150)" fill="#fc9"/><path d="M330,434.4c.7,2.7,1.39,5.47,2.07,8.29A11.55,11.55,0,0,0,330,434.4Z" transform="translate(-150.5 -150)" fill="#fc9"/><rect x="133.5" y="227.94" width="32.12" height="51.85" fill="#f4cd98"/><path d="M295.6,342.44h-.23a2.57,2.57,0,0,1-2.33-2.79c.35-3.89.89-19.16.89-23.82a2.57,2.57,0,1,1,5.13,0c0,4.43-.52,19.93-.91,24.28A2.57,2.57,0,0,1,295.6,342.44Z" transform="translate(-150.5 -150)" fill="#c68e75"/><path d="M268.05,442.69c.68-2.82,1.37-5.59,2.08-8.29A11.58,11.58,0,0,0,268.05,442.69Z" transform="translate(-150.5 -150)" fill="#fc9"/><path d="M330,434.4c.7,2.7,1.39,5.47,2.07,8.29A11.55,11.55,0,0,0,330,434.4Z" transform="translate(-150.5 -150)" fill="#fc9"/><path d="M281.45,353.83c3.51,19.06,33.71,15.15,35.25,0Z" transform="translate(-150.5 -150)" fill="#fff"/><path d="M298.43,368.66h0c-7.94,0-17.12-3.81-19.08-14.5a1.84,1.84,0,0,1,.47-1.59,2.24,2.24,0,0,1,1.63-.69H316.7a2.2,2.2,0,0,1,1.58.64,1.81,1.81,0,0,1,.55,1.49C317.87,363.52,307.6,368.66,298.43,368.66Zm-14.28-12.87c2.85,8.27,11.51,9,14.28,9,6.53,0,13.74-3.13,15.69-9Z" transform="translate(-150.5 -150)" fill="#c68e75"/><path d="M348.32,428.84c-5.77-17-11.64-22.67-31.83-31.71-.27-.12-9.4,12.71-9.4,12.71L300,421.15l-7-10.62s-9.06-13.77-9.26-13.68c-21.16,9.42-26.49,14.88-32.29,32-.7,2.06-1.77,6.35-3,11.9a149.57,149.57,0,0,0,50,9.21c.64,0,1.27.05,1.92.05l.79,0a149.77,149.77,0,0,0,50.27-8.91C350.14,435.35,349,430.94,348.32,428.84Z" transform="translate(-150.5 -150)" fill="#fff"/><path d="M321.56,400.55a1.55,1.55,0,0,0-1.75-1.16,1.4,1.4,0,0,0-1.33,1.52l2.07,13.34-11.94-4.95a2.16,2.16,0,0,0-2.64.81l-6.27,9.61-5.8-9.25a2.17,2.17,0,0,0-2.61-.86L279,414.34,281,400.91a1.39,1.39,0,0,0-1.33-1.52,1.54,1.54,0,0,0-1.74,1.16l-2.83,18.21,16.46-6.31,6.71,10.69s.05,0,.07.07a1.52,1.52,0,0,0,.46.41,1.57,1.57,0,0,0,.28.1,1.9,1.9,0,0,0,.56.13h0a1.61,1.61,0,0,0,.74-.17h0l.1-.07a1.45,1.45,0,0,0,.43-.38l.08-.06,7.19-11,16.18,6.7Z" transform="translate(-150.5 -150)" fill="#b0adb2"/><path d="M272,315.32c0,5.56-4.77,10.07-10.64,10.07s-10.64-4.51-10.64-10.07,4.77-10.07,10.64-10.07S272,309.76,272,315.32Z" transform="translate(-150.5 -150)" fill="#3a1e0a"/><path d="M277.89,328.14c-.71,5.51-9.18,9-18.92,7.72s-17.08-6.73-16.37-12.25,9.19-9,18.93-7.72S278.6,322.62,277.89,328.14Z" transform="translate(-150.5 -150)" fill="#f4cd98"/><path d="M329.41,315.32A10.36,10.36,0,0,0,340,325.39c5.88,0,10.64-4.51,10.64-10.07s-4.76-10.07-10.64-10.07A10.36,10.36,0,0,0,329.41,315.32Z" transform="translate(-150.5 -150)" fill="#3a1e0a"/><path d="M323.54,328.14c.71,5.51,9.18,9,18.93,7.72s17.07-6.73,16.36-12.25-9.18-9-18.93-7.72S322.84,322.62,323.54,328.14Z" transform="translate(-150.5 -150)" fill="#f4cd98"/><path d="M250.55,299a2.83,2.83,0,0,1-2.05-4.77c4.85-5.12,19.05-8.27,27.39-2.52a2.83,2.83,0,0,1-3.21,4.66c-6.09-4.21-17.05-1.44-20.08,1.75A2.86,2.86,0,0,1,250.55,299Z" transform="translate(-150.5 -150)" fill="#3a1e0a"/><path d="M352,299.22a2.84,2.84,0,0,1-2.05-.88c-4.33-4.55-14.66-4.42-20.85.25a2.83,2.83,0,1,1-3.41-4.51c8.53-6.44,22-6.27,28.36.36a2.83,2.83,0,0,1-2,4.78Z" transform="translate(-150.5 -150)" fill="#3a1e0a"/><path d="M272.21,331.78c0,4.91-5.75,8.89-12.86,8.89s-12.85-4-12.85-8.89,5.75-8.89,12.85-8.89S272.21,326.88,272.21,331.78Z" transform="translate(-150.5 -150)" fill="#f2ba94"/><path d="M355.65,331.78c0,4.91-5.76,8.89-12.86,8.89s-12.85-4-12.85-8.89,5.75-8.89,12.85-8.89S355.65,326.88,355.65,331.78Z" transform="translate(-150.5 -150)" fill="#f2ba94"/></svg>