<svg id="Layer_1" data-name="Layer 1" xmlns="http://www.w3.org/2000/svg" viewBox="0 0 300 300"><path d="M450.5,300a150,150,0,1,1-150-150A150,150,0,0,1,450.5,300Z" transform="translate(-150.5 -150)" fill="#2d7e9e"/><rect x="135.87" y="230.75" width="30.28" height="46.75" fill="#eaae78"/><path d="M358.58,436.89c-6.24-17.94-9.47-22.27-27.77-30.67l-14.16-5.62s-2.25,7.18-15.14,7.18c-12.44,0-15.14-7.18-15.14-7.18l-16.73,5.88c-17.81,8.27-21.13,12.89-27.22,30.41-.13.36-.27.8-.41,1.27a149.41,149.41,0,0,0,32.25,9.51,151.28,151.28,0,0,0,19.54,2.16c2.22.1,4.45.17,6.7.17,2.07,0,4.13-.08,6.18-.16a151.45,151.45,0,0,0,19.54-2.08,149.13,149.13,0,0,0,32.77-9.6C358.85,437.69,358.71,437.25,358.58,436.89Z" transform="translate(-150.5 -150)" fill="#abe7f4"/><path d="M350.65,336.5c10.31,3.13,19,14.23,19.23,37.44.33,37.5-28.35,45.66-26.8,56.28,0,0-6.35-.09-14.22-6.25-14.38-11.25-26.61-35.16-1-67.77S340.34,333.37,350.65,336.5Z" transform="translate(-150.5 -150)" fill="#331907"/><path d="M249.57,318.47c1.27,10.23-4.62,19.37-13.16,20.43s-16.48-6.37-17.75-16.6,4.63-19.36,13.17-20.42S248.31,308.25,249.57,318.47Z" transform="translate(-150.5 -150)" fill="#eaae78"/><path d="M351.43,318.47c-1.27,10.23,4.62,19.37,13.16,20.43s16.48-6.37,17.75-16.6-4.63-19.36-13.17-20.42S352.69,308.25,351.43,318.47Z" transform="translate(-150.5 -150)" fill="#eaae78"/><path d="M358,236.07c-12.55-17.79-25.43-18.34-46.19-19.2H289.22c-20.77.86-33.65,1.41-46.19,19.2s-7.8,22.41-6.81,43.89c.75,16.22-8.95,4.84-2.24,50s45.9,59.6,66.52,59.6,56.87-12.1,66.52-59.6-3-33.74-2.24-50C365.77,258.48,370.52,253.87,358,236.07Z" transform="translate(-150.5 -150)" fill="#eaae78"/><path d="M256.11,212.67c20.5-13.6,50-14.95,73.61-7.25,12.88,4.2,44.07,15.34,47.46,57.23,4.49,30.44-6.23,49.42-6.23,49.42s-1.55-27.32-55.31-42.31c-35.22-9.82-47.06-20.93-47.06-20.93S264.77,264,249.74,279.6c-20,20.8-18.2,36.43-18.2,36.43s-7-10.65-8-28.55v0C219.55,267.46,222.79,234.77,256.11,212.67Z" transform="translate(-150.5 -150)" fill="#331907"/><path d="M296.28,348.29h-.23a2.57,2.57,0,0,1-2.33-2.79c.35-3.89.89-19.16.89-23.82a2.57,2.57,0,1,1,5.13,0c0,4.43-.52,19.92-.91,24.28A2.57,2.57,0,0,1,296.28,348.29Z" transform="translate(-150.5 -150)" fill="#c68659"/><path d="M330.25,334.94c0,4.9,5.76,8.88,12.86,8.88s12.85-4,12.85-8.88-5.75-8.89-12.85-8.89S330.25,330,330.25,334.94Z" transform="translate(-150.5 -150)" fill="#ef9d75"/><path d="M244.67,334.94c0,4.9,5.76,8.88,12.86,8.88s12.86-4,12.86-8.88-5.76-8.89-12.86-8.89S244.67,330,244.67,334.94Z" transform="translate(-150.5 -150)" fill="#ef9d75"/><path d="M249.77,298a2.82,2.82,0,0,1-1.9-4.91c5.31-4.85,22.33-7,30-2.48a2.83,2.83,0,1,1-2.88,4.87c-5.34-3.16-19.65-1.55-23.31,1.78A2.8,2.8,0,0,1,249.77,298Z" transform="translate(-150.5 -150)" fill="#331907"/><path d="M350.09,299.15a2.8,2.8,0,0,1-2.19-1c-2.81-3.47-17.68-5.13-23.74-2.67A2.83,2.83,0,1,1,322,290.2c7.21-2.94,25.23-1.87,30.27,4.34a2.83,2.83,0,0,1-2.2,4.61Z" transform="translate(-150.5 -150)" fill="#331907"/><path d="M275.22,319.28A2.7,2.7,0,0,1,274,319c-8.36-4.13-20-2.19-22.47-.29a2.83,2.83,0,1,1-3.45-4.48c4.47-3.44,18.69-5.11,28.43-.29a2.83,2.83,0,0,1-1.26,5.36Z" transform="translate(-150.5 -150)" fill="#331907"/><path d="M348.46,318.81a2.74,2.74,0,0,1-1.23-.29c-5.06-2.45-16.56-3.59-22.09-.14a2.83,2.83,0,0,1-3-4.8c7.56-4.71,21.14-3.25,27.56-.15a2.83,2.83,0,0,1-1.24,5.38Z" transform="translate(-150.5 -150)" fill="#331907"/><path d="M279.62,358.16c6.82,17.39,42.07,11.79,44-.17Z" transform="translate(-150.5 -150)" fill="#fff"/><path d="M301.18,371.27h0c-12.08-.49-20.37-4.61-23.4-12.32A2.17,2.17,0,0,1,278,357a2,2,0,0,1,1.65-.92l44-.17h0a2,2,0,0,1,1.51.73,2.14,2.14,0,0,1,.45,1.69C324.27,366.43,312.08,371.18,301.18,371.27Zm-18.26-11c4,6.15,15.11,6.89,18.25,6.89h0c6.78,0,17.15-3,19.53-7Z" transform="translate(-150.5 -150)" fill="#c68659"/></svg>