<svg id="Layer_1" data-name="Layer 1" xmlns="http://www.w3.org/2000/svg" viewBox="0 0 300 300"><path d="M450.5,300a150,150,0,1,1-150-150A150,150,0,0,1,450.5,300Z" transform="translate(-150.5 -150)" fill="#dd6f8e"/><path d="M341.67,216.1c0,20.6-18.43,37.3-41.17,37.3s-41.17-16.7-41.17-37.3,18.43-37.3,41.17-37.3S341.67,195.5,341.67,216.1Z" transform="translate(-150.5 -150)" fill="#3a1e0a"/><path d="M249.35,318.76c1.26,10.22-4.62,19.36-13.16,20.42s-16.48-6.37-17.75-16.6,4.63-19.36,13.16-20.42S248.08,308.53,249.35,318.76Z" transform="translate(-150.5 -150)" fill="#f4cd98"/><path d="M351.21,318.76c-1.27,10.22,4.62,19.36,13.16,20.42s16.48-6.37,17.74-16.6-4.62-19.36-13.16-20.42S352.47,308.53,351.21,318.76Z" transform="translate(-150.5 -150)" fill="#f4cd98"/><path d="M359,232.55c-12.51-17.75-25.36-18.29-46.08-19.15H290.35c-20.72.86-33.57,1.4-46.08,19.15s-7.78,22.36-6.79,43.79c.75,16.18-8.92,4.83-2.23,49.84s45.79,59.46,66.36,59.46,56.73-12.07,66.37-59.46-3-33.66-2.24-49.84C366.72,254.91,371.47,250.31,359,232.55Z" transform="translate(-150.5 -150)" fill="#f4cd98"/><path d="M297.14,342.75h-.23a2.56,2.56,0,0,1-2.32-2.78c.35-3.9.89-19.16.89-23.83a2.57,2.57,0,1,1,5.13,0c0,4.44-.52,19.93-.91,24.29A2.57,2.57,0,0,1,297.14,342.75Z" transform="translate(-150.5 -150)" fill="#c68e75"/><path d="M320.52,400.38" transform="translate(-150.5 -150)" fill="#3c313f"/><path d="M271.62,338c0,4.91-5.76,8.89-12.86,8.89s-12.86-4-12.86-8.89,5.76-8.88,12.86-8.88S271.62,333.06,271.62,338Z" transform="translate(-150.5 -150)" fill="#f2ba94"/><path d="M357.2,338c0,4.91-5.76,8.89-12.86,8.89s-12.86-4-12.86-8.89,5.76-8.88,12.86-8.88S357.2,333.06,357.2,338Z" transform="translate(-150.5 -150)" fill="#f2ba94"/><path d="M300.65,363.13c-7.38,0-15.94-1.81-20.63-7a2.57,2.57,0,0,1,3.81-3.44c3.38,3.74,11,5.8,19.46,5.22,6.51-.44,12-2.43,13.75-4.95a2.57,2.57,0,0,1,4.24,2.9c-2.68,3.91-9.27,6.59-17.64,7.16C302.68,363.1,301.67,363.13,300.65,363.13Z" transform="translate(-150.5 -150)" fill="#c68e75"/><path d="M276.28,295.27a2.77,2.77,0,0,1-2.08-.94,11.35,11.35,0,0,0-8.51-3.61c-3.9-.06-7.94,1.41-10.09,3.68a2.78,2.78,0,1,1-4-3.82c3.26-3.43,8.71-5.5,14.21-5.41a16.88,16.88,0,0,1,12.58,5.48,2.78,2.78,0,0,1-2.08,4.62Z" transform="translate(-150.5 -150)" fill="#3a1e0a"/><path d="M329.32,295a2.73,2.73,0,0,1-1.71-.59,2.77,2.77,0,0,1-.47-3.9c2.33-3,6.75-5,11.51-5.19a16.46,16.46,0,0,1,13,5,2.78,2.78,0,0,1-4,3.83,11.11,11.11,0,0,0-8.68-3.28c-3.57.17-6.35,1.71-7.42,3.08A2.77,2.77,0,0,1,329.32,295Z" transform="translate(-150.5 -150)" fill="#3a1e0a"/><path d="M233.39,314.19s-7.87-19.48,38.54-45.59c13.27-7.46,22.71-15.87,28.74-25.35a199,199,0,0,0,21.06,21.62c19.07,17.15,50.51,24.45,45.95,45.59,0,0,8.29-7,9-29.86,1-34.79-11.48-75.31-72.38-75.72-56.61-.38-78.34,32-78,75.74C226.45,298.66,227.58,305.49,233.39,314.19Z" transform="translate(-150.5 -150)" fill="#3a1e0a"/><rect x="134.86" y="224.35" width="30.28" height="46.75" fill="#f4cd98"/><path d="M358.59,432.1c-6.24-18.43-9.48-22.87-27.78-31.5l-.1-.74a.56.56,0,0,0-.41-.43l-7.72-2.83-3.6-1.38S303.47,399,300.25,400c-3.22-1-18.91-4.67-18.91-4.67l-3.5,1.3-7.65,2.82a.56.56,0,0,0-.41.43l-.15,1c-17.81,8.5-21.12,13.24-27.22,31.23-.41,1.23-.95,3.14-1.56,5.54a148.89,148.89,0,0,0,37.71,10.75,152,152,0,0,0,16.36,1.47c1.85.06,3.71.14,5.58.14,1.7,0,3.38-.07,5.06-.13a150.48,150.48,0,0,0,16.3-1.41,148.76,148.76,0,0,0,38.29-10.82C359.54,435.24,359,433.33,358.59,432.1Z" transform="translate(-150.5 -150)" fill="#684b75"/><path d="M319,395.31c-1.81-1.41-3.33-2.71-3.33-2.71l-.6.32a31.52,31.52,0,0,1-29.68-.32h0s-2,1.5-4,2.82l1,4.08,12.55,50.36c1.85.06,3.71.14,5.58.14,1.7,0,3.38-.07,5.06-.13L318.48,398Z" transform="translate(-150.5 -150)" fill="#fff"/><path d="M281.37,395.42l0-.11-3.5,1.3h0l-7.63,2.82a.56.56,0,0,0-.41.43l-.15,1-3,20.59a.57.57,0,0,0,.25.6l12.1,7.85-4.71,13a.58.58,0,0,0,.14.61l4.14,4.87a152,152,0,0,0,16.36,1.47L282.37,399.5Z" transform="translate(-150.5 -150)" fill="#816296"/><path d="M326.21,442.91l-4.71-13,12.1-7.85a.57.57,0,0,0,.25-.6l-3-20.86-.1-.74a.56.56,0,0,0-.41-.43l-7.63-2.82h-.09l-3.6-1.38v.09l-.49,2.73-12.92,51.83a150.48,150.48,0,0,0,16.3-1.41l4.2-4.94A.56.56,0,0,0,326.21,442.91Z" transform="translate(-150.5 -150)" fill="#816296"/><path d="M278.41,310.59c-9.64-5.41-24.22-4.43-29-1.15a3.36,3.36,0,0,0-.86,4.68,3.38,3.38,0,0,0,4.68.86c2.48-1.72,13.89-3,21.86,1.48a3.29,3.29,0,0,0,1.47.42h.18a3.36,3.36,0,0,0,1.64-6.3Z" transform="translate(-150.5 -150)" fill="#3a1e0a"/><path d="M353.5,308.19c-6.77-2.59-20.68-2.87-27.95,2.57a3.37,3.37,0,0,0,4,5.39c5.08-3.81,16.38-3.64,21.52-1.68a3.42,3.42,0,0,0,1.49.21,3.36,3.36,0,0,0,.91-6.49Z" transform="translate(-150.5 -150)" fill="#3a1e0a"/></svg>