<svg id="Layer_1" data-name="Layer 1" xmlns="http://www.w3.org/2000/svg" viewBox="0 0 300 300"><circle cx="150" cy="150" r="150" fill="#9cceb4"/><path d="M213.56,301.5c-1,60.78,40.29,77.77,86.8,77.77s88.37-11.19,86.8-77.77c-.28-12-2.77-58.7-12.94-67.71-37-32.82-124.81-28-148.38,3.32C221.75,242.54,213.67,294.37,213.56,301.5Z" transform="translate(-150.5 -150)" fill="#6b3f22"/><rect x="134.86" y="224.35" width="30.28" height="63.77" fill="#f4cd98"/><path d="M358.59,432.1c-6.24-18.43-9.48-22.87-27.78-31.5,0,0-27.34,9-30.56,10-3.22-1-30.62-9.69-30.62-9.69-17.81,8.5-21.12,13.24-27.22,31.23-.41,1.23-.95,3.14-1.56,5.54a149.31,149.31,0,0,0,37.71,10.75,152,152,0,0,0,16.36,1.47c1.85.06,3.71.14,5.58.14,1.7,0,3.38-.07,5.06-.13a150.48,150.48,0,0,0,16.3-1.41,148.76,148.76,0,0,0,38.29-10.82C359.54,435.24,359,433.33,358.59,432.1Z" transform="translate(-150.5 -150)" fill="#89827e"/><path d="M330.81,400.6l-15.17-5.79s-12.17,5.24-15.39,6.22c-3.22-1-14.89-6.22-14.89-6.22l-15.73,6.06c-6.75,3.22-3.95,8.64,2.13,14.12a42.72,42.72,0,0,0,57.51-.3C335.13,409.22,337.68,403.84,330.81,400.6Z" transform="translate(-150.5 -150)" fill="#f4cd98"/><path d="M249.31,312.61c1.27,10.22-4.62,19.37-13.16,20.43s-16.48-6.38-17.74-16.6S223,297.07,231.57,296,248.05,302.38,249.31,312.61Z" transform="translate(-150.5 -150)" fill="#f4cd98"/><path d="M351.17,312.61c-1.26,10.22,4.62,19.37,13.16,20.43s16.48-6.38,17.75-16.6-4.63-19.37-13.17-20.43S352.44,302.38,351.17,312.61Z" transform="translate(-150.5 -150)" fill="#f4cd98"/><path d="M358,230.1c-12.55-17.78-25.43-18.33-46.19-19.19H289.22c-20.77.86-33.65,1.41-46.19,19.19s-7.8,22.42-6.81,43.89c.75,16.23-8.95,4.84-2.24,50s45.9,59.59,66.52,59.59S357.37,371.45,367,324s-3-33.74-2.24-50C365.77,252.52,370.52,247.9,358,230.1Z" transform="translate(-150.5 -150)" fill="#f4cd98"/><path d="M296,340.56h-.23a2.56,2.56,0,0,1-2.33-2.79c.35-3.89.9-19.19.9-23.88a2.57,2.57,0,0,1,5.14,0c0,4.46-.53,20-.92,24.35A2.57,2.57,0,0,1,296,340.56Z" transform="translate(-150.5 -150)" fill="#c68e75"/><path d="M298.93,361.15h.55c9.07-.15,16.53-3.78,20.47-9.95a2.57,2.57,0,0,0-4.34-2.76c-4.24,6.66-12.75,7.51-16.22,7.57-6.42.09-12.45-2-14.46-4.89a2.57,2.57,0,0,0-4.24,2.9C283.63,358.31,290.91,361.15,298.93,361.15Z" transform="translate(-150.5 -150)" fill="#c68e75"/><path d="M384.61,265.7c-2.91-36.88-25.23-59.94-54.14-67.79-42.4-11.52-101.62-.38-116.21,51.22-11.61,41,16.78,67.38,19.2,69.27-2.29-16.59,12.16-42.75,70.53-52.32,17.85-2.93,38.42-7.49,48.84-18.06-1.8,35.51,14.78,58.3,13.95,72.81C389.33,299.38,384.9,269.45,384.61,265.7Z" transform="translate(-150.5 -150)" fill="#6b3f22"/><path d="M271.69,312.91c0,5.91-4.14,10.71-9.26,10.71s-9.26-4.8-9.26-10.71,4.15-8.74,9.26-8.74S271.69,307,271.69,312.91Z" transform="translate(-150.5 -150)" fill="#3a1e0a"/><path d="M278.56,324.92c-.46,3.83-8.95,5.86-19,4.55s-17.75-5.48-17.29-9.31,9-5.86,19-4.54S279,321.1,278.56,324.92Z" transform="translate(-150.5 -150)" fill="#f4cd98"/><path d="M329.31,312.91c0,5.91,4.14,10.71,9.26,10.71s9.26-4.8,9.26-10.71-4.15-8.74-9.26-8.74S329.31,307,329.31,312.91Z" transform="translate(-150.5 -150)" fill="#3a1e0a"/><path d="M322.44,324.92c.46,3.83,8.95,5.86,19,4.55s17.75-5.48,17.29-9.31-9-5.86-19-4.54S322,321.1,322.44,324.92Z" transform="translate(-150.5 -150)" fill="#f4cd98"/><path d="M251.25,296.82a2.65,2.65,0,0,1-1.88-.78,2.9,2.9,0,0,1-.11-4c4.69-5.11,18.4-8.27,26.45-2.51a2.9,2.9,0,0,1,.7,3.93,2.67,2.67,0,0,1-3.8.72c-5.88-4.2-16.46-1.43-19.39,1.76A2.69,2.69,0,0,1,251.25,296.82Z" transform="translate(-150.5 -150)" fill="#6b3f22"/><path d="M349.24,297.05a2.7,2.7,0,0,1-2-.87c-4.18-4.55-14.16-4.42-20.14.25a2.66,2.66,0,0,1-3.82-.55,2.89,2.89,0,0,1,.53-4c8.24-6.45,21.29-6.27,27.39.36a2.89,2.89,0,0,1-.09,4A2.65,2.65,0,0,1,349.24,297.05Z" transform="translate(-150.5 -150)" fill="#6b3f22"/><path d="M270.44,330.79c0,4.92-5.77,8.91-12.89,8.91s-12.89-4-12.89-8.91,5.77-8.9,12.89-8.9S270.44,325.87,270.44,330.79Z" transform="translate(-150.5 -150)" fill="#f2ba94"/><path d="M356.22,330.79c0,4.92-5.77,8.91-12.89,8.91s-12.89-4-12.89-8.91,5.77-8.9,12.89-8.9S356.22,325.87,356.22,330.79Z" transform="translate(-150.5 -150)" fill="#f2ba94"/></svg>