<svg id="Layer_1" data-name="Layer 1" xmlns="http://www.w3.org/2000/svg" viewBox="0 0 300 300"><path d="M450.5,300a150,150,0,1,1-150-150A150,150,0,0,1,450.5,300Z" transform="translate(-150.5 -150)" fill="#6ebbc5"/><rect x="136.9" y="228.59" width="25.23" height="45.78" fill="#ffce99"/><path d="M348.45,428.84c-5.78-17-8.46-19.74-28.65-28.78-.27-.12-7.17-4.12-7.17-4.12l-12.54,25.21L294,410l-6.55-14s-5.89,3.55-6.09,3.64c-21.16,9.41-23.94,12.15-29.73,29.26-.7,2.06-1.77,6.35-3.05,11.9a149.57,149.57,0,0,0,50,9.21c.64,0,1.28.05,1.92.05l.79,0a149.83,149.83,0,0,0,50.28-8.91C350.26,435.35,349.16,430.94,348.45,428.84Z" transform="translate(-150.5 -150)" fill="#ff9cbd"/><path d="M338.52,337.3s25.85,3.82,34.92,23.44c14.77,31.93.41,41.23,7.55,47.34,2.56,2.18.38,5.47-8.62,6-12.95.77-39.64-6.62-40.39-42.87S331.64,336,338.52,337.3Z" transform="translate(-150.5 -150)" fill="#82512f"/><path d="M222.25,316.85s-12-61.08,14.29-89.93c24-26.36,54.48-26.52,68.9-26.52s65.77,9.81,72.95,58.23c8.06,54.29-9,52.23-9,52.23S311.2,350.62,288,341.45C252.67,327.52,222.25,316.85,222.25,316.85Z" transform="translate(-150.5 -150)" fill="#82512f"/><path d="M249,317.24c1.26,10.2-4.61,19.32-13.13,20.38s-16.44-6.37-17.7-16.57,4.61-19.32,13.13-20.37S247.71,307,249,317.24Z" transform="translate(-150.5 -150)" fill="#ffce99"/><path d="M350.59,317.24c-1.26,10.2,4.61,19.32,13.13,20.38s16.44-6.37,17.71-16.57-4.62-19.32-13.14-20.37S351.85,307,350.59,317.24Z" transform="translate(-150.5 -150)" fill="#ffce99"/><path d="M357.35,235c-12.51-17.75-25.36-18.3-46.08-19.16H288.75c-20.72.86-33.56,1.41-46.07,19.16s-7.78,22.36-6.8,43.78c.75,16.19-8.92,4.83-2.23,49.85s45.79,59.45,66.36,59.45,56.74-12.07,66.37-59.45-3-33.66-2.24-49.85C365.13,257.39,369.87,252.78,357.35,235Z" transform="translate(-150.5 -150)" fill="#ffce99"/><path d="M295.55,345.22h-.23a2.56,2.56,0,0,1-2.33-2.78c.35-3.89.89-19.16.89-23.83a2.57,2.57,0,1,1,5.13,0c0,4.44-.52,19.93-.91,24.29A2.56,2.56,0,0,1,295.55,345.22Z" transform="translate(-150.5 -150)" fill="#c68659"/><path d="M299,365.53c-7.37,0-15.94-1.82-20.62-7a2.56,2.56,0,1,1,3.8-3.44c3.38,3.75,11.05,5.8,19.47,5.22,6.5-.44,12-2.43,13.74-4.94a2.57,2.57,0,0,1,4.24,2.89c-2.68,3.92-9.27,6.59-17.64,7.17C301,365.49,300,365.53,299,365.53Z" transform="translate(-150.5 -150)" fill="#c68659"/><path d="M251.94,298.14a2.77,2.77,0,0,1-1.66-5c5.16-3.83,20.68-5.19,26.28.23a2.78,2.78,0,0,1-3.87,4c-3.41-3.3-15.75-2.24-19.11.24A2.71,2.71,0,0,1,251.94,298.14Z" transform="translate(-150.5 -150)" fill="#6b462d"/><path d="M350.42,297.84a2.8,2.8,0,0,1-1.55-.48c-6.26-4.21-17.57-2.52-21.32,0a2.78,2.78,0,0,1-3.1-4.61c5.48-3.68,19.25-5.56,27.52,0a2.78,2.78,0,0,1-1.55,5.09Z" transform="translate(-150.5 -150)" fill="#6b462d"/><path d="M270,340.44c0,4.9-5.76,8.88-12.86,8.88s-12.85-4-12.85-8.88,5.75-8.89,12.85-8.89S270,335.53,270,340.44Z" transform="translate(-150.5 -150)" fill="#f9b995"/><path d="M355.6,340.44c0,4.9-5.76,8.88-12.86,8.88s-12.86-4-12.86-8.88,5.76-8.89,12.86-8.89S355.6,335.53,355.6,340.44Z" transform="translate(-150.5 -150)" fill="#f9b995"/><path d="M299.64,424.49a1.34,1.34,0,0,1-.67-.17,1.36,1.36,0,0,1-.51-1.85L306,409.26l11.89,5.64-1.82-13.34a1.37,1.37,0,0,1,1.17-1.52,1.35,1.35,0,0,1,1.52,1.16l2.49,18.29-14.14-6.7-6.29,11A1.35,1.35,0,0,1,299.64,424.49Z" transform="translate(-150.5 -150)" fill="#dd6f8e"/><path d="M301,423.14v-.35l-.9-1.64L294,410l-.19-.34L281.53,415l1.82-13.42a1.36,1.36,0,0,0-2.69-.36l-2.47,18.2,14.39-6.3,5.7,10.39c0,4.09.08,8.17.16,12.25.08,4.66.16,9.46.14,14.21.64,0,1.28.05,1.92.05l.79,0c0-4.79-.06-9.61-.14-14.29C301.07,431.51,301,427.33,301,423.14Z" transform="translate(-150.5 -150)" fill="#dd6f8e"/><path d="M335.48,338.55c-7.91,0-14.68-3.16-18.55-8.66-4.07-5.76-6.8-14.8-6.8-19.62,0-11,35.88-11.17,36.25-11.17,13.7,0,20.37,2.37,20.37,7.24C366.75,327.26,350.64,338.55,335.48,338.55ZM315.7,310.41c.05,3.93,2.51,11.64,5.77,16.28,2.83,4,7.93,6.3,14,6.3,12.36,0,25.49-9.2,25.69-26.24-.94-.67-5-2.08-14.79-2.08C330.42,304.67,317.12,308.07,315.7,310.41Z" transform="translate(-150.5 -150)" fill="#aa214b"/><path d="M265.05,338.55h0c-15.15,0-31.26-11.29-31.26-32.21,0-1.83,0-7.39,21.08-7.39,1.45,0,35.53.12,35.53,11.32,0,4.83-2.73,13.86-6.79,19.62C279.73,335.39,273,338.55,265.05,338.55Zm-25.69-31.81c.19,17.05,13.33,26.24,25.69,26.25h0c6.08,0,11.19-2.3,14-6.3,3.3-4.69,5.78-12.53,5.78-16.42-.93-2.25-13.94-5.76-30-5.76C244.51,304.51,240.31,306,239.36,306.74Z" transform="translate(-150.5 -150)" fill="#aa214b"/><path d="M288.06,316.29a2.78,2.78,0,0,1-1.52-5.11c5-3.29,22.65-2.6,27-.77a2.78,2.78,0,0,1-2.16,5.13c-3.52-1.49-18.89-1.58-21.76.29A2.76,2.76,0,0,1,288.06,316.29Z" transform="translate(-150.5 -150)" fill="#aa214b"/><path d="M274.49,319.09a2.85,2.85,0,0,1-1.68-.54c-6-4.3-13.84-5-22.1-1.86a2.89,2.89,0,1,1-2-5.41c10.12-3.79,19.89-2.88,27.5,2.58a2.89,2.89,0,0,1-1.69,5.23Z" transform="translate(-150.5 -150)" fill="#331907"/><path d="M326.51,319.09a2.85,2.85,0,0,0,1.68-.54c6-4.3,13.84-5,22.1-1.86a2.89,2.89,0,1,0,2-5.41c-10.12-3.79-19.89-2.88-27.5,2.58a2.89,2.89,0,0,0,1.69,5.23Z" transform="translate(-150.5 -150)" fill="#331907"/><path d="M232,234.14c11.51-17.81,31.35-28.06,59-30.45h0a170.77,170.77,0,0,1,25.67-.13c.94.06,23.47,1.6,40.74,23.13,15,18.68,23.88,32.5,21,68.16-.06.71-3.29,15-3.92,15.27a1.23,1.23,0,0,1-.38.08,1.58,1.58,0,0,1-1.39-.6A118.2,118.2,0,0,1,351,264.43a36.78,36.78,0,0,1-20.57,17.33,1.17,1.17,0,0,1-.37.08,1.65,1.65,0,0,1-1.62-1c-.49-1-1.61-5.74,2.41-27.39-7.5,9.77-24,27.26-48.54,32.48l-.18,0a1.67,1.67,0,0,1-1.38-.58,1.94,1.94,0,0,1-.4-1.72l3.55-22.43a153.28,153.28,0,0,1-30.26,24c-10.77,6.69-23.37,19.1-27.77,19.48-2.08.18-.78-2.89-.83-2.9-.72-.05-1.73-3.22-1.92-4C222.75,296.44,214.35,261.5,232,234.14Z" transform="translate(-150.5 -150)" fill="#82512f"/></svg>