<svg id="Layer_1" data-name="Layer 1" xmlns="http://www.w3.org/2000/svg" viewBox="0 0 300 300"><path d="M150.5,300a150,150,0,1,0,150-150A150,150,0,0,0,150.5,300Z" transform="translate(-150.5 -150)" fill="#ec6f46"/><path d="M333.44,351.58c-1.09-1.18-18-14.47-17.65-10.12.67,9.26-7,2-11,4s-7.2,9.82-11.8,12.82c-7.55,4.92-24,16.83-31.18,7.26-2.92,9.66-15.57,9.26-21.6,1.14-11.18,9-24-2.71-22.64-16.47-12.13,8.69-27.86-6.34-18.82-20.67-11.87.45-15-19.07-4.28-23.18-8.53-7.62-5.61-23.72,7.87-27.23-5.88-7.67.49-21.15,9-22-3.58-8.13,2.57-14,9.88-13-5.41-8.32,0-27.39,21.11-24.49-9.11-22.79,17.66-38.18,34-27.35,4.33-20.42,33.73-17.27,38.43-5.31,3.76-6.3,17.28-7.48,16.3,2.61,11.54-11.42,39.36,1,35,21.59,24.63,1.11,32.15,24.63,26,37,19,2.13,19.77,20.37,12.58,30,15.48,2.8,18.42,23.34,7.61,30.16,11.19,12.43-1.87,27.8-8.49,26.2,5.52,10.07-2.29,25.61-16.11,20.14,4.7,16.24-12.29,20.39-18.81,13-4.35,10.88-17.1,8.22-21-.63C344.54,359.57,336.2,354.56,333.44,351.58Z" transform="translate(-150.5 -150)" fill="#6b3f22"/><path d="M361.41,234.65c-12.52-17.74-25.37-18.29-46.08-19.15H292.81c-20.72.86-33.57,1.41-46.08,19.15S239,257,239.94,278.44c.75,16.18-8.93,4.83-2.23,49.84s45.78,59.46,66.35,59.46,56.74-12.07,66.37-59.46-3-33.66-2.23-49.84C369.18,257,373.92,252.41,361.41,234.65Z" transform="translate(-150.5 -150)" fill="#e8ae7e"/><rect x="140.95" y="231.62" width="25.23" height="36.93" fill="#e8ae7e"/><path d="M299.6,342.71h-.23a2.57,2.57,0,0,1-2.33-2.78c.35-3.89.9-19.16.9-23.83a2.56,2.56,0,1,1,5.12,0c0,4.44-.52,19.93-.91,24.29A2.56,2.56,0,0,1,299.6,342.71Z" transform="translate(-150.5 -150)" fill="#ba7e56"/><path d="M276.3,314.34c0,6-4.08,10.8-9.11,10.8s-9.1-4.83-9.1-10.8,4.08-10.81,9.1-10.81S276.3,308.38,276.3,314.34Z" transform="translate(-150.5 -150)" fill="#3a1e0a"/><path d="M278.68,297.26a2.77,2.77,0,0,1-2.08-.94,11.41,11.41,0,0,0-8.52-3.61c-3.87-.06-7.93,1.41-10.08,3.68a2.78,2.78,0,0,1-4-3.82c3.26-3.43,8.73-5.49,14.21-5.41a16.87,16.87,0,0,1,12.57,5.48,2.77,2.77,0,0,1-2.07,4.62Z" transform="translate(-150.5 -150)" fill="#3a1e0a"/><path d="M331.16,297.25a2.77,2.77,0,0,1-2.18-4.48c2.34-3,6.75-5,11.52-5.2a16.55,16.55,0,0,1,13,5,2.77,2.77,0,1,1-4,3.82,11.09,11.09,0,0,0-8.68-3.27c-3.57.17-6.34,1.71-7.41,3.07A2.76,2.76,0,0,1,331.16,297.25Z" transform="translate(-150.5 -150)" fill="#3a1e0a"/><path d="M349.38,314.34c0,6-4.09,10.81-9.11,10.81s-9.11-4.84-9.11-10.81,4.08-10.81,9.11-10.81S349.38,308.37,349.38,314.34Z" transform="translate(-150.5 -150)" fill="#3a1e0a"/><path d="M274.07,337.92c0,4.91-5.75,8.89-12.86,8.89s-12.85-4-12.85-8.89,5.75-8.88,12.85-8.88S274.07,333,274.07,337.92Z" transform="translate(-150.5 -150)" fill="#ef9d75"/><path d="M359.65,337.92c0,4.91-5.75,8.89-12.86,8.89s-12.85-4-12.85-8.89,5.75-8.88,12.85-8.88S359.65,333,359.65,337.92Z" transform="translate(-150.5 -150)" fill="#ef9d75"/><path d="M329.13,408a42.13,42.13,0,0,1-11.42-8.21l-1-1-.45.32a21.11,21.11,0,0,1-24.78-.32h0l-1.87,1.82a42.07,42.07,0,0,1-8.51,6.44l-4.88,2.8c3.51,19.86,18.67,16.19,27.6,33.47,11.2-17.71,27.18-12.59,30.12-32.93Z" transform="translate(-150.5 -150)" fill="#fff"/><path d="M216.19,266.22c.8-14.77,13.35-35.18,25.39-42.34a18.62,18.62,0,0,1,5.55-1.91c1.76-13.6,21.32-27.7,23.84-13.86-3.06-16.77,33.64-19.64,36.24-2.7,11.64-11.79,42.45-8.33,43.61,8.77C367.92,203.66,383,225,389,238.41c4.72,10.68,8.22,23.91,5.37,35.56-1.11,4.52-4.93,3-9,5.58-5.69,3.61-7.71,8.32-13.9,10.23-13,4-22.75-10.94-25.53-19.93,0,0-17.82,6.14-26.09-9.93-12.64,11.08-30.26-7.79-29.23-11.18-8.94,10.16-19.4,3.33-29-5.87,4,14.25-4.71,21.37-10.36,19.81,6.73,8.32-2.12,22.18-11.84,17.22,4.63,11.77-6.48,27.43-15.31,20.8S215.63,276.45,216.19,266.22Z" transform="translate(-150.5 -150)" fill="#6b3f22"/><path d="M352.53,435.07c-4.41-13.72-6.79-18.69-18.16-25.06a1,1,0,0,0-1.15.17c-6.91,7.07-18.27,11.46-29.65,11.46-11.58,0-21-4.4-26.6-12.41a1,1,0,0,0-1.23-.29c-12.76,6.75-15.36,11.26-20.14,26.13-.48,1.5-1.13,4.08-1.9,7.44a150,150,0,0,0,100.19-2.33C353.35,438,352.89,436.19,352.53,435.07Z" transform="translate(-150.5 -150)" fill="#2d7e9e"/><path d="M283.3,354.51c3.73,19.46,35.82,15.47,37.46,0Z" transform="translate(-150.5 -150)" fill="#fff"/><path d="M301.34,369.65h0c-8.43,0-18.19-3.89-20.28-14.81a1.84,1.84,0,0,1,.51-1.62,2.39,2.39,0,0,1,1.73-.71h37.46a2.41,2.41,0,0,1,1.68.66,1.84,1.84,0,0,1,.58,1.53C322,364.41,311.08,369.65,301.34,369.65Zm-15.17-13.14c3,8.44,12.23,9.15,15.17,9.15,6.93,0,14.6-3.19,16.67-9.15Z" transform="translate(-150.5 -150)" fill="#ba7e56"/><path d="M376.39,302.89H233.89a2.81,2.81,0,1,1,0-5.62h142.5a2.81,2.81,0,0,1,0,5.62Z" transform="translate(-150.5 -150)" fill="#ffdeb6"/><path d="M339.18,335.37c-7.17,0-13.08-2.37-17.56-7-9.55-10-9-26.83-8.93-27.55a2.86,2.86,0,0,1,3-2.77,2.89,2.89,0,0,1,2.78,3c0,.14-.5,15.15,7.35,23.31,3.38,3.52,7.75,5.23,13.35,5.23,8.32,0,14.82-2.34,19.29-7,7.07-7.3,7.29-18.39,7.19-21.61a2.9,2.9,0,0,1,2.8-3,2.93,2.93,0,0,1,3,2.8c.16,4.87-.39,17.14-8.81,25.84C357,332.44,349.13,335.37,339.18,335.37Z" transform="translate(-150.5 -150)" fill="#ffdeb6"/><path d="M268.35,335.38c-10,0-17.92-2.95-23.55-8.76-8.42-8.69-9-20.94-8.82-25.81a3,3,0,0,1,3-2.81,2.91,2.91,0,0,1,2.81,3c-.1,3.21.11,14.28,7.18,21.58,4.49,4.64,11,7,19.38,7,5.63,0,10-1.72,13.42-5.26,7.84-8.15,7.34-23.14,7.34-23.28a2.89,2.89,0,0,1,2.78-3,2.86,2.86,0,0,1,3,2.77c0,.72.62,17.57-8.94,27.54C281.48,333,275.55,335.38,268.35,335.38Z" transform="translate(-150.5 -150)" fill="#ffdeb6"/></svg>