<svg id="Layer_1" data-name="Layer 1" xmlns="http://www.w3.org/2000/svg" viewBox="0 0 300 300"><path d="M150.5,300a150,150,0,1,0,150-150A150,150,0,0,0,150.5,300Z" transform="translate(-150.5 -150)" fill="#9cceb4"/><rect x="136.9" y="228.59" width="25.23" height="45.78" fill="#e8ae7e"/><path d="M348.45,428.84c-5.78-17-8.46-19.74-28.65-28.78-.27-.12-7.17-4.12-7.17-4.12l-12.54,25.21L294,410l-6.55-14s-5.89,3.55-6.09,3.64c-21.16,9.41-23.94,12.15-29.73,29.26-.7,2.06-1.77,6.35-3.05,11.9a149.57,149.57,0,0,0,50,9.21c.64,0,1.28.05,1.92.05l.79,0a149.83,149.83,0,0,0,50.28-8.91C350.26,435.35,349.16,430.94,348.45,428.84Z" transform="translate(-150.5 -150)" fill="#684b75"/><path d="M262.48,337.3s-25.85,3.82-34.92,23.44c-14.77,31.93-.41,41.23-7.55,47.34-2.56,2.18-.38,5.47,8.62,6,13,.77,39.64-6.62,40.39-42.87S269.36,336,262.48,337.3Z" transform="translate(-150.5 -150)" fill="#6b3f22"/><path d="M222.25,316.85s-12-61.08,14.29-89.93c24-26.36,54.48-26.52,68.9-26.52s65.77,9.81,72.95,58.23c8.06,54.29-9,52.23-9,52.23S311.2,350.62,288,341.45C252.67,327.52,222.25,316.85,222.25,316.85Z" transform="translate(-150.5 -150)" fill="#6b3f22"/><path d="M249,317.24c1.26,10.2-4.61,19.32-13.13,20.38s-16.44-6.37-17.7-16.57,4.61-19.32,13.13-20.37S247.71,307,249,317.24Z" transform="translate(-150.5 -150)" fill="#e8ae7e"/><path d="M350.59,317.24c-1.26,10.2,4.61,19.32,13.13,20.38s16.44-6.37,17.71-16.57-4.62-19.32-13.14-20.37S351.85,307,350.59,317.24Z" transform="translate(-150.5 -150)" fill="#e8ae7e"/><path d="M357.35,235c-12.51-17.75-25.36-18.3-46.08-19.16H288.75c-20.72.86-33.56,1.41-46.07,19.16s-7.78,22.36-6.8,43.78c.75,16.19-8.92,4.83-2.23,49.85s45.79,59.45,66.36,59.45,56.74-12.07,66.37-59.45-3-33.66-2.24-49.85C365.13,257.39,369.87,252.78,357.35,235Z" transform="translate(-150.5 -150)" fill="#e8ae7e"/><path d="M295.55,345.22h-.23a2.56,2.56,0,0,1-2.33-2.78c.35-3.89.89-19.16.89-23.83a2.57,2.57,0,1,1,5.13,0c0,4.44-.52,19.93-.91,24.29A2.56,2.56,0,0,1,295.55,345.22Z" transform="translate(-150.5 -150)" fill="#c68659"/><path d="M280,357.18c6.4,17.4,39.46,11.79,41.24-.17Z" transform="translate(-150.5 -150)" fill="#fff"/><path d="M300.25,370.29h0c-11.33-.49-19.11-4.61-21.95-12.32a2.3,2.3,0,0,1,.18-2,1.81,1.81,0,0,1,1.54-.92l41.24-.17h0a1.8,1.8,0,0,1,1.42.74,2.21,2.21,0,0,1,.41,1.68C321.91,365.45,310.48,370.2,300.25,370.29Zm-17.12-11c3.76,6.14,14.16,6.88,17.12,6.88h0c6.36,0,16.09-3,18.32-7Z" transform="translate(-150.5 -150)" fill="#ba7e56"/><path d="M251.94,296.76a2.77,2.77,0,0,1-1.66-5c5.16-3.83,20.68-5.2,26.28.23a2.78,2.78,0,0,1-3.87,4c-3.41-3.3-15.75-2.25-19.11.24A2.71,2.71,0,0,1,251.94,296.76Z" transform="translate(-150.5 -150)" fill="#331907"/><path d="M350.42,296.46a2.8,2.8,0,0,1-1.55-.48c-6.26-4.21-17.57-2.52-21.32,0a2.78,2.78,0,0,1-3.1-4.61c5.48-3.68,19.25-5.57,27.52,0a2.78,2.78,0,0,1-1.55,5.09Z" transform="translate(-150.5 -150)" fill="#331907"/><path d="M270,340.44c0,4.9-5.76,8.88-12.86,8.88s-12.85-4-12.85-8.88,5.75-8.89,12.85-8.89S270,335.53,270,340.44Z" transform="translate(-150.5 -150)" fill="#ef9d75"/><path d="M355.6,340.44c0,4.9-5.76,8.88-12.86,8.88s-12.86-4-12.86-8.88,5.76-8.89,12.86-8.89S355.6,335.53,355.6,340.44Z" transform="translate(-150.5 -150)" fill="#ef9d75"/><path d="M232,234.14c11.51-17.81,31.35-28.06,59-30.45h0a170.77,170.77,0,0,1,25.67-.13c.94.06,23.47,1.6,40.74,23.13,15,18.68,23.88,32.5,21,68.16-.06.71-4-3.33-4.15-3.32-.51.05,1.19,11.62.83,11.19-.68-.81-31.5-16.16-39.79-51-17,19.07-64.33,25.31-81.65,33.57-18.24,8.71-22.32,15.37-22.37,15.37-.72-.06-8-2-8.15-2.76C222.75,296.44,214.35,261.5,232,234.14Z" transform="translate(-150.5 -150)" fill="#6b3f22"/><path d="M358.93,296.78H318.75a9.43,9.43,0,0,0-9,6.6h-19a9.43,9.43,0,0,0-9-6.6H241.64a9.45,9.45,0,0,0-9.44,9.45v19.65a9.45,9.45,0,0,0,9.44,9.45h40.18a9.45,9.45,0,0,0,9.44-9.45V309.8h18v16.08a9.46,9.46,0,0,0,9.45,9.45h40.18a9.46,9.46,0,0,0,9.44-9.45V306.23A9.46,9.46,0,0,0,358.93,296.78Zm-74.09,29.1a3,3,0,0,1-3,3H241.64a3,3,0,0,1-3-3V306.23a3,3,0,0,1,3-3h40.18a3,3,0,0,1,3,3Zm77.11,0a3,3,0,0,1-3,3H318.75a3,3,0,0,1-3-3V306.23a3,3,0,0,1,3-3h40.18a3,3,0,0,1,3,3Z" transform="translate(-150.5 -150)" fill="#331907"/><path d="M272.51,314.75c0,6-4.09,10.82-9.13,10.82s-9.13-4.84-9.13-10.82,4.09-10.84,9.13-10.84S272.51,308.76,272.51,314.75Z" transform="translate(-150.5 -150)" fill="#331907"/><path d="M346.32,314.75c0,6-4.1,10.82-9.13,10.82s-9.13-4.84-9.13-10.82,4.09-10.84,9.13-10.84S346.32,308.76,346.32,314.75Z" transform="translate(-150.5 -150)" fill="#331907"/></svg>