<svg id="Layer_1" data-name="Layer 1" xmlns="http://www.w3.org/2000/svg" viewBox="0 0 300 300"><path d="M150.5,300a150,150,0,0,0,300,0c0-82.84-69.88-150-152.72-150S150.5,217.16,150.5,300Z" transform="translate(-150.5 -150)" fill="#87c6db"/><path d="M388.75,331.3c-14.79,58.23-60.52,65.19-89.87,65-20.49-.14-76.3.41-89.86-65-1.35-6.53-3.57-11.94-3.57-36.29,0-48.56,27.15-102.36,93.43-102.36,71.77,0,93.42,53.47,93.42,101.82C392.3,319.36,390.43,324.68,388.75,331.3Z" transform="translate(-150.5 -150)" fill="#331907"/><rect x="134.86" y="224.35" width="30.28" height="63.77" fill="#e8ae7e"/><path d="M358.59,432.1c-6.24-18.43-9.48-22.87-27.78-31.5,0,0-27.34,9-30.56,10-3.22-1-30.62-9.69-30.62-9.69-17.81,8.5-21.12,13.24-27.22,31.23-.41,1.23-.95,3.14-1.56,5.54a149.31,149.31,0,0,0,37.71,10.75,152,152,0,0,0,16.36,1.47c1.85.06,3.71.14,5.58.14,1.7,0,3.38-.07,5.06-.13a150.48,150.48,0,0,0,16.3-1.41,148.76,148.76,0,0,0,38.29-10.82C359.54,435.24,359,433.33,358.59,432.1Z" transform="translate(-150.5 -150)" fill="#9b6b4b"/><path d="M330.81,400.6l-15.17-5.79s-12.17,8.65-15.39,9.64c-3.22-1-14.89-9.64-14.89-9.64l-15.73,6.06c-9,4.29-.36,5.51,9,9.82,9.85,4.53,21.46,9.51,21.46,9.51s13.67-5,22.43-9.65C331.45,405.78,340,404.91,330.81,400.6Z" transform="translate(-150.5 -150)" fill="#e8ae7e"/><path d="M358,230.1c-12.55-17.78-25.43-18.33-46.19-19.19H289.22c-20.77.86-33.65,1.41-46.19,19.19s-7.8,22.42-6.81,43.89c.75,16.23-8.95,4.84-2.24,50s45.9,59.59,66.52,59.59S357.37,371.45,367,324s-3-33.74-2.24-50C365.77,252.52,370.52,247.9,358,230.1Z" transform="translate(-150.5 -150)" fill="#e8ae7e"/><path d="M296,340.56h-.23a2.56,2.56,0,0,1-2.33-2.79c.35-3.89.9-19.19.9-23.88a2.57,2.57,0,0,1,5.14,0c0,4.46-.53,20-.92,24.35A2.57,2.57,0,0,1,296,340.56Z" transform="translate(-150.5 -150)" fill="#ba7e56"/><path d="M272.67,312.13c0,6-4.09,10.83-9.13,10.83s-9.13-4.85-9.13-10.83,4.09-10.84,9.13-10.84S272.67,306.14,272.67,312.13Z" transform="translate(-150.5 -150)" fill="#3a1e0a"/><path d="M275.05,294.72a2.77,2.77,0,0,1-2.08-.94,11.42,11.42,0,0,0-8.54-3.62c-3.95-.1-7.95,1.42-10.11,3.69a2.78,2.78,0,0,1-4-3.83c3.26-3.44,8.75-5.48,14.24-5.42a16.92,16.92,0,0,1,12.6,5.49,2.78,2.78,0,0,1-.24,3.93A2.73,2.73,0,0,1,275.05,294.72Z" transform="translate(-150.5 -150)" fill="#3a1e0a"/><path d="M328.21,294.72a2.81,2.81,0,0,1-1.71-.59,2.78,2.78,0,0,1-.47-3.91c2.34-3,6.76-5,11.54-5.21a16.5,16.5,0,0,1,13,5,2.78,2.78,0,0,1-4,3.84,11.14,11.14,0,0,0-8.7-3.29c-3.57.17-6.35,1.72-7.42,3.08A2.81,2.81,0,0,1,328.21,294.72Z" transform="translate(-150.5 -150)" fill="#3a1e0a"/><path d="M346.47,312.13c0,6-4.09,10.83-9.13,10.83s-9.13-4.85-9.13-10.83,4.1-10.84,9.13-10.84S346.47,306.14,346.47,312.13Z" transform="translate(-150.5 -150)" fill="#3a1e0a"/><path d="M270.44,335.77c0,4.92-5.77,8.9-12.89,8.9s-12.89-4-12.89-8.9,5.77-8.91,12.89-8.91S270.44,330.85,270.44,335.77Z" transform="translate(-150.5 -150)" fill="#ef9d75"/><path d="M356.22,335.77c0,4.92-5.77,8.9-12.89,8.9s-12.89-4-12.89-8.9,5.77-8.91,12.89-8.91S356.22,330.85,356.22,335.77Z" transform="translate(-150.5 -150)" fill="#ef9d75"/><path d="M280.6,352c7.33,17.87,36.57,12.11,38.6-.17Z" transform="translate(-150.5 -150)" fill="#fff"/><path d="M299.45,365.48h0c-9.78,0-17.56-4.73-20.81-12.65a2.14,2.14,0,0,1,2-2.95l38.59-.17h0a2.12,2.12,0,0,1,2.1,2.49C319.93,360.51,309.11,365.48,299.45,365.48Zm-15.3-11.34c4.31,6.31,11.92,7.07,15.29,7.07h0c7.27,0,14.12-3.11,16.67-7.21Z" transform="translate(-150.5 -150)" fill="#ba7e56"/><path d="M344.24,213.64c-20.49-13-50-14.25-73.6-6.91-12.89,4-53.88,23.28-58,61.22-4.49,29,7.19,61.34,7.19,61.34,2.76-13.82,9.41-32.69,45.31-48.08,50.29-21.55,60.79-43.66,60.79-43.66s36.47,39.24,39.79,97.27c0,0,22.11-5,22.66-45.32l-1.66-5C389.39,264.66,377.57,234.71,344.24,213.64Z" transform="translate(-150.5 -150)" fill="#331907"/><circle cx="149.94" cy="135.08" r="4.82" fill="#aa214b" opacity="0.6"/></svg>