<svg id="Layer_1" data-name="Layer 1" xmlns="http://www.w3.org/2000/svg" viewBox="0 0 300 300"><path d="M150.5,300a150,150,0,0,0,300,0c0-82.84-69.88-150-152.72-150S150.5,217.16,150.5,300Z" transform="translate(-150.5 -150)" fill="#facb4c"/><path d="M394.47,328.19c3.94,52.74-65.42,63.55-95.17,63.55-33,0-100.88-8.11-95.17-63.55.67-6.49,6.32-18,6.32-41.83,0-47.48,29.06-93.71,88.85-93.71s88.83,45.91,88.83,93.18C388.13,310.16,394,321.52,394.47,328.19Z" transform="translate(-150.5 -150)" fill="#331907"/><rect x="134.86" y="224.35" width="30.28" height="63.77" fill="#e8ae7e"/><path d="M358.59,432.1c-6.24-18.43-13.3-24.33-31.6-33,0,0-23.52,10.44-26.74,11.42-3.22-1-26.73-11.19-26.73-11.19-17.81,8.5-25,14.74-31.11,32.73-.41,1.23-.95,3.14-1.56,5.54a149.31,149.31,0,0,0,37.71,10.75,152,152,0,0,0,16.36,1.47c1.85.06,3.71.14,5.58.14,1.7,0,3.38-.07,5.06-.13a150.48,150.48,0,0,0,16.3-1.41,148.76,148.76,0,0,0,38.29-10.82C359.54,435.24,359,433.33,358.59,432.1Z" transform="translate(-150.5 -150)" fill="#399f85"/><path d="M327,399.14l-11.35-4.33s-12.17,8.65-15.39,9.64c-3.22-1-14.89-9.64-14.89-9.64l-11.84,4.56,26.57,20.83Z" transform="translate(-150.5 -150)" fill="#e8ae7e"/><path d="M358,230.1c-12.55-17.78-25.43-18.33-46.19-19.19H289.22c-20.77.86-33.65,1.41-46.19,19.19s-7.8,22.42-6.81,43.89c.75,16.23-8.95,4.84-2.24,50s45.9,59.59,66.52,59.59S357.37,371.45,367,324s-3-33.74-2.24-50C365.77,252.52,370.52,247.9,358,230.1Z" transform="translate(-150.5 -150)" fill="#e8ae7e"/><path d="M296,340.56h-.23a2.56,2.56,0,0,1-2.33-2.79c.35-3.89.9-19.19.9-23.88a2.57,2.57,0,0,1,5.14,0c0,4.46-.53,20-.92,24.35A2.57,2.57,0,0,1,296,340.56Z" transform="translate(-150.5 -150)" fill="#ba7e56"/><path d="M272.67,312.13c0,6-4.09,10.83-9.13,10.83s-9.13-4.85-9.13-10.83,4.09-10.84,9.13-10.84S272.67,306.14,272.67,312.13Z" transform="translate(-150.5 -150)" fill="#3a1e0a"/><path d="M275.05,294.72a2.77,2.77,0,0,1-2.08-.94,11.42,11.42,0,0,0-8.54-3.62c-3.95-.1-7.95,1.42-10.11,3.69a2.78,2.78,0,0,1-4-3.83c3.26-3.44,8.75-5.48,14.24-5.42a16.92,16.92,0,0,1,12.6,5.49,2.78,2.78,0,0,1-.24,3.93A2.73,2.73,0,0,1,275.05,294.72Z" transform="translate(-150.5 -150)" fill="#3a1e0a"/><path d="M328.21,294.72a2.81,2.81,0,0,1-1.71-.59,2.78,2.78,0,0,1-.47-3.91c2.34-3,6.76-5,11.54-5.21a16.5,16.5,0,0,1,13,5,2.78,2.78,0,0,1-4,3.84,11.14,11.14,0,0,0-8.7-3.29c-3.57.17-6.35,1.72-7.42,3.08A2.81,2.81,0,0,1,328.21,294.72Z" transform="translate(-150.5 -150)" fill="#3a1e0a"/><path d="M346.47,312.13c0,6-4.09,10.83-9.13,10.83s-9.13-4.85-9.13-10.83,4.1-10.84,9.13-10.84S346.47,306.14,346.47,312.13Z" transform="translate(-150.5 -150)" fill="#3a1e0a"/><path d="M270.44,335.77c0,4.92-5.77,8.9-12.89,8.9s-12.89-4-12.89-8.9,5.77-8.91,12.89-8.91S270.44,330.85,270.44,335.77Z" transform="translate(-150.5 -150)" fill="#ef9d75"/><path d="M356.22,335.77c0,4.92-5.77,8.9-12.89,8.9s-12.89-4-12.89-8.9,5.77-8.91,12.89-8.91S356.22,330.85,356.22,335.77Z" transform="translate(-150.5 -150)" fill="#ef9d75"/><path d="M337.39,209.64c-22.11-10.76-55.15-9.5-77.51,1.25-12.21,5.87-40,26.16-37.82,68.14-.42,30.76,16,61,16,61s-.09-20.61,50.29-42.83c37.58-16.58,43-43.65,43-43.65s2.48,14.37,19.18,28.17c20.73,17.13,18.79,31.5,18.79,31.5a45.56,45.56,0,0,0,8.39-29.95v0C378.94,263,373.35,227.14,337.39,209.64Z" transform="translate(-150.5 -150)" fill="#331907"/><path d="M297.79,360.71l-.55,0c-9.07-.32-16.46-4.1-20.27-10.35a2.57,2.57,0,0,1,4.39-2.67c4.11,6.74,12.6,7.76,16.06,7.89,6.42.22,12.5-1.71,14.56-4.6a2.57,2.57,0,1,1,4.18,3C313.14,358.18,305.8,360.87,297.79,360.71Z" transform="translate(-150.5 -150)" fill="#ba7e56"/></svg>