<svg id="Layer_1" data-name="Layer 1" xmlns="http://www.w3.org/2000/svg" viewBox="0 0 300 300"><path d="M450.5,300a150,150,0,1,1-150-150A150,150,0,0,1,450.5,300Z" transform="translate(-150.5 -150)" fill="#f56d65"/><path d="M418.09,393.06a111.69,111.69,0,0,1-7-13.24c-6.63-14.37,3.86-30.44-2.76-52.5S385.12,304.66,384,282.79h0c0-51.53-28.57-85.81-83.46-85.81-50.69,0-83.44,32.68-83.44,85.81-1.17,21.87-17.75,22.42-24.38,44.53s3.87,38.13-2.76,52.5a111.69,111.69,0,0,1-7,13.24,150.49,150.49,0,0,0,46.83,39.21v0q5,2.7,10.28,5l.3.14c1.44.64,2.9,1.24,4.37,1.83l2,.77c1.26.49,2.53,1,3.8,1.42l.76.25c21-3.43,31.08,2.63,48.36,2.63,18.05,0,35.37-3.31,52.3-3.35,1.07-.39,2.12-.81,3.18-1.23l2.22-.87q2-.83,4-1.71l1.06-.49q4.55-2.06,8.93-4.41v0A150.52,150.52,0,0,0,418.09,393.06Z" transform="translate(-150.5 -150)" fill="#331907"/><path d="M359,232.55c-12.51-17.75-25.36-18.29-46.08-19.15H290.35c-20.72.86-33.57,1.4-46.08,19.15s-7.78,22.36-6.79,43.79c.75,16.18-8.92,4.83-2.23,49.84s45.79,59.46,66.36,59.46,56.73-12.07,66.37-59.46-3-33.66-2.24-49.84C366.72,254.91,371.47,250.31,359,232.55Z" transform="translate(-150.5 -150)" fill="#e8ae7e"/><path d="M350.11,433.49c.3-.08-1.93-1.82-1.62-1.9-.37-1.41.26-2.23,0-3-4.72-14.29-9.47-16.16-21.28-22.38,0-.06-7.27-6.57-7.54-6.39a1,1,0,0,0-.32.37c-2.25-1.56-8.17-2.54-8.17-2.54-.11.64-7,.61-9.57,1.42-2.62-.82-9.7-1.88-9.77-2.53,0,0-6.43,3-8.29,4,0-.3.26,1.66,0,1.5s-7.77,4.45-7.74,4.69c0-.11,1.13-1,1.11-1.1-12.27,6.49-13.63,8.15-18.24,22.1-.22.69-1.08,1.37-1.38,2.49.3.1-4.34,2.61-4,2.71-.57,2.18-1.28,5.15-2.08,8.74q6.85,2.38,14,4.12a150.65,150.65,0,0,0,34.54,4.2l.79,0c.88,0,1.75-.05,2.62-.07a148.43,148.43,0,0,0,48.77-9C351.21,438,350.61,435.46,350.11,433.49Z" transform="translate(-150.5 -150)" fill="#e8ae7e"/><rect x="138.5" y="230.57" width="25.22" height="38.96" fill="#e8ae7e"/><path d="M297.14,345.24h-.23a2.56,2.56,0,0,1-2.32-2.79c.35-3.89.89-19.16.89-23.83a2.57,2.57,0,0,1,5.13,0c0,4.44-.52,19.93-.91,24.29A2.58,2.58,0,0,1,297.14,345.24Z" transform="translate(-150.5 -150)" fill="#ba7e56"/><path d="M282.11,420.44a1.43,1.43,0,0,1-.88-2.56l9.81-7.67a1.43,1.43,0,0,1,2,.25,1.41,1.41,0,0,1-.25,2L283,420.13A1.39,1.39,0,0,1,282.11,420.44Z" transform="translate(-150.5 -150)" fill="#b0adb2"/><path d="M321.47,420.44a1.45,1.45,0,0,1-.85-.29l-10.71-8.08a1.43,1.43,0,1,1,1.73-2.28l10.7,8.08a1.43,1.43,0,0,1-.87,2.57Z" transform="translate(-150.5 -150)" fill="#b0adb2"/><path d="M320.52,400.38" transform="translate(-150.5 -150)" fill="#3c313f"/><path d="M271.62,338c0,4.91-5.76,8.89-12.86,8.89s-12.86-4-12.86-8.89,5.76-8.88,12.86-8.88S271.62,333.06,271.62,338Z" transform="translate(-150.5 -150)" fill="#ef9d75"/><path d="M357.2,338c0,4.91-5.76,8.89-12.86,8.89s-12.86-4-12.86-8.89,5.76-8.88,12.86-8.88S357.2,333.06,357.2,338Z" transform="translate(-150.5 -150)" fill="#ef9d75"/><path d="M351,433.24c-.37-1.41-.69-2.56-1-3.37-4.71-14.29-7.38-18.76-19.19-25,0-.06-16.65-8.82-16.65-8.82a11,11,0,0,1-.79,1.27,14.3,14.3,0,0,1-24.25-.88,1.67,1.67,0,0,1-.18-.39s-17.05,9.15-17.07,9c-12.27,6.49-14.16,10.81-18.77,24.77-.22.69-.49,1.62-.79,2.75l.89.3c4.92,1.69,9.59,3.29,14.37,4.64v0a36.54,36.54,0,0,0-2.47,8.19,150.65,150.65,0,0,0,34.54,4.2l.79,0c.88,0,1.75-.05,2.62-.07a150.24,150.24,0,0,0,34.44-4.55,34.91,34.91,0,0,0-1.64-5.8c4.86-2.35,9.53-5,15.08-6.31Z" transform="translate(-150.5 -150)" fill="#fff"/><path d="M345.46,214.12c-20.5-13-50-14.25-73.6-6.91-12.89,4-43.34,16.63-47.47,54.57-4.49,29,6.24,59.11,6.24,59.11,5.63-10.46-1-30.77,31.32-44.28,37.47-15.67,41.87-26.75,41.87-26.75a56.93,56.93,0,0,0,24.49,22.85c24.2,11.71,36.2,18.51,41.73,52,0,0,7-22.14,8-39.21a0,0,0,0,1,0,0C380.77,265.56,378.79,235.19,345.46,214.12Z" transform="translate(-150.5 -150)" fill="#331907"/><path d="M252.19,300.07a2.81,2.81,0,0,1-2-4.75c3.11-3.27,10.31-4.75,16.07-4.77h.11c3.74,0,10.46.6,14.23,4.52a2.81,2.81,0,0,1-4.06,3.9c-1.68-1.76-5.48-2.79-10.16-2.79h-.1c-5.67,0-10.64,1.57-12,3A2.84,2.84,0,0,1,252.19,300.07Z" transform="translate(-150.5 -150)" fill="#3a1e0a"/><path d="M322.36,300.21a2.81,2.81,0,0,1-1.7-5.06c8.48-6.4,24.64-6.25,30.88.3a2.82,2.82,0,1,1-4.07,3.89c-4.32-4.54-17.24-4.37-23.42.3A2.82,2.82,0,0,1,322.36,300.21Z" transform="translate(-150.5 -150)" fill="#3a1e0a"/><path d="M265.64,322.69c-5.08,0-11-1.8-13.16-6a2.82,2.82,0,0,1,5-2.54c.79,1.57,4.69,3.14,9,2.9,1.42-.08,6.17-.6,7.44-4a2.81,2.81,0,0,1,5.27,2c-1.65,4.47-6.29,7.34-12.4,7.68C266.42,322.68,266,322.69,265.64,322.69Z" transform="translate(-150.5 -150)" fill="#3a1e0a"/><path d="M335.32,323.81c-.35,0-.7,0-1.05,0-6.18-.34-11.36-3.66-13.53-8.67a2.82,2.82,0,1,1,5.17-2.23c1.57,3.63,5.51,5.11,8.67,5.28,4.2.23,8-1.58,9.74-4.61a2.81,2.81,0,1,1,4.89,2.77C346.55,321,341.29,323.81,335.32,323.81Z" transform="translate(-150.5 -150)" fill="#3a1e0a"/><path d="M300.47,366.77c-7.37,0-15.94-1.81-20.63-7a2.57,2.57,0,0,1,3.81-3.44c3.38,3.74,11.05,5.79,19.47,5.22,6.5-.45,12-2.43,13.74-4.95a2.57,2.57,0,0,1,4.24,2.89c-2.68,3.92-9.27,6.6-17.64,7.17C302.5,366.74,301.5,366.77,300.47,366.77Z" transform="translate(-150.5 -150)" fill="#ba7e56"/><path d="M372.44,308.36H230a2.82,2.82,0,1,1,0-5.63H372.44a2.82,2.82,0,0,1,0,5.63Z" transform="translate(-150.5 -150)" fill="#331907"/><path d="M333.71,340.84c-7.17,0-13.07-2.37-17.55-7-9.55-10-9-26.83-8.93-27.55a2.85,2.85,0,0,1,3-2.77,2.89,2.89,0,0,1,2.78,3c0,.15-.5,15.16,7.34,23.32,3.39,3.52,7.76,5.23,13.35,5.23,8.33,0,14.82-2.34,19.3-7,7.07-7.3,7.28-18.39,7.18-21.61a2.91,2.91,0,0,1,2.81-3,2.94,2.94,0,0,1,3,2.81c.15,4.87-.4,17.14-8.82,25.84C351.56,337.9,343.67,340.84,333.71,340.84Z" transform="translate(-150.5 -150)" fill="#331907"/><path d="M266.2,340.84c-10,0-17.92-2.94-23.55-8.75-8.42-8.7-9-20.94-8.81-25.81a3,3,0,0,1,3-2.81,2.91,2.91,0,0,1,2.81,3c-.1,3.21.11,14.28,7.18,21.58,4.49,4.64,11,7,19.38,7,5.63,0,10-1.71,13.42-5.25,7.84-8.16,7.35-23.14,7.34-23.29a2.91,2.91,0,0,1,2.78-3,2.86,2.86,0,0,1,3,2.78c0,.71.62,17.56-8.93,27.53C279.33,338.47,273.4,340.84,266.2,340.84Z" transform="translate(-150.5 -150)" fill="#331907"/></svg>