<?xml version="1.0" standalone="no"?>
<!DOCTYPE svg PUBLIC "-//W3C//DTD SVG 20010904//EN"
 "http://www.w3.org/TR/2001/REC-SVG-20010904/DTD/svg10.dtd">
<svg version="1.0" xmlns="http://www.w3.org/2000/svg"
 width="339.000000pt" height="183.000000pt" viewBox="0 0 339.000000 183.000000"
 preserveAspectRatio="xMidYMid meet">
<metadata>
Created by potrace 1.10, written by Peter Selinger 2001-2011
</metadata>
<g transform="translate(0.000000,183.000000) scale(0.100000,-0.100000)"
fill="#000000" stroke="none">
<path d="M2765 1584 c-86 -14 -262 -56 -335 -79 -25 -9 -92 -31 -150 -49 -133
-44 -359 -136 -520 -214 -244 -117 -306 -148 -347 -175 -24 -15 -45 -27 -49
-27 -4 0 -40 -20 -81 -45 -40 -25 -76 -45 -78 -45 -2 0 -24 -13 -47 -29 -24
-16 -74 -49 -113 -75 -38 -25 -88 -59 -110 -76 -22 -16 -51 -37 -65 -47 -14
-10 -46 -34 -71 -55 -25 -21 -48 -38 -52 -38 -13 0 -7 38 8 50 8 7 15 18 15
24 0 10 36 89 76 168 8 14 14 31 14 36 0 6 20 52 45 104 68 140 59 225 -12
120 -18 -26 -72 -105 -121 -177 -48 -71 -91 -138 -95 -147 -3 -9 -36 -63 -73
-120 -36 -56 -70 -111 -75 -123 -5 -11 -18 -33 -29 -50 -11 -16 -30 -47 -42
-68 -68 -114 -70 -126 -35 -178 26 -38 29 -39 257 -58 151 -13 630 -14 648 -2
8 5 12 16 10 26 -3 19 -41 33 -158 61 -36 8 -83 19 -105 25 -22 5 -92 18 -155
29 -139 25 -150 28 -150 44 0 16 160 157 288 254 102 77 345 242 357 242 3 0
21 11 38 24 18 13 55 36 82 50 28 15 75 41 107 59 202 114 667 347 694 347 3
0 20 6 37 14 62 27 400 152 453 167 17 5 39 18 49 29 18 19 17 20 -6 19 -13
-1 -60 -8 -104 -15z"/>
</g>
</svg>
