<?xml version="1.0" encoding="UTF-8" ?>
<!DOCTYPE svg PUBLIC "-//W3C//DTD SVG 1.1//EN" "http://www.w3.org/Graphics/SVG/1.1/DTD/svg11.dtd">
<svg width="287pt" height="258pt" viewBox="0 0 287 258" version="1.1" xmlns="http://www.w3.org/2000/svg">
<path fill="#1b586b" d=" M 0.00 0.00 L 287.00 0.00 L 287.00 258.00 L 0.00 258.00 L 0.00 0.00 Z" />
<path fill="#fdeedb" d=" M 42.48 19.53 C 42.31 16.74 43.52 13.09 46.85 13.04 C 54.61 12.79 62.38 12.99 70.14 12.95 C 72.65 12.67 75.37 14.40 75.51 17.06 C 75.80 23.95 75.45 30.86 75.67 37.76 C 75.69 39.34 75.69 40.93 75.67 42.52 C 75.47 49.31 75.76 56.11 75.54 62.90 C 75.57 65.77 72.73 67.67 70.04 67.41 C 62.38 67.40 54.72 67.59 47.07 67.32 C 43.59 67.30 42.30 63.65 42.47 60.73 C 42.46 46.99 42.45 33.26 42.48 19.53 Z" />
<path fill="#fbdebc" d=" M 208.61 17.02 C 208.73 14.40 211.48 12.71 213.93 12.96 C 221.66 12.96 229.40 12.82 237.13 13.03 C 240.51 13.04 241.82 16.70 241.62 19.57 C 241.64 33.27 241.64 46.98 241.62 60.69 C 241.79 63.65 240.52 67.39 236.96 67.31 C 229.32 67.56 221.66 67.40 214.02 67.39 C 211.43 67.59 208.51 65.88 208.61 63.01 C 208.38 56.18 208.65 49.34 208.49 42.51 C 208.48 40.93 208.48 39.35 208.50 37.77 C 208.65 30.85 208.37 23.93 208.61 17.02 Z" />
<path fill="#c5d8c5" d=" M 35.62 23.42 C 36.16 20.19 39.78 19.64 42.48 19.53 C 42.45 33.26 42.46 46.99 42.47 60.73 C 39.93 60.54 36.59 60.29 35.77 57.34 C 35.00 52.46 35.68 47.45 35.37 42.53 C 35.34 40.95 35.35 39.36 35.37 37.78 C 35.60 33.00 35.18 28.19 35.62 23.42 Z" />
<path fill="#c5d8c5" d=" M 241.62 19.57 C 244.28 19.69 247.89 20.14 248.48 23.35 C 248.97 28.13 248.51 32.96 248.70 37.76 C 248.71 39.34 248.71 40.92 248.71 42.50 C 248.53 47.20 248.91 51.92 248.53 56.61 C 248.03 59.93 244.45 60.72 241.62 60.69 C 241.64 46.98 241.64 33.27 241.62 19.57 Z" />
<path fill="#c5d8c5" d=" M 96.10 37.72 C 96.62 34.36 98.37 30.74 102.02 29.97 C 106.93 28.08 113.44 32.31 112.14 37.87 L 111.84 38.26 C 106.63 37.44 101.35 37.69 96.10 37.72 Z" />
<path fill="#9cc3a6" d=" M 173.84 31.81 C 177.02 28.63 182.78 28.95 185.76 32.25 C 187.16 33.72 187.42 35.82 187.99 37.69 C 182.42 37.62 176.84 37.62 171.27 37.69 C 171.87 35.64 172.19 33.33 173.84 31.81 Z" />
<path fill="#dd6264" d=" M 22.10 38.14 C 26.46 37.25 30.95 37.87 35.37 37.78 C 35.35 39.36 35.34 40.95 35.37 42.53 C 31.14 42.41 26.88 42.83 22.67 42.33 C 21.12 41.46 20.96 39.41 22.10 38.14 Z" />
<path fill="#dd6264" d=" M 75.67 37.76 C 82.48 37.69 89.29 37.73 96.10 37.72 C 101.35 37.69 106.63 37.44 111.84 38.26 L 112.14 37.87 C 131.83 37.47 151.57 37.91 171.27 37.69 C 176.84 37.62 182.42 37.62 187.99 37.69 C 194.83 37.79 201.66 37.67 208.50 37.77 C 208.48 39.35 208.48 40.93 208.49 42.51 C 201.30 42.55 194.10 42.37 186.91 42.62 C 181.40 42.84 175.88 42.78 170.37 42.72 C 151.49 42.60 132.60 42.81 113.72 42.66 C 108.17 42.58 102.63 42.64 97.09 42.57 C 89.95 42.48 82.81 42.55 75.67 42.52 C 75.69 40.93 75.69 39.34 75.67 37.76 Z" />
<path fill="#dd6264" d=" M 248.70 37.76 C 252.82 37.82 256.96 37.47 261.06 37.92 C 263.26 38.43 262.55 40.83 262.25 42.40 C 257.74 42.52 253.22 42.54 248.71 42.50 C 248.71 40.92 248.71 39.34 248.70 37.76 Z" />
<path fill="#c5d8c5" d=" M 97.09 42.57 C 102.63 42.64 108.17 42.58 113.72 42.66 C 116.26 57.21 118.86 71.74 121.36 86.30 C 117.20 93.14 116.41 101.98 119.73 109.32 C 123.45 118.08 132.56 123.70 141.96 124.03 C 141.87 138.12 141.94 152.22 141.93 166.32 C 134.30 166.32 126.67 166.28 119.05 166.33 C 111.64 125.09 104.39 83.83 97.09 42.57 Z" />
<path fill="#1b586b" d=" M 113.72 42.66 C 132.60 42.81 151.49 42.60 170.37 42.72 C 167.86 57.24 165.20 71.73 162.78 86.26 C 158.43 79.70 151.01 75.18 143.08 74.91 C 134.46 74.45 125.96 79.05 121.36 86.30 C 118.86 71.74 116.26 57.21 113.72 42.66 Z" />
<path fill="#9cc3a6" d=" M 170.37 42.72 C 175.88 42.78 181.40 42.84 186.91 42.62 C 179.76 83.87 172.37 125.08 165.02 166.29 C 157.32 166.31 149.63 166.29 141.93 166.32 C 141.94 152.22 141.87 138.12 141.96 124.03 C 149.96 123.99 157.81 119.94 162.27 113.27 C 167.81 105.43 167.90 94.34 162.78 86.26 C 165.20 71.73 167.86 57.24 170.37 42.72 Z" />
<path fill="#dd6264" d=" M 121.36 86.30 C 125.96 79.05 134.46 74.45 143.08 74.91 C 151.01 75.18 158.43 79.70 162.78 86.26 C 167.90 94.34 167.81 105.43 162.27 113.27 C 157.81 119.94 149.96 123.99 141.96 124.03 C 132.56 123.70 123.45 118.08 119.73 109.32 C 116.41 101.98 117.20 93.14 121.36 86.30 Z" />
<path fill="#fdeedb" d=" M 119.05 166.33 C 126.67 166.28 134.30 166.32 141.93 166.32 C 142.13 174.39 142.21 182.47 141.78 190.54 C 139.20 191.18 136.67 192.04 134.36 193.39 C 126.48 197.84 118.54 202.20 110.59 206.54 C 108.51 207.61 106.35 209.42 106.37 211.98 C 106.69 218.68 107.82 225.31 108.27 232.01 C 108.68 236.16 105.29 240.36 101.01 240.38 C 97.14 240.40 92.63 241.24 89.38 238.58 C 87.16 236.77 86.70 233.77 86.32 231.11 C 84.86 220.71 83.01 210.37 81.58 199.97 C 81.03 195.84 83.09 191.74 86.44 189.37 C 97.28 181.65 108.21 174.05 119.05 166.33 Z" />
<path fill="#fbdebc" d=" M 141.93 166.32 C 149.63 166.29 157.32 166.31 165.02 166.29 C 174.88 173.33 184.79 180.29 194.70 187.26 C 199.13 189.81 203.25 194.26 202.54 199.77 C 200.98 210.81 199.09 221.81 197.50 232.85 C 197.17 236.06 195.16 239.20 191.91 240.06 C 188.98 240.69 185.93 240.53 182.96 240.37 C 178.84 240.18 175.31 236.20 175.83 232.07 C 176.19 225.36 177.47 218.73 177.72 212.02 C 177.81 209.68 176.04 207.88 174.09 206.89 C 165.72 202.25 157.31 197.69 148.99 192.98 C 146.78 191.65 144.28 191.04 141.78 190.54 C 142.21 182.47 142.13 174.39 141.93 166.32 Z" />
</svg>
