<svg xmlns="http://www.w3.org/2000/svg" viewBox="0 0 900 900">
  <path fill="#cccccc" d="M227.643 509.222c.176 2.043.266 4.116.266 6.21 0 39.504-32.072 71.577-71.577 71.577-39.504 0-71.577-32.073-71.577-71.577s32.073-71.577 71.577-71.577c11.69 0 22.728 2.808 32.474 7.784l-16.263 10.834a55.288 55.288 0 00-16.211-2.415c-4.126 0-8.147.452-12.018 1.31l5.088 16.52-5.379 3.583-4.315-18.87c-12.538 3.947-23.158 12.238-30.093 23.106l21.352 11.295a34.947 34.947 0 00-2.03 6.461l-21.711-13.63a55.1 55.1 0 00-6.268 25.599c0 4.126.452 8.147 1.31 12.019l26.974-8.309a34.485 34.485 0 002.354 6.49l-28.095 6.424c3.947 12.539 12.238 23.159 23.106 30.093l13.434-25.394a34.449 34.449 0 005.622 4.003l-14.929 23.78a55.087 55.087 0 0025.598 6.268c4.126 0 8.147-.452 12.019-1.31l-7.46-24.218c2.243.133 4.504.05 6.751-.256l5.314 23.241c12.539-3.947 23.159-12.238 30.093-23.106l-16.359-8.654 5.597-3.729 13.151 8.257a54.987 54.987 0 006.085-21.071l16.12-10.738z"/>
  <path fill="#000000" d="M540.107 468.081c-2.589-.744-169.537-50.067-169.537-50.067a59.95 59.95 0 01-12.497-5.29L177.73 532.859c-12.276 8.178-28.883 4.85-37.061-7.427-8.178-12.276-4.85-28.883 7.426-37.061l180.087-119.963a59.613 59.613 0 011.957-24.804c9.376-31.691 42.718-49.807 74.41-40.431l171.989 50.888c26.434 7.821 43.423 32.316 42.891 58.621a54.89 54.89 0 01-2.448 17.411l28.03 85.643h138.212c19.668 0 35.636 15.968 35.636 35.637 0 19.668-15.968 35.636-35.636 35.636h-163.42c-16.218 0-29.921-10.858-34.229-25.697l-30.346-90.667a68.069 68.069 0 01-15.121-2.564zm-343.44-163.858c9.905-33.477 45.125-52.614 78.602-42.709 33.477 9.905 52.614 45.125 42.709 78.602-9.905 33.477-45.125 52.614-78.602 42.709-33.477-9.905-52.614-45.125-42.709-78.602z"/>
</svg>
