<svg xmlns="http://www.w3.org/2000/svg" viewBox="0 0 900 900">
  <path fill="#cccccc" d="M422.597 488.038l-8.492-93.956a40.603 40.603 0 01-.322-5.272c-.065-16.923 10.36-31.864 25.573-37.988l148.842-78.225c19.942-10.481 44.643-2.799 55.124 17.144 10.481 19.942 2.799 44.643-17.144 55.124l-128.447 67.506 13.667 151.221c2.028 22.437-14.542 42.3-36.98 44.328-7.62.689-33.326-2.702-39.521-3.443 0 0-89.399-10.602-119.529-17.864-4.391-1.058-15.472-6.956-15.472-6.956l-34.479-21.3c-28.663-17.707-37.558-55.354-19.851-84.017l26.619-43.09c17.708-28.663 55.354-37.558 84.018-19.851l41.015 25.338c3.356 2.074 7.993 5.411 13.133 9.312l3.859 42.699 8.387-.71zm197.044-120.721l153.146-30.534c22.094-4.405 43.609 9.956 48.014 32.051 4.405 22.094-9.956 43.608-32.051 48.013l-204.003 40.675-57.425 95.24-11.814-130.717 104.133-54.728z"/>
  <path fill="#000000" d="M78.639 542.157l40.887-117.068c6.456 22.837 22.869 42.263 45.416 52.023l-12.708 36.385 76.286-15.312c-2.468 20.829 4.629 42.089 19.752 57.262l-133.641 26.825a29.869 29.869 0 01-18.015-.556c-12.377-4.323-20.134-15.955-20.124-28.369a29.82 29.82 0 012.147-11.19zm118.564-210.906a72.1 72.1 0 0116.685 2.027c38.646 9.335 62.442 48.29 53.106 86.936-7.914 32.76-37.112 54.849-69.358 55.131l-.446.002a72.143 72.143 0 01-17.132-2.027c-38.646-9.336-62.442-48.291-53.106-86.936 7.95-32.911 37.381-55.053 69.804-55.134l.447.001zm97.72-63.129a29.855 29.855 0 0114.329-3.921 29.872 29.872 0 0118.501 5.988 29.782 29.782 0 015.519 5.365l.009.011.029.037.025.032.007.01a29.87 29.87 0 016.434 18.054l1.75 102.376c-20.765-5.372-42.943-.764-59.829 12.241l-1.091-63.845-19.269 10.582c-10.823-14.461-26.555-25.386-45.472-29.956a80.511 80.511 0 00-20.599-2.247l99.657-54.727z"/>
</svg>
