<svg xmlns="http://www.w3.org/2000/svg" viewBox="0 0 900 900">
  <path fill="#cccccc" d="M450.7 610.62c42.24 16.49 94.46 38.72 122.83 52.12l90.42-100.9-70.8-157.34-3.31 2.38a14.32 14.32 0 0 1-16.75-23.2l.7-.51 8.42 2.64a39.9 39.9 0 0 0 30.88-3.22 40.2 40.2 0 0 0 20.25-33.27 36.9 36.9 0 0 0-.76-8.56l52.67-38a14.32 14.32 0 0 1 16.75 23.2l-65.44 47.21 82.16 182.94a26.13 26.13 0 0 1 2.21 10.6 26.13 26.13 0 0 1-6.69 17.6L617.58 692.2c16.31 17.97 26.33 42.26 26.33 68.98 0 14.77-3.07 28.8-8.57 41.45h14.97a9.35 9.35 0 0 1 9.34 9.34v18.69a9.35 9.35 0 0 1-9.34 9.34H227.43a9.35 9.35 0 0 1-9.35-9.34v-18.7a9.35 9.35 0 0 1 9.35-9.33h23.8a141.48 141.48 0 0 1-23.83-79.03c0-66.07 44.56-121.35 103.95-134.75l-75.2-119.93-28.16 9.13a21.41 21.41 0 0 1-26.96-13.75c-1.44-4.46-1.96-18.97-1.96-22.17a21.41 21.41 0 0 1 20.5-21.38 57.78 57.78 0 0 0 13.04 10.6l2.94.79 116.62 14.37a21.42 21.42 0 0 1-20.95 17.02l-15.8.06 62.2 99.18-.17 3.17a49.49 49.49 0 0 0 13.33 36.1 48.55 48.55 0 0 0 17.55 11.74h-20.94a5.63 5.63 0 0 0-4.9 2.83 81.47 81.47 0 0 0-14.57-1.26 86.47 86.47 0 0 0-58.63 23.9c-19.29 18.62-28.98 46.69-25.26 73.28 4.1 29.2 24.53 55.52 51.74 66.85 41.68 17.33 91.12-3.58 109.55-41.8 11.4-23.63 11-52.5-.92-75.77a83.74 83.74 0 0 0-20.37-25.5h21.98c3.1 0 5.63-2.53 5.63-5.64v-11.26c0-3.1-2.52-5.63-5.63-5.63h-1.55c2.16-.9 4.25-1.96 6.25-3.16zm-55.72 25.68l-27.17 44.24a20.1 20.1 0 0 0 .66 40.16 20.1 20.1 0 0 0 18.99-26.64l31.64-53.6c19.75 17.18 30.91 44.24 27.61 70.2-3.46 27.18-22.23 51.91-47.55 62.63-28.53 12.07-63.1 5.37-85.1-15.6-19.04-18.15-28-46.21-23.05-72 6.85-35.71 40.7-63.6 76.95-63.95 4.62-.01 9.24.37 13.8 1.14v7.8c0 3.1 2.52 5.62 5.63 5.62h7.6zm-26.5 51.87a12.45 12.45 0 1 1-.02 24.9 12.45 12.45 0 0 1 .01-24.9z"/>
  <path fill="#000000" d="M424.18 303.68l-54.4 57.94 65.65 7.7 1.5.2.03.01a37.74 37.74 0 0 1 35.73 39.61l-8.75 161.25a37.74 37.74 0 0 1-39.61 35.73 37.74 37.74 0 0 1-35.73-39.6l6.93-125.92-158.61-19.54s-3.75-2.96-5.53-4.63a63.42 63.42 0 0 1-2.83-89.6l129.95-138.4a63.41 63.41 0 0 1 89.6-2.83 63.28 63.28 0 0 1 19.8 50.98l-25.06-29.24a39.02 39.02 0 0 0-29.4-13.38 39 39 0 0 0-32.74 18.78c-8.22 13.84-6.46 32.3 3.7 44.39 13.24 15.54 26.49 31.06 39.77 46.55zM250.5 482.5l.82-.27 62.7 100-.68.23a142.08 142.08 0 0 0-37.5 20.17l-25.34-120.13zm224.94-142.4a28.24 28.24 0 0 1-14.44-9l-68.82-80.28a28.4 28.4 0 0 1 3.08-40.02 28.4 28.4 0 0 1 40.02 3.07L498.82 288l103.73 33.6a28.4 28.4 0 0 1 18.26 35.74 28.4 28.4 0 0 1-35.75 18.26l-109.63-35.5zm73.42-261.96a66.99 66.99 0 0 1 2.98 94.64 66.99 66.99 0 0 1-94.64 2.99 66.99 66.99 0 0 1-2.98-94.65 66.99 66.99 0 0 1 94.64-2.98z"/>
</svg>