<svg xmlns="http://www.w3.org/2000/svg" viewBox="0 0 900 900">
  <path fill="#cccccc" d="M375.7 551.55l-9.01-3.4a67.49 67.49 0 0 1-41.16-44.74l-99.12-37.36-54.3 131.14a40.23 40.23 0 0 1-52.53 21.77 40.23 40.23 0 0 1-21.77-52.53l68.14-164.58a40 40 0 0 1 13.49-17.13 40.22 40.22 0 0 1 40.35-7.1l134.1 50.53a67.49 67.49 0 0 1 60.45-6.46l189.39 71.36a67.6 67.6 0 0 1 39.4 87.06 67.21 67.21 0 0 1-24.06 31.22c4.7-10.4 5.38-22.67 1.12-33.28-6.19-15.4-22.13-26.24-38.77-26.4-68.57-.2-137.14-.24-205.72-.1z"/>
  <path fill="#000000" d="M333.28 563.55h247.87a30.17 30.17 0 0 1 30.16 30.15 30.17 30.17 0 0 1-30.16 30.16H333.28a30.17 30.17 0 0 1-30.15-30.16 30.17 30.17 0 0 1 30.15-30.15zm471.98-11.06a71.4 71.4 0 0 1-71.38 71.37 71.4 71.4 0 0 1-71.37-71.37 71.4 71.4 0 0 1 71.37-71.38 71.4 71.4 0 0 1 71.38 71.38z"/>
</svg>