<svg xmlns="http://www.w3.org/2000/svg" viewBox="0 0 900 900">
  <path fill="#cccccc" d="M190.87 504.07a83.92 83.92 0 0 1-34.62-55.45c-7.36-45.87 23.9-89.09 69.77-96.45l248.94-39.94c45.87-7.36 89.09 23.9 96.45 69.77a83.85 83.85 0 0 1-12.26 58.76c-3.75-16.73-7.51-33.45-11.28-50.18-4.4-18.98-22.16-32.86-41.1-33.08-5.3-.03-10.63.91-15.58 2.8-19.09 7.27-30.6 29.07-26.44 48.73 5.3 24.26 10.63 48.52 15.97 72.77l-88.36 14.18 36.7 18.8a50.12 50.12 0 0 1 10.2 88.94L253.62 725.26a50.12 50.12 0 0 1-69.35-14.46 50.12 50.12 0 0 1 14.47-69.35l113.17-74.11s-118.3-61.03-121.04-63.28z"/>
  <path fill="#000000" d="M506.27 367.5c-19.14.13-36 19.28-31.74 39.42 22 100.7 44.34 201.32 66.99 301.87 2.92 12.58 13.82 22.8 26.47 24.88 13.63 2.25 28.28-5.22 34.47-17.72a32.86 32.86 0 0 0 2.65-21.28c-22-100.69-44.34-201.3-66.99-301.86-3.23-13.93-16.2-24.95-31.04-25.3l-.8-.01zm237.23-68.25c0 49.07-39.84 88.91-88.92 88.91-49.07 0-88.92-39.84-88.92-88.91 0-49.08 39.85-88.92 88.92-88.92 49.08 0 88.92 39.84 88.92 88.92z"/>
</svg>