<svg xmlns="http://www.w3.org/2000/svg" fill-rule="evenodd" viewBox="0 0 900 900">
  <path fill="#000000" d="M476.524 258.455v217.142c0 14.581-11.838 26.42-26.42 26.42-14.582 0-26.42-11.839-26.42-26.42V258.455c0-14.581 11.838-26.42 26.42-26.42 14.582 0 26.42 11.839 26.42 26.42zM450 68.543c34.51 0 62.527 28.018 62.527 62.527 0 34.51-28.017 62.528-62.527 62.528-34.51 0-62.527-28.018-62.527-62.528 0-34.509 28.017-62.527 62.527-62.527z"/>
  <path fill="#cccccc" d="M422.991 779.396a19.762 19.762 0 01-8.114-15.965V490.153c-14.538-10.79-23.965-28.083-23.965-47.561V265.295c0-32.669 26.523-59.192 59.192-59.192s59.192 26.523 59.192 59.192v177.297c0 19.478-9.427 36.771-23.965 47.561V810.58a7.271 7.271 0 01-11.557 5.873l-50.783-37.057zm-7.307-303.799V258.455c0-18.997 15.423-34.42 34.42-34.42s34.42 15.423 34.42 34.42v217.142c0 18.997-15.423 34.42-34.42 34.42s-34.42-15.423-34.42-34.42z"/>
</svg>
