<svg version="1.0" xmlns="http://www.w3.org/2000/svg"
 width="100%" height="100%" viewBox="0 0 489.000000 489.000000"
 preserveAspectRatio="xMidYMid meet">
<g transform="translate(0.000000,489.000000) scale(0.100000,-0.100000)"
fill="#000000" stroke="none">
<path fill="#cccccc" d="M537 4694 c-4 -4 -7 -103 -7 -221 0 -123 -4 -213 -9 -213 -5 0 -23
-12 -40 -26 -25 -21 -31 -33 -31 -65 0 -52 23 -95 55 -103 l25 -6 0 -209 c0
-167 3 -211 14 -220 9 -7 42 -11 88 -9 l73 3 6 215 c3 118 6 216 7 218 1 2 12
2 25 0 22 -3 22 -4 27 -218 l5 -215 85 0 85 0 3 213 c2 186 4 214 19 219 36
14 43 -21 43 -234 l0 -203 79 0 c53 0 82 4 90 13 7 9 12 88 13 218 l3 204
1223 3 c672 1 1223 1 1224 0 1 -2 4 -100 7 -218 l6 -215 85 0 85 0 5 215 c5
214 5 215 28 218 12 2 23 2 24 0 1 -2 4 -100 7 -218 l6 -215 85 0 85 0 3 213
c2 186 4 214 19 219 33 13 39 -20 41 -223 2 -108 5 -201 8 -205 8 -14 148 -11
162 3 9 9 12 71 12 217 l1 206 32 20 c29 18 32 25 35 77 3 58 -5 75 -51 103
-15 9 -17 35 -18 215 0 127 -4 209 -11 217 -13 16 -154 18 -163 3 -4 -6 -6
-99 -6 -208 0 -109 -4 -204 -8 -211 -5 -7 -17 -11 -27 -9 -18 3 -19 18 -24
218 l-5 215 -87 3 -88 3 -2 -183 c0 -101 0 -190 0 -198 4 -38 -9 -61 -31 -58
-22 3 -22 5 -27 218 l-5 215 -85 0 -85 0 -3 -210 c-2 -181 -5 -212 -19 -222
-12 -9 -291 -12 -1213 -13 -659 0 -1205 2 -1214 6 -14 5 -16 31 -16 214 0 166
-3 210 -14 219 -9 7 -42 11 -88 9 l-73 -3 -6 -215 c-3 -118 -6 -216 -7 -218
-1 -2 -12 -2 -24 0 -23 3 -23 4 -28 218 l-5 215 -85 0 -85 0 -5 -215 -5 -215
-25 0 -25 0 -5 215 -5 215 -80 3 c-45 1 -84 0 -88 -4z"/>
<path d="M1395 3970 c-8 -13 13 -48 159 -270 195 -297 381 -581 431 -660 26
-41 61 -94 76 -118 l29 -43 0 -1248 0 -1248 30 -42 c17 -23 42 -46 56 -51 63
-24 128 -3 163 53 21 34 21 42 21 683 0 357 4 655 9 662 5 9 24 12 52 10 l44
-3 5 -537 c5 -520 6 -537 25 -564 26 -35 81 -64 120 -64 38 0 94 40 117 83 16
30 17 114 18 1153 l0 1122 75 112 c41 62 75 113 75 115 0 2 33 53 74 114 41
61 76 114 78 118 1 5 29 47 61 96 31 48 81 124 110 170 30 45 88 134 129 197
89 137 99 155 91 164 -3 3 -66 6 -139 6 -127 0 -134 -1 -149 -22 -9 -13 -51
-77 -94 -143 -43 -66 -109 -167 -147 -225 -38 -58 -71 -109 -74 -115 -13 -26
-125 -193 -143 -212 -20 -23 -24 -23 -276 -23 -186 1 -260 4 -272 13 -13 10
-179 253 -179 262 0 2 -31 50 -68 107 -37 57 -106 160 -152 231 l-83 127 -133
0 c-80 0 -135 -4 -139 -10z"/>
<path d="M2301 3927 c-62 -24 -129 -86 -163 -150 -20 -36 -23 -57 -23 -142 0
-107 10 -134 75 -211 54 -63 171 -110 250 -101 77 9 171 57 211 108 60 74 74
114 73 209 0 71 -5 93 -26 135 -75 145 -248 211 -397 152z"/>
</g>
</svg>
