<svg xmlns="http://www.w3.org/2000/svg" viewBox="0 0 900 900">
  <path fill="#cccccc" d="M449.999 274.767c-.36 0-.718.011-1.078.014v126.137c.36-.008.717-.028 1.078-.028 19.335 0 36.593 11.152 44.768 28.043h94.474c11.959 0 21.689 9.728 21.689 21.689h14.925c0-97.122-78.733-175.855-175.856-175.855"/>
  <path fill="#000000" d="M612.697 302.805l8.629-8.631c4.467 3.264 10.804 2.895 14.829-1.131l5.355-5.354c4.448-4.448 4.448-11.726 0-16.173l-15.284-15.285c-4.447-4.448-11.727-4.448-16.174 0l-5.353 5.354c-4.027 4.026-4.395 10.364-1.133 14.831l-8.8 8.8c-34.769-30.455-79.216-50.13-128.134-53.789v-12.434h6.129c10.061 0 18.295-8.233 18.295-18.295v-6.347c0-10.062-8.234-18.294-18.295-18.294h-47.678c-10.062 0-18.295 8.232-18.295 18.294v6.347c0 10.062 8.233 18.295 18.295 18.295h6.129v12.617c-112.606 9.535-201.031 103.939-201.031 219.012 0 121.402 98.417 219.817 219.818 219.817 121.403 0 219.82-98.415 219.82-219.817 0-56.916-21.632-108.779-57.122-147.817zM449.999 642.758c-106.114 0-192.135-86.022-192.135-192.136 0-106.114 86.021-192.136 192.135-192.136 106.115 0 192.136 86.022 192.136 192.136 0 106.114-86.021 192.136-192.136 192.136zm139.242-201.629h-102.92c-4.205-16.133-18.872-28.043-36.322-28.043-20.729 0-37.535 16.805-37.535 37.537 0 20.729 16.806 37.534 37.535 37.534 17.45 0 32.117-11.909 36.322-28.042h102.92c5.22 0 9.492-4.272 9.492-9.492 0-5.222-4.272-9.494-9.492-9.494z"/>
</svg>
