<svg version="1.0" xmlns="http://www.w3.org/2000/svg"
 width="100%" height="100%" viewBox="0 0 900.000000 900.000000"
 preserveAspectRatio="xMidYMid meet">

<g transform="translate(0.000000,900.000000) scale(0.100000,-0.100000)"
fill="#000000" stroke="none">
<path d="M4355 8611 c-192 -42 -323 -118 -445 -257 -209 -239 -250 -601 -100
-879 107 -197 272 -326 500 -391 90 -26 298 -26 390 1 148 42 249 103 365 220
64 64 89 99 127 175 73 148 83 191 83 365 -1 126 -4 161 -23 217 -57 180 -162
325 -307 425 -97 66 -172 97 -305 124 -114 23 -178 23 -285 0z"/>
<path fill="#cccccc" d="M612 7970 c-71 -51 -72 -58 -72 -449 0 -257 -3 -350 -12 -359 -7 -7
-43 -12 -90 -12 -66 0 -79 -3 -88 -19 -12 -24 -13 -230 -1 -250 7 -10 29 -13
86 -12 47 1 82 -2 91 -10 12 -9 14 -72 14 -366 0 -391 -1 -384 65 -442 35 -30
39 -31 128 -31 99 0 125 10 165 60 37 48 42 94 42 436 0 266 3 334 13 343 10
8 251 12 843 13 l829 3 6 91 c3 50 11 106 18 123 28 65 88 61 -851 63 l-853 3
-5 355 c-6 398 -6 402 -78 458 -38 30 -44 32 -124 32 -78 0 -88 -2 -126 -30z"/>
<path fill="#cccccc" d="M8142 7970 c-71 -51 -72 -58 -72 -450 0 -279 -3 -350 -13 -359 -10
-8 -255 -12 -858 -13 l-844 -3 1 -35 c2 -42 13 -162 20 -207 l5 -33 832 0
c635 0 836 -3 845 -12 9 -9 12 -102 12 -359 0 -387 1 -394 67 -448 36 -30 42
-31 128 -31 97 0 124 10 163 60 39 51 42 82 42 436 l0 344 23 5 c12 3 54 6 92
7 l70 3 3 115 c4 167 9 159 -96 162 l-87 3 -5 355 c-6 401 -6 406 -81 459 -39
29 -48 31 -124 31 -75 0 -85 -2 -123 -30z"/>
<path d="M2922 7290 c-105 -38 -167 -96 -204 -194 -41 -107 -46 -1052 -7
-1316 24 -166 64 -292 114 -360 68 -92 140 -140 243 -161 131 -27 282 34 380
155 48 59 68 60 76 4 4 -24 13 -79 21 -123 7 -44 21 -122 29 -172 38 -223 48
-282 61 -353 17 -91 30 -181 28 -195 0 -5 -10 -55 -21 -110 -20 -98 -35 -183
-67 -375 -9 -52 -23 -131 -30 -175 -8 -44 -21 -123 -30 -175 -34 -201 -47
-278 -60 -350 -8 -41 -21 -120 -30 -175 -9 -55 -22 -134 -30 -175 -8 -41 -21
-120 -30 -175 -8 -55 -22 -136 -30 -180 -8 -44 -21 -123 -30 -175 -9 -52 -22
-129 -29 -170 -8 -41 -22 -122 -31 -180 -9 -58 -23 -134 -31 -170 -8 -36 -14
-78 -14 -94 0 -17 -6 -57 -14 -90 -8 -34 -22 -108 -31 -166 -9 -58 -23 -142
-31 -188 -31 -182 -43 -251 -60 -347 -9 -55 -23 -134 -31 -175 -49 -253 -18
-404 111 -535 97 -98 190 -137 331 -137 129 -1 231 38 326 124 70 62 131 183
144 283 3 28 13 82 20 120 8 39 21 115 30 170 9 55 23 136 31 180 7 44 20 123
29 175 34 201 47 278 60 350 8 41 21 120 30 175 9 55 22 134 30 175 8 41 21
120 30 175 17 100 34 201 60 350 7 44 21 125 30 180 9 55 22 132 30 170 7 39
21 120 30 180 9 61 23 142 31 180 7 39 21 115 29 170 9 55 22 134 30 175 7 41
16 95 20 119 7 53 21 81 40 81 14 0 28 -56 60 -245 9 -55 23 -136 30 -180 8
-44 21 -123 30 -175 9 -52 23 -131 30 -175 8 -44 22 -125 30 -180 9 -55 23
-128 31 -162 8 -34 14 -75 14 -91 0 -16 6 -60 14 -98 8 -38 22 -114 31 -169
18 -107 36 -214 60 -347 13 -80 26 -154 60 -358 9 -52 22 -131 30 -175 7 -44
21 -123 30 -175 9 -52 22 -131 30 -175 8 -44 21 -120 29 -170 9 -49 23 -127
31 -173 8 -45 15 -92 15 -103 0 -11 14 -55 32 -97 46 -110 141 -205 252 -251
71 -30 89 -33 180 -33 92 -1 108 2 181 32 65 28 93 47 150 105 57 56 77 85
103 147 29 69 32 87 32 178 0 56 -6 131 -14 168 -8 37 -21 112 -30 167 -10 55
-23 136 -31 180 -8 44 -21 123 -30 175 -15 92 -32 191 -60 355 -8 44 -21 123
-30 175 -9 52 -23 131 -30 175 -8 44 -21 123 -30 175 -9 52 -22 131 -30 175
-8 44 -21 123 -30 175 -9 52 -22 131 -30 175 -7 44 -20 121 -29 170 -14 87
-32 191 -61 360 -8 44 -22 123 -30 175 -9 52 -23 133 -31 180 -18 106 -41 240
-59 345 -8 44 -21 123 -30 175 -33 200 -48 276 -61 318 -11 37 -11 54 1 110
13 63 20 104 60 342 9 52 22 129 30 170 8 41 22 125 31 185 10 61 21 114 26
119 4 6 39 -23 80 -66 83 -86 143 -121 241 -139 160 -30 325 62 398 221 39 84
49 112 49 131 0 12 6 44 14 72 32 117 41 303 40 782 -1 287 -6 500 -13 548
-22 152 -95 241 -233 281 -71 20 -102 20 -164 -1 -87 -29 -147 -77 -191 -153
-36 -61 -43 -124 -32 -286 12 -175 8 -703 -5 -707 -24 -6 -39 94 -46 319 -7
263 -8 266 -87 305 l-48 24 -980 3 c-1073 3 -1022 5 -1102 -55 l-33 -24 0
-192 c0 -136 -5 -217 -16 -277 -21 -108 -22 -110 -32 -110 -18 0 -21 138 -15
532 l6 400 -29 55 c-41 78 -111 138 -191 163 -79 24 -112 24 -181 0z"/>
<path fill="#cccccc" d="M3375 7140 c-3 -5 -1 -37 5 -71 6 -34 11 -85 10 -113 -1 -28 -1 -59
-1 -69 1 -16 59 -17 1109 -15 l1107 3 6 85 c3 47 10 109 14 138 l8 52 -316 0
-316 0 -108 -55 c-59 -30 -115 -55 -123 -55 -8 0 -35 -8 -60 -17 -35 -13 -81
-17 -205 -17 -139 -1 -169 2 -225 21 -112 38 -133 47 -202 86 l-66 37 -316 0
c-195 0 -317 -4 -321 -10z"/>
</g>
</svg>