<svg xmlns="http://www.w3.org/2000/svg" viewBox="0 0 900 900">
  <path fill="#cccccc" d="M487.777 433.888L355.1 357.366s-32.24 78.911-32.521 79.459c-.225.574-77.419 171.779-77.419 171.779-8.359 18.533-30.191 26.794-48.724 18.436-18.533-8.359-26.794-30.191-18.436-48.724l76.697-170.064c.257-.569 50.012-135.667 57.059-147.835 17.121-29.562 55.022-39.663 84.584-22.542l160.437 92.915c29.563 17.121 39.664 55.022 22.543 84.585a61.687 61.687 0 01-15.065 17.461l8.057-25.814c5.977-19.149-4.717-39.547-23.865-45.524-19.149-5.977-39.547 4.717-45.524 23.865l-15.146 48.525z"/>
  <path fill="#000000" d="M446.798 594.437l64.447-206.476c4.543-14.556 20.049-22.684 34.604-18.141 14.556 4.543 22.684 20.049 18.141 34.604L499.543 610.9c-4.543 14.556-20.048 22.684-34.604 18.141-14.555-4.543-22.684-20.049-18.141-34.604zm131.913-163.35l50.986 163.35c4.543 14.555-3.586 30.061-18.141 34.604-14.555 4.543-30.061-3.585-34.604-18.141l-34.138-109.371 17.321-55.493a70.168 70.168 0 0018.576-14.949zm139.089 6.106c-18.085 31.228-58.122 41.898-89.35 23.812-31.228-18.085-41.898-58.121-23.812-89.349 18.085-31.228 58.121-41.899 89.35-23.813 31.228 18.085 41.898 58.122 23.812 89.35z"/>
</svg>
