<svg xmlns="http://www.w3.org/2000/svg" viewBox="0 0 900 900">
  <path fill="#cccccc" d="M313.38 768.595s69.388-266.431 69.388-268.975V328.561c0-22.235 18.052-40.287 40.287-40.287h53.95c22.235 0 40.287 18.052 40.287 40.287V499.62c0 1.979 70.092 268.975 70.092 268.975 4.475 16.701-5.451 33.893-22.152 38.368-16.701 4.475-33.893-5.45-38.368-22.151l-65.622-244.905h-21.721l-65.622 244.905c-4.475 16.701-21.667 26.626-38.368 22.151-16.701-4.475-26.626-21.667-22.151-38.368z"/>
  <path fill="#000000" d="M490.219 282.108l45.42-71.582-9.994-103.309c-1.224-12.654 8.056-23.921 20.71-25.145 12.654-1.225 23.921 8.055 25.145 20.709l10.413 107.635a22.994 22.994 0 01-.396 7.025 22.903 22.903 0 01-3.584 12.417l-54.404 85.741c-4.499-16.156-17.193-28.91-33.31-33.491zM376.75 314.836l-53.92-84.978a22.911 22.911 0 01-3.584-12.417 22.963 22.963 0 01-.395-7.025l10.412-107.635c1.224-12.654 12.491-21.934 25.145-20.709 12.655 1.224 21.934 12.491 20.71 25.145l-9.993 103.309 45.314 71.416c-16.148 4.367-28.951 16.905-33.689 32.894zm73.314-148.185c30.512 0 55.284 24.771 55.284 55.283s-24.772 55.284-55.284 55.284c-30.511 0-55.283-24.772-55.283-55.284s24.772-55.283 55.283-55.283z"/>
</svg>
