<svg xmlns="http://www.w3.org/2000/svg" viewBox="0 0 900 900">
  <path fill="#cccccc" d="M286.4 599.85a63.28 63.28 0 0 1-17.99-44.26 63.52 63.52 0 0 1 63.5-63.48h190.15c9.73 0 18.95 2.19 27.2 6.1l202.63-206a37.8 37.8 0 0 1 53.43-.45 37.8 37.8 0 0 1 .44 53.43L588.75 565.82c-7.4-9.41-19.01-15.54-31.04-15.65-77.8-.26-155.6-.26-233.4 0a39.9 39.9 0 0 0-24.51 8.73c-11.88 9.57-17.13 26.33-13.4 40.95z"/>
  <path fill="#000000" d="M120.88 552.02a67.1 67.1 0 0 1 67.06-67.07A67.1 67.1 0 0 1 255 552.02a67.1 67.1 0 0 1-67.06 67.06 67.1 67.1 0 0 1-67.06-67.06zm436.58 9.33a28.35 28.35 0 0 1 28.34 28.34 28.35 28.35 0 0 1-28.34 28.33h-232.9a28.35 28.35 0 0 1-28.33-28.33 28.35 28.35 0 0 1 28.33-28.34h232.9z"/>
</svg>