<svg xmlns="http://www.w3.org/2000/svg" viewBox="0 0 900 900">
  <path fill="#cccccc" d="M423.41 792H226.09a42.5 42.5 0 0 1-42.47-42.47 42.5 42.5 0 0 1 42.47-42.48h154.85V592.02a71.21 71.21 0 0 1-24.32-53.64V351.39A71.4 71.4 0 0 1 428 280.02a71.4 71.4 0 0 1 71.37 71.37v158.35h113.19a42.32 42.32 0 0 1 28.66 11.14l.08.07a42.37 42.37 0 0 1 13.73 31.26v197.32A42.5 42.5 0 0 1 612.55 792a42.5 42.5 0 0 1-42.48-42.47V594.69h-33.32c-.26-.58-.54-1.15-.83-1.72-17.42-33.27-35.05-66.42-52.58-99.64L477.6 350.8l-.02-.3c-1.22-24.38-22.37-44.73-46.12-45.65l-.91-.02c-27.43-.38-49.52 23.83-48.73 49.53 1.82 49.01 3.96 98 5.94 147 .58 10.3 2.6 20.44 7.04 29.53l56.22 106.54.14.27a48.54 48.54 0 0 0 14.73 16.53v95.3a42.32 42.32 0 0 1-11.14 28.67l-.07.07A42.36 42.36 0 0 1 423.4 792z"/>
  <path fill="#000000" d="M430.6 315.72c-20.14-.4-38.68 17.37-37.9 38.52l5.93 146.6c.48 8.6 2.07 17.23 5.81 24.99l.07.13c18.75 35.53 37.38 71.12 56.25 106.6 7.56 14 24.51 21.98 40.07 18.78a37.75 37.75 0 0 0 27.66-24.5 37.63 37.63 0 0 0-2.35-29.06l-53-100.45a7.23 7.23 0 0 1-.63-2.33c-1.94-48-3.73-96-5.82-144-.91-18.27-16.47-34.52-35.62-35.27h-.48zM433 91.14c47.22 0 85.57 38.34 85.57 85.57 0 47.23-38.35 85.57-85.57 85.57-47.23 0-85.57-38.34-85.57-85.57 0-47.23 38.34-85.57 85.57-85.57z"/>
</svg>
