<svg xmlns="http://www.w3.org/2000/svg" viewBox="0 0 900 900">
  <path fill="#000000" d="M445.26 529.097c0-18.765-15.235-34-34-34s-34 15.235-34 34v184.14c0 18.765 15.235 34 34 34s34-15.235 34-34v-184.14zm78 0c0-18.765-15.235-34-34-34s-34 15.235-34 34v184.14c0 18.765 15.235 34 34 34s34-15.235 34-34v-184.14zm0-126.05v101.4c-7.638-10.512-20.027-17.35-34-17.35-17.696 0-32.85 10.968-39 26.485l-.146-.363c-6.24-15.325-21.296-26.122-38.854-26.122-13.973 0-26.362 6.838-34 17.35v-87.388l12.481 2.999c8.805 2.116 17.671-3.315 19.787-12.12l13.782-57.356c2.116-8.805-3.315-17.671-12.12-19.787l-16.35-3.929c-8.805-2.116-17.671 3.315-19.787 12.12l-2.883 11.999-16.303-3.56a32.875 32.875 0 00-5.341-7.257s.031.016 9.193-18.463C370.381 300.202 390.37 298 409.777 298c6.141 0 53.945.01 77.383.01 31.043 0 53.07 7.779 63.93 37.711 8.47 23.344 28.779 78.932 28.779 78.932a25.053 25.053 0 011.19 5.638c.15.769.264 1.553.342 2.349l10.24 104.5c1.346 13.732-8.71 25.973-22.443 27.319-13.732 1.345-25.973-8.711-27.318-22.443l-10.161-103.689-8.459-25.28zm-171.887-44.748c-2.678-13.536-15.842-22.35-29.377-19.672-13.536 2.678-22.35 15.841-19.672 29.377l15.328 77.471c2.679 13.536 15.842 22.351 29.378 19.672 13.535-2.678 22.35-15.841 19.672-29.377l-15.329-77.471zm13.127 24.603l-.057.239-.052-.266.109.027zm85.76-218.986c33.115 0 60 26.885 60 60 0 33.115-26.885 60-60 60-33.115 0-60-26.885-60-60 0-33.115 26.885-60 60-60z"/>
  <path fill="#cccccc" d="M553.441 733.59h-19.837v13.071h19.837V733.59zm-186.525 0h-19.837v13.071h19.837V733.59zm2.344-38.519v18.166c0 4.476.702 8.79 2.002 12.838h-33.829v-31.004h31.827zm162 0h31.828v31.004h-33.83a41.918 41.918 0 002.002-12.838v-18.166zm-162-162.741v31.004h-15.91c-8.555 0-15.502-6.946-15.502-15.502 0-8.556 6.947-15.502 15.502-15.502h15.91zm164.612 0l.046.466c1.31 13.372 10.447 24.103 22.428 28.1a15.426 15.426 0 01-8.344 2.438H531.26V532.33h2.612zM359.063 355.993l19.006 4.685 4.763-19.823c1.084-4.512 5.627-7.294 10.139-6.21l16.35 3.929a8.411 8.411 0 016.211 10.139l-13.783 57.356c-1.084 4.512-5.627 7.295-10.139 6.21l-16.35-3.928c-4.512-1.085-7.295-5.628-6.21-10.14l5.087-21.173-11.46-2.825-3.456-17.467c-.05-.252-.103-.503-.158-.753zm-64.71 1.379l-6.143-1.515-4.802 19.982c-1.084 4.511-5.627 7.294-10.139 6.21l-16.35-3.929a8.411 8.411 0 01-6.211-10.139l13.783-57.356a8.411 8.411 0 0110.139-6.211l16.35 3.929c4.512 1.085 7.295 5.628 6.211 10.14l-5.05 21.014 9.516 2.346a33.117 33.117 0 00-7.304 15.529z"/>
</svg>