<svg xmlns="http://www.w3.org/2000/svg" viewBox="0 0 900 900">
  <path fill="#000000" d="M542.348 356.485l-44.265-59.263c-9.326-12.485-6.76-30.192 5.725-39.518 12.485-9.325 30.193-6.76 39.518 5.725l85.688 114.721a28.1 28.1 0 015.609 17.142 28.23 28.23 0 01-.373 4.839c-2.516 15.379-17.044 25.822-32.423 23.306l-137.64-22.517a28.092 28.092 0 01-13.529-6.184 28.088 28.088 0 01-13.528 6.184l-136.238 22.287c-15.379 2.516-29.907-7.927-32.423-23.306a28.284 28.284 0 01-.373-4.738 28.095 28.095 0 015.609-17.013l85.689-114.721c9.325-12.485 27.032-15.05 39.518-5.725 12.485 9.326 15.05 27.033 5.725 39.518l-44.07 59.002 67.446-11.034c8.412-1.376 16.57 1.125 22.645 6.19 6.076-5.065 14.234-7.566 22.646-6.19l69.044 11.295zM451.36 93.161c37.4 0 67.764 30.364 67.764 67.764 0 37.401-30.364 67.765-67.764 67.765-37.401 0-67.765-30.364-67.765-67.765 0-37.4 30.364-67.764 67.765-67.764z"/>
  <path fill="#cccccc" d="M368.913 420.576l69.57-11.382a36.354 36.354 0 0012.175-4.297 36.354 36.354 0 0012.175 4.297l70.974 11.612v43.132c0 3.894-.368 7.702-1.071 11.389l119.009 99.599c12.674 7.889 20.108 22.831 17.679 38.503l-25.835 166.678c-3.246 20.943-22.885 35.311-43.828 32.065-20.944-3.246-35.312-22.885-32.065-43.828l22.447-144.826-109.667-91.78a38.454 38.454 0 01-6.661-7.2 62.07 62.07 0 01-.611.003h-43.18L237.812 794.929c-12.279 17.273-36.273 21.328-53.546 9.049-17.274-12.28-21.329-36.273-9.049-53.547l192.212-270.388a38.526 38.526 0 012.8-3.493 60.783 60.783 0 01-1.316-12.612v-43.362zm35.016-169.59c-8.664-6.472-9.601-10.594-4.149-10.594h103.159c5.452 0 4.516 4.122-4.149 10.594-16.193 12.095-19.52 35.061-7.425 51.254l31.831 42.616-48.538-7.941a36.449 36.449 0 00-24 4.305 36.445 36.445 0 00-23.999-4.305l-46.94 7.679 31.635-42.354c12.095-16.193 8.768-39.159-7.425-51.254z"/>
</svg>
