<svg xmlns="http://www.w3.org/2000/svg" viewBox="0 0 900 900">
  <path fill="#000000" d="M455.93 312.511a23.889 23.889 0 012.853.037l150.978 11.025 99.976-23.182c12.677-2.939 25.355 4.966 28.295 17.643 2.94 12.678-4.966 25.356-17.643 28.296l-102.741 23.823a23.515 23.515 0 01-7.213.538 23.58 23.58 0 01-3.188-.019l-89.513-6.536a63.283 63.283 0 011.04 11.456v128.313c.053.755.08 1.517.08 2.285v158.235c0 .445-.009.887-.027 1.329a32.17 32.17 0 01-.293 5.85l-19.77 139.458c-2.484 17.523-18.727 29.733-36.25 27.249A31.912 31.912 0 01450 833.747a31.912 31.912 0 01-12.514 4.564c-17.523 2.484-33.766-9.726-36.25-27.249l-19.77-139.458a32.17 32.17 0 01-.293-5.85 32.621 32.621 0 01-.027-1.329V520.264a63.222 63.222 0 01-.072-3.024V375.592c0-3.906.356-7.73 1.038-11.445l-89.359 6.525a23.58 23.58 0 01-3.188.019c-2.36.19-4.786.025-7.213-.538L179.611 346.33c-12.677-2.94-20.583-15.618-17.643-28.296 2.94-12.677 15.618-20.582 28.295-17.643l99.976 23.182 150.978-11.025c.958-.07 1.907-.081 2.844-.037h11.869zm-10.65 267.811v84.103l-.002.377L450 698.115l4.722-33.313a47.128 47.128 0 01-.002-.377v-84.103h-9.44zm4.679-392.307c31.233 0 56.589 25.356 56.589 56.589 0 31.232-25.356 56.589-56.589 56.589-31.232 0-56.589-25.357-56.589-56.589 0-31.233 25.357-56.589 56.589-56.589z"/>
  <path fill="#cccccc" d="M160.199 346.061c-25.368-7.738-43.843-31.342-43.843-59.227 0-33.744 27.056-61.219 60.642-61.896l18.121-163.726 19.236 2.13-18.175 164.22c25.445 7.691 43.993 31.333 43.993 59.272 0 4.982-.59 9.827-1.703 14.47l-20.623-4.782a40.777 40.777 0 001.161-9.688c0-22.487-18.257-40.744-40.744-40.744s-40.744 18.257-40.744 40.744c0 12.397 5.549 23.509 14.298 30.986-1.766 10.504 1.597 20.831 8.381 28.241zm579.602 0c25.368-7.738 43.843-31.342 43.843-59.227 0-33.744-27.056-61.219-60.642-61.896L704.881 61.212l-19.236 2.13 18.175 164.22c-25.445 7.691-43.993 31.333-43.993 59.272 0 4.982.59 9.827 1.703 14.47l20.623-4.782a40.777 40.777 0 01-1.161-9.688c0-22.487 18.257-40.744 40.744-40.744s40.744 18.257 40.744 40.744c0 12.397-5.549 23.509-14.298 30.986 1.766 10.504-1.597 20.831-8.381 28.241z"/>
</svg>