<svg xmlns="http://www.w3.org/2000/svg" fill-rule="evenodd" viewBox="0 0 900 900">
  <path fill="#cccccc" d="M150.259 213.021c21.564-4.401 42.644 9.533 47.045 31.097 4.401 21.563-9.533 42.643-31.097 47.044-21.563 4.401-42.643-9.532-47.044-31.096-4.401-21.564 9.533-42.644 31.096-47.045zm599.321 0c-21.564-4.401-42.644 9.533-47.045 31.097-4.401 21.563 9.533 42.643 31.096 47.044 21.564 4.401 42.644-9.532 47.045-31.096 4.401-21.564-9.533-42.644-31.096-47.045zm-594.947 21.43c9.736-1.987 19.254 4.304 21.241 14.04 1.988 9.737-4.304 19.255-14.04 21.242-9.737 1.987-19.255-4.305-21.242-14.041-1.987-9.736 4.305-19.254 14.041-21.241zm590.573 0c-9.736-1.987-19.254 4.304-21.242 14.04-1.987 9.737 4.305 19.255 14.041 21.242 9.736 1.987 19.254-4.305 21.241-14.041 1.988-9.736-4.304-19.254-14.04-21.241zm-588.582 9.757a8.05 8.05 0 019.493 6.275 8.05 8.05 0 01-6.275 9.492 8.049 8.049 0 01-9.492-6.274 8.05 8.05 0 016.274-9.493zm586.59 0a8.05 8.05 0 00-9.492 6.275 8.05 8.05 0 006.275 9.492 8.05 8.05 0 009.492-6.274 8.05 8.05 0 00-6.275-9.493z"/>
  <path fill="#000000" d="M376.919 771.993V291.025c0-35.884 29.134-65.018 65.018-65.018h15.965c35.884 0 65.017 29.134 65.017 65.018v480.968c0 18.765-15.234 34-34 34-18.765 0-34-15.235-34-34V509.961h-10v262.032c0 18.765-15.234 34-34 34-18.765 0-34-15.235-34-34zM197.73 225.21l153.272.28c13.798.025 24.98 11.248 24.955 25.045-.026 13.798-11.248 24.98-25.046 24.955l-150.886-.276c5.322-9.604 7.38-21.081 5.013-32.675a47.552 47.552 0 00-7.308-17.329zm504.379 0l-153.273.28c-13.797.025-24.979 11.248-24.954 25.045.025 13.798 11.248 24.98 25.046 24.955l150.886-.276c-5.322-9.604-7.38-21.081-5.014-32.675a47.553 47.553 0 017.309-17.329zM449.957 94.007c33.115 0 60 26.885 60 60 0 33.115-26.885 60-60 60-33.115 0-60-26.885-60-60 0-33.115 26.885-60 60-60z"/>
</svg>
