<svg xmlns="http://www.w3.org/2000/svg" viewBox="0 0 900 900">
  <path fill="#cccccc" d="M598.571 410.367a40.6 40.6 0 016.138-6.878c8.758-7.82 19.986-11.132 30.833-10.097a40.319 40.319 0 0124.786 11.156 40.586 40.586 0 015.665 6.769l115.389 129.228c14.887 16.673 13.438 42.297-3.235 57.184-16.674 14.888-42.297 13.438-57.185-3.235l-90.063-100.865-91.393 95.114a40.73 40.73 0 01-5.56 4.829c-6.69 7.936-16.385 13.341-27.528 14.348-7.62.689-33.326-2.702-39.521-3.443 0 0-89.399-10.602-119.529-17.864-4.391-1.058-15.472-6.956-15.472-6.956l-34.479-21.3c-28.663-17.707-37.558-55.354-19.851-84.017l26.619-43.09c17.708-28.663 55.354-37.558 84.018-19.851l41.015 25.338c2.187 1.351 87.113 46.125 87.113 46.125l-17.461 18.191 6.404 4.982 93.297-95.668z"/>
  <path fill="#000000" d="M110.639 542.157l40.887-117.068c6.456 22.837 22.869 42.263 45.416 52.023l-12.708 36.385 76.286-15.312c-2.468 20.829 4.629 42.089 19.752 57.262l-133.641 26.825a29.869 29.869 0 01-18.015-.556c-12.377-4.323-20.134-15.955-20.124-28.369a29.82 29.82 0 012.147-11.19zm118.564-210.906a72.1 72.1 0 0116.685 2.027c38.646 9.335 62.442 48.29 53.106 86.936-7.914 32.76-37.112 54.849-69.358 55.131l-.446.002a72.143 72.143 0 01-17.132-2.027c-38.646-9.336-62.442-48.291-53.106-86.936 7.95-32.911 37.381-55.053 69.804-55.134l.447.001zm97.72-63.129a29.855 29.855 0 0114.329-3.921 29.872 29.872 0 0118.501 5.988 29.782 29.782 0 015.519 5.365l.009.011.029.037.025.032.007.01a29.87 29.87 0 016.434 18.054l1.75 102.376c-20.765-5.372-42.943-.764-59.829 12.241l-1.091-63.845-19.269 10.582c-10.823-14.461-26.555-25.386-45.472-29.956a80.511 80.511 0 00-20.599-2.247l99.657-54.727z"/>
</svg>
