<svg xmlns="http://www.w3.org/2000/svg" viewBox="0 0 900 900">
  <path fill="#cccccc" d="M462.63 378l-72.76 161.98s111.06.03 112.06.1a45.26 45.26 0 0 1 44.22 63.67l-82.1 182.78a45.26 45.26 0 0 1-59.8 22.73 45.26 45.26 0 0 1-22.72-59.8l53.46-119.01h-141a45.02 45.02 0 0 1-19.65-4.5 76.04 76.04 0 0 1-43.61-102.67L324 315.62a76.05 76.05 0 0 1 129.14-15.78l-60.61.15c-10.6.1-20.88 4.6-28.08 12.25a39.68 39.68 0 0 0-9.05 37.56c4.67 16.05 20.5 27.88 37.13 28.04 23.37.08 46.73.13 70.1.17z"/>
  <path fill="#000000" d="M392.79 309.98c-14.71.05-28.25 12.77-28.9 27.62-.69 15.37 12.39 30.08 28.7 30.23 93.07.3 186.14.3 279.2 0 14.6-.14 28.05-12.83 28.71-27.62.68-15.31-12.3-29.97-28.52-30.22-93.06-.9-186.13 0-279.2 0zm81.78-209.36a80.33 80.33 0 0 1 40.35 106.14 80.33 80.33 0 0 1-106.14 40.34 80.33 80.33 0 0 1-40.34-106.14 80.33 80.33 0 0 1 106.13-40.34z"/>
</svg>