<svg xmlns="http://www.w3.org/2000/svg" viewBox="0 0 900 900">
  <path fill="#cccccc" d="M690.62 569.58V391.2l-46.92 23.33a18.09 18.09 0 0 1-23.66-7.1l-5.24-8.99a18 18 0 0 1 5.63-23.98l117.55-77.97a18.17 18.17 0 0 1 14.1-2.53 17.84 17.84 0 0 1 11.48 8.51l14.02 24.12a17.96 17.96 0 0 1-7.56 25.1l-34.7 17.26v202.62a28.16 28.16 0 0 1 17.74 26.15v181.12a28.15 28.15 0 0 1-28.13 28.14H148.14A28.15 28.15 0 0 1 120 778.84v-22.86a28.15 28.15 0 0 1 28.14-28.13h154.75a28.15 28.15 0 0 0 28.13-28.14v-22.86a28.15 28.15 0 0 1 28.14-28.14H513.9a28.15 28.15 0 0 0 28.13-28.13v-22.86a28.15 28.15 0 0 1 28.14-28.14h120.44z"/>
  <path fill="#000000" d="M267.02 462.44a59.05 59.05 0 0 0 17.52 10 73.87 73.87 0 0 0 10.55 2.76l34.46 5.9c2.34 42.9 5.3 97.37 5.25 98.11.59 9.02-2.78 18.21-9.97 24.76l-100.66 91.6a30.74 30.74 0 0 1-43.4-2.05 30.74 30.74 0 0 1 2.04-43.4l90.06-81.95-5.85-105.73zM377.8 316.78l-19.39 96.27 94.92 16.17a30.75 30.75 0 0 1 25.06 24.71c.26 1.27 11.25 139.56 11.25 139.56a30.74 30.74 0 0 1-28.2 33.05 30.74 30.74 0 0 1-33.05-28.22L419.5 485.8s-123.5-21.13-124.13-21.26a51.65 51.65 0 0 1-40.42-60.8l30.54-151.59a51.65 51.65 0 0 1 74.91-35.36 34.13 34.13 0 0 0-21 9.07c-12.86 12.12-13.5 34.16-1.71 47.15 13.39 14.57 26.72 29.2 40.1 43.77zm-101.68-70.73c-.33 1.2-.63 2.4-.89 3.63-3.69 18.02-7.36 36.05-11 54.08l-15.56 7.89-46.45 75.16a23.05 23.05 0 0 1-39.2-24.23l48.84-79.03a22.92 22.92 0 0 1 10.07-10.01l54.2-27.49zm150.54 97.08a22.98 22.98 0 0 1-17.03-7.44l-64.14-69.8a23.05 23.05 0 0 1 33.93-31.18l51.84 56.4 66.85-37.47a23.05 23.05 0 0 1 22.53 40.2l-82.69 46.35c-3.57 2-7.46 2.95-11.29 2.94zM369.9 94.11a54.56 54.56 0 0 1 42.69 64.22 54.56 54.56 0 0 1-64.23 42.7 54.56 54.56 0 0 1-42.7-64.23 54.56 54.56 0 0 1 64.24-42.7z"/>
</svg>