<svg xmlns="http://www.w3.org/2000/svg" viewBox="0 0 900 900">
    <path fill="#000000" d="M620.02 465.66a26.62 26.62 0 0 0-25 46.96l185.7 98.88a26.62 26.62 0 0 0 35.98-10.98 26.62 26.62 0 0 0-10.98-35.99l-185.7-98.87zm173.76 47.4a26.63 26.63 0 0 1 5.62 36.18 33249 33249 0 0 0-21.76-11.66c6.25-5.9 10.96-13.24 14.6-21a69.48 69.48 0 0 0 1.54-3.52zm-130.43-36.35a63 63 0 0 1 63.77-54.27 63 63 0 0 1 61.55 64.34 62.8 62.8 0 0 1-20.94 45.5c-34.76-18.59-69.55-37.11-104.38-55.57z"/>
    <path fill="#cccccc" d="M588.86 546.94l-150.8-3.34a66.4 66.4 0 0 1-37.9-12.85l-274.02 88.09a35.5 35.5 0 0 1-44.63-22.92 35.49 35.49 0 0 1 22.92-44.62l269.5-86.64a66.79 66.79 0 0 1 67.1-54.49l150.78 3.34a66.78 66.78 0 0 1 64.9 59.68c-10.66-5.64-21.31-11.28-31.97-16.9l-.2-.12a37.58 37.58 0 0 0-15.96-4.12h-.45c-15.94-.21-30.54 10.32-35.63 24.83-5.86 16.7 2.07 36.56 17.37 44.9l32.11 17.2a66.37 66.37 0 0 1-33.12 7.96zm-220.61-99.66a71.1 71.1 0 0 0-3.2 9.21l-230.22 74a35.49 35.49 0 0 1 24.55-55.2l208.87-28.01z"/>
</svg>