<svg xmlns="http://www.w3.org/2000/svg" viewBox="0 0 900 900">
  <path fill="#000000" d="M588.34 517.52a24.7 24.7 0 0 0 2.3 49.31l226.07-10.89a24.7 24.7 0 0 0-2.31-49.31l-226.06 10.89zm29.29-11.2a58.45 58.45 0 0 1 62.41-57.02 58.47 58.47 0 0 1 54.02 51.47c-38.81 1.79-77.62 3.64-116.43 5.55z"/>
  <path fill="#cccccc" d="M345.42 573.37L88.34 540.22a32.93 32.93 0 0 1-28.43-36.85 32.93 32.93 0 0 1 36.85-28.43l255.51 32.95a55.17 55.17 0 0 1 40.9-17.94l165.65.43a55.14 55.14 0 0 1 39.63 16.88l-10.79.54a34.82 34.82 0 0 0-24.3 11.98 35.07 35.07 0 0 0-6.57 33.15c4.66 14.17 19.21 24.2 34.1 23.64l14.07-.62a55.27 55.27 0 0 1-46.42 25.03l-165.65-.43a55.3 55.3 0 0 1-47.47-27.18z"/>
</svg>