<svg xmlns="http://www.w3.org/2000/svg" fill-rule="evenodd" viewBox="0 0 900 900">
  <path fill="#000000" d="M304.9 400.6l-29 107.4 79.1 37.7a32.7 32.7 0 0 1 16.2 17c1.2 2.5 2.2 5.1 2.7 8l29 142.5a32.9 32.9 0 0 1-64.4 13.1l-26-128.1-112.3-53.5a55.2 55.2 0 0 1-31-64.9l43-159.6a55.2 55.2 0 0 1 106.2-1.2l-14.2-13.4a34.9 34.9 0 0 0-23.8-9.3 35 35 0 0 0-29.8 17.9 35.3 35.3 0 0 0 6.4 41.4l47.9 45zm-119.2 147a61 61 0 0 0 10.2 5.8l1.4.7 56.2 26.8 4.3 71c.4 6.7-1.2 13-4.3 18.4-3.1 6-8 11-14.6 14.2l-130.3 64.6a32.9 32.9 0 0 1-29.2-58.8L191 635l-5.3-87.3zm157.5-125.8c-2-1-3.8-2.3-5.4-3.8l-74-69.4a24.6 24.6 0 0 1 33.8-35.9l72.1 67.7 90 44.3a24.6 24.6 0 0 1-21.9 44.2L347 424.1c-1.3-.7-2.5-1.4-3.7-2.3zm7.3-252A58.3 58.3 0 1 1 320 282.2a58.3 58.3 0 0 1 30.5-112.6z"/>
  <path fill="#cccccc" d="M666.6 722l15.9 11.5S663.7 752 659.8 770c-10.2.5-30.7 0-30.7 0s2.5-20.6 37.5-48zm45.8-3.2l14.4 9.6s-18.7 23.3-21.3 38.5a727.5 727.5 0 0 1-28.8 2.6s3.1-21.7 35.7-50.7zM618 722l16.4 12.4s-15.5 13.7-21.9 34.7c-12.1-.6-28.6-3-28.6-3s4.4-23.4 34.1-44.1zm137.7-11.6l12.1 8.7s-16 24.4-18.7 40c-13.8 3-25.7 5.3-25.7 5.3s5.6-23.3 32.3-54zm-181.8 6.3l14.3 14s-18 18-18.7 33L544 759s.4-19.8 30-42.2zm215.5-16.6l9.6 7.7s-11.4 20.5-15.8 41c-10.8 3.8-21.4 6.8-21.4 6.8s8.5-30.1 27.6-55.5zm-258 8l13.1 15.5s-13.1 11-15.8 30.6c-10.5-3-20.6-7-20.6-7s-.3-18.5 23.2-39.1zm284-21.1l6.4 7.2s-9.7 26.4-12.2 40.6c-6 4.6-15.6 9-15.6 9s6.4-28.5 21.4-56.8zm-316.3 9.9l10.6 16.4s-10.2 14-11.6 28.9c-6.1-2.4-15.7-8-15.7-8s0-20.8 16.7-37.3zm333.6-24.6l3 6.8s-7.6 36.7-8 42c-4.3 4.2-10.3 9.4-10.3 9.4s8.6-39.9 15.3-58.2zM605 678.4l30.8 1.2a79 79 0 0 0 23.5 36.9c-6.5 4.4-17.2 12.7-17.2 12.7s-33.8-27-37-50.8zM475.4 684l7.9 16.3s-7.9 12.8-8 27.9c-5.3-4.9-9.7-9.3-9.7-9.3s-2.6-16.4 9.8-34.9zm178-3.8l30.5-.7s4.1 17.2 21.5 33.8c-7.8 7.3-16 14.2-16 14.2s-32.3-25.2-36-47.3zm-92.2-7.4l27.6 4s.1 13.5 22.2 38.6c-7.6 5.5-16 11-16 11s-31.1-29.5-33.8-53.6zm143.2 4.7l28-3.9s1.8 17.5 18 32.4c-9.8 10.3-14.4 15.7-14.4 15.7s-30-24.8-31.6-44.2zm-181.9-13.7l23.6 6s3.1 17.2 20.5 40.4l-14 9.8s-25.6-29.6-30.1-56.2zM837 704.3s4.3-57.2 3-79.7c-2.7 4-8 9.1-8 9.1s2.3 25.1 5.1 35.6c-.8 15.7-4 43.7-4 43.7l4-8.7zm-89.9-33.6l23.9-5.5s.3 14 14.1 30.9l-12 16.2s-23.8-18.8-26-41.6zM460.5 669s2 11.8 4.5 16.4c-3 8.4-3.1 26.6-3.1 26.6l-4.2-14s-1.6-17.5 2.8-29zm28.9-16.9l18.7 7.6s4.4 23.8 17.4 41.6c-6.5 5.2-11 8.3-11 8.3s-20.7-31.3-25.1-57.5zm293.7 9l19-7.7s.7 15.8 10.4 30.2c-6.9 11.6-9.6 17.1-9.6 17.1s-18.3-19-19.8-39.6zm-315.4-22.2s10.5 6.9 12.6 8.5c.7 10.7 14.6 42.3 14.6 42.3l-8.6 7.2s-16.1-31.6-18.6-58zm357.5 1.4s.3 15.3 5.7 28.3c-3.5 9.1-6 17-6 17s-12.8-16.4-13.4-36.7a1076 1076 0 0 1 13.7-8.6zm-369.4-16l6.1 8.4s5.3 35.5 10.4 42.6c-3.1 4.5-5.2 7.1-5.2 7.1s-8-26-11.3-58.1zm192-82.8c104.8 0 189.9 29 189.9 64.8 0 35.7-85.1 64.7-189.9 64.7-104.7 0-189.8-29-189.8-64.7 0-35.8 85-64.8 189.8-64.8zm0 37.6c48.8 0 88.4 12.2 88.4 27.1 0 15-39.6 27.2-88.4 27.2-48.7 0-88.3-12.2-88.3-27.2s39.6-27 88.3-27zM384 453.4l29 14.2-20.5 3a5.9 5.9 0 0 1-6.7-4.9l-1.7-11.6v-.7zm96.3-19.5l194.3-30.1-4.6-31.2c-1-6.4 3.5-12.4 10-13.4l23.2-3.4c6.4-1 12.3 3.5 13.3 9.9l4.6 31.2 4-.6a5.9 5.9 0 0 1 6.7 4.9l1.8 11.6a5.9 5.9 0 0 1-5 6.7l-4 .6 4.6 31.1c1 6.5-3.5 12.4-9.9 13.4l-23.2 3.4c-6.4 1-12.4-3.4-13.4-9.9l-4.6-31.1-196.7 30.5a32.6 32.6 0 0 0-1-23.6z"/>
</svg>