<svg xmlns="http://www.w3.org/2000/svg" viewBox="0 0 900 900">
  <path fill="#000000" d="M261.9 476.5l-36.39 110.27-92.67 66.54a36.09 36.09 0 1 0 42.1 58.69l103.53-74.34a36.32 36.32 0 0 0 14.05-20.76l33.88-100.06-27.5-11.28a86.4 86.4 0 0 1-37-29.06zM134.77 395.5A36.05 36.05 0 0 0 184.52 384l46.27-74 65.34-13.06-31.31 132.68a54.62 54.62 0 0 0 32.4 63.1l129.27 53.1 24.01 142.8a36.13 36.13 0 0 0 41.59 29.63 36.07 36.07 0 0 0 29.62-41.59l-27.34-162.75a36.04 36.04 0 0 0-22.15-27.5l-92.2-37.13 25.29-122.78 49.4 61.08a36.12 36.12 0 0 0 43.36 10.02l90-42.04a36.12 36.12 0 0 0 17.43-48.01 36.07 36.07 0 0 0-47.99-17.44l-64.41 30.1-57.66-70.3a51.3 51.3 0 0 0-32.22-18.23l-65.5-9.59a105.97 105.97 0 0 0-35.3.76l-101.08 19.38a36 36 0 0 0-23.53 16.28l-54.53 87.23a36.06 36.06 0 0 0 11.48 49.74zm186.5-234.58a72.24 72.24 0 0 1 45.45-91.46 72.23 72.23 0 0 1 91.43 45.48 72.16 72.16 0 0 1-45.42 91.4 72.18 72.18 0 0 1-91.46-45.42z"/>
  <path fill="#cccccc" d="M811.1 747.66h-28.88V397.44l44.85-22.32a23.22 23.22 0 0 0 9.76-32.44l-18.1-31.18a23.06 23.06 0 0 0-14.84-11 23.49 23.49 0 0 0-18.23 3.27L633.7 404.55a23.26 23.26 0 0 0-7.28 31l6.77 11.63a23.38 23.38 0 0 0 30.59 9.17l60.65-30.16v321.47H129.2a69.2 69.2 0 0 0-69.2 69.2c0 9.65 7.8 17.46 17.46 17.46H811.1A28.87 28.87 0 0 0 840 805.43v-28.88a28.88 28.88 0 0 0-28.9-28.9z"/>
</svg>
