<svg xmlns="http://www.w3.org/2000/svg" viewBox="0 0 900 900">
  <path fill="#cccccc" d="M490.961 555.764l186.688-180.239c15.044-14.525 39.051-14.103 53.575.941 14.525 15.044 14.103 39.05-.941 53.575l-230.367 222.41a64.645 64.645 0 01-2.2 2.125l-1.71 1.651a37.763 37.763 0 01-10.749 7.291c-22.752 12.455-51.813 10.162-72.476-7.877 0 0-60.772-43.844-84.715-64.746-22.985-20.064-58.946-60.662-58.946-60.662-26.472-23.109-29.202-63.361-6.094-89.832 7.353-8.423 16.442-14.443 26.269-17.99-11.693 11.969-14.926 30.577-6.709 46.171 10.196 19.349 34.181 26.78 53.53 16.584l43.185-22.756c12.985 13.49 28.209 28.812 39.458 38.631 18.216 15.902 57.637 44.325 72.202 54.723z"/>
  <path fill="#000000" d="M304.395 424.97c-13.875 7.311-19.204 24.512-11.892 38.387 7.311 13.875 24.512 19.204 38.387 11.893l182.454-96.143c13.875-7.312 19.204-24.513 11.893-38.388-7.312-13.875-24.512-19.204-38.388-11.893L304.395 424.97zM202.773 307.145c24.41-27.962 66.93-30.847 94.893-6.437 27.963 24.41 30.847 66.93 6.437 94.893-24.41 27.963-66.93 30.847-94.893 6.437-27.963-24.41-30.847-66.93-6.437-94.893z"/>
</svg>
