<svg width="100%" height="100%" viewBox="0 0 900 900" version="1.1" xmlns="http://www.w3.org/2000/svg" xmlns:xlink="http://www.w3.org/1999/xlink" xml:space="preserve" xmlns:serif="http://www.serif.com/" style="fill-rule:evenodd;clip-rule:evenodd;stroke-linejoin:round;stroke-miterlimit:2;">
    <g transform="matrix(1.17939,0,0,1.27043,234.573,107.495)">
        <path fill="#cccccc" d="M73.6,385.8C70.4,393.9 65.6,401.2 59.4,407.3L9.4,457.4C-3.1,469.9 -3.1,490.2 9.4,502.7C21.9,515.2 42.1,515.2 54.6,502.7L114,443.3C120.1,437.2 124.9,429.9 128.2,421.8L141.7,388C86.4,327.7 103,346.2 94.3,334.3L73.6,385.8Z"/>
    </g>
    <g transform="matrix(1.17939,0,0,1.27043,234.573,107.495)">
        <path fill="#cccccc" d="M302.5,245.1L279.2,233.3L269.5,203.9C254.8,159.3 224.557,115.36 178.057,115.26C142.057,115.16 126.863,133.853 89.463,148.953C67.863,157.653 34.7,178.4 24.3,199.4L17.6,213C9.8,228.8 16.1,248 31.8,255.9C47.4,263.8 66.4,257.4 74.3,241.6L81,228C84.5,221 90.3,215.5 97.5,212.6L124.3,201.8L109.1,262.5C103.9,283.3 109.5,305.4 124,321.3L183.9,386.7C191.1,394.6 196.2,404.1 198.8,414.4L217.1,487.7C221.4,504.8 238.8,515.3 255.9,511C273,506.7 283.5,489.3 279.2,472.2L257,383.2C254.4,372.9 249.3,363.3 242.1,355.5L196.6,305.8L213.8,237.1L219.3,253.6C224.6,269.7 236,283 251,290.6L274.3,302.4C289.9,310.3 308.9,303.9 316.8,288.1C324.5,272.4 318.2,253 302.5,245.1Z"/>
    </g>
    <g transform="matrix(1.04193,0,0,1.13959,-26.0436,-37.6931)">
        <g id="Layer1">
            <ellipse fill="#000000" cx="484.332" cy="181.006" rx="56.003" ry="53.32"/>
        </g>
    </g>
</svg>
