<svg version="1.0" xmlns="http://www.w3.org/2000/svg"
 width="100%" height="100%" viewBox="0 0 600.000000 600.000000"
 preserveAspectRatio="xMidYMid meet">
<metadata>pushup</metadata>
<g transform="translate(0.000000,600.000000) scale(0.100000,-0.100000)"
fill="{{primarycolor}}" stroke="none">
<path d="M3555 3801 c-78 -19 -144 -76 -181 -156 -19 -40 -24 -67 -24 -136 0
-47 6 -105 14 -130 8 -24 23 -73 34 -109 58 -183 255 -600 441 -931 51 -90 85
-119 166 -138 140 -32 273 83 268 230 -2 41 -32 108 -122 274 -111 203 -261
514 -261 540 0 38 44 -5 77 -75 65 -141 99 -206 115 -222 26 -26 151 -26 193
1 63 40 86 67 106 126 39 112 13 169 -153 335 -100 100 -212 202 -273 248 -45
35 -167 110 -195 121 -76 29 -146 36 -205 22z"/>
<path d="M5185 3683 c-257 -58 -444 -286 -444 -543 0 -102 37 -230 88 -304 90
-128 209 -210 356 -242 225 -50 453 51 592 263 8 12 26 52 40 90 23 59 26 84
27 188 1 101 -3 130 -22 183 -66 185 -220 321 -407 362 -41 9 -194 11 -230 3z"/>
<path fill="{{secondarycolor}}" d="M3250 3653 c-101 -6 -392 -70 -520 -115 -137 -48 -252 -142 -306
-249 -19 -38 -34 -77 -34 -87 0 -31 -31 -49 -125 -71 -49 -12 -115 -28 -145
-36 -197 -50 -567 -117 -825 -149 -267 -34 -390 -42 -900 -59 -107 -3 -161
-25 -234 -96 -192 -183 -90 -503 177 -560 123 -26 678 2 1072 55 175 23 413
62 550 90 41 8 95 19 120 24 91 18 314 71 405 96 92 24 289 76 345 89 30 8 74
19 98 25 81 21 387 50 535 50 81 0 147 4 147 9 0 5 -19 46 -41 92 -89 180
-133 279 -181 404 -83 215 -101 328 -72 456 7 31 -2 35 -66 32z"/>
<path fill="{{secondarycolor}}" d="M4127 3583 c-4 -3 53 -65 127 -138 162 -159 180 -190 180 -300 0 -49
-5 -90 -13 -105 -53 -97 -148 -160 -239 -160 -56 0 -68 -13 -48 -51 93 -177
101 -189 122 -189 80 0 239 94 291 172 54 81 63 112 63 212 0 154 -54 280
-171 397 -61 63 -94 86 -170 123 -90 44 -128 54 -142 39z"/>
</g>
</svg>