<?xml version="1.0" encoding="UTF-8" standalone="no"?>
<!DOCTYPE svg PUBLIC "-//W3C//DTD SVG 1.1//EN" "http://www.w3.org/Graphics/SVG/1.1/DTD/svg11.dtd">
<svg width="100%" height="100%" viewBox="0 0 1027 2181" version="1.1" xmlns="http://www.w3.org/2000/svg" xmlns:xlink="http://www.w3.org/1999/xlink" xml:space="preserve" xmlns:serif="http://www.serif.com/" style="fill-rule:evenodd;clip-rule:evenodd;stroke-linejoin:round;stroke-miterlimit:1.41421;">
    <g transform="matrix(4.16667,0,0,4.16667,-2629.49,-157.142)">
        <path d="M877.031,322.387C876.977,321.785 875.335,319.379 875.335,319.379L872.273,313.421L866.807,300.08L858.497,293.957C858.497,293.957 856.911,285.646 856.42,284.388C855.927,283.13 854.341,269.955 854.177,266.127C854.013,262.299 847.07,235.345 847.07,235.345L842.533,221.185L841.384,205.603L839.361,183.132L836.024,169.023L834.822,162.027C834.822,162.027 834.166,157.543 833.783,151.912C833.401,146.28 830.559,141.797 829.629,140.102C828.7,138.409 822.521,133.814 821.592,133.214C820.662,132.614 810.93,130.37 810.93,130.37C810.93,130.37 801.635,126.542 800.214,126.16C798.793,125.778 776.924,118.668 776.267,118.287C775.611,117.904 776.102,116.482 775.611,115.499C775.12,114.513 776.706,93.766 776.706,93.766C776.706,93.766 777.245,93.826 777.429,93.889C777.613,93.95 778.877,93.814 779.37,93.582C779.861,93.35 781.499,91.541 781.533,90.949C781.57,90.36 784.268,83.332 784.742,82.021C785.215,80.708 786.089,76.881 785.872,75.024C785.653,73.161 785.179,72.58 785.179,72.58L780.915,72.324C780.915,72.324 781.023,63.723 780.915,61.571C780.805,59.423 778.509,51.805 777.415,49.289C776.322,46.775 767.574,42.072 767.574,42.072L763.228,39.939L755.956,39.011L754.356,39.137L752.757,39.011L745.485,39.939L741.139,42.072C741.139,42.072 732.391,46.775 731.298,49.289C730.203,51.805 727.908,59.423 727.798,61.571C727.745,62.61 728.495,68.181 728.062,70.503C727.598,73 725.948,72.217 725.948,72.217L723.798,72.726C723.798,72.726 723.06,73.161 722.84,75.024C722.622,76.881 723.497,80.708 723.971,82.021C724.445,83.332 727.143,90.36 727.178,90.949C727.214,91.541 728.85,93.35 729.343,93.582C729.834,93.814 731.099,93.95 731.284,93.889C731.468,93.826 732.007,93.766 732.007,93.766C732.007,93.766 733.593,114.513 733.101,115.499C732.609,116.482 733.101,117.904 732.446,118.287C731.789,118.668 709.92,125.778 708.498,126.16C707.077,126.542 697.782,130.37 697.782,130.37C697.782,130.37 688.05,132.614 687.122,133.214C686.191,133.814 680.013,138.409 679.084,140.102C678.154,141.797 675.311,146.28 674.929,151.912C674.546,157.543 673.89,162.027 673.89,162.027L672.687,169.023L669.351,183.132L667.329,205.603L666.181,221.185L661.642,235.345C661.642,235.345 654.698,262.299 654.535,266.127C654.372,269.955 652.786,283.13 652.293,284.388C651.801,285.646 650.216,293.957 650.216,293.957L641.906,300.08L636.438,313.421L633.376,319.379C633.376,319.379 631.736,321.785 631.682,322.387C631.627,322.988 631.244,323.371 631.955,323.808C632.665,324.244 633.212,324.299 634.087,324.463C634.962,324.629 636.82,323.97 638.024,322.988C639.226,322.004 644.749,314.951 644.749,314.951L645.131,319.924L647.264,330.424L652.348,338.79C652.348,338.79 654.917,341.414 656.777,341.904C658.635,342.396 658.362,342.56 659.292,342.453C660.221,342.341 661.008,341.913 661.642,341.521C662.277,341.132 664.486,342.353 664.923,342.483C665.361,342.615 669.078,342.97 669.434,342.615C669.79,342.259 669.98,340.757 669.104,340.129C668.23,339.499 667.903,339.28 667.903,339.28L671.402,340.703L674.107,341.03L676.924,340.129L678.291,338.296L673.617,334.115L677.169,335.372L679.384,335.454L680.396,333.158L679.931,331.188L675.01,327.606L674.381,326.431L673.425,323.126L671.894,312.627L671.758,303.169L670.418,298.41L669.762,297.51L669.488,296.443L672.031,285.564L678.318,267.631L684.387,252.35L688.815,238.681L690.1,233.487L700.57,205.274L702.21,201.065L707.241,216.427L709.701,238.626L711.504,268.969L711.341,273.178L704.562,300.844L703.195,305.711L702.21,308.426L699.968,315.042C699.968,315.042 690.104,347.322 689.745,358.745C689.385,370.167 687.996,375.474 687.996,375.474L687.395,382.255L686.847,392.806L686.903,395.593L686.866,399.422L687.084,402.194L686.334,414.731L685.772,421.547L683.767,438.897L683.949,461.058L683.438,477.532L682.856,505.745L682.527,520.196L681.407,532.417L677.061,533.783L671.839,534.903L669.679,534.903L667.685,535.996L666.207,538.677L667.11,549.53L669.215,554.204L672.222,557.648L673.069,558.258C673.069,558.287 673.817,558.532 674.107,558.567C674.398,558.604 676.059,558.722 676.059,558.722L677.316,558.87C677.316,558.87 694.447,560.436 696.279,560.381C698.11,560.328 702.702,560.109 703.331,560.135C703.96,560.162 708.99,559.588 710.411,554.996C711.833,550.405 710.603,547.641 710.603,547.641L707.597,539.222L704.671,526.594L705.791,519.649L706.365,504.148C706.365,504.148 709.318,489.279 710.63,486.544C711.943,483.812 715.168,472.249 715.168,472.249L720.226,454.397C720.226,454.397 724.272,439.442 724.272,438.242C724.272,437.038 724.381,435.699 724.381,435.699L725.721,420.964L736.163,394.446L742.396,375.585L746.66,359.511L751.362,335.345L753.058,324.629C753.058,324.629 754.005,317.394 753.968,316.974C753.932,316.554 754.315,312.508 754.315,312.508L754.356,312.328L754.398,312.508C754.398,312.508 754.781,316.554 754.744,316.974C754.707,317.394 755.656,324.629 755.656,324.629L757.35,335.345L762.051,359.511L766.316,375.585L772.549,394.446L782.991,420.964L784.332,435.699C784.332,435.699 784.441,437.038 784.441,438.242C784.441,439.442 788.486,454.397 788.486,454.397L793.544,472.249C793.544,472.249 796.77,483.812 798.082,486.544C799.394,489.279 802.347,504.148 802.347,504.148L802.921,519.649L804.042,526.594L801.116,539.222L798.109,547.641C798.109,547.641 796.878,550.405 798.3,554.996C799.723,559.588 804.751,560.162 805.381,560.135C806.011,560.109 810.602,560.328 812.435,560.381C814.266,560.436 831.396,558.87 831.396,558.87L832.654,558.722C832.654,558.722 834.312,558.604 834.604,558.567C834.895,558.532 835.643,558.287 835.643,558.258L836.491,557.648L839.497,554.204L841.603,549.53L842.504,538.677L841.028,535.996L839.033,534.903L836.873,534.903L831.652,533.783L827.305,532.417L826.184,520.196L825.856,505.745L825.273,477.532L824.762,461.058L824.944,438.897L822.94,421.547L822.378,414.731L821.628,402.194L821.846,399.422L821.811,395.593L821.865,392.806L821.318,382.255L820.717,375.474C820.717,375.474 819.327,370.167 818.968,358.745C818.607,347.322 808.744,315.042 808.744,315.042L806.502,308.426L805.518,305.711L804.151,300.844L797.371,273.178L797.208,268.969L799.012,238.626L801.472,216.427L806.502,201.065L808.142,205.274L818.611,233.487L819.897,238.681L824.325,252.35L830.393,267.631L836.681,285.564L839.224,296.443L838.951,297.51L838.294,298.41L836.955,303.169L836.818,312.627L835.287,323.126L834.331,326.431L833.701,327.606L828.782,331.188L828.317,333.158L829.329,335.454L831.542,335.372L835.096,334.115L830.421,338.296L831.789,340.129L834.604,341.03L837.311,340.703L840.81,339.28C840.81,339.28 840.481,339.499 839.607,340.129C838.732,340.757 838.922,342.259 839.278,342.615C839.634,342.97 843.352,342.615 843.79,342.483C844.228,342.353 846.435,341.132 847.07,341.521C847.705,341.913 848.491,342.341 849.421,342.453C850.351,342.56 850.077,342.396 851.935,341.904C853.795,341.414 856.363,338.79 856.363,338.79L861.45,330.424L863.581,319.924L863.964,314.951C863.964,314.951 869.487,322.004 870.689,322.988C871.893,323.97 873.751,324.629 874.626,324.463C875.5,324.299 876.047,324.244 876.757,323.808C877.468,323.371 877.086,322.988 877.031,322.387Z" style="fill:url(#_Linear1);"/>
    </g>
    <g transform="matrix(4.16667,0,0,4.16667,-2629.49,-157.142)">
        <path d="M876.366,323.692C876.05,323.909 875.62,324.01 875.195,324.064C874.977,324.09 874.766,324.105 874.553,324.114L874.208,324.11L873.956,324.068C873.604,323.979 873.239,323.787 872.897,323.576C872.556,323.359 872.229,323.121 871.918,322.864C871.601,322.619 871.305,322.354 871.013,322.095C870.716,321.846 870.442,321.577 870.166,321.326C869.619,320.812 869.089,320.325 868.609,319.834C868.371,319.589 868.144,319.343 867.929,319.099C867.708,318.86 867.497,318.625 867.3,318.388C866.908,317.917 866.555,317.466 866.238,317.041C865.924,316.608 865.655,316.201 865.41,315.828C864.941,315.072 864.604,314.439 864.401,314.006L864.356,313.911C864.332,313.504 864.303,313.098 864.268,312.689C864.176,311.709 864.058,310.731 863.911,309.757C863.767,308.782 863.574,307.815 863.364,306.857C863.247,306.382 863.137,305.9 863.009,305.428L862.598,304.014L862.472,303.937L862.384,304.068L862.385,304.072L862.65,305.508L862.864,306.947C862.991,307.911 863.085,308.875 863.158,309.841C863.296,311.775 863.327,313.71 863.265,315.64C863.226,316.608 863.175,317.57 863.093,318.531C863.013,319.483 862.909,320.468 862.764,321.367C862.545,322.29 862.273,323.252 862.036,324.185C861.806,325.128 861.554,326.056 861.305,326.968C861.057,327.881 860.769,328.786 860.504,329.696C860.363,330.151 860.216,330.647 860.092,331.078C859.972,331.485 859.81,331.899 859.623,332.312C859.259,333.14 858.805,333.963 858.311,334.757C857.814,335.552 857.288,336.336 856.733,337.1C856.159,337.858 855.526,338.578 854.862,339.254C854.196,339.931 853.478,340.555 852.694,341.073C851.91,341.584 851.049,341.992 850.147,342.134C849.698,342.202 849.243,342.2 848.808,342.114C848.431,342.046 848.048,341.87 847.774,341.664C848.384,341.253 848.907,340.776 849.351,340.301C849.854,339.745 850.272,339.188 850.62,338.649C850.867,338.408 851.117,338.166 851.359,337.915C851.699,337.573 852.03,337.219 852.354,336.86C852.682,336.502 852.993,336.132 853.295,335.751C853.91,334.999 854.462,334.192 854.963,333.35C855.456,332.508 855.938,331.65 856.329,330.747C856.528,330.294 856.712,329.837 856.882,329.373C857.059,328.912 857.192,328.433 857.324,327.959C857.584,327.006 857.744,326.02 857.803,325.033C857.822,324.541 857.828,324.049 857.787,323.557C857.751,323.067 857.675,322.58 857.564,322.108L857.469,322.023L857.346,322.121C857.292,322.599 857.218,323.061 857.132,323.522C857.039,323.982 856.945,324.434 856.816,324.881C856.693,325.325 856.562,325.764 856.406,326.197C856.246,326.627 856.092,327.058 855.912,327.478C855.736,327.902 855.533,328.312 855.342,328.728C855.144,329.141 854.934,329.547 854.711,329.952C854.265,330.751 853.813,331.552 853.304,332.321L851.78,334.645L850.223,336.985C849.693,337.765 849.154,338.548 848.583,339.307C848.337,339.643 848.079,339.972 847.824,340.305C847.322,340.676 846.77,341.008 846.157,341.258C845.665,341.456 845.146,341.587 844.554,341.716C843.985,341.851 843.395,341.976 842.798,342.081C842.206,342.195 841.598,342.271 840.997,342.312C840.698,342.327 840.399,342.329 840.116,342.293C839.838,342.264 839.566,342.198 839.396,342.085C839.231,341.974 839.167,341.86 839.193,341.619C839.223,341.383 839.357,341.109 839.532,340.867C839.887,340.363 840.375,339.94 840.908,339.549C841.977,338.74 843.047,337.929 844.098,337.13C845.15,336.323 846.159,335.458 846.995,334.486C847.837,333.521 848.569,332.509 849.168,331.494C849.763,330.467 850.201,329.434 850.535,328.464C850.856,327.482 851.07,326.566 851.207,325.747C851.346,324.927 851.396,324.205 851.426,323.613C851.439,323.018 851.433,322.554 851.419,322.24C851.401,321.924 851.389,321.753 851.389,321.753L851.341,321.694L851.259,321.742L851.259,321.744C851.259,321.744 851.218,321.908 851.141,322.213C851.08,322.517 850.961,322.964 850.813,323.522C850.661,324.082 850.485,324.755 850.232,325.51C849.987,326.267 849.691,327.109 849.308,328C848.938,328.894 848.477,329.835 847.952,330.806C847.427,331.776 846.809,332.774 846.083,333.751C845.351,334.717 844.579,335.727 843.684,336.673C843.395,336.981 843.084,337.273 842.768,337.559C842.651,337.641 842.529,337.728 842.39,337.823C841.971,338.107 841.457,338.441 840.845,338.786C840.233,339.124 839.528,339.481 838.736,339.786C837.942,340.09 837.059,340.347 836.114,340.447C835.173,340.544 834.17,340.473 833.244,340.124C832.784,339.949 832.343,339.709 831.972,339.393C831.788,339.236 831.615,339.066 831.479,338.883C831.35,338.716 831.248,338.514 831.224,338.39L831.275,338.341L831.414,338.222C831.609,338.059 831.822,337.881 832.045,337.713C832.497,337.38 832.943,337.018 833.397,336.661C834.287,335.928 835.211,335.219 836.057,334.435C836.479,334.035 836.896,333.642 837.308,333.251C837.724,332.863 838.15,332.516 838.57,332.125C839.238,331.232 839.883,330.369 840.495,329.549C841.097,328.728 841.568,327.881 841.923,327.06C842.095,326.646 842.255,326.25 842.389,325.864C842.513,325.474 842.629,325.103 842.719,324.751C842.895,324.042 842.991,323.408 843.03,322.886C843.072,322.365 843.06,321.948 843.043,321.668C843.013,321.391 842.998,321.246 842.998,321.246L842.949,321.187L842.866,321.235C842.866,321.235 842.827,321.378 842.752,321.644C842.676,321.906 842.571,322.288 842.41,322.762C842.253,323.237 842.051,323.808 841.789,324.448C841.536,325.091 841.219,325.805 840.856,326.577C840.489,327.345 840.102,328.186 839.707,329.098C839.505,329.549 839.3,330.023 839.062,330.486C838.947,330.724 838.819,330.955 838.688,331.193C838.553,331.414 838.43,331.715 838.282,331.838L838.223,331.892C837.999,332.029 837.67,332.226 837.247,332.471C836.401,332.957 835.172,333.642 833.632,334.254C832.861,334.55 832.005,334.832 831.106,334.963C830.666,335.025 830.189,335.043 829.826,334.938L829.618,334.845L829.58,334.812C829.529,334.559 829.476,334.301 829.424,334.044C829.313,333.549 829.254,333.07 829.262,332.642C829.274,332.217 829.398,331.829 829.557,331.579L829.642,331.451L829.686,331.412L829.893,331.23C830.068,331.089 830.277,330.943 830.489,330.786C830.92,330.477 831.387,330.164 831.85,329.839C832.317,329.518 832.778,329.178 833.218,328.799L833.541,328.505L833.867,328.197C834.185,327.904 834.303,327.608 834.427,327.328C834.54,327.043 834.631,326.767 834.707,326.49C834.788,326.219 834.86,325.949 834.924,325.68C835.071,325.15 835.187,324.621 835.335,324.11C835.618,323.085 835.991,322.111 836.279,321.17C836.575,320.234 836.742,319.329 836.834,318.486C836.933,317.645 836.995,316.873 837.025,316.185C837.028,316.094 837.032,316.01 837.034,315.924C837.143,315.541 837.259,315.15 837.385,314.739C837.577,314.117 837.778,313.463 837.986,312.782C838.092,312.465 838.191,312.015 838.283,311.59L838.318,311.426L838.335,311.29L838.367,311.015L838.38,310.874L838.389,310.805L838.39,310.79L838.391,310.781L838.391,310.673L838.39,310.635L838.38,310.338C838.355,309.55 838.285,308.807 838.239,308.058C838.125,306.57 838.043,305.105 838.044,303.736C838.042,303.396 838.046,303.06 838.062,302.733C838.071,302.404 838.085,302.084 838.115,301.774C838.153,301.154 838.239,300.578 838.328,300.039C838.38,299.774 838.439,299.521 838.483,299.274C838.551,299.036 838.616,298.808 838.677,298.596L838.721,298.46L838.909,298.376C838.909,298.376 838.961,298.284 839.062,298.109C839.157,297.921 839.301,297.642 839.443,297.256C839.735,296.486 839.938,295.226 839.8,293.714C839.696,292.199 839.356,290.425 838.905,288.43C838.452,286.437 837.865,284.223 837.189,281.823C836.85,280.61 836.5,279.397 836.096,278.068C835.889,277.43 835.679,276.778 835.465,276.118C835.232,275.453 834.995,274.77 834.743,274.086C833.737,271.367 832.531,268.596 831.195,265.771C829.856,262.951 828.398,260.082 827.013,257.123C825.606,254.174 824.324,251.118 823.224,247.997C822.127,244.877 821.19,241.698 820.558,238.515C820.377,237.724 820.238,236.927 820.115,236.136C820.049,235.742 819.985,235.348 819.921,234.956L819.872,234.661L819.832,234.347L819.755,233.747C819.665,232.957 819.54,232.148 819.409,231.342C819.35,230.937 819.271,230.543 819.199,230.147C819.125,229.755 819.057,229.356 818.961,228.97C818.291,225.847 817.212,222.912 816.076,220.226C815.508,218.888 814.904,217.611 814.395,216.425C814.274,216.135 814.153,215.845 814.033,215.559L813.866,215.146L813.693,214.689C813.468,214.085 813.22,213.495 812.996,212.919C812.067,210.648 811.162,208.572 810.404,206.746C809.636,204.919 809.051,203.327 808.674,202.002C808.484,201.339 808.363,200.74 808.285,200.208C808.495,199.647 808.704,199.08 808.916,198.52C809.754,196.301 810.58,194.115 811.351,191.95C812.108,189.784 812.815,187.641 813.406,185.521C813.994,183.398 814.501,181.312 814.859,179.26C815.203,177.211 815.448,175.215 815.566,173.291C815.814,169.439 815.547,165.902 815.135,162.819C815.082,162.433 815.028,162.055 814.975,161.682C814.909,161.311 814.842,160.949 814.778,160.589C814.643,159.876 814.537,159.184 814.379,158.53C814.232,157.875 814.092,157.248 813.957,156.647C813.809,156.048 813.649,155.485 813.508,154.946C813.234,153.871 812.923,152.921 812.675,152.094C812.43,151.267 812.181,150.578 811.985,150.019C811.592,148.899 811.384,148.303 811.384,148.303L811.225,148.218L811.131,148.378C811.131,148.378 811.291,148.992 811.591,150.14C811.743,150.713 811.929,151.421 812.111,152.257C812.3,153.091 812.541,154.04 812.738,155.127C813.189,157.283 813.616,159.924 813.883,162.959C814.158,165.998 814.215,169.441 813.86,173.154C813.681,175.01 813.377,176.929 812.979,178.899C812.555,180.868 812.041,182.884 811.414,184.933C810.792,186.988 810.052,189.073 809.258,191.192C808.475,193.322 807.63,195.486 806.768,197.695C805.039,202.112 803.292,206.73 801.87,211.553C801.508,212.755 801.193,213.978 800.867,215.2C800.714,215.813 800.563,216.43 800.41,217.046L800.353,217.275L800.325,217.39L800.305,217.479L800.294,217.537L800.213,218.001C800.162,218.316 800.123,218.663 800.081,218.992C799.789,221.549 799.697,224.075 799.553,226.614C799.295,231.675 798.846,236.713 798.239,241.66C797.633,246.605 796.931,251.468 796.514,256.199C796.095,260.937 795.678,265.488 795.542,269.903C795.533,270.475 795.515,270.983 795.557,271.659L795.574,271.915L795.588,272.021L795.598,272.07L795.615,272.167L795.684,272.56C795.723,272.816 795.786,273.099 795.843,273.371C795.901,273.644 795.959,273.919 796.016,274.187C796.079,274.446 796.141,274.705 796.204,274.961C796.328,275.469 796.453,275.972 796.576,276.473C797.084,278.464 797.563,280.383 798.075,282.214C798.582,284.046 799.065,285.799 799.545,287.464C800.033,289.122 800.495,290.696 800.931,292.179C801.384,293.653 801.808,295.035 802.201,296.311C802.607,297.583 802.981,298.752 803.318,299.807C804.034,301.908 804.593,303.559 804.977,304.683C805.175,305.242 805.337,305.673 805.447,305.961C805.557,306.25 805.612,306.394 805.612,306.394L805.615,306.399L805.614,306.405L806.56,309.303L807.461,312.206L808.324,315.122L809.142,318.05C809.427,319.019 809.671,320.005 809.938,320.98C810.206,321.957 810.459,322.937 810.699,323.922C811.208,325.882 811.682,327.848 812.154,329.817L812.828,332.779C813.063,333.763 813.281,334.748 813.492,335.738L814.131,338.707L814.729,341.683C815.138,343.664 815.507,345.652 815.882,347.639C816.229,349.632 816.589,351.622 816.907,353.619L817.404,356.611L817.855,359.607C818.189,361.604 818.434,363.61 818.734,365.611C818.988,367.613 819.274,369.624 819.504,371.625L820.231,377.677C820.474,379.694 820.643,381.709 820.854,383.725C821.079,385.74 821.161,387.767 821.305,389.791C821.375,390.801 821.405,391.813 821.429,392.825C821.451,393.839 821.499,394.85 821.499,395.862C821.481,396.87 821.49,397.887 821.448,398.893L821.38,400.402C821.335,400.894 821.312,401.416 821.242,401.878L821.237,401.968L821.237,401.972C821.393,404.925 821.536,407.878 821.626,410.835L821.756,415.263C821.771,415.997 821.792,416.741 821.786,417.464C821.791,418.131 821.699,418.897 821.708,419.684C821.707,421.222 821.866,422.73 822.051,424.216C822.238,425.699 822.458,427.164 822.674,428.624C823.101,431.538 823.479,434.438 823.707,437.353C823.94,440.264 824.043,443.183 824.006,446.103C823.989,447.572 823.933,449.006 823.859,450.501L823.685,454.932C823.595,457.893 823.546,460.891 823.569,463.852C823.586,466.82 823.587,469.784 823.681,472.743C823.748,475.704 823.838,478.663 823.933,481.622L824.285,490.495L824.7,499.358L824.925,503.791C824.99,505.253 825.007,506.741 825.042,508.215C825.069,509.692 825.133,511.181 825.184,512.661L825.423,517.106L825.746,521.543C825.865,523.02 826.03,524.493 826.169,525.969L826.387,528.179L826.649,530.386L827.177,534.799C827.559,537.737 828.003,540.663 828.424,543.591L828.566,543.703L828.683,543.56L828.683,543.557L827.845,534.728L827.699,532.88C827.925,533.094 828.233,533.326 828.616,533.562C829.111,533.872 829.735,534.17 830.468,534.431C830.834,534.563 831.23,534.689 831.651,534.789C832.074,534.883 832.531,534.925 833.013,534.938C833.986,534.945 835.036,534.86 836.095,535.131C837.204,535.371 838.515,535.192 839.221,535.753C839.579,536.017 839.873,536.396 840.151,536.84C840.438,537.277 840.704,537.771 840.952,538.294C841.076,538.555 841.191,538.823 841.309,539.094L841.482,539.505L841.554,539.682L841.625,539.873C841.753,540.254 841.835,540.817 841.861,541.354C841.909,542.455 841.787,543.633 841.597,544.782C841.403,545.934 841.133,547.069 840.827,548.161C840.514,549.248 840.151,550.286 839.776,551.257C839.391,552.224 838.988,553.126 838.568,553.931C838.142,554.731 837.722,555.448 837.291,556.044C836.867,556.641 836.445,557.123 836.06,557.478C835.68,557.841 835.334,558.071 835.091,558.212C834.967,558.285 834.87,558.333 834.804,558.362L834.781,558.373L834.716,558.364C834.716,558.364 830.181,558.729 822.243,559.369C820.26,559.524 818.063,559.689 815.673,559.822C813.286,559.95 810.694,560.066 807.956,559.966C806.597,559.906 805.178,559.799 803.84,559.433C803.182,559.248 802.534,558.978 802.096,558.572L802.055,558.534L802.015,558.493L801.918,558.391L801.724,558.181C801.591,558.043 801.473,557.9 801.354,557.763C801.115,557.492 800.878,557.198 800.655,556.902C799.76,555.712 799.012,554.386 798.652,552.937C798.285,551.49 798.345,549.945 798.69,548.388C799.395,545.254 801.15,542.14 802.543,538.669C803.251,536.935 803.907,535.11 804.381,533.184C804.86,531.26 805.137,529.235 805.156,527.173C805.158,526.656 805.148,526.139 805.124,525.622L805.072,524.845L805.015,524.105C804.935,523.12 804.855,522.125 804.777,521.127C804.616,519.13 804.452,517.104 804.288,515.063C804.122,513.018 803.955,510.951 803.788,508.864C803.598,506.775 803.433,504.674 803.191,502.519C803.072,501.443 802.924,500.352 802.73,499.274L802.586,498.44L802.424,497.649C802.325,497.13 802.169,496.555 802.042,496.012C801.486,493.857 800.774,491.77 800.052,489.687C798.59,485.531 797.088,481.368 795.738,477.107C795.056,474.982 794.413,472.841 793.803,470.668C793.166,468.499 792.528,466.325 791.89,464.145C790.591,459.797 789.26,455.441 788.083,451.057C786.948,446.664 786.026,442.241 785.57,437.782C785.476,436.665 785.334,435.555 785.284,434.435C785.214,433.32 785.122,432.209 785.095,431.092C785.048,429.977 785.007,428.866 784.993,427.753L784.961,426.083L784.953,425.668L784.935,425.206C784.921,424.924 784.915,424.654 784.895,424.361C784.79,423.126 784.632,421.98 784.397,420.849C784.179,419.712 783.9,418.603 783.611,417.503C783.015,415.308 782.316,413.178 781.582,411.085C780.096,406.904 778.492,402.856 776.886,398.897C773.659,390.998 770.458,383.441 768.013,376.098C767.398,374.265 766.819,372.451 766.318,370.646C765.815,368.846 765.349,367.007 764.885,365.244C763.958,361.697 763.097,358.252 762.31,354.941C760.717,348.318 759.374,342.222 758.294,336.796C758.033,335.437 757.779,334.124 757.535,332.856C757.309,331.584 757.091,330.358 756.88,329.178C756.476,326.82 756.108,324.651 755.84,322.686C755.54,320.719 755.352,318.958 755.166,317.426C755.02,315.892 754.895,314.585 754.794,313.526C754.746,312.748 754.708,312.104 754.678,311.599C755.228,313.352 756.009,315.086 757.118,316.658C757.722,317.508 758.415,318.315 759.197,319.028C759.978,319.744 760.849,320.362 761.763,320.89C763.598,321.943 765.614,322.587 767.617,322.937C769.625,323.298 771.633,323.362 773.588,323.258C775.543,323.161 777.454,322.911 779.311,322.587C780.238,322.423 781.155,322.24 782.057,322.048L782.729,321.895L783.092,321.808L783.418,321.726C783.861,321.605 784.276,321.517 784.738,321.376C786.573,320.849 788.279,320.204 789.913,319.357C791.534,318.518 793.041,317.487 794.313,316.261C795.594,315.044 796.644,313.651 797.423,312.195C798.213,310.742 798.742,309.237 799.077,307.778C799.757,304.849 799.779,302.127 799.607,299.77C799.442,297.411 799.09,295.387 798.733,293.749C798.387,292.101 798.04,290.832 797.797,289.97C797.544,289.108 797.408,288.649 797.408,288.649C797.408,288.649 797.476,289.124 797.601,290.009C797.725,290.895 797.892,292.199 798.055,293.85C798.205,295.505 798.348,297.517 798.299,299.804C798.228,302.082 798.029,304.664 797.208,307.269C796.793,308.564 796.241,309.863 795.496,311.087C794.753,312.312 793.792,313.447 792.642,314.427C791.49,315.406 790.168,316.258 788.713,316.955C787.267,317.648 785.649,318.198 784.035,318.604C780.641,319.389 777.038,320.089 773.455,320.227C772.558,320.262 771.661,320.26 770.771,320.213C769.881,320.174 768.994,320.093 768.127,319.946C766.39,319.664 764.714,319.138 763.227,318.308C761.74,317.478 760.457,316.34 759.419,314.984C758.385,313.619 757.617,312.029 757.069,310.354C756.533,308.677 756.159,306.927 755.94,305.162C755.826,304.28 755.762,303.391 755.707,302.523C755.688,302.08 755.665,301.607 755.654,301.18C755.648,300.732 755.64,300.282 755.634,299.834C755.562,296.257 755.453,292.801 755.413,289.535C755.393,286.275 755.382,283.19 755.775,280.427C755.976,279.049 756.296,277.758 756.784,276.609C757.27,275.459 757.913,274.45 758.657,273.605C759.398,272.758 760.22,272.065 761.007,271.465C761.795,270.86 762.57,270.365 763.269,269.914C764.677,269.03 765.834,268.415 766.612,267.979C767.401,267.554 767.819,267.327 767.819,267.327C767.819,267.327 767.382,267.515 766.563,267.874C765.75,268.248 764.547,268.779 763.064,269.56C762.323,269.959 761.511,270.409 760.664,270.979C759.815,271.543 758.917,272.205 758.07,273.057C757.224,273.903 756.438,274.954 755.848,276.18C755.251,277.404 754.835,278.775 754.548,280.214C754.465,280.628 754.395,281.049 754.329,281.476C754.264,281.056 754.192,280.641 754.113,280.233C753.825,278.795 753.408,277.422 752.812,276.2C752.222,274.974 751.437,273.925 750.591,273.074C749.743,272.224 748.844,271.562 747.997,270.997C747.15,270.429 746.334,269.978 745.597,269.581C744.112,268.799 742.911,268.267 742.097,267.893C741.278,267.535 740.84,267.344 740.84,267.344C740.84,267.344 741.259,267.572 742.045,267.997C742.826,268.434 743.984,269.051 745.392,269.933C746.089,270.384 746.866,270.878 747.65,271.484C748.44,272.084 749.26,272.777 750.002,273.625C750.748,274.47 751.391,275.478 751.875,276.629C752.364,277.777 752.683,279.068 752.884,280.447C753.278,283.21 753.267,286.295 753.248,289.554C753.208,292.821 753.098,296.276 753.027,299.854C753.021,300.301 753.012,300.75 753.005,301.2C752.997,301.627 752.973,302.099 752.955,302.543C752.899,303.409 752.834,304.301 752.719,305.181C752.501,306.945 752.126,308.697 751.592,310.376C751.042,312.049 750.277,313.639 749.241,315.005C748.202,316.361 746.92,317.496 745.433,318.326C743.947,319.158 742.27,319.684 740.534,319.967C739.666,320.113 738.78,320.195 737.89,320.232C737,320.28 736.104,320.282 735.205,320.247C731.624,320.108 728.02,319.411 724.627,318.627C723.011,318.219 721.393,317.668 719.947,316.974C718.491,316.276 717.171,315.425 716.019,314.448C714.867,313.465 713.908,312.332 713.166,311.106C712.421,309.88 711.868,308.587 711.454,307.289C710.631,304.683 710.431,302.101 710.36,299.825C710.312,297.537 710.456,295.524 710.604,293.872C710.77,292.216 710.935,290.918 711.058,290.029C711.187,289.144 711.252,288.669 711.252,288.669C711.252,288.669 711.117,289.129 710.863,289.99C710.621,290.851 710.273,292.124 709.927,293.769C709.572,295.41 709.219,297.428 709.054,299.792C708.881,302.146 708.903,304.869 709.581,307.798C709.918,309.258 710.448,310.761 711.238,312.215C712.016,313.673 713.067,315.061 714.347,316.281C715.619,317.508 717.127,318.538 718.749,319.377C720.38,320.22 722.087,320.871 723.923,321.393C724.386,321.538 724.798,321.628 725.242,321.744L725.568,321.831L725.932,321.915L726.604,322.064C727.508,322.259 728.422,322.441 729.35,322.606C731.207,322.928 733.115,323.182 735.072,323.277C737.026,323.382 739.037,323.319 741.043,322.957C743.047,322.606 745.063,321.963 746.896,320.91C747.811,320.382 748.681,319.766 749.463,319.049C750.245,318.335 750.938,317.531 751.542,316.677C752.65,315.105 753.432,313.372 753.983,311.621C753.953,312.124 753.912,312.767 753.867,313.543C753.764,314.602 753.641,315.91 753.494,317.444C753.308,318.977 753.12,320.737 752.821,322.703C752.551,324.669 752.186,326.837 751.779,329.196C751.57,330.376 751.351,331.6 751.124,332.874C750.881,334.141 750.627,335.456 750.367,336.814C749.286,342.24 747.941,348.338 746.351,354.959C745.561,358.27 744.702,361.715 743.774,365.262C743.31,367.024 742.845,368.863 742.341,370.664C741.842,372.467 741.259,374.283 740.648,376.117C738.203,383.459 735.001,391.018 731.773,398.916C730.168,402.874 728.564,406.919 727.079,411.102C726.345,413.198 725.644,415.326 725.049,417.52C724.76,418.621 724.481,419.727 724.263,420.864C724.027,421.998 723.87,423.145 723.764,424.378C723.744,424.67 723.739,424.941 723.726,425.224L723.707,425.686L723.699,426.102L723.666,427.77C723.652,428.883 723.612,429.997 723.565,431.11C723.538,432.228 723.445,433.338 723.377,434.456C723.326,435.573 723.186,436.682 723.09,437.799C722.633,442.256 721.712,446.682 720.576,451.075C719.4,455.459 718.069,459.814 716.771,464.165C716.131,466.343 715.493,468.516 714.857,470.684C714.249,472.858 713.604,475 712.922,477.127C711.573,481.387 710.069,485.549 708.608,489.705C707.887,491.79 707.175,493.874 706.617,496.03C706.492,496.575 706.334,497.147 706.237,497.665L706.075,498.46L705.932,499.292C705.736,500.372 705.587,501.461 705.466,502.537C705.227,504.692 705.062,506.795 704.873,508.883C704.704,510.969 704.537,513.034 704.372,515.079C704.208,517.122 704.044,519.144 703.884,521.141C703.803,522.144 703.725,523.137 703.646,524.123L703.587,524.863L703.536,525.64C703.513,526.157 703.502,526.674 703.504,527.19C703.523,529.254 703.799,531.278 704.279,533.203C704.753,535.129 705.409,536.953 706.117,538.688C707.511,542.16 709.265,545.273 709.97,548.406C710.315,549.963 710.375,551.507 710.007,552.955C709.649,554.406 708.9,555.731 708.005,556.921C707.781,557.216 707.547,557.511 707.306,557.781C707.187,557.92 707.071,558.059 706.936,558.199L706.741,558.409L706.645,558.512L706.604,558.551L706.564,558.589C706.125,558.996 705.48,559.265 704.819,559.451C703.482,559.815 702.063,559.924 700.703,559.985C697.967,560.088 695.375,559.966 692.988,559.839C690.596,559.707 688.401,559.544 686.417,559.386C678.48,558.749 673.944,558.382 673.944,558.382L673.893,558.398L673.858,558.382C673.791,558.35 673.692,558.302 673.57,558.231C673.325,558.089 672.979,557.858 672.6,557.497C672.216,557.141 671.793,556.657 671.37,556.06C670.938,555.469 670.519,554.749 670.092,553.949C669.673,553.143 669.269,552.242 668.882,551.275C668.508,550.303 668.146,549.265 667.833,548.178C667.526,547.087 667.257,545.952 667.063,544.799C666.873,543.651 666.75,542.471 666.799,541.372C666.824,540.835 666.909,540.271 667.036,539.89L667.106,539.7L667.178,539.523L667.351,539.112C667.471,538.843 667.584,538.573 667.709,538.31C667.957,537.789 668.222,537.295 668.508,536.857C668.788,536.414 669.081,536.036 669.44,535.77C670.145,535.21 671.456,535.386 672.566,535.15C673.625,534.881 674.674,534.965 675.646,534.956C676.129,534.942 676.586,534.901 677.009,534.803C677.431,534.707 677.824,534.583 678.19,534.451C678.925,534.187 679.55,533.889 680.045,533.58C680.426,533.343 680.735,533.112 680.96,532.897L680.817,534.744L679.975,543.575L679.975,543.578L680.088,543.721L680.237,543.611C680.657,540.678 681.102,537.752 681.483,534.817L682.01,530.404L682.273,528.197L682.491,525.987C682.63,524.512 682.793,523.041 682.913,521.56L683.237,517.124L683.476,512.68C683.527,511.199 683.591,509.711 683.619,508.232C683.654,506.758 683.669,505.27 683.736,503.808L683.961,499.376L684.375,490.513L684.727,481.639C684.822,478.682 684.914,475.725 684.978,472.76C685.074,469.801 685.075,466.838 685.093,463.872C685.112,460.913 685.066,457.911 684.976,454.951L684.801,450.521C684.727,449.021 684.67,447.591 684.654,446.121C684.618,443.2 684.719,440.282 684.953,437.371C685.182,434.458 685.561,431.558 685.984,428.64C686.201,427.183 686.422,425.718 686.608,424.232C686.793,422.751 686.953,421.24 686.951,419.703C686.962,418.915 686.87,418.15 686.875,417.481C686.868,416.756 686.888,416.016 686.903,415.282L687.035,410.852C687.125,407.895 687.268,404.943 687.422,401.99L687.422,401.986L687.418,401.897C687.349,401.433 687.325,400.912 687.279,400.42L687.21,398.911C687.169,397.905 687.179,396.888 687.161,395.88C687.162,394.87 687.208,393.856 687.23,392.844C687.255,391.831 687.284,390.817 687.354,389.805C687.499,387.785 687.582,385.758 687.806,383.743C688.017,381.726 688.186,379.712 688.428,377.696L689.157,371.644C689.386,369.638 689.672,367.634 689.926,365.629C690.225,363.628 690.47,361.622 690.806,359.626L691.257,356.629L691.754,353.638C692.07,351.639 692.432,349.649 692.778,347.658C693.153,345.672 693.521,343.682 693.932,341.699L694.529,338.724L695.168,335.758C695.378,334.766 695.598,333.781 695.834,332.796L696.506,329.835C696.978,327.867 697.454,325.899 697.962,323.94C698.203,322.957 698.454,321.974 698.722,320.999C698.988,320.022 699.231,319.037 699.518,318.068L700.336,315.139L701.197,312.223L702.1,309.321L703.046,306.422L703.046,306.418L703.049,306.414C703.049,306.414 703.105,306.264 703.213,305.978C703.323,305.69 703.485,305.259 703.684,304.701C704.066,303.574 704.626,301.925 705.34,299.825C705.679,298.769 706.053,297.601 706.46,296.328C706.852,295.049 707.275,293.67 707.729,292.197C708.165,290.716 708.626,289.142 709.116,287.481C709.596,285.818 710.077,284.062 710.584,282.231C711.097,280.4 711.578,278.483 712.083,276.492C712.206,275.992 712.332,275.487 712.457,274.978C712.517,274.722 712.58,274.466 712.645,274.205C712.7,273.936 712.759,273.663 712.817,273.388C712.876,273.117 712.937,272.834 712.977,272.578L713.045,272.184L713.062,272.088L713.07,272.039L713.084,271.932L713.105,271.674C713.144,271.001 713.126,270.494 713.118,269.921C712.982,265.506 712.564,260.957 712.147,256.219C711.729,251.488 711.026,246.625 710.421,241.675C709.813,236.731 709.364,231.693 709.108,226.629C708.962,224.093 708.871,221.569 708.58,219.009C708.537,218.68 708.497,218.334 708.447,218.018L708.365,217.554L708.355,217.497L708.335,217.411L708.307,217.293L708.25,217.063C708.099,216.448 707.945,215.832 707.794,215.217C707.467,213.994 707.152,212.772 706.791,211.571C705.37,206.748 703.621,202.13 701.891,197.715C701.032,195.505 700.185,193.34 699.403,191.214C698.608,189.089 697.868,187.006 697.246,184.951C696.619,182.902 696.105,180.883 695.683,178.918C695.282,176.947 694.978,175.028 694.799,173.174C694.444,169.459 694.502,166.015 694.778,162.981C695.044,159.94 695.47,157.3 695.922,155.147C696.118,154.061 696.359,153.111 696.55,152.274C696.732,151.438 696.917,150.73 697.071,150.158C697.37,149.009 697.529,148.397 697.529,148.397L697.445,148.241L697.277,148.321C697.277,148.321 697.068,148.917 696.675,150.037C696.479,150.595 696.232,151.284 695.985,152.112C695.737,152.939 695.427,153.888 695.153,154.965C695.011,155.503 694.851,156.068 694.703,156.665C694.569,157.265 694.429,157.891 694.281,158.548C694.124,159.2 694.019,159.893 693.881,160.609C693.816,160.966 693.752,161.329 693.685,161.7C693.633,162.074 693.58,162.451 693.525,162.835C693.112,165.921 692.846,169.457 693.094,173.308C693.212,175.231 693.458,177.228 693.801,179.28C694.159,181.33 694.666,183.416 695.254,185.539C695.845,187.659 696.55,189.801 697.308,191.967C698.079,194.134 698.906,196.321 699.744,198.538C699.955,199.094 700.165,199.662 700.375,200.227C700.296,200.758 700.175,201.358 699.984,202.019C699.609,203.346 699.025,204.934 698.257,206.762C697.498,208.59 696.593,210.666 695.665,212.936C695.441,213.512 695.192,214.102 694.965,214.71L694.794,215.165L694.626,215.577C694.507,215.863 694.387,216.153 694.265,216.443C693.757,217.629 693.152,218.906 692.584,220.247C691.449,222.929 690.369,225.864 689.697,228.988C689.603,229.374 689.535,229.772 689.461,230.165C689.389,230.56 689.311,230.955 689.251,231.362C689.122,232.166 688.995,232.973 688.906,233.766L688.83,234.366L688.788,234.678L688.739,234.97C688.675,235.365 688.611,235.759 688.546,236.154C688.42,236.947 688.284,237.743 688.103,238.533C687.471,241.714 686.534,244.894 685.435,248.013C684.335,251.134 683.054,254.191 681.648,257.142C680.262,260.1 678.805,262.968 677.464,265.789C676.129,268.614 674.923,271.384 673.917,274.107C673.666,274.789 673.428,275.473 673.195,276.138C672.981,276.796 672.771,277.448 672.563,278.087C672.161,279.415 671.81,280.628 671.471,281.839C670.795,284.241 670.209,286.457 669.755,288.45C669.302,290.443 668.964,292.216 668.861,293.733C668.722,295.242 668.923,296.506 669.217,297.274C669.359,297.66 669.504,297.938 669.6,298.127C669.7,298.303 669.752,298.393 669.752,298.393L669.902,298.472L669.939,298.596C669.999,298.808 670.065,299.036 670.132,299.274C670.175,299.521 670.23,299.776 670.282,300.039C670.367,300.578 670.449,301.154 670.482,301.776C670.509,302.084 670.521,302.406 670.526,302.733C670.54,303.058 670.541,303.396 670.536,303.736C670.525,305.103 670.429,306.567 670.303,308.056C670.251,308.805 670.176,309.549 670.148,310.338L670.137,310.637L670.136,310.677L670.137,310.783L670.14,310.795L670.141,310.812L670.148,310.879L670.163,311.019L670.195,311.294L670.212,311.43L670.247,311.593C670.339,312.022 670.438,312.468 670.542,312.787C670.751,313.465 670.952,314.119 671.144,314.739C671.268,315.152 671.386,315.543 671.494,315.924C671.497,316.01 671.5,316.094 671.504,316.185C671.535,316.873 671.594,317.645 671.695,318.486C671.788,319.329 671.954,320.234 672.249,321.17C672.539,322.111 672.91,323.085 673.193,324.11C673.342,324.621 673.458,325.15 673.606,325.68C673.668,325.949 673.742,326.219 673.823,326.49C673.897,326.767 673.988,327.043 674.102,327.328C674.225,327.608 674.344,327.904 674.662,328.197L674.987,328.505L675.311,328.799C675.751,329.178 676.212,329.518 676.679,329.839C677.142,330.164 677.61,330.477 678.039,330.786C678.25,330.943 678.458,331.089 678.637,331.23L678.843,331.412L678.887,331.451L678.97,331.579C679.13,331.829 679.255,332.217 679.267,332.642C679.275,333.07 679.215,333.549 679.105,334.044C679.052,334.301 679,334.559 678.948,334.812L678.911,334.845L678.704,334.938C678.341,335.043 677.863,335.025 677.421,334.963C676.524,334.832 675.667,334.55 674.896,334.254C673.357,333.642 672.129,332.957 671.281,332.471C670.859,332.226 670.531,332.029 670.305,331.892L670.247,331.838C670.099,331.715 669.976,331.414 669.842,331.193C669.711,330.955 669.583,330.724 669.468,330.486C669.23,330.023 669.023,329.549 668.822,329.098C668.427,328.186 668.041,327.345 667.671,326.577C667.31,325.805 666.992,325.091 666.741,324.448C666.478,323.808 666.275,323.237 666.12,322.762C665.957,322.288 665.854,321.906 665.777,321.644C665.701,321.378 665.662,321.235 665.662,321.235L665.605,321.185L665.531,321.246C665.531,321.246 665.516,321.391 665.486,321.668C665.469,321.948 665.457,322.365 665.498,322.886C665.538,323.408 665.635,324.042 665.809,324.751C665.9,325.103 666.014,325.474 666.141,325.864C666.273,326.25 666.432,326.646 666.606,327.06C666.96,327.881 667.433,328.728 668.034,329.549C668.645,330.369 669.292,331.232 669.96,332.125C670.378,332.516 670.803,332.863 671.22,333.251C671.633,333.642 672.051,334.035 672.471,334.435C673.319,335.219 674.243,335.928 675.132,336.661C675.584,337.018 676.032,337.38 676.483,337.713C676.706,337.881 676.92,338.059 677.115,338.222L677.253,338.341L677.305,338.39C677.281,338.514 677.18,338.716 677.049,338.883C676.912,339.066 676.742,339.236 676.556,339.393C676.186,339.709 675.746,339.949 675.286,340.124C674.36,340.473 673.355,340.544 672.416,340.447C671.471,340.347 670.587,340.09 669.793,339.786C669.001,339.481 668.296,339.124 667.682,338.786C667.073,338.441 666.556,338.107 666.138,337.823C666.001,337.728 665.878,337.641 665.761,337.559C665.444,337.273 665.135,336.981 664.845,336.673C663.951,335.727 663.178,334.717 662.446,333.751C661.718,332.774 661.101,331.776 660.577,330.806C660.051,329.835 659.59,328.894 659.222,328C658.838,327.109 658.54,326.267 658.296,325.51C658.043,324.755 657.869,324.082 657.715,323.522C657.568,322.964 657.45,322.517 657.389,322.213C657.312,321.908 657.271,321.744 657.271,321.744L657.269,321.742L657.208,321.692L657.138,321.753C657.138,321.753 657.127,321.924 657.109,322.24C657.095,322.554 657.089,323.018 657.103,323.613C657.132,324.205 657.183,324.927 657.322,325.747C657.459,326.566 657.671,327.482 657.995,328.464C658.329,329.434 658.766,330.467 659.361,331.494C659.959,332.509 660.693,333.521 661.533,334.486C662.37,335.458 663.377,336.323 664.431,337.13C665.484,337.929 666.552,338.74 667.621,339.549C668.153,339.94 668.641,340.363 668.996,340.867C669.172,341.109 669.306,341.383 669.337,341.619C669.361,341.86 669.297,341.974 669.132,342.085C668.964,342.198 668.692,342.264 668.411,342.293C668.129,342.329 667.831,342.327 667.531,342.312C666.932,342.271 666.323,342.195 665.73,342.081C665.134,341.976 664.543,341.851 663.975,341.716C663.382,341.587 662.863,341.456 662.373,341.258C661.76,341.008 661.207,340.676 660.705,340.305C660.449,339.972 660.191,339.643 659.947,339.307C659.374,338.548 658.836,337.765 658.306,336.985L656.747,334.645L655.223,332.321C654.715,331.552 654.265,330.751 653.816,329.952C653.594,329.547 653.384,329.141 653.188,328.728C652.997,328.312 652.792,327.902 652.617,327.478C652.437,327.058 652.284,326.627 652.123,326.197C651.965,325.764 651.836,325.325 651.713,324.881C651.583,324.434 651.488,323.982 651.396,323.522C651.311,323.061 651.234,322.599 651.182,322.121L651.097,322.025L650.964,322.108C650.854,322.58 650.778,323.067 650.743,323.557C650.701,324.049 650.708,324.541 650.725,325.033C650.785,326.02 650.944,327.006 651.205,327.959C651.335,328.433 651.469,328.912 651.646,329.373C651.816,329.837 652.002,330.294 652.199,330.747C652.59,331.65 653.073,332.508 653.565,333.35C654.065,334.192 654.618,334.999 655.234,335.751C655.535,336.132 655.847,336.502 656.175,336.86C656.497,337.219 656.83,337.573 657.17,337.915C657.413,338.166 657.66,338.408 657.909,338.649C658.257,339.188 658.675,339.745 659.178,340.301C659.622,340.776 660.144,341.253 660.755,341.664C660.48,341.87 660.098,342.046 659.721,342.114C659.287,342.2 658.832,342.202 658.382,342.134C657.479,341.992 656.618,341.584 655.835,341.073C655.052,340.555 654.334,339.931 653.666,339.254C653.003,338.578 652.371,337.858 651.795,337.1C651.24,336.336 650.713,335.552 650.218,334.757C649.725,333.963 649.271,333.14 648.906,332.312C648.719,331.899 648.557,331.485 648.436,331.078C648.313,330.647 648.166,330.151 648.025,329.696C647.758,328.786 647.472,327.881 647.225,326.968C646.974,326.056 646.722,325.128 646.492,324.185C646.255,323.252 645.983,322.29 645.764,321.367C645.621,320.468 645.516,319.483 645.436,318.531C645.354,317.57 645.302,316.608 645.263,315.64C645.202,313.71 645.233,311.775 645.372,309.841C645.443,308.875 645.537,307.911 645.664,306.947L645.879,305.508L646.144,304.072L646.145,304.065L646.066,303.939L645.932,304.014L645.52,305.428C645.39,305.9 645.281,306.382 645.167,306.857C644.955,307.815 644.762,308.782 644.619,309.757C644.471,310.731 644.351,311.709 644.261,312.689C644.225,313.098 644.198,313.504 644.171,313.911L644.126,314.006C643.925,314.439 643.586,315.072 643.119,315.828C642.874,316.201 642.605,316.608 642.291,317.041C641.973,317.466 641.621,317.917 641.228,318.388C641.032,318.625 640.822,318.86 640.599,319.099C640.386,319.343 640.157,319.589 639.92,319.834C639.44,320.325 638.91,320.812 638.364,321.326C638.088,321.577 637.813,321.846 637.515,322.095C637.225,322.354 636.929,322.619 636.61,322.864C636.301,323.121 635.972,323.359 635.63,323.576C635.29,323.787 634.925,323.979 634.573,324.068C634.482,324.092 634.409,324.101 634.32,324.11L633.977,324.114C633.762,324.105 633.552,324.09 633.334,324.064C632.909,324.01 632.479,323.909 632.162,323.692C631.84,323.483 631.703,323.158 631.745,322.752C631.792,322.348 631.984,321.922 632.216,321.514C632.677,320.687 633.399,320.022 633.97,319.064C634.521,318.175 635.017,317.258 635.504,316.334C635.991,315.415 636.478,314.485 636.976,313.626C637.101,313.417 637.233,313.2 637.358,313.025C637.423,312.932 637.485,312.845 637.542,312.785L637.675,312.625C637.716,312.57 637.749,312.538 637.818,312.429C637.957,312.223 638.011,312.111 638.089,311.972C638.156,311.841 638.227,311.707 638.285,311.581C638.411,311.325 638.516,311.073 638.623,310.82C639.452,308.822 640.136,306.843 640.867,304.922C641.223,303.962 641.575,303.013 641.947,302.12C642.13,301.675 642.323,301.232 642.521,300.878L642.663,300.646L642.694,300.595L642.676,300.615L642.691,300.597L642.719,300.56L642.778,300.487L642.808,300.455L642.978,300.277L643.212,300.067C643.884,299.507 644.681,298.945 645.454,298.414C646.229,297.875 646.992,297.327 647.734,296.777C648.464,296.207 649.18,295.643 649.805,294.953C649.958,294.773 650.11,294.597 650.248,294.389L650.273,294.352L650.288,294.335L650.351,294.233L650.387,294.135L650.433,293.981L650.455,293.886L650.518,293.57C650.572,293.267 650.624,292.973 650.674,292.68C650.779,292.291 650.898,291.83 651.033,291.271C651.452,289.505 652.043,286.907 652.712,283.585C653.375,280.261 654.11,276.213 654.846,271.55C655.208,269.218 655.583,266.718 655.939,264.128C656.306,261.548 656.805,258.847 657.433,256.048C658.066,253.249 658.771,250.34 659.604,247.347C660.417,244.352 661.36,241.278 662.296,238.1C663.235,234.923 664.243,231.663 665.197,228.288C665.665,226.596 666.124,224.881 666.54,223.124C666.956,221.359 667.328,219.586 667.585,217.689C667.659,217.197 667.686,216.803 667.742,216.298C667.78,215.841 667.816,215.385 667.853,214.926C667.923,214.013 668.004,213.096 668.063,212.174C668.192,210.333 668.305,208.476 668.411,206.611C668.596,202.889 668.783,199.127 668.97,195.332C669.186,191.55 669.467,187.757 669.985,183.968C670.493,180.174 671.239,176.423 672.149,172.665C672.37,171.726 672.595,170.795 672.84,169.849C673.06,168.902 673.282,167.955 673.456,166.998C673.819,165.086 674.094,163.166 674.333,161.252C674.571,159.339 674.759,157.424 674.978,155.518C675.076,154.566 675.174,153.615 675.271,152.665C675.37,151.713 675.452,150.765 675.606,149.85C675.912,148.007 676.412,146.207 677.147,144.519C677.516,143.678 677.938,142.863 678.417,142.089C678.886,141.306 679.413,140.566 679.982,139.866C682.253,137.054 685.231,134.934 688.445,133.614C690.049,132.956 691.727,132.486 693.386,132.233C693.828,132.165 694.268,132.096 694.707,132.031C695.156,131.962 695.603,131.884 696.05,131.787C696.499,131.699 696.945,131.604 697.384,131.487C697.828,131.382 698.268,131.259 698.701,131.125C700.444,130.61 702.065,129.913 703.631,129.274C705.197,128.627 706.749,128.048 708.284,127.478C711.369,126.363 714.434,125.437 717.417,124.61C718.924,124.196 720.407,123.789 721.862,123.39C723.326,122.981 724.758,122.551 726.156,122.08C727.554,121.605 728.912,121.091 730.218,120.424C730.869,120.082 731.512,119.713 732.111,119.218C732.706,118.739 733.283,118.083 733.579,117.282C733.655,117.085 733.709,116.885 733.753,116.69C733.774,116.591 733.792,116.48 733.81,116.379L733.838,116.116C733.862,115.771 733.885,115.433 733.907,115.093C733.916,114.435 733.937,113.781 733.917,113.151C733.899,111.883 733.846,110.664 733.785,109.483C733.54,104.758 733.125,100.669 732.793,97.301C732.561,95.09 732.344,93.202 732.153,91.652C732.231,91.82 732.312,91.991 732.391,92.156C732.614,92.599 732.834,93.036 733.05,93.467C733.279,93.911 733.505,94.322 733.727,94.738C734.167,95.574 734.63,96.367 735.072,97.138C735.963,98.675 736.876,100.068 737.685,101.349C738.496,102.626 739.113,103.849 739.498,105.037C739.882,106.223 740.123,107.326 740.299,108.29C740.491,109.252 740.595,110.082 740.704,110.751C740.881,112.098 740.975,112.815 740.975,112.815C740.975,112.815 740.931,112.093 740.846,110.738C740.783,110.062 740.735,109.223 740.608,108.242C740.503,107.261 740.326,106.133 739.996,104.886C739.673,103.641 739.09,102.307 738.34,100.962C737.598,99.615 736.753,98.209 735.949,96.652C735.549,95.872 735.129,95.07 734.735,94.225C734.539,93.807 734.324,93.376 734.132,92.953C733.936,92.514 733.737,92.068 733.536,91.614C732.762,89.818 732.006,87.908 731.342,85.867C730.691,83.825 730.131,81.665 729.695,79.402C729.251,77.142 728.939,74.777 728.784,72.333C728.627,69.891 728.584,67.371 728.73,64.8C728.747,64.158 728.803,63.511 728.851,62.863C728.908,62.213 728.931,61.561 729.012,60.906C729.08,60.255 729.149,59.597 729.219,58.936L729.23,58.813L729.237,58.762L729.243,58.724L729.282,58.475L729.356,57.974L729.435,57.472L729.534,57.015C729.607,56.711 729.653,56.41 729.747,56.101L730.011,55.173C730.223,54.567 730.431,53.956 730.701,53.368C731.225,52.188 731.877,51.057 732.653,50.002C734.2,47.889 736.25,46.116 738.549,44.689C740.856,43.268 743.427,42.199 746.104,41.474C748.767,40.748 751.591,40.348 754.305,40.341C757.105,40.35 759.866,40.744 762.551,41.469C765.227,42.193 767.8,43.256 770.107,44.674C772.408,46.101 774.459,47.871 776.008,49.985C777.552,52.095 778.63,54.502 779.133,57.017L779.234,57.488L779.306,57.963C779.349,58.276 779.413,58.603 779.443,58.903C779.513,59.572 779.583,60.237 779.651,60.901C779.733,61.569 779.755,62.205 779.812,62.855C779.861,63.497 779.917,64.137 779.934,64.782C780.078,67.354 780.036,69.873 779.878,72.317C779.722,74.758 779.409,77.123 778.965,79.383C778.529,81.647 777.97,83.808 777.317,85.848C775.984,89.92 774.322,93.525 772.709,96.632C771.904,98.192 771.059,99.596 770.317,100.942C769.567,102.288 768.986,103.624 768.663,104.87C768.333,106.115 768.155,107.241 768.05,108.222C767.924,109.205 767.876,110.042 767.814,110.72C767.73,112.076 767.685,112.798 767.685,112.798C767.685,112.798 767.78,112.081 767.958,110.733C768.064,110.066 768.171,109.234 768.36,108.272C768.537,107.308 768.779,106.208 769.164,105.019C769.547,103.832 770.166,102.61 770.976,101.332C771.787,100.05 772.698,98.659 773.591,97.122C774.485,95.574 775.393,93.933 776.273,92.135C776.353,91.972 776.429,91.804 776.506,91.641C776.315,93.19 776.1,95.076 775.866,97.283C775.535,100.654 775.122,104.742 774.877,109.464C774.813,110.644 774.761,111.866 774.742,113.133C774.723,113.765 774.744,114.418 774.751,115.075C774.775,115.413 774.797,115.753 774.82,116.097L774.85,116.361C774.868,116.461 774.886,116.573 774.908,116.671C774.952,116.866 775.005,117.067 775.081,117.264C775.375,118.068 775.955,118.721 776.548,119.201C777.149,119.693 777.791,120.065 778.441,120.405C779.749,121.071 781.107,121.588 782.505,122.062C783.9,122.533 785.334,122.964 786.799,123.373C788.252,123.769 789.736,124.176 791.243,124.592C794.226,125.42 797.292,126.345 800.375,127.459C801.913,128.028 803.464,128.609 805.029,129.257C806.596,129.895 808.214,130.592 809.959,131.106C810.393,131.242 810.83,131.364 811.273,131.469C811.716,131.589 812.162,131.68 812.61,131.767C813.056,131.867 813.504,131.947 813.954,132.009C814.393,132.079 814.832,132.148 815.273,132.214C816.933,132.466 818.609,132.936 820.215,133.593C823.427,134.915 826.407,137.037 828.678,139.848C829.247,140.549 829.775,141.289 830.243,142.07C830.722,142.845 831.145,143.66 831.512,144.502C832.25,146.189 832.748,147.989 833.054,149.831C833.208,150.748 833.29,151.693 833.389,152.647C833.485,153.596 833.584,154.549 833.683,155.498C833.901,157.404 834.089,159.319 834.329,161.234C834.566,163.146 834.841,165.068 835.205,166.978C835.377,167.936 835.601,168.884 835.82,169.832C836.064,170.777 836.29,171.707 836.512,172.647C837.42,176.404 838.167,180.155 838.676,183.951C839.194,187.739 839.474,191.533 839.69,195.314C839.876,199.108 840.064,202.872 840.249,206.595C840.354,208.459 840.465,210.315 840.599,212.156C840.656,213.08 840.737,213.994 840.807,214.91C840.845,215.367 840.881,215.822 840.917,216.277C840.974,216.786 841,217.178 841.076,217.672C841.332,219.569 841.705,221.34 842.12,223.104C842.537,224.859 842.995,226.581 843.463,228.268C844.417,231.643 845.424,234.904 846.366,238.08C847.3,241.261 848.244,244.335 849.056,247.329C849.89,250.322 850.593,253.231 851.228,256.029C851.856,258.83 852.354,261.531 852.72,264.11C853.077,266.703 853.45,269.203 853.813,271.534C854.55,276.193 855.284,280.244 855.948,283.563C856.603,286.818 857.183,289.372 857.598,291.136C857.664,291.541 857.73,291.95 857.799,292.371C857.867,292.762 857.938,293.161 858.011,293.57L858.074,293.886L858.095,293.981L858.142,294.135L858.179,294.233L858.242,294.335L858.255,294.352L858.28,294.389C858.418,294.597 858.571,294.773 858.724,294.953C859.35,295.643 860.065,296.207 860.793,296.777C861.536,297.327 862.299,297.875 863.076,298.414C863.847,298.945 864.645,299.507 865.317,300.067L865.551,300.277L865.721,300.455L865.752,300.487L865.811,300.56L865.838,300.597L865.852,300.615L865.834,300.595L865.866,300.646L866.007,300.878C866.206,301.232 866.398,301.675 866.583,302.12C866.953,303.013 867.305,303.962 867.663,304.922C868.394,306.843 869.077,308.822 869.906,310.82C870.013,311.073 870.118,311.325 870.244,311.581C870.301,311.707 870.373,311.841 870.438,311.972C870.517,312.111 870.573,312.223 870.71,312.429C870.78,312.538 870.813,312.57 870.854,312.625L870.986,312.785C871.043,312.845 871.108,312.932 871.172,313.025C871.295,313.2 871.428,313.417 871.554,313.626C872.051,314.485 872.538,315.415 873.025,316.334C873.51,317.258 874.007,318.175 874.56,319.064C875.129,320.022 875.852,320.687 876.312,321.514C876.543,321.922 876.736,322.348 876.785,322.752C876.826,323.158 876.687,323.483 876.366,323.692ZM730.912,93.509C730.558,93.437 730.185,93.295 729.843,93.017C729.502,92.74 729.168,92.341 728.859,91.824C728.231,90.79 727.681,89.356 726.961,87.822C726.603,87.053 726.241,86.24 725.915,85.396C725.584,84.551 725.265,83.685 724.939,82.814C724.625,81.947 724.261,81.07 723.949,80.23C723.646,79.39 723.396,78.548 723.213,77.732C723.036,76.914 722.935,76.108 722.977,75.368C723.016,74.626 723.211,73.947 723.591,73.464C723.965,72.975 724.503,72.693 725.012,72.557C725.525,72.418 726.008,72.396 726.4,72.404C726.559,72.409 726.7,72.418 726.83,72.433L726.835,72.49C727.267,77.532 728.433,82.216 729.918,86.356C730.406,87.679 730.929,88.946 731.47,90.165C731.533,91.112 731.606,92.252 731.687,93.565C731.481,93.57 731.211,93.565 730.912,93.509ZM782.289,72.758C782.663,72.841 783.104,72.96 783.509,73.152C783.918,73.348 784.247,73.618 784.467,73.954C784.686,74.294 784.886,74.763 785.036,75.414C785.19,76.06 785.214,76.844 785.122,77.658C785.04,78.473 784.87,79.328 784.677,80.198C784.453,81.074 784.16,81.967 783.91,82.858C783.392,84.638 782.892,86.418 782.33,88.045C781.768,89.666 781.146,91.157 780.352,92.241C779.956,92.778 779.51,93.202 779.046,93.456C778.585,93.712 778.116,93.787 777.732,93.777C777.416,93.766 777.159,93.712 776.966,93.659C777.048,92.301 777.125,91.125 777.189,90.152C777.73,88.933 778.251,87.665 778.743,86.336C780.207,82.25 781.36,77.634 781.804,72.665C781.95,72.689 782.112,72.72 782.289,72.758ZM877.438,322.683C877.378,322.121 877.159,321.633 876.915,321.178C876.662,320.728 876.394,320.291 876.101,319.875C876.036,319.775 875.944,319.653 875.893,319.571L875.69,319.253C875.579,319.041 875.47,318.847 875.364,318.618C874.934,317.732 874.597,316.766 874.245,315.796C873.892,314.821 873.566,313.827 873.111,312.82C872.992,312.566 872.883,312.312 872.722,312.047C872.649,311.916 872.571,311.784 872.461,311.64L872.384,311.532L872.347,311.483L872.369,311.507L872.354,311.485L872.275,311.357C872.271,311.342 872.209,311.216 872.168,311.124L872.036,310.797L871.775,310.094C871.437,309.134 871.126,308.132 870.815,307.135C870.493,306.133 870.171,305.133 869.855,304.145C869.516,303.153 869.16,302.173 868.741,301.198C868.521,300.708 868.3,300.229 867.996,299.716C867.914,299.584 867.838,299.458 867.733,299.317L867.655,299.216L867.61,299.158L867.595,299.14L867.564,299.105L867.502,299.034L867.404,298.932C867.257,298.78 867.155,298.696 867.038,298.594C866.924,298.503 866.812,298.41 866.701,298.33C865.819,297.674 864.959,297.215 864.127,296.733C863.294,296.262 862.475,295.839 861.706,295.394C860.932,294.966 860.193,294.526 859.569,294.056C859.419,293.939 859.269,293.817 859.149,293.694L859.139,293.685L859.139,293.68L859.144,293.685L859.127,293.63L859.053,293.342C858.96,292.945 858.869,292.556 858.779,292.174C858.364,290.352 857.994,288.714 857.675,287.304C857.528,286.13 857.37,284.819 857.198,283.367C856.794,280.014 856.33,275.942 855.837,271.265C855.717,270.099 855.593,268.893 855.466,267.652C855.338,266.4 855.237,265.141 855.072,263.805C854.76,261.146 854.32,258.37 853.75,255.502C853.187,252.628 852.477,249.666 851.686,246.627C850.885,243.586 850.026,240.46 849.059,237.276C848.102,234.091 847.105,230.832 846.135,227.504C845.647,225.842 845.169,224.162 844.739,222.462C844.309,220.771 843.919,219.03 843.662,217.342C843.591,216.942 843.545,216.427 843.492,216.032C843.447,215.582 843.401,215.131 843.357,214.678C843.271,213.777 843.174,212.87 843.099,211.955C842.936,210.131 842.79,208.292 842.651,206.438C842.373,202.731 842.139,198.963 841.78,195.154C841.434,191.352 840.93,187.513 840.223,183.701C839.515,179.898 838.611,176.093 837.536,172.381L836.749,169.595C836.512,168.666 836.271,167.738 836.079,166.801C835.972,166.336 835.879,165.865 835.796,165.392C835.711,164.923 835.616,164.452 835.543,163.978C835.408,163.029 835.25,162.085 835.137,161.13C834.885,159.228 834.674,157.322 834.488,155.422C834.399,154.466 834.312,153.515 834.225,152.565C834.14,151.618 834.054,150.666 833.931,149.703C833.67,147.786 833.203,145.893 832.49,144.099C832.147,143.198 831.744,142.318 831.28,141.473C830.825,140.624 830.303,139.81 829.735,139.036C827.467,135.922 824.378,133.478 820.967,131.886C819.255,131.09 817.478,130.496 815.635,130.123C815.198,130.038 814.764,129.954 814.33,129.87C813.906,129.796 813.486,129.712 813.075,129.609C812.66,129.516 812.249,129.417 811.848,129.298C811.44,129.194 811.04,129.07 810.643,128.933C809.06,128.408 807.505,127.746 805.92,127.09C804.338,126.433 802.752,125.799 801.165,125.247C797.988,124.141 794.856,123.24 791.81,122.432C790.294,122.056 788.805,121.687 787.344,121.326C785.893,120.962 784.483,120.577 783.122,120.157C781.768,119.731 780.445,119.294 779.261,118.742C778.086,118.191 777.003,117.513 776.655,116.645C776.605,116.533 776.571,116.416 776.538,116.294L776.497,116.125L776.462,115.904C776.434,115.596 776.405,115.289 776.376,114.987C776.347,114.362 776.301,113.748 776.299,113.127C776.269,111.892 776.277,110.681 776.295,109.511C776.382,104.824 776.583,100.723 776.761,97.354C776.822,96.106 776.889,94.962 776.949,93.92C777.146,93.983 777.4,94.05 777.714,94.081C778.134,94.123 778.682,94.079 779.229,93.818C779.779,93.567 780.306,93.12 780.766,92.566C781.689,91.45 782.412,89.946 783.083,88.33C783.752,86.706 784.366,84.949 784.979,83.199C785.29,82.322 785.573,81.453 785.911,80.593C786.271,79.728 786.564,78.843 786.779,77.945C786.985,77.049 787.153,76.144 787.146,75.202C787.146,74.273 786.851,73.248 786.157,72.524C785.822,72.16 785.42,71.897 785.025,71.731C784.629,71.554 784.24,71.492 783.894,71.454C783.194,71.404 782.636,71.532 782.205,71.673C782.085,71.712 781.977,71.755 781.876,71.797C782.064,69.491 782.156,67.121 782.084,64.707C782.083,64.043 782.043,63.374 782.009,62.7C781.972,62.031 781.949,61.342 781.881,60.686C781.822,60.021 781.763,59.354 781.703,58.685C781.671,58.316 781.613,57.976 781.568,57.62L781.495,57.09L781.391,56.565C780.876,53.746 779.698,50.975 777.98,48.551C776.267,46.12 773.98,44.095 771.444,42.523C768.904,40.939 766.115,39.777 763.233,38.979C760.354,38.186 757.337,37.735 754.348,37.714C751.27,37.739 748.316,38.19 745.419,38.985C742.536,39.788 739.749,40.952 737.212,42.535C734.677,44.112 732.392,46.14 730.678,48.57C729.816,49.779 729.094,51.081 728.523,52.428C728.228,53.1 728,53.791 727.775,54.48L727.494,55.528C727.396,55.875 727.34,56.246 727.264,56.605L727.157,57.141L727.089,57.645L727.021,58.146L726.987,58.398L726.973,58.494L726.968,58.559L726.958,58.687C726.896,59.364 726.836,60.04 726.776,60.714C726.707,61.386 726.686,62.06 726.646,62.729C726.613,63.396 726.573,64.061 726.573,64.726C726.499,67.245 726.599,69.721 726.805,72.121C726.689,72.102 726.566,72.082 726.428,72.065C726.014,72.016 725.499,71.985 724.906,72.086C724.323,72.194 723.634,72.468 723.106,73.051C722.571,73.629 722.274,74.447 722.161,75.284C722.044,76.13 722.086,77.015 722.204,77.907C722.321,78.8 722.529,79.701 722.781,80.6C723.034,81.492 723.245,82.378 723.493,83.277C723.735,84.176 723.979,85.074 724.218,85.958C724.464,86.843 724.688,87.729 724.946,88.586C725.459,90.293 726.252,91.853 727.344,93.019C727.622,93.304 727.914,93.565 728.223,93.787C728.535,94.006 728.872,94.171 729.202,94.293C729.868,94.534 730.513,94.509 730.964,94.386C731.288,94.301 731.532,94.185 731.719,94.079C731.778,95.085 731.838,96.182 731.9,97.372C732.078,100.743 732.278,104.843 732.364,109.529C732.383,110.7 732.391,111.91 732.361,113.144C732.359,113.765 732.313,114.38 732.284,115.005C732.255,115.308 732.226,115.612 732.198,115.922L732.163,116.142L732.122,116.314C732.089,116.435 732.053,116.552 732.004,116.663C731.658,117.531 730.573,118.209 729.4,118.759C728.212,119.311 726.892,119.749 725.539,120.175C724.178,120.594 722.766,120.979 721.317,121.343C719.855,121.705 718.366,122.074 716.852,122.45C713.805,123.258 710.673,124.159 707.496,125.265C705.909,125.815 704.32,126.451 702.739,127.105C701.155,127.763 699.599,128.426 698.017,128.953C697.621,129.089 697.219,129.213 696.813,129.316C696.411,129.438 695.999,129.536 695.584,129.627C695.173,129.728 694.754,129.813 694.33,129.888C693.896,129.971 693.461,130.055 693.025,130.14C691.182,130.512 689.405,131.106 687.693,131.904C684.282,133.496 681.193,135.941 678.925,139.053C678.356,139.829 677.836,140.641 677.38,141.491C676.916,142.336 676.514,143.216 676.17,144.12C675.457,145.913 674.991,147.803 674.73,149.718C674.607,150.684 674.521,151.635 674.437,152.584C674.348,153.533 674.261,154.484 674.171,155.439C673.987,157.341 673.773,159.246 673.524,161.147C673.411,162.102 673.25,163.045 673.116,163.997C673.042,164.469 672.947,164.94 672.864,165.41C672.78,165.883 672.688,166.353 672.581,166.82C672.388,167.758 672.149,168.683 671.912,169.613L671.125,172.4C670.049,176.109 669.145,179.917 668.438,183.718C667.73,187.531 667.226,191.37 666.88,195.175C666.521,198.98 666.288,202.748 666.01,206.456C665.87,208.309 665.725,210.148 665.56,211.974C665.486,212.886 665.39,213.793 665.302,214.699C665.257,215.148 665.213,215.599 665.169,216.049C665.116,216.448 665.067,216.961 664.999,217.36C664.741,219.047 664.35,220.792 663.921,222.483C663.491,224.179 663.012,225.86 662.523,227.523C661.556,230.849 660.557,234.109 659.601,237.295C658.634,240.479 657.774,243.605 656.976,246.644C656.183,249.686 655.474,252.646 654.912,255.519C654.341,258.387 653.899,261.164 653.589,263.823C653.424,265.159 653.319,266.418 653.195,267.67C653.066,268.912 652.942,270.117 652.821,271.283C652.329,275.96 651.866,280.032 651.46,283.384C651.35,284.321 651.247,285.193 651.146,286.014C650.77,287.674 650.296,289.762 649.75,292.174C649.661,292.556 649.569,292.945 649.474,293.342L649.4,293.63L649.386,293.685L649.391,293.68L649.391,293.685L649.38,293.694C649.26,293.817 649.109,293.939 648.959,294.056C648.337,294.526 647.597,294.966 646.823,295.394C646.054,295.839 645.234,296.262 644.402,296.733C643.569,297.215 642.709,297.674 641.83,298.33C641.717,298.41 641.604,298.503 641.492,298.594C641.374,298.696 641.273,298.78 641.125,298.932L641.026,299.034L640.965,299.105L640.933,299.14L640.919,299.158L640.872,299.216L640.796,299.317C640.689,299.458 640.613,299.584 640.533,299.716C640.228,300.229 640.006,300.708 639.787,301.198C639.368,302.173 639.011,303.153 638.674,304.145C638.357,305.133 638.036,306.133 637.715,307.135C637.403,308.132 637.092,309.134 636.754,310.094L636.493,310.797L636.359,311.124C636.318,311.216 636.257,311.342 636.255,311.357L636.174,311.485L636.161,311.507L636.183,311.483L636.145,311.532L636.067,311.64C635.959,311.784 635.878,311.916 635.807,312.047C635.646,312.312 635.536,312.566 635.418,312.82C634.964,313.827 634.638,314.821 634.284,315.796C633.933,316.766 633.594,317.732 633.165,318.618C633.06,318.847 632.95,319.041 632.838,319.253L632.634,319.571C632.584,319.653 632.494,319.775 632.427,319.875C632.135,320.291 631.866,320.728 631.612,321.178C631.371,321.633 631.151,322.121 631.09,322.683C631.06,322.964 631.081,323.271 631.199,323.557C631.317,323.841 631.521,324.084 631.75,324.254C632.208,324.591 632.709,324.755 633.19,324.863C633.43,324.918 633.679,324.959 633.919,324.989L634.261,325.037C634.397,325.048 634.552,325.064 634.686,325.055C635.767,324.978 636.638,324.6 637.46,324.212C638.275,323.805 638.993,323.317 639.641,322.794C640.287,322.275 640.833,321.694 641.327,321.127C641.573,320.841 641.809,320.561 642.027,320.278C642.24,319.994 642.438,319.708 642.625,319.428C642.81,319.147 642.98,318.872 643.14,318.602C643.288,318.324 643.435,318.059 643.559,317.793C643.77,317.383 643.93,316.978 644.066,316.601C644.056,317.268 644.05,317.937 644.074,318.607C644.105,319.602 644.149,320.568 644.258,321.603C644.355,322.606 644.438,323.562 644.555,324.549C644.681,325.524 644.813,326.515 645.019,327.498C645.213,328.485 645.486,329.453 645.79,330.409C645.943,330.883 646.093,331.316 646.277,331.81C646.468,332.333 646.695,332.813 646.94,333.273C647.436,334.197 648,335.05 648.61,335.863C649.223,336.674 649.89,337.436 650.633,338.132C651.361,338.827 652.088,339.512 652.881,340.135C653.668,340.76 654.503,341.335 655.393,341.818C655.846,342.049 656.302,342.275 656.784,342.453C657.267,342.624 657.771,342.748 658.288,342.819C658.802,342.888 659.339,342.876 659.86,342.76C660.341,342.648 660.791,342.481 661.222,342.145L661.38,342.078L661.409,342.049C661.58,342.14 661.754,342.227 661.938,342.305C662.501,342.549 663.121,342.721 663.7,342.862C664.298,343.005 664.91,343.129 665.546,343.225C666.183,343.306 666.839,343.378 667.523,343.355C667.864,343.341 668.214,343.313 668.573,343.239C668.927,343.154 669.306,343.044 669.659,342.755C669.833,342.609 669.99,342.399 670.06,342.156C670.134,341.913 670.116,341.671 670.062,341.465C669.951,341.051 669.726,340.748 669.496,340.473L669.386,340.356L669.518,340.424C670.326,340.808 671.253,341.153 672.295,341.328C673.329,341.507 674.493,341.502 675.635,341.135C676.204,340.954 676.766,340.683 677.275,340.297C677.529,340.104 677.768,339.879 677.982,339.619C678.193,339.348 678.396,339.062 678.503,338.623C678.528,338.512 678.545,338.383 678.536,338.235L678.491,337.995L678.423,337.826L678.395,337.776L678.38,337.752L678.373,337.741L678.334,337.683L678.313,337.655L678.271,337.598L678.186,337.49L678.023,337.299C677.807,337.058 677.582,336.86 677.358,336.659C676.916,336.251 676.438,335.906 675.962,335.561C675.838,335.473 675.712,335.393 675.584,335.306C676.104,335.517 676.659,335.707 677.27,335.838C677.777,335.934 678.311,336.019 678.942,335.897C679.1,335.861 679.267,335.813 679.441,335.707C679.612,335.603 679.797,335.466 679.925,335.173L679.942,335.129L679.951,335.107C679.96,335.08 679.94,335.146 679.971,335.045L679.974,335.04L680.009,334.977L680.093,334.826L680.287,334.477C680.541,333.985 680.793,333.425 680.887,332.769C680.988,332.116 680.947,331.373 680.568,330.649C680.511,330.544 680.519,330.552 680.439,330.422C680.371,330.325 680.287,330.208 680.22,330.137C680.078,329.982 679.944,329.87 679.81,329.759C679.549,329.553 679.295,329.386 679.038,329.241C678.525,328.942 678.021,328.688 677.519,328.433C677.022,328.177 676.521,327.933 676.021,327.708L675.642,327.541L675.279,327.372C675.151,327.328 674.974,327.132 674.832,326.934C674.251,326.083 673.933,325 673.744,323.984C673.556,322.953 673.559,321.922 673.524,320.956C673.497,319.987 673.387,319.088 673.233,318.259C673.131,317.672 673.023,317.12 672.91,316.612C672.907,316.504 672.902,316.398 672.901,316.287C672.891,315.991 672.884,315.684 672.858,315.369C672.825,315.054 672.791,314.73 672.755,314.396C672.674,313.736 672.556,313.036 672.436,312.349C672.366,311.978 672.338,311.711 672.286,311.422L672.268,311.314L672.263,311.177L672.253,310.9L672.248,310.759L672.245,310.731L672.245,310.724L672.268,310.463C672.339,309.726 672.413,308.979 672.485,308.231C672.54,307.462 672.586,306.682 672.582,305.912C672.581,305.525 672.582,305.142 672.555,304.763C672.536,304.382 672.518,304.008 672.47,303.636C672.429,303.268 672.393,302.903 672.318,302.548C672.253,302.194 672.2,301.849 672.102,301.514C671.945,300.847 671.722,300.224 671.488,299.668C671.356,299.393 671.235,299.132 671.11,298.888C670.965,298.65 670.819,298.433 670.686,298.225C670.563,298.02 670.417,297.836 670.267,297.675C670.13,297.521 670.001,297.381 669.889,297.252L669.874,297.119C669.784,296.38 669.874,295.314 670.24,293.961C670.611,292.609 671.199,290.97 671.894,289.082C672.59,287.196 673.383,285.055 674.213,282.711C674.62,281.54 675.044,280.323 675.482,279.062C675.703,278.428 675.927,277.783 676.153,277.13C676.391,276.494 676.632,275.848 676.875,275.195C677.87,272.569 678.94,269.766 679.995,266.842C681.052,263.918 682.094,260.859 683.169,257.758C684.243,254.657 685.338,251.51 686.431,248.362C687.522,245.215 688.593,242.053 689.507,238.884C689.757,238.096 689.952,237.297 690.166,236.504C690.271,236.108 690.378,235.714 690.483,235.32L690.563,235.021L690.645,234.746L690.815,234.165C691.035,233.384 691.279,232.642 691.522,231.914C691.761,231.18 692.043,230.457 692.29,229.739C693.353,226.879 694.448,224.183 695.729,221.699C696.377,220.424 697.008,219.188 697.617,217.99C697.769,217.672 697.924,217.369 698.063,217.033C698.134,216.865 698.205,216.701 698.275,216.536L698.462,216.084C698.71,215.484 698.932,214.892 699.159,214.307C700.031,211.935 700.696,209.717 701.168,207.69C701.466,206.403 701.679,205.19 701.795,204.075C701.943,204.479 702.09,204.88 702.237,205.283C703.068,207.564 703.85,209.886 704.574,212.243C704.955,213.415 705.291,214.606 705.637,215.796C705.801,216.396 705.963,216.996 706.125,217.595L706.356,218.477C706.434,218.778 706.488,219.053 706.557,219.345C707.044,221.763 707.504,224.265 707.896,226.757C708.695,231.75 709.132,236.793 709.348,241.766C709.563,246.74 709.599,251.645 709.825,256.376C710.031,261.097 710.229,265.696 710.321,269.972C710.327,270.484 710.333,271.055 710.306,271.452L710.299,271.592L710.291,271.639L710.273,271.736L710.203,272.132C710.161,272.398 710.104,272.634 710.052,272.879C709.834,273.888 709.619,274.881 709.407,275.857C708.954,277.845 708.515,279.765 708.096,281.609C707.677,283.457 707.277,285.228 706.897,286.914C706.524,288.601 706.171,290.202 705.837,291.706C705.512,293.213 705.209,294.624 704.928,295.927C704.654,297.231 704.403,298.431 704.177,299.515C703.306,303.817 702.806,306.291 702.798,306.334L701.575,309.121L700.429,311.959L699.353,314.819L698.33,317.696C697.986,318.657 697.688,319.632 697.364,320.598C697.043,321.564 696.735,322.535 696.438,323.509C695.825,325.455 695.281,327.419 694.718,329.378C694.184,331.342 693.64,333.309 693.169,335.292L692.444,338.262L691.761,341.242C691.531,342.236 691.334,343.236 691.127,344.231L690.519,347.231C690.15,349.237 689.738,351.233 689.425,353.252L688.941,356.268L688.507,359.299C688.367,360.31 688.248,361.322 688.136,362.338L687.79,365.377L687.528,368.427L687.398,369.951C687.356,370.474 687.332,370.968 687.302,371.481L686.951,377.566C686.828,379.593 686.78,381.636 686.69,383.669C686.593,385.703 686.543,387.739 686.485,389.773L686.429,391.297L686.404,392.825C686.396,393.841 686.361,394.859 686.371,395.877C686.383,397.902 686.355,399.887 686.573,401.958C686.35,404.901 686.129,407.843 685.883,410.787L685.545,415.217C685.495,415.962 685.446,416.697 685.411,417.455C685.368,418.262 685.419,418.976 685.371,419.665C685.208,422.51 684.518,425.387 683.984,428.302C683.419,431.218 682.942,434.175 682.63,437.154C682.312,440.133 682.162,443.131 682.135,446.123C682.121,447.617 682.153,449.137 682.196,450.597L682.282,455.036C682.322,456.517 682.286,457.977 682.29,459.447C682.292,460.917 682.314,462.383 682.29,463.861L682.211,472.716L682.022,490.451L681.973,499.326L681.992,508.212L681.985,512.639L681.891,517.062L681.712,521.481C681.645,522.957 681.547,524.43 681.466,525.903L681.338,528.115L681.164,530.324L681.018,532.181L680.841,532.211C680.556,532.241 680.139,532.289 679.607,532.347C679.072,532.402 678.426,532.493 677.69,532.633C677.325,532.707 676.933,532.787 676.527,532.897C676.121,533.01 675.706,533.182 675.277,533.383C674.424,533.803 673.491,534.331 672.445,534.499C671.951,534.59 671.436,534.552 670.865,534.472C670.308,534.403 669.615,534.315 668.895,534.546C668.181,534.761 667.57,535.214 667.095,535.7C666.619,536.199 666.23,536.738 665.88,537.295C665.706,537.57 665.535,537.849 665.377,538.132L665.145,538.558L665.088,538.669L665.074,538.695L665.046,538.753L665.022,538.805C664.989,538.881 664.961,538.933 664.917,539.048C664.61,539.834 664.513,540.523 664.462,541.235C664.372,542.631 664.543,543.956 664.797,545.223C665.059,546.486 665.417,547.697 665.843,548.832C666.263,549.969 666.737,551.044 667.257,552.023C667.767,553.008 668.322,553.901 668.886,554.694C670.011,556.277 671.229,557.415 672.225,558C672.718,558.299 673.146,558.459 673.442,558.539C673.59,558.581 673.704,558.606 673.784,558.616L673.807,558.623L673.915,558.686C673.915,558.686 678.438,559.193 686.354,560.074C688.334,560.281 690.531,560.504 692.927,560.701C695.326,560.888 697.924,561.085 700.735,561.043C702.138,561.006 703.6,560.939 705.119,560.562C705.871,560.361 706.667,560.09 707.369,559.481C707.695,559.181 707.938,558.967 708.233,558.663C708.524,558.377 708.793,558.089 709.062,557.781C710.134,556.57 711.072,555.109 711.606,553.405C712.145,551.707 712.201,549.817 711.874,548.033C711.554,546.241 710.953,544.53 710.308,542.849C709.664,541.169 708.96,539.509 708.32,537.822C707.688,536.133 707.125,534.408 706.743,532.63C706.364,530.852 706.142,529.033 706.146,527.181C706.151,526.719 706.167,526.254 706.194,525.791L706.249,525.092L706.316,524.352C706.407,523.367 706.499,522.374 706.59,521.374C706.778,519.379 706.958,517.351 707.11,515.299C707.262,513.251 707.419,511.181 707.576,509.087C707.711,507.001 707.826,504.88 708.005,502.79C708.194,500.708 708.421,498.594 708.87,496.562C709.325,494.507 709.918,492.421 710.54,490.328C711.792,486.136 713.137,481.878 714.304,477.536C714.905,475.372 715.434,473.17 715.99,470.99C716.259,469.892 716.528,468.797 716.798,467.699C717.094,466.61 717.393,465.523 717.69,464.43C718.903,460.07 720.345,455.758 721.708,451.402C723.108,447.058 724.301,442.605 725.094,438.082C725.478,435.82 725.804,433.549 726,431.28C726.109,430.144 726.217,429.009 726.266,427.877L726.359,426.178L726.385,425.754L726.412,425.375C726.434,425.097 726.448,424.806 726.476,424.542C726.601,423.549 726.762,422.48 727.003,421.434C727.228,420.385 727.515,419.338 727.812,418.298C728.423,416.217 729.146,414.164 729.907,412.13C731.438,408.066 733.144,404.092 734.787,400.162C738.08,392.299 741.195,384.595 743.501,377.029C744.067,375.132 744.602,373.257 745.057,371.382C745.519,369.507 745.959,367.716 746.372,365.904C747.206,362.306 747.972,358.831 748.671,355.478C750.066,348.782 751.199,342.609 752.056,337.116C752.26,335.738 752.458,334.406 752.649,333.123C752.822,331.836 752.988,330.594 753.148,329.399C753.429,327.009 753.682,324.812 753.845,322.823C754.043,320.835 754.136,319.052 754.241,317.507C754.281,316.749 754.308,316.049 754.331,315.404C754.353,316.043 754.379,316.738 754.417,317.487C754.524,319.035 754.618,320.817 754.814,322.802C754.979,324.795 755.232,326.992 755.513,329.382C755.672,330.575 755.839,331.815 756.012,333.105C756.202,334.39 756.4,335.72 756.604,337.096C757.46,342.591 758.593,348.761 759.989,355.461C760.689,358.813 761.456,362.289 762.288,365.886C762.701,367.698 763.141,369.489 763.602,371.362C764.057,373.237 764.592,375.114 765.159,377.011C767.465,384.578 770.58,392.279 773.874,400.143C775.516,404.075 777.223,408.046 778.752,412.114C779.515,414.145 780.237,416.2 780.847,418.28C781.144,419.322 781.432,420.365 781.657,421.415C781.898,422.461 782.059,423.529 782.185,424.523C782.212,424.789 782.227,425.078 782.248,425.357L782.276,425.734L782.3,426.161L782.395,427.857C782.443,428.992 782.551,430.127 782.658,431.259C782.855,433.533 783.183,435.8 783.566,438.064C784.359,442.588 785.551,447.041 786.953,451.382C788.316,455.74 789.757,460.052 790.969,464.414C791.267,465.504 791.564,466.594 791.861,467.68C792.132,468.779 792.401,469.877 792.671,470.969C793.226,473.152 793.755,475.353 794.356,477.517C795.522,481.858 796.87,486.119 798.121,490.308C798.742,492.405 799.334,494.489 799.791,496.545C800.239,498.574 800.465,500.69 800.653,502.77C800.835,504.862 800.947,506.982 801.086,509.069C801.241,511.161 801.397,513.233 801.55,515.282C801.703,517.334 801.882,519.361 802.07,521.356C802.161,522.356 802.252,523.347 802.342,524.335L802.411,525.075L802.466,525.775C802.492,526.239 802.509,526.7 802.513,527.164C802.519,529.012 802.295,530.838 801.917,532.612C801.535,534.39 800.972,536.115 800.339,537.804C799.7,539.492 798.997,541.148 798.351,542.832C797.707,544.512 797.105,546.224 796.787,548.015C796.461,549.797 796.516,551.689 797.054,553.388C797.589,555.091 798.526,556.552 799.597,557.763C799.866,558.071 800.136,558.359 800.425,558.645C800.722,558.948 800.965,559.163 801.291,559.464C801.993,560.072 802.79,560.343 803.542,560.542C805.06,560.922 806.522,560.988 807.926,561.025C810.735,561.065 813.334,560.868 815.733,560.683C818.13,560.484 820.324,560.263 822.306,560.055C830.222,559.175 834.746,558.669 834.746,558.669L834.852,558.602L834.877,558.597C834.956,558.589 835.069,558.563 835.217,558.521C835.514,558.441 835.942,558.281 836.436,557.98C837.432,557.397 838.646,556.259 839.774,554.676C840.339,553.883 840.894,552.991 841.403,552.004C841.924,551.022 842.397,549.952 842.818,548.814C843.245,547.679 843.6,546.471 843.863,545.206C844.117,543.938 844.288,542.615 844.198,541.216C844.148,540.506 844.049,539.817 843.743,539.03C843.698,538.914 843.672,538.863 843.639,538.788L843.614,538.734L843.585,538.677L843.573,538.651L843.514,538.541L843.282,538.114C843.125,537.831 842.953,537.552 842.781,537.275C842.431,536.723 842.041,536.181 841.566,535.683C841.089,535.196 840.479,534.744 839.764,534.527C839.046,534.298 838.353,534.388 837.794,534.457C837.225,534.534 836.709,534.572 836.215,534.481C835.169,534.312 834.236,533.786 833.385,533.366C832.954,533.162 832.54,532.991 832.133,532.88C831.727,532.769 831.336,532.69 830.969,532.617C830.234,532.475 829.588,532.386 829.052,532.328C828.521,532.27 828.104,532.224 827.819,532.193L827.642,532.162L827.498,530.306L827.322,528.097L827.195,525.885C827.113,524.413 827.015,522.939 826.948,521.465L826.769,517.042L826.675,512.62L826.668,508.195L826.687,499.308L826.636,490.431L826.449,472.699L826.369,463.843C826.347,462.365 826.368,460.898 826.368,459.429C826.376,457.959 826.338,456.497 826.378,455.014L826.464,450.58C826.508,449.123 826.538,447.599 826.525,446.107C826.499,443.113 826.349,440.114 826.03,437.136C825.717,434.158 825.241,431.2 824.677,428.286C824.142,425.37 823.453,422.492 823.29,419.647C823.241,418.959 823.292,418.245 823.25,417.436C823.214,416.679 823.166,415.943 823.114,415.2L822.778,410.769C822.53,407.826 822.31,404.883 822.084,401.939C822.305,399.87 822.277,397.883 822.288,395.86C822.299,394.841 822.266,393.823 822.254,392.804L822.23,391.279L822.176,389.752C822.117,387.717 822.067,385.684 821.97,383.65C821.881,381.618 821.83,379.573 821.708,377.546L821.358,371.462C821.328,370.951 821.304,370.457 821.263,369.93L821.131,368.406L820.87,365.359L820.524,362.317C820.413,361.304 820.293,360.293 820.152,359.281L819.72,356.252L819.234,353.232C818.922,351.216 818.511,349.216 818.141,347.212L817.533,344.215C817.327,343.217 817.131,342.217 816.899,341.224L816.215,338.244L815.491,335.274C815.02,333.292 814.476,331.325 813.941,329.36C813.379,327.398 812.836,325.437 812.223,323.492C811.926,322.517 811.618,321.547 811.294,320.581C810.972,319.613 810.673,318.641 810.331,317.678L809.307,314.801L808.23,311.94L807.085,309.102L805.861,306.316C805.854,306.273 805.354,303.799 804.482,299.496C804.257,298.416 804.006,297.215 803.733,295.908C803.451,294.603 803.146,293.194 802.823,291.688C802.491,290.184 802.137,288.584 801.763,286.896C801.381,285.211 800.982,283.439 800.564,281.591C800.146,279.75 799.706,277.827 799.252,275.838C799.042,274.863 798.828,273.87 798.609,272.86C798.557,272.617 798.5,272.381 798.458,272.114L798.387,271.718L798.371,271.62L798.361,271.575L798.354,271.434C798.327,271.036 798.333,270.466 798.339,269.952C798.431,265.678 798.627,261.082 798.835,256.358C799.063,251.627 799.098,246.722 799.312,241.747C799.527,236.773 799.965,231.732 800.764,226.739C801.155,224.246 801.616,221.744 802.104,219.325C802.172,219.036 802.227,218.759 802.303,218.458L802.534,217.578C802.698,216.978 802.859,216.379 803.022,215.778C803.368,214.586 803.705,213.397 804.087,212.225C804.812,209.869 805.593,207.547 806.423,205.268C806.571,204.861 806.717,204.462 806.864,204.057C806.981,205.171 807.196,206.385 807.491,207.671C807.965,209.703 808.627,211.918 809.501,214.29C809.729,214.875 809.95,215.466 810.198,216.066L810.383,216.518C810.456,216.681 810.526,216.846 810.597,217.013C810.734,217.348 810.891,217.654 811.044,217.971C811.653,219.171 812.284,220.408 812.931,221.679C814.213,224.166 815.308,226.861 816.37,229.72C816.619,230.439 816.899,231.163 817.138,231.894C817.38,232.625 817.625,233.368 817.846,234.147L818.015,234.725L818.097,235.004L818.177,235.299C818.284,235.695 818.387,236.091 818.494,236.485C818.71,237.278 818.901,238.078 819.152,238.864C820.067,242.034 821.137,245.197 822.229,248.343C823.323,251.493 824.416,254.64 825.492,257.738C826.566,260.84 827.607,263.898 828.665,266.825C829.722,269.749 830.791,272.551 831.784,275.177C832.028,275.832 832.269,276.475 832.505,277.11C832.734,277.765 832.957,278.409 833.178,279.045C833.616,280.305 834.041,281.522 834.448,282.693C835.278,285.041 836.07,287.178 836.766,289.065C837.46,290.951 838.049,292.591 838.419,293.943C838.787,295.295 838.876,296.359 838.787,297.101L838.774,297.212L838.743,297.24C838.625,297.372 838.496,297.515 838.355,297.674C838.205,297.833 838.057,298.015 837.934,298.221C837.799,298.431 837.657,298.65 837.507,298.884C837.38,299.125 837.258,299.387 837.123,299.662C836.886,300.216 836.659,300.834 836.497,301.501C836.396,301.835 836.34,302.181 836.271,302.535C836.195,302.887 836.156,303.253 836.112,303.622C836.058,303.99 836.038,304.363 836.016,304.746C835.985,305.128 835.982,305.508 835.979,305.896C835.968,306.667 836.007,307.445 836.056,308.216C836.115,308.983 836.191,309.752 836.261,310.459L836.282,310.719L836.283,310.733L836.282,310.755L836.275,310.896L836.267,311.173L836.261,311.309L836.242,311.418C836.191,311.709 836.163,311.974 836.095,312.347C835.973,313.032 835.855,313.734 835.773,314.394C835.738,314.728 835.705,315.052 835.67,315.367C835.644,315.682 835.639,315.991 835.627,316.285C835.627,316.395 835.622,316.504 835.618,316.612C835.504,317.12 835.397,317.672 835.296,318.259C835.142,319.088 835.032,319.987 835.005,320.956C834.969,321.922 834.974,322.953 834.785,323.984C834.596,325 834.278,326.083 833.696,326.934C833.556,327.132 833.378,327.328 833.25,327.372L832.887,327.541L832.509,327.708C832.007,327.933 831.507,328.177 831.009,328.433C830.508,328.688 830.004,328.942 829.493,329.241C829.233,329.386 828.98,329.553 828.718,329.759C828.585,329.87 828.452,329.982 828.308,330.137C828.241,330.208 828.159,330.325 828.091,330.422C828.009,330.552 828.017,330.544 827.96,330.649C827.582,331.373 827.541,332.116 827.641,332.769C827.736,333.425 827.988,333.985 828.241,334.477L828.436,334.826L828.521,334.977L828.553,335.04L828.558,335.045C828.589,335.146 828.57,335.08 828.577,335.107L828.604,335.173C828.73,335.466 828.917,335.603 829.087,335.707C829.262,335.813 829.428,335.861 829.586,335.897C830.219,336.019 830.75,335.934 831.259,335.838C831.871,335.707 832.424,335.517 832.944,335.306C832.818,335.393 832.692,335.473 832.567,335.561C832.091,335.906 831.613,336.251 831.17,336.659C830.948,336.86 830.722,337.058 830.506,337.299L830.342,337.49L830.259,337.598L830.216,337.655L830.195,337.683L830.155,337.741L830.148,337.752L830.134,337.776L830.106,337.826L830.035,337.995L829.994,338.235C829.984,338.383 830,338.512 830.026,338.623C830.132,339.062 830.336,339.348 830.546,339.619C830.761,339.879 830.998,340.104 831.254,340.297C831.762,340.683 832.325,340.954 832.893,341.135C834.036,341.502 835.201,341.507 836.235,341.328C837.274,341.153 838.203,340.808 839.011,340.424L839.145,340.356L839.033,340.473C838.803,340.748 838.578,341.051 838.465,341.465C838.414,341.671 838.396,341.913 838.47,342.156C838.537,342.399 838.697,342.609 838.869,342.755C839.223,343.044 839.602,343.154 839.957,343.239C840.316,343.313 840.665,343.341 841.006,343.355C841.691,343.378 842.344,343.306 842.983,343.225C843.62,343.129 844.232,343.005 844.83,342.862C845.407,342.721 846.028,342.549 846.591,342.305C846.774,342.227 846.95,342.14 847.121,342.049L847.149,342.078L847.307,342.145C847.738,342.481 848.188,342.648 848.669,342.76C849.19,342.876 849.726,342.888 850.241,342.819C850.757,342.748 851.261,342.624 851.744,342.453C852.228,342.275 852.684,342.049 853.136,341.818C854.027,341.335 854.859,340.76 855.648,340.135C856.439,339.512 857.167,338.827 857.896,338.132C858.637,337.436 859.306,336.674 859.919,335.863C860.53,335.05 861.094,334.197 861.589,333.273C861.834,332.813 862.06,332.333 862.252,331.81C862.437,331.316 862.584,330.883 862.74,330.409C863.043,329.453 863.316,328.485 863.51,327.498C863.716,326.515 863.847,325.524 863.974,324.549C864.091,323.562 864.172,322.606 864.269,321.603C864.379,320.568 864.424,319.602 864.456,318.607C864.479,317.937 864.473,317.268 864.463,316.601C864.599,316.978 864.759,317.383 864.971,317.793C865.094,318.059 865.242,318.324 865.388,318.602C865.547,318.872 865.72,319.147 865.906,319.428C866.09,319.708 866.288,319.994 866.5,320.278C866.72,320.561 866.956,320.841 867.202,321.127C867.695,321.694 868.242,322.275 868.888,322.794C869.535,323.317 870.252,323.805 871.067,324.212C871.892,324.6 872.762,324.978 873.843,325.055C873.978,325.064 874.131,325.048 874.27,325.037L874.609,324.989C874.851,324.959 875.099,324.918 875.338,324.863C875.821,324.755 876.32,324.591 876.78,324.254C877.008,324.084 877.211,323.841 877.329,323.557C877.447,323.271 877.47,322.964 877.438,322.683Z" style="fill:rgb(187,95,82);fill-rule:nonzero;"/>
    </g>
    <g transform="matrix(4.16667,0,0,4.16667,-2629.49,-157.142)">
        <path d="M775.359,117.507C781.835,122.16 791.194,120.519 809.146,129.438C809.88,129.804 805.088,129.591 797.673,135.207C792.721,138.959 789.061,145.264 787.81,150.438C785.056,161.828 791.88,174.909 757.747,206.918C756.195,208.376 755.721,165.26 755.721,156.713C755.721,134.342 765.751,135.062 765.751,128.665C765.751,122.679 757.643,110.872 757.643,98.633C757.643,96.716 764.285,95.988 765.071,98.222C768.163,106.997 770.532,114.039 775.359,117.507Z" style="fill:rgb(242,124,156);fill-rule:nonzero;"/>
    </g>
    <g transform="matrix(4.16667,0,0,4.16667,-2629.49,-157.142)">
        <path d="M837.647,174.785C838.616,177.541 831.204,169.046 820.309,163.731C817.811,162.512 815.089,161.446 812.176,160.692C797.018,156.782 785.526,147.519 798.683,137.511C806.26,131.745 812.999,129.965 816.394,130.885C830.433,134.705 833.242,145.392 833.949,153.939C834.625,162.126 835.895,169.803 837.647,174.785Z" style="fill:rgb(226,59,73);fill-rule:nonzero;"/>
    </g>
    <g transform="matrix(4.16667,0,0,4.16667,-2629.49,-157.142)">
        <path d="M791.4,151.531C794.237,157.831 806.978,161.523 809.41,162.635C803.631,164.96 788.466,174.746 785.056,177.553C791.429,164.631 789.086,146.397 791.4,151.531Z" style="fill:rgb(203,134,185);fill-rule:nonzero;"/>
    </g>
    <g transform="matrix(4.16667,0,0,4.16667,-2629.49,-157.142)">
        <path d="M813.411,179.333C806.655,186.883 782.415,183.792 784.624,181.583C786.833,179.373 809.679,164.799 814.183,164.343C814.89,164.273 815.067,177.48 813.411,179.333Z" style="fill:rgb(203,134,185);fill-rule:nonzero;"/>
    </g>
    <g transform="matrix(4.16667,0,0,4.16667,-2629.49,-157.142)">
        <path d="M759.043,209.323C758.989,224.521 777.421,255.35 780.613,254.648C782.265,254.287 784.604,250.269 785.955,247.814C795.316,230.786 798.801,233.972 799.984,226.614C803.091,207.296 808.113,201.354 813.559,182.438C813.559,182.438 802.981,190.417 782.896,185.232C780.129,184.518 777.348,191.343 770.414,198.278C763.213,205.48 759.043,209.323 759.043,209.323Z" style="fill:rgb(203,134,185);fill-rule:nonzero;"/>
    </g>
    <g transform="matrix(4.16667,0,0,4.16667,-2629.49,-157.142)">
        <path d="M761.085,271.217C753.528,277.42 755.271,284.835 755.288,295.284C755.319,314.259 756.824,317.409 764.738,321.354C773.521,325.731 792.944,321.698 797.614,312.757C803.914,300.693 801.15,277.816 796.274,272.94C781.709,258.375 765.347,267.719 761.085,271.217Z" style="fill:rgb(136,131,190);fill-rule:nonzero;"/>
    </g>
    <g transform="matrix(4.16667,0,0,4.16667,-2629.49,-157.142)">
        <path d="M799.454,234.271C798.447,242.396 797.98,247.058 797.529,260.632C797.392,264.745 791.39,258.147 784.441,257.029C783.128,256.817 794.183,237.535 799.454,234.271Z" style="fill:rgb(6,185,180);fill-rule:nonzero;"/>
        <path d="M796.66,264.912C798.697,266.948 798.071,272.937 797.28,272.149C795.539,270.405 794.398,267.286 785.505,264.028C779.344,261.769 773.122,263.941 769.98,264.894C769.649,264.996 786.308,254.555 796.66,264.912Z" style="fill:rgb(136,131,190);fill-rule:nonzero;"/>
        <path d="M837.684,178.849C839.657,181.3 842.96,198.565 841.464,213.413C840.959,218.425 847.13,233.701 847.13,233.701C847.13,233.701 844.723,237.481 842.052,230.786C839.885,225.359 838.542,216.368 834.896,217.717C829.064,219.873 839.421,236.044 836.16,239.305C834.669,240.795 818.611,231.759 817.42,227.645C813.239,219.149 808.33,214.621 807.897,206.09C815.241,190.861 819.346,169.874 817.591,165.154C817.103,163.841 835.185,175.742 837.684,178.849Z" style="fill:rgb(226,59,73);fill-rule:nonzero;"/>
        <path d="M847.786,235.425C839.072,240.901 847.185,248.958 856.616,283.875C854.789,273.462 855.699,269.084 854.282,260.328C852.26,247.834 849.098,240.333 847.786,235.425Z" style="fill:rgb(246,144,34);fill-rule:nonzero;"/>
        <path d="M836.082,242.151C838.676,240.611 841.016,239.427 853.394,279.647C854.976,284.789 856.798,287.949 858.09,294.089C858.604,296.529 858.792,302.129 857.671,307.915C857.543,308.573 857.993,294.418 855.171,294.19C853.737,294.073 854.825,301.837 853.28,308.591C853.1,301.497 852.956,294.407 851.173,294.389C849.958,294.377 849.847,302.759 848.3,308.053C848.3,308.053 848.969,294.587 846.896,294.566C845.447,294.55 845.93,300.343 843.872,306.336C844.648,298.927 843.573,292.598 843.479,291.082C843.261,287.516 842.43,283.848 841.184,281.039C838.291,274.514 835.678,271.184 832.637,262.379C827.917,248.713 834.69,242.977 836.082,242.151Z" style="fill:rgb(246,144,34);fill-rule:nonzero;"/>
        <path d="M822.378,412.572C818.706,372.007 808.33,356.816 802.066,342.056C793.851,322.699 790.725,321.826 786.515,323.368C782.455,324.856 776.69,325.826 769.995,325.826C758.546,325.826 763.886,354.445 766.644,364.593C771.395,382.09 782.524,400.773 782.524,418.91C787.81,393.429 795.37,405.343 793.642,380.814C803.577,402.175 809.338,391.952 822.378,412.572Z" style="fill:rgb(48,130,193);fill-rule:nonzero;"/>
        <path d="M783.273,424.827C783.633,419.64 786.293,413.593 793.592,412.698C800.41,411.862 803.854,421.939 803.854,421.939C803.854,421.939 803.881,410.976 813.091,410.409C821.217,409.91 821.343,416.669 823.267,424.724C826.905,439.974 825.609,448.334 825.609,474.457C825.609,486.511 824.378,489.84 821.865,489.84C814.377,489.84 809.193,470.634 809.193,470.634C809.193,470.634 805.615,493.687 800.41,491.14C797.944,489.934 793.903,470.559 790.44,459.401C786.186,445.695 782.578,434.913 783.273,424.827Z" style="fill:rgb(9,184,237);fill-rule:nonzero;"/>
        <path d="M733.353,117.507C726.876,122.16 717.519,120.519 699.566,129.438C698.831,129.804 703.623,129.591 711.039,135.207C715.991,138.959 719.652,145.264 720.902,150.438C723.656,161.828 716.833,174.909 750.965,206.918C752.519,208.376 752.991,165.26 752.991,156.713C752.991,134.342 742.961,135.062 742.961,128.665C742.961,122.679 751.068,110.872 751.068,98.633C751.068,96.716 744.427,95.988 743.641,98.222C740.55,106.997 738.182,114.039 733.353,117.507Z" style="fill:rgb(242,124,156);fill-rule:nonzero;"/>
        <path d="M671.066,174.785C670.096,177.541 677.509,169.046 688.404,163.731C690.901,162.512 693.625,161.446 696.537,160.692C711.695,156.782 723.186,147.519 710.03,137.511C702.452,131.745 695.715,129.965 692.319,130.885C678.279,134.705 675.47,145.392 674.764,153.939C674.088,162.126 672.817,169.803 671.066,174.785Z" style="fill:rgb(226,59,73);fill-rule:nonzero;"/>
        <path d="M717.313,151.531C714.476,157.831 701.734,161.523 699.302,162.635C705.08,164.96 720.246,174.746 723.656,177.553C717.285,164.631 719.625,146.397 717.313,151.531Z" style="fill:rgb(203,134,185);fill-rule:nonzero;"/>
        <path d="M695.302,179.333C702.056,186.883 726.298,183.792 724.089,181.583C721.879,179.373 699.033,164.799 694.53,164.343C693.823,164.273 693.645,177.48 695.302,179.333Z" style="fill:rgb(203,134,185);fill-rule:nonzero;"/>
        <path d="M749.669,209.323C749.668,224.415 731.291,255.35 728.098,254.648C726.445,254.287 724.107,250.269 722.757,247.814C713.397,230.786 709.912,233.972 708.729,226.614C705.621,207.296 700.599,201.354 695.153,182.438C695.153,182.438 705.73,190.417 725.816,185.232C728.583,184.518 731.364,191.343 738.296,198.278C745.499,205.48 749.669,209.323 749.669,209.323Z" style="fill:rgb(203,134,185);fill-rule:nonzero;"/>
        <path d="M747.626,271.217C755.183,277.42 753.44,284.835 753.423,295.284C753.394,314.259 751.889,317.409 743.973,321.354C735.191,325.731 715.77,321.698 711.097,312.757C704.8,300.693 707.563,277.816 712.438,272.94C727.003,258.375 743.365,267.719 747.626,271.217Z" style="fill:rgb(136,131,190);fill-rule:nonzero;"/>
        <path d="M709.259,234.271C710.265,242.396 710.733,247.058 711.184,260.632C711.32,264.745 717.322,258.147 724.272,257.029C725.585,256.817 714.53,237.535 709.259,234.271Z" style="fill:rgb(6,185,180);fill-rule:nonzero;"/>
        <path d="M712.052,264.912C710.015,266.948 710.642,272.937 711.432,272.149C713.174,270.405 714.315,267.286 723.208,264.028C729.37,261.769 735.59,263.941 738.732,264.894C739.064,264.996 722.405,254.555 712.052,264.912Z" style="fill:rgb(136,131,190);fill-rule:nonzero;"/>
        <path d="M671.027,178.849C669.057,181.3 665.752,198.565 667.249,213.413C667.754,218.425 661.583,233.701 661.583,233.701C661.583,233.701 663.988,237.481 666.66,230.786C668.827,225.359 670.169,216.368 673.816,217.717C679.648,219.873 669.291,236.044 672.553,239.305C674.043,240.795 690.102,231.759 691.292,227.645C695.473,219.149 700.383,214.621 700.815,206.09C693.471,190.861 689.367,169.874 691.122,165.154C691.61,163.841 673.527,175.742 671.027,178.849Z" style="fill:rgb(226,59,73);fill-rule:nonzero;"/>
        <path d="M660.927,235.425C669.641,240.901 661.527,248.958 652.097,283.875C653.923,273.462 653.014,269.084 654.432,260.328C656.452,247.834 659.614,240.333 660.927,235.425Z" style="fill:rgb(246,144,34);fill-rule:nonzero;"/>
        <path d="M672.63,242.151C670.036,240.611 667.697,239.427 655.318,279.647C653.735,284.789 651.914,287.949 650.622,294.089C650.109,296.529 649.921,302.129 651.042,307.915C651.168,308.573 650.719,294.418 653.54,294.19C654.976,294.073 653.888,301.837 655.432,308.591C655.613,301.497 655.756,294.407 657.539,294.389C658.754,294.377 658.865,302.759 660.412,308.053C660.412,308.053 659.744,294.587 661.816,294.566C663.265,294.55 662.783,300.343 664.84,306.336C664.063,298.927 665.139,292.598 665.232,291.082C665.45,287.516 666.282,283.848 667.528,281.039C670.422,274.514 673.034,271.184 676.076,262.379C680.797,248.713 674.023,242.977 672.63,242.151Z" style="fill:rgb(246,144,34);fill-rule:nonzero;"/>
        <path d="M686.334,412.572C690.007,372.007 700.383,356.816 706.646,342.056C714.862,322.699 717.987,321.826 722.199,323.368C726.257,324.856 732.022,325.826 738.717,325.826C750.165,325.826 744.825,354.445 742.069,364.593C737.317,382.09 726.189,400.773 726.189,418.91C720.902,393.429 713.342,405.343 715.07,380.814C705.135,402.175 699.375,391.952 686.334,412.572Z" style="fill:rgb(48,130,193);fill-rule:nonzero;"/>
        <path d="M725.438,424.827C725.081,419.64 722.42,413.593 715.12,412.698C708.302,411.862 704.858,421.939 704.858,421.939C704.858,421.939 704.83,410.976 695.621,410.409C687.495,409.91 687.37,416.669 685.446,424.724C681.807,439.974 683.103,448.334 683.103,474.457C683.103,486.511 684.335,489.84 686.847,489.84C694.335,489.84 699.519,470.634 699.519,470.634C699.519,470.634 703.098,493.687 708.302,491.14C710.769,489.934 714.809,470.559 718.272,459.401C722.527,445.695 726.134,434.913 725.438,424.827Z" style="fill:rgb(9,184,237);fill-rule:nonzero;"/>
        <path d="M751.995,211.096C751.995,211.096 750.357,231.318 731.811,255.369C727.981,260.337 749.521,267.336 750.239,266.14C750.589,265.557 751.131,253.693 751.372,241.253C751.623,228.193 752.98,213.062 751.995,211.096Z" style="fill:rgb(203,134,185);fill-rule:nonzero;"/>
        <path d="M756.718,211.096C756.718,211.096 758.355,231.318 776.902,255.369C780.731,260.337 759.192,267.336 758.475,266.14C758.124,265.557 757.582,253.693 757.341,241.253C757.09,228.193 755.734,213.062 756.718,211.096Z" style="fill:rgb(203,134,185);fill-rule:nonzero;"/>
    </g>
    <defs>
        <linearGradient id="_Linear1" x1="0" y1="0" x2="1" y2="0" gradientUnits="userSpaceOnUse" gradientTransform="matrix(-2.27899e-05,-521.371,521.371,-2.27899e-05,754.356,560.382)"><stop offset="0" style="stop-color:rgb(248,205,187);stop-opacity:1"/><stop offset="0.1" style="stop-color:rgb(253,222,206);stop-opacity:1"/><stop offset="0.2" style="stop-color:rgb(254,226,211);stop-opacity:1"/><stop offset="0.4" style="stop-color:rgb(248,206,187);stop-opacity:1"/><stop offset="0.5" style="stop-color:rgb(254,225,210);stop-opacity:1"/><stop offset="0.6" style="stop-color:rgb(248,206,188);stop-opacity:1"/><stop offset="0.8" style="stop-color:rgb(254,231,218);stop-opacity:1"/><stop offset="0.9" style="stop-color:rgb(248,207,189);stop-opacity:1"/><stop offset="1" style="stop-color:rgb(254,226,212);stop-opacity:1"/></linearGradient>
    </defs>
</svg>
