<svg xmlns="http://www.w3.org/2000/svg" viewBox="0 0 900 900">
  <path fill="#000000" d="M615.61 485.5v120a26.25 26.25 0 0 1-26.24 26.23 26.25 26.25 0 0 1-26.24-26.24V500.07c10.77-2.25 21.54-4.5 32.3-6.78a70.29 70.29 0 0 0 20.18-7.78zm-4.32-88.02a26.25 26.25 0 0 0 0 52.48h202.47a26.25 26.25 0 0 0 0-52.48H611.3zm29.48-10.42a62.14 62.14 0 0 1 50.86-70.5 62.13 62.13 0 0 1 71.96 70.5c-40.94-.09-81.88-.09-122.82 0z"/>
  <path fill="#cccccc" d="M628.4 460.36a58.57 58.57 0 0 1-35.5 22.89l-172.44 35.8a58.65 58.65 0 0 1-46.44-9.97l-251.3 119.48a35 35 0 0 1-46.63-16.58 35 35 0 0 1 16.57-46.62l260.57-123.88a58.78 58.78 0 0 1 43.33-37.56l172.43-35.8a58.8 58.8 0 0 1 56.3 18.97l-14.24.04a37 37 0 0 0-22.87 8.22c-12.05 9.83-16.61 27.67-10.86 42 5.39 13.4 19.35 22.82 33.73 22.96l17.35.05zm-288.83-23.94a47911.82 47911.82 0 0 0-206.84 98.28l-33.1 4.42a35 35 0 0 1-39.32-30.04 35 35 0 0 1 30.04-39.32l249.22-33.34z"/>
</svg>