<svg xmlns="http://www.w3.org/2000/svg" viewBox="0 0 900 900">
  <path fill="#000000" d="M227.23 381.1c-1.09-5.44-1.3-11.66-1.28-17.36a65.71 65.71 0 0 1 22.75-49.55l149.16-129.1a65.9 65.9 0 0 1 92.9 6.7 65.76 65.76 0 0 1 14.8 55.9l-7.69-24.85c-5.32-17-21.6-28.67-38.83-28.86a41.45 41.45 0 0 0-15.4 2.88c-19.18 7.57-29.99 30.5-24.16 49.98 7.55 24.69 15.15 49.36 22.8 74.02L358.7 393.2l67.22 45.9a38.98 38.98 0 0 1 12.55 14.03c2.4 3.7 4.2 7.89 5.25 12.44l39.03 169.18a39.21 39.21 0 0 1-29.37 47 39.21 39.21 0 0 1-47-29.38L370.3 496.03s-119.01-79.46-124.82-85.2l-.38-.27a38.98 38.98 0 0 1-12.62-14.17 56.7 56.7 0 0 1-5.25-15.3zm257.37-2.9a29.36 29.36 0 0 1-18.22-19l-35.74-115.53a29.41 29.41 0 0 1 19.39-36.77 29.41 29.41 0 0 1 36.77 19.39l28.3 91.46 94.74-14.64a29.41 29.41 0 0 1 33.54 24.57 29.41 29.41 0 0 1-24.57 33.54L499.3 379.68c-5.12.8-10.15.2-14.7-1.48zm151.13-241.01a69.6 69.6 0 0 1-7.07 98.13 69.6 69.6 0 0 1-98.14-7.07 69.6 69.6 0 0 1 7.08-98.14 69.6 69.6 0 0 1 98.13 7.08z"/>
  <path fill="#cccccc" d="M642.68 371.2l29.87 116.65c3.4-.24 6.81-.36 10.26-.36 80.72 0 146.26 65.54 146.26 146.26 0 80.72-65.54 146.25-146.26 146.25-80.72 0-146.25-65.53-146.25-146.25 0-60.35 36.62-112.21 88.84-134.54l-12.35-47.5L484.2 588.94c-4.16-18.14-8.34-36.28-12.53-54.41l81.54-86.84-97.57 17.9-.68-2.9c-2.98-12.47-11-25.27-22.47-33.16l-7.92-5.4 173.07-31.74-2.82-13.4 47.87-7.78zm-341.01 93.03c12.82 8.61 25.7 17.16 38.6 25.72l-24.5 35.8a146.38 146.38 0 0 1 41.87 67.07l22.44-2.83 10.48 45.42-27.2 3.44C360.66 717.21 296.2 780 217.19 780c-80.72 0-146.25-65.53-146.25-146.25s65.53-146.26 146.25-146.26c21.3 0 41.56 4.57 59.82 12.77l24.66-36.03zm-53.03 77.5a96.97 96.97 0 0 0-31.45-5.2c-53.65 0-97.21 43.56-97.21 97.22 0 53.65 43.56 97.21 97.21 97.21 49.81 0 90.92-37.54 96.56-85.84l-97.52 12.32c-4.26.1-5.43.45-9.58-.8-10.8-3.24-18.24-15.02-16.13-26.41.78-4.27 1.64-5.14 3.66-8.89l54.46-79.6zm436.58-5.17l22.07 84.9a24.26 24.26 0 0 1-46.93 12.2l-22.4-86.17a97.25 97.25 0 0 0-52.37 86.26c0 53.65 43.57 97.21 97.22 97.21 53.66 0 97.22-43.56 97.22-97.21 0-52.85-42.27-95.91-94.81-97.19zm-423.64 68.4l46.46-5.87a97.34 97.34 0 0 0-20.36-32.27l-26.1 38.14z"/>
</svg>