<svg xmlns="http://www.w3.org/2000/svg" viewBox="0 0 900 900">
  <path fill="#000000" d="M465.33 304.7l-55.48 70.64 71 37.01a34.09 34.09 0 0 1 18.27 31.95s-.43 4.41-.95 6.52l-35.96 146.56a34.08 34.08 0 0 1-41.2 24.97 34.08 34.08 0 0 1-24.97-41.2l29.62-120.73s-105.2-54.24-109.91-57.94a57.27 57.27 0 0 1-9.66-80.38l105.9-134.85a57.27 57.27 0 0 1 80.38-9.66 57.3 57.3 0 0 1 19.82 60.32l-19.85-40.87a36.4 36.4 0 0 0-31.95-20.06c-8.5 0-16.78 3.06-23.17 8.48-11.97 10.17-15.73 28.46-9.07 42.51 12.33 25.6 24.7 51.2 37.18 76.73zm38.77 27.93a25.55 25.55 0 0 1-20.87-14.3l-45.92-94.55a25.56 25.56 0 0 1 45.97-22.32l37.41 77.04 84.4-16.26a25.56 25.56 0 0 1 9.66 50.18L511.53 332.3c-2.51.49-5.01.58-7.43.33zm70.37-259.72a60.5 60.5 0 0 1 10.2 84.9 60.5 60.5 0 0 1-84.9 10.2 60.5 60.5 0 0 1-10.2-84.9 60.5 60.5 0 0 1 84.9-10.2z"/>
  <path fill="#cccccc" d="M554.7 840H311.8a27.3 27.3 0 0 1-27.28-27.28V685.4a27.3 27.3 0 0 1 27.28-27.29H554.7a27.3 27.3 0 0 1 27.28 27.29v127.32A27.3 27.3 0 0 1 554.7 840zm-88.27-227.4h64.75c3.79 0 9.68 3.09 13.13 6.88l29.24 32.08a10.27 10.27 0 0 1 2.2 3.37 36.9 36.9 0 0 0-20.81-6.9c-50.89-.16-192.48-.16-243.37 0a36.43 36.43 0 0 0-20.88 6.94c.34-1 1.07-2.17 2.2-3.41l29.24-32.08c3.46-3.8 9.34-6.87 13.14-6.87h56.42c9.11 14.32 26.84 22.76 43.64 20.37 12.67-1.8 24.18-9.6 31.1-20.37z"/>
</svg>