<svg version="1.0" xmlns="http://www.w3.org/2000/svg"
 width="100%" height="100%" viewBox="0 0 900.000000 900.000000"
 preserveAspectRatio="xMidYMid meet">
<g transform="translate(0.000000,900.000000) scale(0.100000,-0.100000)"
fill="#000000" stroke="none">
<path fill="#cccccc" d="M1585 8748 c-3 -7 -4 -1932 -3 -4278 l3 -4265 309 -3 c241 -2 311 1
318 10 4 7 8 1776 8 3931 l0 3917 374 0 c299 0 376 3 385 13 6 8 18 45 27 83
9 38 23 94 31 124 8 30 15 69 16 85 l2 30 -415 5 c-228 3 -416 7 -417 8 -2 1
-3 74 -3 161 0 88 -3 166 -6 175 -5 14 -43 16 -315 16 -239 0 -311 -3 -314
-12z"/>
<path fill="#cccccc" d="M6646 8744 c-3 -8 -6 -84 -6 -168 0 -105 -4 -156 -12 -164 -9 -9
-114 -12 -410 -12 -341 0 -399 -2 -404 -15 -3 -8 1 -36 9 -62 8 -26 23 -92 33
-146 9 -54 22 -101 28 -105 6 -4 178 -9 381 -12 l370 -5 5 -3925 5 -3925 315
0 315 0 0 4275 0 4275 -311 3 c-278 2 -312 1 -318 -14z"/>
<path d="M3220 8545 c-28 -14 -51 -35 -61 -57 -60 -123 -78 -183 -105 -343 -8
-49 -19 -112 -24 -140 -42 -237 -55 -750 -25 -970 29 -210 62 -342 132 -540
20 -55 90 -199 127 -260 79 -132 237 -310 329 -371 23 -15 52 -37 65 -48 l22
-19 0 -2109 0 -2109 31 -62 c35 -71 57 -97 115 -138 109 -75 250 -81 366 -17
31 17 118 100 118 112 0 5 6 17 13 25 42 50 42 45 47 1241 l5 1145 55 0 55 0
5 -1150 c6 -1301 -1 -1197 88 -1296 69 -77 107 -97 235 -124 15 -3 58 2 96 11
114 28 204 105 251 214 13 31 15 296 18 2148 l2 2112 63 47 c132 100 288 274
363 408 51 90 126 256 144 320 4 17 13 44 19 60 28 83 62 250 85 415 21 154
22 580 1 740 -32 248 -36 277 -44 325 -22 125 -33 184 -47 237 -8 32 -14 67
-14 78 0 29 -57 88 -111 116 -100 50 -214 19 -286 -78 -27 -37 -31 -103 -9
-146 7 -15 16 -77 19 -144 4 -65 11 -127 17 -137 5 -11 10 -51 10 -89 0 -38 7
-113 15 -168 21 -140 21 -578 -1 -723 -35 -237 -87 -400 -188 -586 -23 -42
-126 -172 -167 -210 l-42 -40 -579 0 -579 0 -64 65 c-170 172 -271 405 -331
765 -23 136 -23 603 0 750 8 55 18 148 21 206 3 59 13 138 21 175 8 38 20 111
25 163 l11 94 -44 44 c-81 83 -180 105 -268 58z"/>
<path fill="#cccccc" d="M3572 8388 c-7 -7 -12 -40 -12 -79 0 -37 -7 -83 -15 -104 -10 -22
-15 -58 -13 -88 l3 -52 884 -3 c645 -1 887 1 897 9 29 24 12 167 -32 287 l-16
42 -842 0 c-642 0 -845 -3 -854 -12z"/>
<path d="M4305 7585 c-94 -20 -144 -41 -233 -98 -201 -129 -313 -414 -255
-645 58 -235 214 -399 444 -472 87 -27 250 -28 334 -1 245 78 393 238 449 487
9 40 16 91 16 115 -1 46 -29 180 -51 239 -35 92 -138 218 -229 281 -134 92
-314 128 -475 94z"/>
</g>
</svg>