<svg xmlns="http://www.w3.org/2000/svg" viewBox="0 0 900 900">
  <path fill="#cccccc" d="M614.3 525.69l-86.16 37.05 46.46 29c11.69 7.29 17.98 19.99 17.65 32.85a37.6 37.6 0 0 1-27.84 37.2L403.7 704.8a37.58 37.58 0 0 1-45.99-26.57 37.58 37.58 0 0 1 26.57-46l79.34-21.23-44.53-27.8a62.82 62.82 0 0 1-27.64-30.4 63.14 63.14 0 0 1 33.05-82.9l173.67-74.68a63.14 63.14 0 0 1 82.9 33.05 62.9 62.9 0 0 1 1.08 47.16c-2.87-10.3-5.75-20.59-8.64-30.88-4.78-16.62-20.64-28.39-37.52-28.55-4.75-.02-9.6.83-14.1 2.51-18.36 6.9-29.05 28.42-24.09 47.02 5.48 20.05 10.99 40.1 16.51 60.15zm-238.21-9.21c-.13.81-.25 1.63-.35 2.45-3.1 25.32 8.25 51.6 28.06 67.4L133.6 702.52a37.58 37.58 0 0 1-49.34-19.67 37.58 37.58 0 0 1 19.67-49.34l272.16-117.03z"/>
  <path fill="#000000" d="M670.38 685.93l-61.81-223.12a28.18 28.18 0 0 1 19.62-34.66 28.18 28.18 0 0 1 34.67 19.62l61.81 223.12a28.18 28.18 0 0 1-19.63 34.67 28.18 28.18 0 0 1-34.66-19.63zm145.38-315.69a66.7 66.7 0 0 1-34.9 87.58 66.7 66.7 0 0 1-87.59-34.9 66.7 66.7 0 0 1 34.91-87.59 66.7 66.7 0 0 1 87.58 34.91z"/>
</svg>