<svg xmlns="http://www.w3.org/2000/svg" viewBox="0 0 900 900">
  <path fill="#000000" d="M307.504 263.831l.062-.001.041.001h.132l.177.002.047.001.038.001.152.002.173.004.035.001.033.001.175.005.166.006.023.001.026.001.201.008.158.008.011.001.017.001a33 33 0 013.169.315 32.795 32.795 0 0112.158 4.354l.032.019.029.018.079.047.082.051a32.768 32.768 0 0111.393 11.742 32.77 32.77 0 014.27 14.098l.019.306.005.078.001.031.005.097.01.193.003.064.002.057.006.149.005.128.001.051.003.083.005.185.002.079.001.038.002.11.003.208v.066l.002.139-.001.221v.024a32.882 32.882 0 01-.358 4.77l-22.657 153.069c-2.662 17.983-19.423 30.422-37.406 27.76-17.983-2.662-30.422-19.423-27.76-37.406l12.73-86-86.669 49.553c-15.781 9.023-35.919 3.536-44.943-12.245-9.023-15.782-3.536-35.92 12.246-44.943l145.53-83.208a32.782 32.782 0 0114.082-4.269l.017-.001.064-.004.241-.016.068-.003.036-.002.113-.006.182-.009.06-.003.055-.002.146-.006.137-.005.055-.002.074-.002.164-.004.106-.003.049-.001.093-.002.175-.002.081-.001h.045l.112-.002.179.001zM260.166 371a78.425 78.425 0 01-24.142 21.836 77.43 77.43 0 01-31.793 10.146L260.166 371zm-133.435-11.827c-4.809-9.963-7.561-21.113-7.699-32.901-.502-43.02 34.018-78.355 77.039-78.857 25.356-.296 48.042 11.575 62.501 30.182l-116.903 66.841a40.722 40.722 0 00-14.938 14.735z"/>
  <path fill="#cccccc" d="M333.783 398.904l66.118 41.828 89.328 28.938 87.677-89.269c8.168-8.316 18.844-12.691 29.647-13.103 13.096-.619 26.331 4.599 35.5 15.327l126.396 147.886c15.748 18.425 13.574 46.17-4.852 61.918-18.425 15.749-46.17 13.575-61.918-4.851l-95.452-111.681-91.072 92.725c-16.392 25.877-47.965 39.793-79.42 32.321l-71.627-17.015c-5.318-1.263-30.215-10.308-37.226-14.744L252.85 522.35c-34.419-21.775-44.685-67.398-22.91-101.817 5.635-8.908 12.868-16.198 21.09-21.734l-6.668 45.047c-3.308 22.351 12.152 43.183 34.502 46.492 22.351 3.308 43.183-12.152 46.491-34.503l8.428-56.931z"/>
</svg>
