<svg version="1.0" xmlns="http://www.w3.org/2000/svg"
 width="100%" height="100%" viewBox="0 0 900.000000 900.000000"
 preserveAspectRatio="xMidYMid meet">

<g transform="translate(0.000000,900.000000) scale(0.100000,-0.100000)"
fill="#000000" stroke="none">
<path d="M6685 8814 c-130 -21 -282 -110 -374 -219 -42 -51 -48 -60 -84 -127
-58 -106 -85 -261 -68 -386 14 -101 21 -121 70 -222 48 -99 176 -230 271 -277
209 -103 410 -105 608 -7 256 127 394 392 356 679 -7 50 -22 114 -33 144 -65
173 -207 313 -388 386 -59 23 -84 27 -198 30 -71 2 -143 1 -160 -1z"/>
<path d="M5630 7855 c-76 -18 -128 -37 -175 -62 -56 -30 -111 -72 -105 -81 3
-4 91 -7 195 -7 211 0 227 -4 313 -73 61 -48 94 -105 107 -182 21 -123 -12
-221 -102 -300 -86 -76 -99 -78 -549 -85 -219 -4 -405 -11 -413 -15 -15 -8
-90 -175 -91 -203 0 -16 36 -17 653 -15 l652 3 27 55 c155 319 152 309 151
485 0 114 -3 149 -19 190 -66 168 -167 254 -344 291 -80 17 -226 16 -300 -1z"/>
<path d="M4850 7641 c-185 -5 -252 -10 -275 -21 -63 -30 -107 -74 -153 -154
-26 -44 -52 -90 -59 -101 -7 -11 -15 -27 -19 -35 -10 -19 -91 -160 -104 -180
-6 -8 -13 -22 -17 -30 -4 -8 -33 -59 -65 -113 -32 -55 -58 -100 -58 -102 0 -2
-19 -36 -43 -77 -24 -40 -47 -80 -51 -88 -4 -8 -12 -24 -19 -35 -7 -11 -25
-43 -42 -70 -28 -46 -30 -57 -30 -145 0 -103 7 -121 69 -188 46 -49 106 -72
188 -72 77 0 143 27 189 77 23 25 115 173 133 213 3 8 15 29 26 45 11 17 23
37 27 45 4 8 25 47 48 85 22 39 44 77 48 85 4 8 13 24 20 35 7 11 30 52 52 90
22 39 44 77 50 87 5 9 21 37 34 62 15 27 33 48 45 51 12 2 217 9 456 16 473
13 464 11 538 74 33 27 75 108 85 162 8 43 -17 137 -51 186 -15 22 -49 54 -77
71 l-50 31 -325 1 c-179 0 -435 -2 -570 -5z"/>
<path fill="#cccccc" d="M1387 6747 c-63 -38 -77 -72 -77 -187 0 -116 15 -152 79 -188 l39
-22 751 0 751 0 0 -2814 0 -2815 -242 -3 c-239 -3 -244 -3 -275 -27 -58 -44
-63 -67 -63 -294 0 -113 3 -212 6 -221 6 -14 93 -16 890 -16 l884 0 6 24 c3
14 4 116 2 228 -3 221 -8 239 -66 283 -25 18 -45 20 -269 23 -242 3 -243 3
-243 25 0 19 0 5580 0 5600 0 4 65 7 144 7 167 0 181 3 164 33 -6 12 -11 61
-11 108 0 83 1 88 47 173 25 48 44 91 41 97 -4 5 -492 9 -1263 9 l-1257 0 -38
-23z m1914 -122 c39 -21 69 -71 69 -115 0 -63 -64 -130 -125 -130 -40 0 -98
41 -119 83 -21 46 -20 62 5 107 35 62 109 86 170 55z m20 -6058 c66 -55 67
-131 2 -196 -34 -34 -122 -34 -159 0 -64 60 -67 123 -10 184 30 32 38 35 87
35 41 -1 60 -6 80 -23z"/>
<path fill="#cccccc" d="M4693 6748 c-19 -23 -83 -124 -83 -133 0 -3 -19 -35 -41 -72 -55 -90
-99 -171 -99 -183 0 -7 326 -9 948 -8 l947 3 34 24 c49 35 71 91 71 181 0 96
-26 154 -85 187 l-40 23 -816 0 -816 0 -20 -22z"/>
<path d="M4682 6291 c-43 -26 -64 -444 -28 -551 52 -159 125 -250 271 -342 40
-25 41 -26 58 -124 24 -132 25 -480 2 -616 -26 -156 -44 -229 -94 -383 -35
-108 -152 -355 -178 -377 -7 -6 -13 -14 -13 -19 0 -19 -111 -169 -205 -276
-55 -64 -110 -131 -123 -149 -116 -174 -63 -425 114 -542 57 -38 159 -72 217
-72 62 0 156 29 214 67 78 51 244 233 344 377 94 136 129 188 129 192 0 2 11
22 24 42 43 69 114 209 161 319 44 103 65 162 102 283 9 30 22 73 28 95 53
170 99 528 98 750 -1 198 -31 470 -69 617 -13 52 -13 67 1 145 38 214 54 276
110 448 24 71 30 104 23 112 -8 10 -138 13 -593 12 -320 -1 -587 -4 -593 -8z"/>
</g>
</svg>