<svg xmlns="http://www.w3.org/2000/svg" viewBox="0 0 900 900">
  <path fill="#cccccc" d="M367.332 576.252V403.74c0-37.529 30.469-67.998 67.998-67.998h29.34c37.529 0 67.998 30.469 67.998 67.998v172.512l112.908-9.945c21.169-1.865 39.869 13.808 41.733 34.976 1.622 18.412-10.024 34.957-27.015 40.18a38.354 38.354 0 01-12.256 6.006l-162.627 46.416c-12.796 3.653-25.941.369-35.411-7.612-9.47 7.981-22.615 11.265-35.411 7.612l-162.627-46.416a38.354 38.354 0 01-12.256-6.006c-16.991-5.223-28.637-21.768-27.015-40.18 1.864-21.168 20.564-36.841 41.733-34.976l112.908 9.945z"/>
  <path fill="#000000" d="M292.322 464.615l16.174-95.094c2.62-15.404 17.253-25.783 32.657-23.163 15.404 2.62 25.783 17.254 23.163 32.658l-18.021 105.953a28.195 28.195 0 01-10.07 17.228 28.207 28.207 0 01-7.198 6.32l-89.94 55.278c-13.312 8.182-30.762 4.017-38.944-9.295-8.181-13.312-4.016-30.762 9.296-38.944l82.883-50.941zm271.453 37.582a28.195 28.195 0 01-10.07-17.228l-18.021-105.953c-2.62-15.404 7.759-30.038 23.163-32.658 15.404-2.62 30.037 7.759 32.657 23.163l16.174 95.094 82.883 50.941c13.312 8.182 17.477 25.632 9.296 38.944-8.182 13.312-25.632 17.477-38.944 9.295l-89.94-55.278a28.207 28.207 0 01-7.198-6.32zM450.042 186.259c37.501 0 67.947 30.446 67.947 67.947 0 37.5-30.446 67.946-67.947 67.946-37.501 0-67.946-30.446-67.946-67.946 0-37.501 30.445-67.947 67.946-67.947z"/>
</svg>
