<svg version="1.0" xmlns="http://www.w3.org/2000/svg"
 width="100%" height="100%" viewBox="-60 0 450.000000 450.000000"
 preserveAspectRatio="xMidYMid meet">

<g transform="translate(0.000000,450.000000) scale(0.100000,-0.100000)"
fill="#cccccc" stroke="none">
<path d="M888 4366 c-91 -33 -309 -193 -379 -278 -192 -232 -169 -479 63 -675
71 -61 188 -130 298 -178 47 -21 88 -40 92 -44 4 -3 50 -188 102 -410 l95
-405 -104 -610 c-58 -336 -128 -747 -156 -912 l-52 -301 17 -54 c45 -138 189
-198 317 -131 101 53 95 32 220 758 60 352 119 698 132 769 12 72 27 129 32
128 10 -2 18 -43 176 -968 49 -291 95 -547 101 -569 16 -51 83 -118 134 -134
140 -41 268 33 298 174 5 21 -11 138 -44 330 -28 165 -98 574 -156 910 l-104
611 29 124 c17 68 60 250 96 404 36 153 69 282 73 286 4 3 54 28 112 54 212
95 361 219 428 354 35 71 37 80 37 175 0 96 -2 105 -38 180 -31 66 -55 97
-135 176 -98 98 -247 205 -327 235 -134 52 -255 -107 -172 -225 8 -12 61 -52
118 -89 173 -113 259 -205 259 -276 0 -68 -84 -148 -240 -229 -175 -91 -137
-86 -646 -86 l-451 0 -64 26 c-230 93 -369 203 -369 292 0 68 97 170 259 274
54 34 108 76 120 93 25 37 28 112 6 155 -32 61 -110 91 -177 66z"/>
<path fill="#000000" d="M1477 4270 c-105 -27 -206 -113 -255 -218 -22 -48 -26 -70 -26 -142
1 -109 27 -180 95 -255 148 -162 400 -161 549 2 66 72 93 145 93 248 0 148
-76 271 -207 335 -70 35 -179 47 -249 30z"/>
</g>
</svg>

