<svg xmlns="http://www.w3.org/2000/svg" viewBox="0 0 900 900">
  <path fill="#000000" d="M626.31 596.15h-.55a37.24 37.24 0 0 1-37.22-37.21V416.2a37.24 37.24 0 0 1 37.22-37.22 37.24 37.24 0 0 1 37.22 37.22v105.5h68.27a37.24 37.24 0 0 1 37.22 37.22 37.24 37.24 0 0 1-37.22 37.22H626.3zm184.47-286.8a75.02 75.02 0 0 1-30.3 101.63 75.02 75.02 0 0 1-101.62-30.3 75.02 75.02 0 0 1 30.3-101.63 75.02 75.02 0 0 1 101.62 30.3z"/>
  <path fill="#cccccc" d="M577.43 467.47l-133.94 45.8c-19 6.55-39 3.41-54.63-6.8l-276.55 86.07a37.24 37.24 0 0 1-46.62-24.46 37.24 37.24 0 0 1 24.46-46.61l272.96-84.94a62.48 62.48 0 0 1 39.62-41.5l177.83-60.95a62.57 62.57 0 0 1 82.57 52.38c-9.04-11.12-22.7-18.35-37.06-18.48h-1.24c-26.4.6-47.06 23.34-47.3 47.92-.05 17.19-.09 34.38-.1 51.57z"/>
</svg>