<svg xmlns="http://www.w3.org/2000/svg" viewBox="0 0 900 900">
  <path fill="#cccccc" d="M395.274 469.417c7.286-15.772 21.681-28.018 39.977-31.836l166.543-34.759c30.687-6.404 60.801 13.311 67.206 43.998 4.08 19.548-2.439 38.863-15.641 51.966v-36.219c0-18.408-14.944-33.353-33.352-33.353-18.407 0-33.352 14.945-33.352 33.353v59.463L458.46 548.784c-18.296 3.819-36.388-1.647-49.374-13.188l-267.843 55.9c-18.262 3.811-36.184-7.921-39.995-26.184-3.812-18.263 7.921-36.184 26.184-39.996l267.842-55.899z"/>
  <path fill="#000000" d="M594.655 566.862V462.567c0-13.993 11.36-25.353 25.352-25.353s25.352 11.36 25.352 25.353v78.943h78.944c13.992 0 25.352 11.36 25.352 25.352 0 13.993-11.36 25.352-25.352 25.352H620.007c-6.985 0-13.314-2.83-17.901-7.406l-.044-.045c-4.576-4.587-7.407-10.916-7.407-17.901zm203.54-147.108c6.766 32.417-14.059 64.228-46.476 70.993-32.416 6.766-64.227-14.06-70.993-46.476-6.765-32.417 14.06-64.227 46.477-70.993 32.416-6.765 64.227 14.06 70.992 46.476z"/>
</svg>
