<svg version="1.0" xmlns="http://www.w3.org/2000/svg"
 width="100%" height="100%" viewBox="0 0 600.000000 600.000000"
 preserveAspectRatio="xMidYMid meet">

<g transform="translate(0.000000,600.000000) scale(0.100000,-0.100000)"
fill="#000000" stroke="none">
<path fill="#cccccc" d="M1055 5828 c-3 -7 -4 -1291 -3 -2853 l3 -2840 201 -3 c161 -2 204 0
213 11 8 10 12 690 13 2618 l3 2604 1468 3 c807 1 1468 1 1469 0 2 -2 5 -1180
8 -2618 l5 -2615 205 0 205 0 0 2850 0 2850 -205 0 -205 0 -5 -107 c-3 -59
-10 -112 -16 -118 -7 -7 -461 -9 -1470 -8 l-1459 3 -5 105 c-3 58 -9 111 -13
118 -6 9 -59 12 -208 12 -150 0 -201 -3 -204 -12z"/>
<path d="M2149 5697 c-36 -17 -59 -37 -59 -53 0 -11 25 -14 121 -14 107 0 120
2 117 17 -4 22 -84 63 -122 62 -17 0 -43 -6 -57 -12z"/>
<path d="M3634 5697 c-34 -13 -64 -39 -64 -56 0 -7 42 -11 121 -11 109 0 120
2 117 18 -4 21 -83 62 -118 61 -14 0 -39 -6 -56 -12z"/>
<path d="M2027 5328 c-43 -32 -49 -569 -9 -753 46 -207 101 -352 168 -442 13
-17 24 -36 24 -42 0 -15 189 -201 205 -201 8 0 17 -6 22 -12 4 -7 10 -652 13
-1433 l5 -1420 28 -42 c15 -24 46 -55 69 -70 37 -25 50 -28 129 -28 82 0 89 2
126 31 21 17 52 51 68 75 l30 44 5 775 5 775 35 0 35 0 5 -775 c6 -874 -1
-802 86 -879 106 -93 276 -60 349 68 20 36 20 49 25 1456 3 781 6 1421 8 1422
1 1 14 9 30 17 30 15 142 124 182 177 67 88 134 224 169 341 58 197 75 346 67
588 -8 266 -14 318 -37 331 -11 5 -74 8 -146 7 l-128 -3 -3 -35 c-2 -19 2 -75
8 -124 33 -242 5 -549 -68 -742 -46 -123 -148 -260 -210 -285 -13 -5 -184 -9
-381 -9 -355 0 -357 0 -387 23 -105 78 -197 251 -238 447 -30 146 -37 312 -21
521 12 155 13 194 3 201 -22 13 -252 10 -271 -4z"/>
<path d="M2811 5039 c-219 -80 -328 -310 -253 -534 17 -52 72 -134 113 -171
130 -117 332 -138 484 -50 56 32 122 91 136 121 5 11 19 36 31 55 11 19 27 67
35 105 41 203 -75 405 -272 474 -78 28 -198 27 -274 0z"/>
</g>
</svg>