<svg xmlns="http://www.w3.org/2000/svg" fill-rule="evenodd" viewBox="0 0 900 900">
  <path fill="#cccccc" d="M524.68 493.58h150.2c11.5-33.25 43.1-57.16 80.25-57.16 46.84 0 84.87 38.03 84.87 84.87 0 40.7-28.7 74.74-66.95 82.98l-82.8 167.92A14.2 14.2 0 0 1 677.5 780H74.19A14.2 14.2 0 0 1 60 765.81v-56.75a14.2 14.2 0 0 1 14.19-14.19h147c3.18 0 6.12 1.05 8.49 2.83l47.12 25.55h365.83c5.18 0 9.72-2.79 12.2-6.95l59.28-120.7a84.89 84.89 0 0 1-43.83-76.56H524.03a39.85 39.85 0 0 0 2.24-18.1c-.29-2.5-.83-4.96-1.59-7.36zm230.45-1.86a29.59 29.59 0 0 1 29.57 29.57 29.59 29.59 0 0 1-29.57 29.58 29.59 29.59 0 0 1-29.58-29.58 29.59 29.59 0 0 1 29.58-29.57z"/>
  <path fill="#000000" d="M510.25 711.63H353.91l-37.22-20.78-68.98 3.42-11.77-6.39.5.37a26.33 26.33 0 0 0-14.72-4.99c-33.66-.53-67.33-.48-101-.3a66.03 66.03 0 0 1-18.29-75.83l76.17-182.3a66 66 0 0 1 112.83-15.22l-28.68-7.8a42.06 42.06 0 0 0-11.5-1.39c-19.68.49-36.49 15.73-39.61 34.27-3.36 19.94 10.13 40.82 29.36 46.3 17.06 4.75 34.12 9.48 51.18 14.2l-50.45 120.76 82.71-4.1a39.07 39.07 0 0 1 24.4 7.03l150.98 84.3a39.13 39.13 0 0 1 10.43 8.45zm-32.58-177.65l-233.34-64.11a29.46 29.46 0 0 1-20.59-36.2 29.46 29.46 0 0 1 36.2-20.58l233.33 64.1a29.46 29.46 0 0 1 20.6 36.2 29.46 29.46 0 0 1-36.2 20.6zM323.9 247.88a69.71 69.71 0 0 1 37.43 91.17 69.71 69.71 0 0 1-91.16 37.43 69.71 69.71 0 0 1-37.43-91.16 69.72 69.72 0 0 1 91.16-37.43z"/>
</svg>