<svg xmlns="http://www.w3.org/2000/svg" viewBox="0 0 900 900">
  <path fill="#000000" d="M365.633 409.007l-60.268-33.998c-14.522-8.193-19.661-26.634-11.469-41.156 8.192-14.523 26.634-19.662 41.156-11.469l85.293 48.115c13.01 7.34 18.49 22.906 13.598 36.508a30.214 30.214 0 01-2.499 6.512l-39.105 74.857c-6.159 11.79-19.031 17.821-31.489 15.858.276 10.877-5.349 21.541-15.508 27.196l-81.303 45.255a30.057 30.057 0 01-16.054 3.782c-12.391.577-24.376-6.574-29.359-18.699l-45.487-110.686c-6.337-15.422 1.038-33.089 16.46-39.427 15.422-6.337 33.089 1.038 39.426 16.46l33.08 80.496 53.851-29.975a30.072 30.072 0 0119.406-3.439 30.055 30.055 0 013.423-14.798l26.848-51.392zm-193.75-159.143c29.615-26.079 74.832-23.208 100.91 6.408 26.079 29.615 23.208 74.832-6.408 100.911-29.615 26.078-74.832 23.207-100.911-6.409-26.078-29.615-23.207-74.832 6.409-100.91z"/>
  <path fill="#cccccc" d="M413.62 466.903l41.704 38.727 51.916-62.603c6.573-11.653 18.502-19.149 31.525-20.312a40.249 40.249 0 0122.051 3.781l163.661 53.019c21.15 6.852 32.758 29.585 25.906 50.734-6.851 21.15-29.585 32.758-50.734 25.906l-143.116-46.364s-85.513 104.844-90.826 109.523c-9.559 11.527-24.211 16.366-37.989 13.958-16.19-1.448-31.923-11.046-47.271-22.141-17.47-12.628-42.161-31.498-67.7-51.351l36.933-20.557c10.204-5.68 16.879-15.262 19.19-25.851 12.883-1.106 24.949-8.566 31.375-20.867l13.375-25.602zM217.137 383.9c19.547.492 39.324-6.094 55.142-20.023a80.008 80.008 0 009.212-9.568c1.686 11.576 8.522 22.28 19.492 28.468l52.745 29.755-22.848 43.737a38.965 38.965 0 00-3.55 9.771 38.936 38.936 0 00-15.712 4.803l-45.079 25.092-29.264-71.21c-6.374-15.511-21.595-24.737-37.434-24.243 5.194-5.877 11.186-11.407 17.296-16.582z"/>
</svg>
