<svg xmlns="http://www.w3.org/2000/svg" viewBox="0 0 900 900">
  <path fill="#cccccc" d="M614.5 471.06l-175.43 17.1a60.31 60.31 0 0 1-43.85-13.14l-257.1 117.82a36.03 36.03 0 0 1-47.74-17.73 36.03 36.03 0 0 1 17.73-47.74l269.6-123.54a60.52 60.52 0 0 1 49.62-36.12l180.39-17.58a60.53 60.53 0 0 1 65.03 72.97 17557.4 17557.4 0 0 0-20.33-24.92 38.3 38.3 0 0 0-28.8-13.73 37.98 37.98 0 0 0-25.49 9.67c-14.34 12.91-15.97 36.73-4.18 51.54l20.54 25.4zm-283.32-57.81A50552.87 50552.87 0 0 0 103.4 517.8a46.72 46.72 0 0 0-9.93 6.32 36.05 36.05 0 0 1 24-35.49l213.71-75.4z"/>
  <path fill="#000000" d="M622.5 480.95l19.15 23.57v65.42a27.02 27.02 0 0 1-54.01 0v-85.49l33.3-3.31 1.56-.19zm89.74-1.38L719 499.8l.01.04.01.04.03.09a26.9 26.9 0 0 1-4.22 24.8l-.04.04-.05.07-.04.06-.03.03a26.83 26.83 0 0 1-11.26 8.46h-.02l-.15.07-.1.04-.04.01-.07.03-.1.04-.08.03-.07.02-.1.04-.08.03-.06.02-.07.03-.12.04-.08.03-.05.01-.03.02h-.03l-.12.05-.1.03-.05.02-.04.01-.1.03-.14.05-.06.02h-.02l-.03.01a26.86 26.86 0 0 1-16.14.03 26.84 26.84 0 0 1-13.14-9l-10.33-12.72-59.52-73.3a27.02 27.02 0 0 1 20.84-44.02h.33a26.96 26.96 0 0 1 20.64 9.82l.03.04.1.13c6.74 8.24 13.46 16.49 20.18 24.73 1.92 1.78 2.3 2.51 4.85 3.37 2.45.83 5.15.67 7.5-.3a75.33 75.33 0 0 0 20.53 35.67 73.72 73.72 0 0 0 14.87 11zm100.62-62.72a63.95 63.95 0 0 1-65.99 61.78 63.95 63.95 0 0 1-61.77-66 63.95 63.95 0 0 1 65.99-61.77 63.95 63.95 0 0 1 61.77 66zm-154.63-28.7c.19.37.37.75.55 1.14l-.15-.17-.88-.9.18-.03.3-.04z"/>
</svg>