<svg xmlns="http://www.w3.org/2000/svg" viewBox="0 0 900 900">
  <path fill="#cccccc" d="M145.394 81.835h-25.349V68.927h659.417v12.908h-24.793v748.543h-28.42V81.835h-130.28v12.978a28.878 28.878 0 00-13.95 1.944V81.835H317.527v14.742a28.893 28.893 0 00-13.95-1.711V81.835H173.813v748.543h-28.419V81.835z"/>
  <path fill="#000000" d="M388.518 326.844c0-24.667 20.026-44.693 44.692-44.693h33.58c24.666 0 44.692 20.026 44.692 44.693v415.15c0 15.804-12.831 28.635-28.635 28.635-15.805 0-28.636-12.831-28.636-28.635v-220.69h-8.422v220.69c0 15.804-12.831 28.635-28.636 28.635-15.804 0-28.635-12.831-28.635-28.635v-415.15zm171.565-121.902l11.954-84.197c1.633-11.505 12.301-19.52 23.806-17.887 11.506 1.634 19.521 12.301 17.887 23.807l-12.431 87.555a21.22 21.22 0 01-.676 3.089 20.985 20.985 0 01-2.809 6.782l-47.519 74.581c-6.245 9.801-19.271 12.688-29.072 6.444-9.801-6.245-12.688-19.271-6.443-29.072l45.303-71.102zm-260.706 12.367a21.22 21.22 0 01-.676-3.089l-12.431-87.555c-1.634-11.506 6.381-22.173 17.887-23.807 11.505-1.633 22.173 6.382 23.806 17.887l11.954 84.197 45.303 71.102c6.245 9.801 3.358 22.827-6.443 29.072-9.801 6.244-22.827 3.357-29.072-6.444l-47.519-74.581a20.985 20.985 0 01-2.809-6.782zm150.654-46.332c27.891 0 50.534 22.643 50.534 50.534 0 27.89-22.643 50.533-50.534 50.533-27.89 0-50.533-22.643-50.533-50.533 0-27.891 22.643-50.534 50.533-50.534z"/>
</svg>
