<svg xmlns="http://www.w3.org/2000/svg" viewBox="0 0 900 900">
  <path fill="#cccccc" d="M162.362 699.627s256.197-211.862 258.902-214.103a68.27 68.27 0 0113.196-8.567l132.255-65.68c33.684-16.728 74.613-2.962 91.341 30.722l4.32 8.699c16.728 33.685 2.962 74.614-30.722 91.342L199.095 756.856c-16.806 8.346-37.227 1.478-45.574-15.329a33.815 33.815 0 01-3.55-15.334c-.083-9.915 4.146-19.782 12.391-26.566z"/>
  <path fill="#000000" d="M708.056 545.114c0-13.798-11.202-25-25-25s-25 11.202-25 25v190.293c0 13.798 11.202 25 25 25s25-11.202 25-25V545.114zm70.401-157.444c14.729 29.659 2.608 65.697-27.051 80.426s-65.697 2.608-80.426-27.051-2.608-65.696 27.051-80.426c29.659-14.729 65.697-2.608 80.426 27.051zm-209.432-6.918c6.118 12.368 21.125 17.442 33.493 11.324 12.367-6.117 17.442-21.125 11.324-33.492l-91.198-184.372c-6.117-12.368-21.125-17.442-33.492-11.325-12.368 6.118-17.442 21.125-11.325 33.493l91.198 184.372z"/>
</svg>
