<svg xmlns="http://www.w3.org/2000/svg" viewBox="0 0 900 900">
  <path fill="#cccccc" d="M264.76 682.27H196.3a22.98 22.98 0 0 1-22.97-22.97v-13.27a22.98 22.98 0 0 1 22.97-22.97h204.5a22.98 22.98 0 0 1 22.98 22.97v13.27a22.98 22.98 0 0 1-22.97 22.97h-68.46v59.87h21.9a9.4 9.4 0 0 1 9.4 9.4v18.78a9.4 9.4 0 0 1-9.4 9.4h-111.4a9.4 9.4 0 0 1-9.39-9.4v-18.79a9.4 9.4 0 0 1 9.4-9.4h21.9v-59.86zm-48.71-97.53H381c3.2 0 8.15 2.6 11.07 5.79l24.61 27c.94 1.04 1.56 2 1.85 2.85a31.07 31.07 0 0 0-17.52-5.8c-42.85-.14-162.06-.14-204.9 0a30.67 30.67 0 0 0-17.6 5.83c.3-.85.9-1.83 1.86-2.87L205 590.53c2.9-3.2 7.87-5.79 11.06-5.79z"/>
  <path fill="#000000" d="M460.52 650.27c20.82 17.66 41.67 35.3 62.56 52.95l-20.45 51.91a38.83 38.83 0 0 1-50.35 21.88 38.83 38.83 0 0 1-21.87-50.34l30.11-76.4zM341.98 534.24a65.25 65.25 0 0 1-14.35-67.78l67.2-183.41a65.25 65.25 0 0 1 99.93-30.08 38000.1 38000.1 0 0 0-30.4 4.41 40.93 40.93 0 0 0-23.17 11.9c-12.23 12.62-14.77 33.39-6.04 48.52 8 13.88 24.72 22.06 40.63 19.95 13.33-1.85 26.65-3.7 39.97-5.57L450.1 511.34a65.51 65.51 0 0 1-4.44 9.63l210.6 177.9a38.83 38.83 0 0 1 4.6 54.7 38.83 38.83 0 0 1-54.69 4.6S343.4 535.93 341.98 534.24zm122.3-28.16l82.16 36.57a38.83 38.83 0 0 1 19.87 50.79l-4.21 10.72c-34.08-28.74-68.18-57.46-102.24-86.23 0 0 .54-1.34.89-2.27l3.53-9.58zm1.95-237.37a29.12 29.12 0 0 0-24.72 32.92 29.12 29.12 0 0 0 32.92 24.72l235.9-33.56a29.12 29.12 0 0 0 24.71-32.92 29.12 29.12 0 0 0-32.91-24.72l-235.9 33.56zm44.8-172.33a68.92 68.92 0 0 1 40.99 88.39 68.92 68.92 0 0 1-88.4 40.98 68.92 68.92 0 0 1-40.97-88.38 68.92 68.92 0 0 1 88.38-40.99z"/>
</svg>