<svg version="1.0" xmlns="http://www.w3.org/2000/svg"
 width="100%" height="100%" viewBox="0 0 600.000000 600.000000"
 preserveAspectRatio="xMidYMid meet">

<g transform="translate(0.000000,600.000000) scale(0.100000,-0.100000)"
fill="#000000" stroke="none">
<path d="M680 4675 c-179 -36 -342 -176 -422 -364 -31 -74 -32 -80 -33 -221 0
-152 0 -152 56 -275 61 -133 208 -253 368 -299 79 -24 239 -21 321 5 213 67
363 234 411 459 23 105 23 129 2 232 -66 329 -370 529 -703 463z"/>
<path fill="#cccccc" d="M1685 3776 c-107 -23 -168 -60 -320 -191 -39 -33 -88 -73 -109 -90
-83 -64 -254 -209 -304 -258 -95 -93 -149 -220 -140 -331 7 -85 38 -134 146
-231 109 -99 245 -223 437 -400 71 -67 259 -239 418 -384 158 -144 331 -306
385 -359 147 -146 224 -192 318 -192 34 0 57 -7 89 -29 57 -38 136 -64 171
-55 42 11 84 36 204 123 30 22 84 60 120 85 36 25 103 72 150 105 47 33 121
85 165 116 44 31 121 85 170 120 50 36 126 90 170 120 44 31 121 85 170 120
50 35 134 94 187 130 l97 65 103 -34 c57 -19 117 -40 133 -45 86 -31 183 -64
210 -71 17 -5 136 -45 265 -90 129 -45 249 -85 265 -90 17 -4 57 -18 90 -30
33 -12 74 -26 90 -30 17 -5 61 -20 99 -34 88 -33 121 -33 177 2 72 46 116 109
150 214 41 131 7 260 -81 301 -32 15 -262 95 -335 117 -16 5 -57 19 -90 30
-33 12 -73 26 -90 30 -16 5 -115 39 -220 75 -104 36 -282 97 -395 135 -113 38
-218 74 -235 79 -16 6 -57 20 -90 31 -33 10 -91 31 -128 45 -79 29 -116 31
-160 9 -32 -17 -116 -74 -292 -199 -27 -20 -79 -56 -115 -81 -65 -44 -94 -65
-227 -162 -40 -28 -75 -52 -78 -52 -3 0 -31 -20 -64 -45 -32 -25 -64 -45 -69
-45 -5 0 -24 17 -41 38 -17 20 -37 44 -44 52 -8 8 -35 44 -62 80 -27 36 -64
83 -82 105 -19 22 -37 45 -41 50 -35 48 -144 184 -161 199 -21 19 -30 19 -369
5 -191 -8 -449 -14 -573 -14 -221 0 -226 1 -274 25 -137 70 -203 210 -170 364
26 122 124 220 245 246 30 6 179 15 330 18 l275 7 -3 24 c-1 13 -8 29 -16 35
-7 6 -39 45 -69 86 -64 85 -112 127 -171 148 -58 20 -141 23 -211 8z"/>
<path d="M3360 3414 c-85 -2 -362 -10 -615 -18 -253 -9 -608 -20 -790 -26
-181 -6 -351 -13 -377 -16 -58 -7 -118 -48 -154 -106 -35 -56 -40 -163 -9
-218 26 -45 72 -88 113 -105 46 -20 93 -21 522 -7 466 15 1279 40 1485 47 165
4 204 14 256 61 57 51 74 90 74 169 -1 86 -23 130 -90 182 -46 36 -46 37 -153
38 -59 1 -177 0 -262 -1z"/>
</g>
</svg>