<svg version="1.0" xmlns="http://www.w3.org/2000/svg"
 width="100%" height="100%" viewBox="0 0 477.000000 477.000000"
 preserveAspectRatio="xMidYMid meet">

<g transform="translate(0.000000,477.000000) scale(0.100000,-0.100000)"
fill="#000000" stroke="none">
<path fill="#cccccc" d="M487 4603 c-4 -3 -7 -98 -7 -210 0 -224 6 -199 -62 -258 -37 -31 -15
-155 27 -155 8 0 17 -6 22 -12 4 -7 10 -107 13 -223 l5 -210 83 -3 c45 -2 83
-2 84 0 1 2 4 100 7 218 6 206 7 215 26 215 19 0 20 -9 26 -215 3 -118 6 -216
7 -217 1 -2 40 -3 87 -3 47 0 86 1 87 3 1 1 4 99 7 217 6 206 7 215 26 215 19
0 20 -8 25 -215 l5 -215 85 0 85 0 3 204 c1 130 6 209 13 218 16 19 2434 20
2446 1 4 -7 6 -100 5 -206 -2 -138 0 -198 9 -208 8 -10 34 -14 90 -14 44 0 80
1 81 3 1 1 4 99 7 217 6 206 7 215 26 215 19 0 20 -8 25 -215 l5 -215 85 0 85
0 6 215 c3 118 6 216 7 218 1 2 12 2 25 0 22 -3 22 -4 27 -218 l5 -215 85 0
85 0 5 215 5 215 26 12 c40 20 52 39 51 88 -1 52 -14 75 -53 97 l-29 17 -2
213 -3 213 -85 0 -85 0 -5 -215 -5 -215 -25 0 -25 0 -5 215 -5 215 -79 3 c-57
2 -82 -1 -87 -10 -5 -7 -9 -106 -9 -220 0 -114 -4 -209 -9 -212 -4 -3 -16 0
-25 7 -15 11 -17 38 -19 222 l-2 210 -78 3 c-47 2 -84 -2 -92 -8 -10 -8 -13
-59 -13 -215 0 -112 -3 -208 -7 -214 -8 -14 -2413 -15 -2435 -1 -12 8 -16 48
-20 222 l-5 213 -79 3 c-57 2 -82 -1 -87 -10 -5 -7 -9 -106 -9 -220 0 -199 -1
-208 -19 -208 -11 0 -23 5 -26 10 -4 6 -6 102 -5 214 1 234 10 216 -105 216
-57 0 -74 -3 -79 -16 -3 -9 -6 -108 -6 -220 0 -195 -1 -204 -19 -204 -11 0
-23 5 -27 11 -3 6 -6 97 -5 203 1 105 -1 200 -5 209 -5 14 -20 17 -83 17 -43
0 -81 -3 -84 -7z"/>
<path d="M1333 3914 c-17 -7 -2 -39 67 -144 30 -47 57 -90 60 -95 3 -6 26 -42
51 -80 40 -60 196 -299 255 -390 10 -16 21 -34 24 -40 3 -5 58 -89 123 -187
l117 -176 0 -1239 c0 -1215 1 -1239 20 -1282 25 -54 51 -78 101 -91 68 -19
127 25 153 116 13 42 15 147 15 669 0 351 4 622 9 627 5 5 27 8 48 6 l39 -3 5
-668 5 -668 42 -40 c35 -32 49 -39 83 -39 56 0 91 20 118 68 l22 40 0 1245 0
1245 83 124 c46 67 97 145 113 171 16 27 36 59 44 72 8 12 38 57 65 99 370
564 419 642 410 656 -7 12 -254 14 -270 2 -6 -4 -31 -38 -56 -77 -25 -38 -75
-115 -111 -170 -36 -55 -100 -154 -143 -220 -168 -258 -185 -283 -201 -289
-21 -8 -498 -8 -518 0 -9 4 -51 59 -93 123 -42 64 -102 156 -135 204 -32 49
-58 90 -58 92 0 2 -31 50 -68 107 -38 57 -88 133 -112 171 l-43 67 -126 -1
c-69 0 -131 -3 -138 -5z"/>
<path d="M2263 3840 c-87 -31 -138 -76 -182 -160 -32 -61 -34 -193 -3 -260 65
-141 223 -216 365 -175 34 10 69 24 78 32 8 7 20 13 25 13 13 0 74 71 95 112
45 88 42 220 -7 303 -75 128 -232 185 -371 135z"/>
</g>
</svg>
