<svg xmlns="http://www.w3.org/2000/svg" viewBox="0 0 900 900">
  <circle fill="#cccccc" cx="574.279" cy="358.181" r="60"/>
  <path fill="#000000" d="M345.9 252.148c8.354-17.019 25.035-29.485 45.269-31.543 31.188-3.173 59.084 19.572 62.257 50.76l16.882 165.948 119.874 11.503c4.22.405 8.184 1.57 11.771 3.349 11.18 5.403 18.962 16.789 19.124 30.039l1.835 149.726c.228 18.655-14.731 33.985-33.386 34.214-18.655.229-33.986-14.731-34.215-33.386l-1.464-119.513-120.228-11.536 16.119 105.26c.388 2.53.483 5.038.312 7.49.143 2.048.1 4.136-.143 6.247l-17.139 148.753c-2.135 18.533-18.916 31.847-37.45 29.711-18.533-2.135-31.847-18.916-29.711-37.449l16.931-146.955-23.217-151.61a33.8 33.8 0 01-.335-3.172 56.975 56.975 0 01-1.358-7.865l-11.611-114.135-9.399 12.875 1.811 99.257c.255 13.99-10.896 25.555-24.886 25.81-13.989.255-25.555-10.895-25.81-24.885l-1.902-104.279c-.014-.766.006-1.526.059-2.275a25.253 25.253 0 014.809-16.721l55.201-75.618zm112.119-151.543c33.115 0 60 26.885 60 60 0 33.115-26.885 60-60 60-33.115 0-60-26.885-60-60 0-33.115 26.885-60 60-60z"/>
</svg>
