<svg version="1.0" xmlns="http://www.w3.org/2000/svg"
 width="100%" height="100%" viewBox="0 0 900.000000 900.000000"
 preserveAspectRatio="xMidYMid meet">

<g transform="translate(0.000000,900.000000) scale(0.100000,-0.100000)"
fill="#000000" stroke="none">
<path d="M4365 7799 c-86 -10 -178 -34 -210 -56 -11 -7 -26 -13 -33 -13 -8 0
-34 -13 -59 -30 -24 -16 -47 -30 -52 -30 -18 0 -154 -136 -192 -193 -147 -215
-179 -482 -87 -727 28 -75 110 -197 179 -267 40 -40 76 -73 80 -73 4 0 30 -15
58 -34 106 -72 303 -122 434 -112 348 28 611 238 709 566 15 51 20 95 20 205
-1 144 -3 158 -57 305 -24 66 -101 177 -168 244 -59 57 -184 146 -207 146 -7
0 -24 6 -38 14 -42 23 -121 44 -192 51 -36 3 -74 8 -85 9 -11 2 -56 0 -100 -5z"/>
<path fill="#cccccc" d="M638 7577 c-20 -12 -47 -35 -60 -52 -23 -29 -23 -30 -26 -384 -2
-234 -7 -360 -14 -368 -7 -9 -38 -13 -93 -13 -66 0 -84 -3 -89 -16 -3 -9 -6
-67 -6 -129 0 -134 1 -135 104 -135 106 0 96 35 96 -356 0 -272 3 -352 14
-378 57 -137 298 -141 360 -6 7 17 13 145 16 380 l5 355 1425 5 c1384 5 1425
6 1428 24 2 10 0 21 -5 25 -15 10 -68 93 -93 146 -13 28 -31 58 -39 68 -13 16
-90 17 -1356 17 -1030 0 -1344 3 -1353 12 -9 9 -12 100 -12 349 0 366 -2 379
-57 431 -38 37 -73 48 -146 48 -47 0 -71 -6 -99 -23z"/>
<path fill="#cccccc" d="M8050 7581 c-19 -11 -46 -34 -60 -53 l-25 -33 -3 -355 c-2 -233 -7
-359 -14 -367 -8 -11 -268 -13 -1359 -13 l-1348 0 -15 -22 c-9 -12 -16 -28
-16 -34 0 -14 -71 -137 -102 -176 -11 -14 -17 -31 -14 -37 5 -8 405 -11 1425
-11 1089 0 1420 -3 1429 -12 9 -9 12 -102 12 -356 0 -329 1 -346 21 -381 30
-53 77 -82 147 -88 95 -9 174 29 206 97 7 17 13 144 16 380 l5 355 82 3 c53 2
85 7 92 16 8 9 11 57 9 137 l-3 124 -85 3 c-52 2 -87 8 -92 15 -4 7 -8 163 -8
348 0 366 -2 379 -57 431 -15 15 -41 32 -56 37 -45 17 -147 13 -187 -8z"/>
<path d="M2475 6957 c-83 -16 -210 -115 -190 -147 9 -14 502 -14 511 1 19 32
-98 124 -183 145 -66 15 -70 15 -138 1z"/>
<path d="M6275 6956 c-58 -15 -86 -30 -138 -71 -40 -32 -48 -55 -19 -55 111
-3 467 2 471 5 7 8 -61 74 -94 92 -28 14 -137 43 -160 42 -5 0 -32 -6 -60 -13z"/>
<path d="M2168 6439 c-10 -5 -18 -17 -18 -26 0 -9 -6 -39 -14 -67 -55 -194
-99 -412 -121 -601 -41 -348 6 -578 144 -714 32 -31 65 -61 73 -68 45 -34 174
-72 245 -73 46 0 158 22 213 43 143 52 343 194 533 377 38 36 73 65 79 65 11
0 28 -57 62 -205 39 -169 48 -207 61 -260 7 -30 19 -77 25 -105 7 -27 16 -68
21 -90 4 -22 15 -67 23 -100 8 -33 21 -89 29 -125 8 -36 19 -83 25 -105 6 -22
25 -103 42 -180 17 -77 35 -156 41 -175 11 -44 -3 -59 -89 -95 -35 -14 -102
-44 -148 -65 -46 -22 -87 -40 -89 -40 -3 0 -35 -14 -72 -31 -38 -17 -86 -39
-108 -49 -22 -10 -75 -34 -117 -54 -42 -19 -104 -47 -137 -61 -33 -13 -109
-48 -168 -76 -129 -62 -199 -126 -253 -235 -34 -68 -35 -71 -35 -199 0 -87 6
-153 17 -200 9 -38 24 -113 33 -165 9 -52 22 -126 30 -165 7 -38 21 -115 30
-170 9 -55 22 -120 28 -145 5 -25 13 -70 18 -100 4 -30 17 -104 29 -165 12
-60 25 -135 30 -165 4 -30 12 -75 18 -100 6 -25 18 -90 27 -145 19 -112 43
-179 87 -243 62 -91 147 -149 266 -183 84 -24 140 -24 228 0 149 40 250 127
318 275 34 76 32 217 -4 411 -16 85 -36 195 -55 300 -9 50 -22 124 -30 165 -8
41 -21 116 -30 165 -9 50 -23 126 -31 170 -8 44 -19 99 -23 122 -4 22 -4 48 1
57 9 16 63 44 203 104 39 17 126 56 195 87 69 31 157 70 195 87 39 17 107 48
153 69 46 21 85 39 88 39 2 0 51 23 108 50 l105 50 69 -35 c39 -19 73 -35 76
-35 3 0 36 -14 73 -31 69 -32 142 -65 223 -101 25 -11 73 -33 107 -49 35 -16
65 -29 67 -29 3 0 48 -20 100 -45 53 -25 98 -45 101 -45 3 0 33 -13 68 -29 34
-16 83 -39 109 -51 27 -12 51 -26 54 -32 6 -10 -6 -100 -31 -233 -8 -38 -21
-110 -30 -160 -9 -49 -22 -124 -30 -165 -8 -41 -21 -115 -30 -165 -16 -89 -29
-159 -61 -325 -11 -58 -15 -120 -12 -195 3 -99 7 -117 35 -176 60 -125 162
-210 299 -249 87 -25 151 -25 237 0 134 38 231 115 290 232 35 70 46 113 82
313 9 50 22 124 30 165 7 41 21 118 30 170 9 52 21 115 27 140 6 25 14 70 18
100 8 51 24 144 50 285 19 100 62 334 84 458 8 43 12 86 11 95 -2 9 -9 46 -16
82 -25 138 -127 266 -259 327 -25 12 -85 40 -133 62 -49 23 -90 41 -93 41 -2
0 -47 20 -100 45 -52 25 -97 45 -100 45 -4 0 -25 10 -197 89 -37 17 -69 31
-72 31 -3 0 -48 20 -101 45 -52 25 -99 45 -103 45 -5 0 -20 9 -35 21 -29 23
-29 38 -1 144 8 28 20 79 29 115 15 70 36 156 60 260 9 36 29 124 46 195 17
72 37 157 45 190 8 33 28 121 45 195 17 74 37 160 45 190 8 30 17 67 20 83 3
15 10 27 16 27 6 0 39 -27 73 -60 33 -33 79 -76 101 -95 75 -68 275 -215 292
-215 4 0 14 -6 22 -14 31 -26 167 -74 249 -87 172 -27 330 37 437 176 154 201
157 564 9 1165 -14 58 -28 119 -31 135 -10 57 -1 55 -339 55 -173 0 -314 -3
-314 -7 0 -5 11 -51 25 -103 91 -335 155 -664 135 -684 -6 -6 -25 4 -52 26
-106 87 -384 377 -492 513 -70 88 -130 139 -187 160 -48 17 -82 19 -325 20
-243 0 -274 -2 -291 -17 -37 -34 -190 -97 -283 -117 -166 -37 -305 -24 -475
41 -44 17 -102 45 -130 62 l-50 31 -280 -1 c-276 -2 -281 -2 -335 -27 -70 -32
-96 -56 -216 -202 -114 -139 -465 -495 -488 -495 -11 0 -16 10 -16 33 0 38 25
188 46 269 8 32 14 66 14 77 0 10 7 41 15 67 8 27 23 85 34 129 25 103 47 185
56 207 4 11 0 20 -14 27 -26 15 -589 14 -613 0z"/>
</g>
</svg>

