<svg xmlns="http://www.w3.org/2000/svg" viewBox="0 0 900 900">
  <path fill="#cccccc" d="M361.643 222.663l5.678 11.851 18.334-8.915c4.173-2.03 9.209-.289 11.238 3.884l7.354 15.122c2.029 4.173.288 9.209-3.885 11.238l-53.049 25.797c-4.173 2.029-9.208.288-11.237-3.885l-7.354-15.122c-2.029-4.173-.289-9.209 3.884-11.238l19.386-9.426-7.667-16.106a33.17 33.17 0 0017.318-3.2zm-42.077-48.815l-5.613-11.789-18.48 8.986c-4.173 2.03-9.209.289-11.238-3.884l-7.354-15.122c-2.029-4.173-.288-9.209 3.885-11.238l53.049-25.797c4.173-2.029 9.208-.288 11.237 3.885l7.354 15.122c2.029 4.173.289 9.209-3.884 11.238l-19.437 9.451 3.67 7.661-2.796 1.679a33.192 33.192 0 00-10.393 9.808z"/>
  <path fill="#000000" d="M432.312 238.512l-12.829-59.756-59.302 35.611c-11.996 7.203-27.583 3.313-34.786-8.683-7.204-11.995-3.313-27.582 8.682-34.786l89.414-53.692a25.21 25.21 0 0113.207-3.617c11.767-.087 22.389 8.081 24.955 20.034l19.256 89.691c28.313 4.596 49.189 29.96 47.552 59.232 0 0 6.025 54.558 4.5 81.836-1.643 29.364-11.167 73.988-11.167 73.988-1.213 21.697-16.011 49.663-35.399 64.195l24.546 105.819a33.726 33.726 0 01.668 11.43c.14 1.249.213 2.522.213 3.811v149.736c0 18.657-15.147 33.803-33.803 33.803s-33.803-15.146-33.803-33.803V623.625c0-1.045.048-2.079.141-3.101l-31.51-135.838c-.062-.265-.12-.53-.175-.795a56.514 56.514 0 01-7.488-31.509s12.733-65.358 14.375-94.721c1.519-27.153-4.521-81.459-4.521-81.459.832-14.873 7.328-28.096 17.274-37.69zm-12.753-128.276c10.846-10.754 25.77-17.4 42.235-17.4 33.115 0 60 26.885 60 60 0 24.594-14.83 45.752-36.024 55.01l-16.295-75.902c-3.37-15.698-17.305-26.43-32.75-26.355h.033-.118.085a33.18 33.18 0 00-17.166 4.647z"/>
</svg>
