<svg xmlns="http://www.w3.org/2000/svg" viewBox="0 0 900 900">
  <path fill="#cccccc" d="M607.46 539.03L454.1 562.24a63.46 63.46 0 0 1-51.93-15.52l-295.1 74.2a37.85 37.85 0 0 1-45.91-27.47 37.85 37.85 0 0 1 27.46-45.91l298.36-75.02a63.54 63.54 0 0 1 48.1-36l188.27-28.48a63.6 63.6 0 0 1 72.86 68.26c-1.65-19.98-19.33-36.82-39.12-37.03h-1c-19.04.4-35.38 15.22-38.34 33.29-3.48 22.15-6.88 44.31-10.28 66.47z"/>
  <path fill="#000000" d="M755.75 622.58H639.02c-5.27 0-10.2-1.44-14.43-3.95h-.02l-.08-.05-.03-.02a28.38 28.38 0 0 1-3.06-2.12l-.02-.02-.02-.02-.04-.02-.04-.03-.04-.04-.04-.03-.01-.01-.02-.01a28.35 28.35 0 0 1-10.4-19.39v-.08l-.01-.04v-.03c-.07-.82-.11-1.65-.11-2.49v-.03c0-1.68.15-3.33.42-4.92l17.7-114.77a28.39 28.39 0 0 1 56.09 8.64l-12.75 82.68h83.64a28.39 28.39 0 0 1 28.38 28.38 28.39 28.39 0 0 1-28.38 28.37zm82.82-178.1a67.18 67.18 0 0 1-52 79.47 67.19 67.19 0 0 1-79.47-52.01 67.19 67.19 0 0 1 52.01-79.46 67.19 67.19 0 0 1 79.46 52z"/>
</svg>