<?xml version="1.0" standalone="no"?>
<!DOCTYPE svg PUBLIC "-//W3C//DTD SVG 20010904//EN"
 "http://www.w3.org/TR/2001/REC-SVG-20010904/DTD/svg10.dtd">
<svg version="1.0" xmlns="http://www.w3.org/2000/svg"
 width="294.000000pt" height="240.000000pt" viewBox="0 0 294.000000 240.000000"
 preserveAspectRatio="xMidYMid meet">
<metadata>
Created by potrace 1.10, written by Peter Selinger 2001-2011
</metadata>
<g transform="translate(0.000000,240.000000) scale(0.100000,-0.100000)"
fill="#000000" stroke="none">
<path d="M2280 1959 c-36 -4 -121 -12 -190 -18 -69 -5 -143 -14 -165 -20 -22
-6 -69 -11 -105 -11 -67 0 -150 -26 -150 -47 0 -18 56 -32 179 -44 63 -6 119
-13 124 -16 4 -2 79 -7 165 -10 86 -3 159 -7 160 -8 2 -2 1 -12 -2 -23 -7 -22
-277 -301 -347 -359 -25 -21 -68 -56 -95 -78 -26 -22 -64 -54 -84 -71 -44 -39
-197 -154 -204 -154 -3 0 -20 -13 -38 -30 -18 -16 -36 -30 -40 -30 -4 0 -45
-27 -90 -60 -138 -99 -160 -115 -228 -156 -36 -21 -67 -42 -70 -45 -3 -4 -41
-27 -85 -53 -44 -25 -87 -51 -95 -56 -8 -6 -24 -15 -35 -20 -11 -6 -33 -19
-50 -29 -16 -11 -152 -80 -301 -155 -258 -129 -321 -166 -279 -166 23 0 92 19
132 36 17 8 42 14 55 14 12 0 32 7 42 15 11 8 28 15 38 15 9 0 32 6 50 14 18
8 74 31 123 51 112 46 195 83 215 96 8 5 22 12 30 15 32 13 96 46 125 64 17
10 66 37 110 60 44 23 92 49 106 58 14 9 66 41 115 71 49 29 127 79 174 110
47 30 93 60 102 66 14 9 81 55 188 131 19 14 59 44 88 67 29 23 71 57 95 75
65 52 195 171 250 230 28 28 54 52 58 52 14 0 10 -35 -6 -66 -8 -16 -15 -38
-15 -49 -1 -11 -7 -31 -15 -45 -8 -14 -14 -37 -15 -51 0 -14 -7 -34 -15 -45
-8 -10 -15 -32 -15 -49 0 -16 -7 -39 -15 -49 -8 -11 -15 -31 -15 -45 -1 -14
-7 -37 -15 -51 -19 -34 -20 -130 -1 -130 7 0 16 8 20 18 3 9 11 26 18 37 7 11
25 39 41 63 15 24 27 49 27 57 0 8 4 16 10 20 8 5 63 115 143 285 17 36 34 72
39 80 4 8 11 22 14 30 11 28 37 85 45 100 5 8 14 25 19 38 5 13 21 46 34 75
13 29 29 69 36 89 11 35 9 41 -17 78 l-28 40 -140 -2 c-77 0 -169 -5 -205 -9z"/>
</g>
</svg>
