<?xml version="1.0" standalone="no"?>
<!DOCTYPE svg PUBLIC "-//W3C//DTD SVG 20010904//EN"
 "http://www.w3.org/TR/2001/REC-SVG-20010904/DTD/svg10.dtd">
<svg version="1.0" xmlns="http://www.w3.org/2000/svg"
 width="447.000000pt" height="303.000000pt" viewBox="0 0 447.000000 303.000000"
 preserveAspectRatio="xMidYMid meet">
<metadata>
Created by potrace 1.10, written by Peter Selinger 2001-2011
</metadata>
<g transform="translate(0.000000,303.000000) scale(0.100000,-0.100000)"
fill="#000000" stroke="none">
<path d="M3870 2560 c-30 -22 -62 -43 -71 -48 -9 -4 -29 -17 -45 -30 -70 -54
-178 -132 -184 -132 -3 0 -15 -8 -26 -17 -32 -29 -347 -244 -406 -278 -10 -5
-66 -40 -125 -76 -60 -36 -115 -69 -123 -72 -8 -4 -28 -16 -45 -27 -16 -10
-52 -31 -80 -46 -27 -14 -90 -48 -140 -74 -93 -51 -432 -220 -545 -272 -36
-17 -72 -35 -80 -39 -8 -5 -22 -12 -30 -15 -24 -8 -70 -29 -140 -63 -36 -17
-71 -31 -77 -31 -6 0 -24 -6 -40 -14 -49 -25 -98 -45 -228 -93 -22 -8 -55 -21
-73 -29 -18 -8 -39 -14 -47 -14 -8 0 -29 -6 -47 -14 -51 -21 -99 -37 -138 -46
-19 -4 -48 -13 -65 -18 -28 -10 -64 -19 -212 -56 -59 -15 -181 -40 -241 -50
-38 -7 -53 14 -30 42 7 9 28 46 45 82 17 36 58 121 91 190 56 117 90 190 131
285 10 22 25 57 34 78 9 21 17 44 17 52 0 14 20 66 46 118 20 42 29 107 15
107 -41 0 -105 -65 -199 -204 -41 -61 -88 -127 -103 -147 -16 -20 -29 -41 -29
-47 0 -6 -3 -12 -7 -14 -15 -6 -266 -379 -289 -428 -4 -8 -19 -31 -34 -50 -15
-19 -30 -42 -33 -50 -4 -8 -16 -28 -27 -45 -11 -16 -24 -39 -30 -50 -6 -11
-19 -33 -29 -50 -51 -79 -64 -116 -58 -165 12 -99 59 -143 163 -154 63 -6 161
-19 316 -42 53 -8 114 -14 134 -14 20 0 75 -6 123 -14 183 -31 462 -54 664
-55 115 -1 127 1 127 17 0 9 -10 24 -22 32 -46 29 -88 50 -103 50 -8 0 -29 6
-47 14 -31 13 -74 25 -158 46 -34 8 -55 14 -130 40 -19 7 -53 16 -75 20 -22 5
-71 18 -110 30 -38 12 -89 25 -113 29 -83 15 -81 45 4 61 57 10 128 31 244 70
19 6 49 15 65 20 17 5 55 18 85 30 30 12 69 26 87 31 18 5 35 14 38 19 4 6 15
10 25 10 10 0 31 6 47 14 15 8 44 21 63 29 156 67 375 171 535 257 50 26 110
58 135 71 25 13 77 42 115 64 39 23 77 45 85 49 8 4 24 12 35 19 100 60 192
114 214 126 126 68 537 357 706 496 248 204 535 478 535 510 0 25 -32 16 -90
-25z"/>
</g>
</svg>
