<svg id="Layer_1" data-name="Layer 1" xmlns="http://www.w3.org/2000/svg" viewBox="0 0 300 300"><path d="M450.5,300a150,150,0,1,1-150-150A150,150,0,0,1,450.5,300Z" transform="translate(-150.5 -150)" fill="#f3b43e"/><rect x="131.52" y="232.9" width="36.96" height="45.25" fill="#865b2f"/><path d="M300.5,450a149.37,149.37,0,0,0,72.4-18.62c-6.64-8.65-18.78-13.24-46-21.89L319,404.11,300.5,414,282,404.11l-8.15,5.73c-27.23,8.63-39.19,13-45.75,21.55A149.31,149.31,0,0,0,300.5,450Z" transform="translate(-150.5 -150)" fill="#4e9caf"/><path d="M281.34,434.11l-7.87-21.76a1.43,1.43,0,1,1,2.69-1l6.48,17.91,16.91-14.16a1.43,1.43,0,1,1,1.84,2.19Z" transform="translate(-150.5 -150)" fill="#2d7e9e"/><path d="M319.59,434.11l-20-16.79a1.43,1.43,0,1,1,1.84-2.19l16.92,14.17,6.57-17.7a1.43,1.43,0,1,1,2.68,1Z" transform="translate(-150.5 -150)" fill="#2d7e9e"/><path d="M360.41,237.53c-11.56-16.63-28.37-28.89-48.26-29.69l-1,0a116.86,116.86,0,0,0-11.87-.39,68.86,68.86,0,0,0-9.79.39l-1,0c-19.89.8-36.2,13.41-48.26,29.69-20,27-10.75,64.94-10.75,93.77,0,47.32,41.87,63.37,69.82,63.37s72.36-16.39,72.36-63.37C371.62,302.6,380.81,266.86,360.41,237.53Z" transform="translate(-150.5 -150)" fill="#865b2f"/><path d="M343.25,318.29c-2.47,14.07,5.86,25.79,18.64,28.31s25.13-5.09,27.6-19.17-5.86-27.53-18.64-30.05S345.72,304.21,343.25,318.29Z" transform="translate(-150.5 -150)" fill="#865b2f"/><path d="M253.38,318.32c2.46,13.95-1.71,25.56-14.37,28.07s-24.91-5.06-27.36-19,5.82-27.28,18.48-29.78S250.93,304.37,253.38,318.32Z" transform="translate(-150.5 -150)" fill="#865b2f"/><path d="M271.24,312.09c0,5.56-3.79,10.06-8.48,10.06s-8.48-4.5-8.48-10.06,3.8-10.07,8.48-10.07S271.24,306.52,271.24,312.09Z" transform="translate(-150.5 -150)" fill="#331907"/><path d="M344.91,312.09c0,5.56-3.8,10.06-8.49,10.06s-8.48-4.5-8.48-10.06,3.8-10.07,8.48-10.07S344.91,306.52,344.91,312.09Z" transform="translate(-150.5 -150)" fill="#331907"/><path d="M292.94,344.31h-.21a2.73,2.73,0,0,1-2.62-2.85c.37-4.8.94-23.65.94-29.42a2.84,2.84,0,0,1,5.66,0c0,5.46-.55,24.47-.95,29.8A2.77,2.77,0,0,1,292.94,344.31Z" transform="translate(-150.5 -150)" fill="#5f3a1b"/><path d="M271.78,385.36a24.34,24.34,0,0,0,12,12.48,37.38,37.38,0,0,0,16.72,3.73c6.79,0,12.4-2.05,17.41-4.45,5.4-2.57,9.22-7.39,11.57-12.9l3.18-8.14c-2.51,1-7.35-.93-8.6,2.28-2.38,6.11-7.8,6.22-10.26,5.49-5.5-1.62-6.82-7.07-7.22-11.49-.22-2.46-3.54-1.58-6.06-1.66-2.51.08-5.74-.78-6.1,1.66-.7,4.7-1.44,11.7-9.11,11.7a9.39,9.39,0,0,1-8.08-5.8c-1.42-3.14-6.17-.2-9.12-1.35Z" transform="translate(-150.5 -150)" fill="#331907"/><path d="M275.5,359.64c9.46,19.25,44.28,12.48,46.68-.88Z" transform="translate(-150.5 -150)" fill="#fff"/><path d="M298,374h0c-11.49,0-20.46-4.84-24.61-13.27a2.4,2.4,0,0,1,.1-2.27,2.38,2.38,0,0,1,2-1.13l46.68-.88a2.37,2.37,0,0,1,1.84.83,2.32,2.32,0,0,1,.52,1.94C322.84,368.42,309.72,374,298,374Zm-18.25-12c5.36,6.54,14.29,7.33,18.25,7.33,9,0,17.47-3.48,20.64-8.06Z" transform="translate(-150.5 -150)" fill="#5f3a1b"/><path d="M332.56,356.6c-5.89-9.12-22.25-4.89-30.22-5.31-.76,0-2.92,0-3.68,0-8,.42-25-3.67-30.76,5.52-5.28,8.39.52,22.69,3.11,27.25,2.31,4.07,12.18,8.35,6.63-5.08a23.35,23.35,0,0,1-1.94-11.2c.68-6.69,6.6-6.88,19.37-6.2h10.86c12.65-.86,18.16-.66,18.85,7.08A23.9,23.9,0,0,1,323.44,380c-5,13.63,5.35,6.47,6.94,2.07S338.45,365.72,332.56,356.6Z" transform="translate(-150.5 -150)" fill="#331907"/><path d="M350.71,292.81a3.3,3.3,0,0,0,2.08-.67,2.28,2.28,0,0,0,.15-3.6c-4-3.65-11.49-4.74-17.15-4.56-3,.1-10.16.72-13.53,4.35a2.3,2.3,0,0,0,.52,3.58C324.09,292.78,349.92,292.8,350.71,292.81Z" transform="translate(-150.5 -150)" fill="#331907"/><path d="M250,292.81a3.3,3.3,0,0,1-2.08-.67,2.28,2.28,0,0,1-.14-3.6c4-3.65,11.48-4.74,17.15-4.56,2.94.1,10.15.72,13.52,4.35a2.31,2.31,0,0,1-.51,3.58C276.64,292.78,250.8,292.8,250,292.81Z" transform="translate(-150.5 -150)" fill="#331907"/></svg>