<svg id="Layer_1" data-name="Layer 1" xmlns="http://www.w3.org/2000/svg" viewBox="0 0 300 300"><path d="M450.5,300a150,150,0,1,1-150-150A150,150,0,0,1,450.5,300Z" transform="translate(-150.5 -150)" fill="#87c6db"/><rect x="131.52" y="232.9" width="36.96" height="45.25" fill="#bc784a"/><path d="M300.5,450a149.37,149.37,0,0,0,72.4-18.62c-6.64-8.65-18.78-13.24-46-21.89L319,404.11,300.5,414,282,404.11l-8.15,5.73c-27.23,8.63-39.19,13-45.75,21.55A149.31,149.31,0,0,0,300.5,450Z" transform="translate(-150.5 -150)" fill="#ff9cbd"/><path d="M281.34,434.11l-7.87-21.76a1.43,1.43,0,1,1,2.69-1l6.48,17.91,16.91-14.16a1.43,1.43,0,1,1,1.84,2.19Z" transform="translate(-150.5 -150)" fill="#d67294"/><path d="M319.59,434.11l-20-16.79a1.43,1.43,0,1,1,1.84-2.19l16.92,14.17,6.57-17.7a1.43,1.43,0,1,1,2.68,1Z" transform="translate(-150.5 -150)" fill="#d67294"/><path d="M360.41,237.53c-11.56-16.63-28.37-28.89-48.26-29.69l-1,0V207s-6.91.19-11.88.39l-9.8-.39v.78l-1,0c-19.89.8-36.2,13.41-48.26,29.69-20,27-10.75,64.94-10.75,93.77,0,47.32,41.87,63.37,69.82,63.37s72.36-16.39,72.36-63.37C371.62,302.6,380.81,266.86,360.41,237.53Z" transform="translate(-150.5 -150)" fill="#bc784a"/><path d="M343.25,318.29c-2.47,14.07,5.86,25.79,18.64,28.31s25.13-5.09,27.6-19.17-5.86-27.53-18.64-30.05S345.72,304.21,343.25,318.29Z" transform="translate(-150.5 -150)" fill="#bc784a"/><path d="M253.38,318.32c2.46,13.95-1.71,25.56-14.37,28.07s-24.91-5.06-27.36-19,5.82-27.28,18.48-29.78S250.93,304.37,253.38,318.32Z" transform="translate(-150.5 -150)" fill="#bc784a"/><path d="M327.51,348.3c-11.11,25.47-48.21,18.12-54.11.19a2,2,0,0,1,1.79-2.71l50.88,0C327.41,345.73,328.11,346.92,327.51,348.3Z" transform="translate(-150.5 -150)" fill="#fff"/><path d="M321.44,340.68c-7.72-3.92-16.05-4.22-20.94-4.18s-13.22.26-20.94,4.18a25.47,25.47,0,0,0-10.92,10.6c-.81,1.5.49,3.21,2.41,3.21H330c1.92,0,3.22-1.71,2.41-3.21A25.47,25.47,0,0,0,321.44,340.68Z" transform="translate(-150.5 -150)" fill="#331907"/><path d="M379,292.52s17.4-54.53-30.6-87.1c-20.67-14-59.64-13.09-83.61-5.28-16.69,5.45-30.4,16.81-37.5,32.88-13,29.45-5.25,59.5-5.25,59.5,0,3.3,2.51,6.72,3.59,8.89a23,23,0,0,1,2.78,10.3v28a64.12,64.12,0,0,0,4.31,23.87c12.14,30.32,45,43.42,66.47,43.42l1.33,0,1.33,0c21.48,0,54.33-13.1,66.47-43.42a64.12,64.12,0,0,0,4.31-23.87v-28c0-4.21,1.44-5.44,2.63-9.47C376.06,299.46,379,295.82,379,292.52Zm-62,82.69c-5.73.13-7.63-1.12-8.29-3.8-.58-2.4-5.23-3.08-7.75-3.16H300c-2.52.08-7.17.76-7.75,3.16-.66,2.68-2.56,3.93-8.29,3.8-24.45-.57-42.34-13.94-46.11-42.58a75.76,75.76,0,0,1-.57-10c-.53-21.37-.82-41.74,0-57.53,0-11.25,6.3-16.12,11.47-16.12,11.93,0,13.18,3.73,49.44,3.73,32.08,0,39.39-4.85,51.4-4.85,7.5,0,14.07,5.56,14.07,17.33,1.22,14.82.84,34.87,0,56.4a68.43,68.43,0,0,1-1.35,14.28C357.18,360.21,340.29,374.67,317,375.21Z" transform="translate(-150.5 -150)" fill="#331907"/><path d="M294,334h-.21a2.81,2.81,0,0,1-2.61-3c.36-5.09.48-14.36.48-20.48a2.83,2.83,0,0,1,5.66,0c0,5.79-.1,15.23-.5,20.89A2.83,2.83,0,0,1,294,334Z" transform="translate(-150.5 -150)" fill="#754423" opacity="0.6"/><path d="M249.39,294.57a2.82,2.82,0,0,1-2-4.78c3.8-4,10.87-5.12,16.21-4.84,2.77.15,9.56.94,12.69,5a2.83,2.83,0,0,1-4.5,3.44c-.9-1.18-3.94-2.56-8.5-2.81-5.05-.26-9.79,1-11.81,3.09A2.83,2.83,0,0,1,249.39,294.57Z" transform="translate(-150.5 -150)" fill="#331907"/><path d="M349.67,294.29a2.83,2.83,0,0,0,2.05-4.78c-3.81-4-10.87-5.11-16.21-4.83-2.77.15-9.56.93-12.69,5a2.83,2.83,0,1,0,4.49,3.44c.91-1.18,3.95-2.56,8.51-2.8,5.05-.27,9.79,1,11.8,3.08A2.86,2.86,0,0,0,349.67,294.29Z" transform="translate(-150.5 -150)" fill="#331907"/><path d="M249.87,311.2a3.28,3.28,0,0,1-1.89-.59,2.73,2.73,0,0,1-1.17-1.86,2.62,2.62,0,0,1,.61-2,17.81,17.81,0,0,1,13.43-6.34h.38a17.48,17.48,0,0,1,13.18,5.79,2.62,2.62,0,0,1,.65,2,2.79,2.79,0,0,1-1.13,1.94,3.37,3.37,0,0,1-1.95.67h0a3.26,3.26,0,0,1-2.48-1.05,11.07,11.07,0,0,0-8.35-3.69h-.24a11.28,11.28,0,0,0-8.49,4A3.33,3.33,0,0,1,249.87,311.2Z" transform="translate(-150.5 -150)" fill="#3a1e0a"/><path d="M326.08,311a3.36,3.36,0,0,1-1.95-.61,2.79,2.79,0,0,1-1.18-1.9,2.57,2.57,0,0,1,.6-2,17.5,17.5,0,0,1,13.41-6.1,17.94,17.94,0,0,1,13.59,5.95,2.61,2.61,0,0,1,.66,2,2.69,2.69,0,0,1-1.12,1.88,3.38,3.38,0,0,1-4.45-.46,11.29,11.29,0,0,0-8.52-3.78,11.12,11.12,0,0,0-8.55,3.89,3.24,3.24,0,0,1-2.46,1.11Z" transform="translate(-150.5 -150)" fill="#3a1e0a"/></svg>