<svg id="Layer_1" data-name="Layer 1" xmlns="http://www.w3.org/2000/svg" viewBox="0 0 300 300"><path d="M450.5,300a150,150,0,1,1-150-150A150,150,0,0,1,450.5,300Z" transform="translate(-150.5 -150)" fill="#ec6f46"/><path d="M343.93,318.61c-2.41,13.7,5.7,25.11,18.14,27.57s24.46-5,26.87-18.67-5.71-26.79-18.15-29.25S346.33,304.91,343.93,318.61Z" transform="translate(-150.5 -150)" fill="#865b2f"/><path d="M257.17,318.61c2.41,13.7-5.71,25.11-18.15,27.57s-24.46-5-26.86-18.67,5.71-26.79,18.14-29.25S254.77,304.91,257.17,318.61Z" transform="translate(-150.5 -150)" fill="#865b2f"/><path d="M362.6,234.9c-12.15-16.49-31.08-27.32-51.18-28.12l-1,0a69.21,69.21,0,0,0-9.88-.4,69.21,69.21,0,0,0-9.88.4l-1,0c-20.1.8-39,11.63-51.17,28.12s-13.77,37.3-12.81,57.21c.72,15,3.39,30.76,4.13,45.81,12.2,45.61,42.53,57.69,70.77,57.69s59.58-12.08,70.76-57.69c.75-15.05,3.41-30.77,4.14-45.81C376.36,272.2,374.74,251.41,362.6,234.9Z" transform="translate(-150.5 -150)" fill="#865b2f"/><rect x="131.52" y="232.9" width="36.96" height="50.54" fill="#865b2f"/><path d="M300.5,450a149.37,149.37,0,0,0,72.4-18.62c-6.64-8.65-18.78-12.11-46-20.76L319,408.39,300.5,430.68,282,408.39,273.87,411c-27.23,8.63-39.19,11.89-45.75,20.42A149.31,149.31,0,0,0,300.5,450Z" transform="translate(-150.5 -150)" fill="#403c3d"/><path d="M270.41,312.64c0,5.56-3.79,10.07-8.48,10.07s-8.49-4.51-8.49-10.07,3.8-10.07,8.49-10.07S270.41,307.08,270.41,312.64Z" transform="translate(-150.5 -150)" fill="#331907"/><path d="M347.6,312.64c0,5.56-3.8,10.07-8.49,10.07s-8.48-4.51-8.48-10.07,3.8-10.07,8.48-10.07S347.6,307.08,347.6,312.64Z" transform="translate(-150.5 -150)" fill="#331907"/><path d="M295.63,347h-.21a2.82,2.82,0,0,1-2.62-3c.37-5.09.94-25.1.94-31.22a2.83,2.83,0,1,1,5.65,0c0,5.79-.54,26-.95,31.62A2.83,2.83,0,0,1,295.63,347Z" transform="translate(-150.5 -150)" fill="#5f3a1b"/><path d="M249.71,294.07a3.55,3.55,0,0,1-3.5-5.43c3.36-4.59,10.56-7.28,16.23-7.48,6.85-.24,10.94,1.31,14.22,5.42,1,1.24.61,3.76-2.08,4.59C273,291.65,263.91,288.58,249.71,294.07Z" transform="translate(-150.5 -150)" fill="#331907"/><path d="M352.4,295.38a3.09,3.09,0,0,0,2.07-.78,2.71,2.71,0,0,0,.1-4c-4-4-11.54-5.12-17.2-4.84-2.94.15-10.15.94-13.47,5a2.72,2.72,0,0,0,.55,4C325.77,295.69,351.61,295.38,352.4,295.38Z" transform="translate(-150.5 -150)" fill="#331907"/><path d="M299.19,368c7.36,0,15.65-1.92,20.51-6.72a2.83,2.83,0,0,0-4-4c-4.06,4-13.09,6-21.49,4.74-5.62-.85-9.89-3.07-11.42-5.95a2.83,2.83,0,0,0-5,2.67c2.44,4.57,8,7.72,15.56,8.87A39.45,39.45,0,0,0,299.19,368Z" transform="translate(-150.5 -150)" fill="#5f3a1b"/><path d="M229.69,310.16c.89-18.85,1.13-52.94,17.45-52.94,12.08,0,15.36,2.81,52.06,2.81,32.48,0,41.92-3.75,54.08-3.75,13,0,16.25,17.76,16.51,42.39,0,5.08.39,10.15.68,15.22.17,3,.38,5.94.53,8.91.06,1.21.36,4.44,1.91,4.13,1.73-.34,1.93-6.87,2.11-8.27a237.11,237.11,0,0,0,1.56-29.78c0-18.26,5.18-53.42-27.2-75.32-19.91-13.48-61.09-14.82-84-7.18-16,5.31-31.27,19.15-37,35.28-6.25,17.7-6.09,31.54-4,66.61.22,3.81.66,7.62,1.18,11.39a73,73,0,0,0,1.26,7.53c1.3,5.36,3.12,1.54,3.06-1.8C229.8,320.3,229.45,315.26,229.69,310.16Z" transform="translate(-150.5 -150)" fill="#754e27"/></svg>