<svg id="Layer_1" data-name="Layer 1" xmlns="http://www.w3.org/2000/svg" viewBox="0 0 300 300"><path d="M450.5,300a150,150,0,1,1-150-150A150,150,0,0,1,450.5,300Z" transform="translate(-150.5 -150)" fill="#6daf6d"/><path d="M272.54,373.13c-1.7-2.25-5.53-3.72-7.73-1-6.34,7.85-6.17,20.21-7.19,30a93.88,93.88,0,0,0-.6,9.39c-.17-.61-.33-1.23-.45-1.87-1.28-7.13-.2-14.91.86-22,1.57-10.51,6.08-25.41-.23-35.11a3.57,3.57,0,0,0-3.85-1.57l-.75.11c-1.47.23-2,1.92-1.78,3.15.54,3.53-2.57-8.47-3.49-4.92-1,3.92-2.1,26.54-3.11,30.48-1.83,7.21-3.66,14.45-3.91,21.93-.36,10.49,1.3,27.49,13.47,30.39a5.76,5.76,0,0,0,7.12-4.52,15.66,15.66,0,0,0,2.72,3,2.81,2.81,0,0,0,4.62-1.22c1.51-4.07,1.22-7.66,1.59-12,.55-6.4,2.1-12.68,3.35-19C274.83,390.16,278.06,380.44,272.54,373.13Z" transform="translate(-150.5 -150)" fill="#331907"/><path d="M286.41,399.45c-1.84-6.86-3-13.4-6.75-19.54-.63-1-2.51-1.43-3.12-.1-3.23,7-3.6,13.63-2.74,21.27.74,6.56,2.1,16.8,9.81,18.32,1.86.36,4.2,0,5.18-1.93C292,411.35,288.07,405.61,286.41,399.45Z" transform="translate(-150.5 -150)" fill="#331907"/><path d="M358.45,376C353,359.21,347.3,343.79,344,327c-.55-2.8.44-5.27,2.22-2.85,9.37,12.78,16.25,27.14,23.22,44.79,6,15.16,15.18,39,11,48.86-1,2.38-3.15,3.47-5.75.11C366.22,407,363.36,391,358.45,376Z" transform="translate(-150.5 -150)" fill="#331907"/><path d="M239.39,375c4.84-16.95,9.93-32.58,12.62-49.5.45-2.83-.64-5.25-2.32-2.76-8.88,13.11-15.22,27.73-21.52,45.63-5.41,15.37-13.7,39.51-9.13,49.24,1.09,2.34,3.27,3.34,5.74-.11C232.8,406.26,235.05,390.16,239.39,375Z" transform="translate(-150.5 -150)" fill="#331907"/><path d="M229.64,350.6c8.34-15.53,16.65-29.71,22.89-45.66,1-2.67.49-5.27-1.68-3.2-11.48,10.92-20.78,23.85-30.76,40-8.56,13.87-19,37.92-15.39,48,.87,2.44,2.94,3.65,5.73.46C219.5,379.87,222.16,364.54,229.64,350.6Z" transform="translate(-150.5 -150)" fill="#331907"/><path d="M366.24,354.06c-10.9-13.85-21.54-26.38-30.45-41-1.48-2.44-1.4-5.1,1.1-3.44,13.2,8.77,24.6,19.89,37.22,34.07,10.84,12.17,25.27,34.05,23.48,44.64-.43,2.55-2.26,4.1-5.57,1.45C381.3,381.13,376,366.49,366.24,354.06Z" transform="translate(-150.5 -150)" fill="#331907"/><path d="M357.16,395.46c-1.27-11,3.23-33.2,1.38-44.15-.28-1.68-7.29,9.22-8,10.62-5.86,10.83-7.35,23.23-6.95,35.44.08,2.45.17,5.17.37,8a38.19,38.19,0,0,1-1.07-3.69c-1.6-7.2,1.72-35.87-3-42.06.3-.67-3.46,17.75-3.17,17.07a1.72,1.72,0,0,0-2.34-2.33c-.93.46-1.81,1-2.68,1.52a2.12,2.12,0,0,0-1.17.77c-6.54,4.41-11.21,10.76-14.36,18.2-2.87,6.76-7.59,18.24-.84,24,1.29,1.11,3.39,1.71,4.93.64,6.07-4.24,5.16-12,7-18.59.2-.77.44-1.53.67-2.28.48,3.5,1.11,6.88,1.58,9.82,1.46,9,4.37,20.88,15,21.78a4.86,4.86,0,0,0,4.69-3.57,2,2,0,0,0,0-.24,18.8,18.8,0,0,0,3.7,4.5c2.7,2.34,7,1.54,8.06-2.13C363.85,418.46,358.36,405.92,357.16,395.46Z" transform="translate(-150.5 -150)" fill="#331907"/><path d="M343.93,318.61c-2.41,13.7,5.7,25.11,18.14,27.57s24.46-5,26.87-18.67-5.71-26.79-18.15-29.25S346.33,304.91,343.93,318.61Z" transform="translate(-150.5 -150)" fill="#7c522c"/><path d="M257.17,318.61c2.41,13.7-5.71,25.11-18.15,27.57s-24.46-5-26.86-18.67,5.71-26.79,18.14-29.25S254.77,304.91,257.17,318.61Z" transform="translate(-150.5 -150)" fill="#7c522c"/><path d="M362.6,230.61c-12.15-16.49-31.08-27.32-51.18-28.12l-1,0,0-.78-9.91.39-9.9-.39,0,.78-1,0c-20.1.8-39,11.63-51.17,28.12s-13.77,37.3-12.81,57.22c.72,15,3.39,35,4.13,50.09,12.2,45.61,42.53,53.4,70.77,53.4s59.58-7.79,70.76-53.4c.75-15.05,3.41-35.05,4.14-50.09C376.36,267.91,374.74,247.12,362.6,230.61Z" transform="translate(-150.5 -150)" fill="#7c522c"/><rect x="131.52" y="232.9" width="36.96" height="45.25" fill="#7c522c"/><path d="M270.76,311.13c0,5.56-3.79,10.07-8.48,10.07s-8.48-4.51-8.48-10.07,3.8-10.07,8.48-10.07S270.76,305.57,270.76,311.13Z" transform="translate(-150.5 -150)" fill="#331907"/><path d="M348,311.13c0,5.56-3.79,10.07-8.48,10.07S331,316.69,331,311.13s3.8-10.07,8.49-10.07S348,305.57,348,311.13Z" transform="translate(-150.5 -150)" fill="#331907"/><path d="M250,297.17a2.83,2.83,0,0,1-2-4.78c3.81-4,10.87-5.12,16.21-4.84,2.77.16,9.56.94,12.69,5a2.83,2.83,0,0,1-4.49,3.44c-.91-1.18-3.95-2.56-8.51-2.8-5.05-.27-9.79,1-11.8,3.08A2.86,2.86,0,0,1,250,297.17Z" transform="translate(-150.5 -150)" fill="#331907"/><path d="M296,345.5h-.2a2.83,2.83,0,0,1-2.62-3c.37-5.09.93-25.1.93-31.22a2.83,2.83,0,0,1,5.66,0c0,5.79-.54,26-.95,31.63A2.83,2.83,0,0,1,296,345.5Z" transform="translate(-150.5 -150)" fill="#563217"/><path d="M300.5,450a149.37,149.37,0,0,0,72.4-18.62c-6.64-8.65-18.78-13.24-46-21.89L319,404.11,300.5,414,282,404.11l-8.15,5.73c-27.23,8.63-39.19,13-45.75,21.55A149.31,149.31,0,0,0,300.5,450Z" transform="translate(-150.5 -150)" fill="#fff"/><path d="M281.34,434.11l-7.87-21.76a1.43,1.43,0,1,1,2.69-1l6.48,17.91,16.91-14.16a1.43,1.43,0,1,1,1.84,2.19Z" transform="translate(-150.5 -150)" fill="#b0adb2"/><path d="M319.59,434.11l-20-16.79a1.43,1.43,0,1,1,1.84-2.19l16.92,14.17,6.57-17.7a1.43,1.43,0,1,1,2.68,1Z" transform="translate(-150.5 -150)" fill="#b0adb2"/><path d="M322,358.65c-10.33,18.8-44.81,10.43-46.58-3Z" transform="translate(-150.5 -150)" fill="#fff"/><path d="M273,355.93a2.35,2.35,0,0,1,2.49-2.65l46.59,3a2.36,2.36,0,0,1,1.91,3.49c-4.53,8.23-13.71,12.65-25.19,12.12h0C287.12,371.37,274.27,365.25,273,355.93Zm5.76,2.28c3,4.72,11.25,8.58,20.25,9,4,.18,12.92-.19,18.57-6.48Z" transform="translate(-150.5 -150)" fill="#563217"/><path d="M351.91,297.17a2.84,2.84,0,0,1-2.05-.88c-2.06-2.16-6.92-3.4-12.08-3.07-4.45.27-7.37,1.62-8.21,2.75a2.83,2.83,0,0,1-4.55-3.36c3-4,9.67-4.87,12.41-5,5.44-.34,12.65.75,16.52,4.82a2.82,2.82,0,0,1-2,4.78Z" transform="translate(-150.5 -150)" fill="#331907"/><path d="M386.63,283c-.25-.14-.52-.26-.79-.38,5-3.71,6.27-11.7,4.52-17.46a13.37,13.37,0,0,0-5.53-7.11,7.41,7.41,0,0,0-2.48-.84c4.09-5.37,5.27-13.45,1.66-19.34a13.62,13.62,0,0,0-10.22-6.77A16,16,0,0,0,373,218a19.11,19.11,0,0,0-15.95-9.83c-5.16-10.65-16.73-15.36-28.37-12.94-7.77-4.91-21.17-8.11-27.36-2.22-6.91-6.06-19.17-1.52-24.81,2.17-8.85-3.37-17.6.66-23.75,8.18-6.31.07-15.55,6.53-16.78,14.19-6.53,2.15-11.58,8.84-10.63,15.93a9.19,9.19,0,0,0,.36,1.59,13.84,13.84,0,0,0-6.75,5.67,16.55,16.55,0,0,0-1.46,13.48c-.11.17-.23.34-.33.52-2.08,3.93-1.82,9.25,1.6,12.41.11.1.24.18.36.28a9.39,9.39,0,0,0-5,3.35c-2.79,3.62-2.92,9.62.76,12.83a14.31,14.31,0,0,0,3.87,2.54l-.54.23-1.87,1.44a7,7,0,0,0-1.91,3,4.55,4.55,0,0,0-.63,2.33,4.67,4.67,0,0,0,0,2.46,9.07,9.07,0,0,0,1.82,4.37,4.66,4.66,0,0,0,1.65,1.65,9.07,9.07,0,0,0,4.37,1.82,7,7,0,0,0,3.68-.16,16.17,16.17,0,0,0,2.35-1,9.27,9.27,0,0,0,2.59-2.4,8.27,8.27,0,0,0,.74-1,8.16,8.16,0,0,0,1.17-4.29v-.19a11.11,11.11,0,0,0-1.33-4.74l-1.44-1.87-1.4-1.08a9,9,0,0,0,4.34-3.49c2.34-3.2.74-8.23-1.92-11.69a13.49,13.49,0,0,0,6.66-1.5c2-1.11,3.88-3.87,3.6-6.27a17.23,17.23,0,0,0-.64-3.36c2.92,1.21,6,1.21,8.11-2.1,1.85-2.88,1.2-6-.29-8.85,5.77,4.38,11.76,6.72,12.62-1.22.4-3.67-1.77-7.66-3.66-10.46-2.21-3.27-4.25-4.94-6.63-8.16.78,1.06,4.28.7,8.9,6.88,2.9,3.89,3.87,9.77,8.37,10.39,1.52.22,5-1.75,5.66-3.31,4.21-9.36-1.71-16.41-2.46-25.42.1,1.18,3,8,3.49,9.69a51,51,0,0,0,4.4,11.31c1.77,3.41,8.63,3.11,10.32-.56,2.17-4.67,1.7-8.22,1.8-13.26a141.74,141.74,0,0,1,1.13-16.18c2.71,8.38,0,17.85,2.17,26.5,1.33,5.36,9.93,5.81,12.45,1.29,2.21-4,2.77-9.11,2.89-13.66a34.61,34.61,0,0,1,3.31-13.62c-.4,8.9-4.24,19,.29,28.8,1.7,3.66,8.59,3.83,10.36.41,2.36-4.54,2.1-7.31,3.6-12.16a17.26,17.26,0,0,1,7.62-9.68c-1.09.68-2.72,4.24-3.47,5.44-1.31,2.06-2.06,4.94-2.77,7.28-1.42,4.65-1.81,15.65,6.08,15.2,4.43-.25,6-4.82,8.7-7.74,3.72-4.05,5.51-7.05,10.78-7.37-2.12.13-7.25,6.48-8.5,8.3-2,2.83-4.46,6.45-4.06,10.09s4.42,7.29,8.06,4.63c4.78-3.5,9.84-6.52,14.87-9.64-3.38,6.78-11.94,11.37-12.77,19.18a6.87,6.87,0,0,0,3.53,6.16,13.48,13.48,0,0,0,9.93.22,14,14,0,0,0-4.37,6.18,7,7,0,0,0,3.18,7.8c3.29,2,6.67,2.2,11,1.15.16.09-2.77,1.52-4.56,2.93a12.07,12.07,0,0,0-4.06,5.27c-.89,2.16.65,4.51,2.32,5.7,2,1.43,3.26,2.54,9.2,4.2a9.77,9.77,0,0,0,8.48-1.08,9.59,9.59,0,0,0,4.63-6.4,11.84,11.84,0,0,0-.17-5.94A9.56,9.56,0,0,0,386.63,283Z" transform="translate(-150.5 -150)" fill="#331907"/><path d="M321.27,388.67c-6.66.85-13.51.12-14.07-4.75-.67-5.74-10.63-5.74-11.3,0-.57,4.87-6.45,6.19-13.08,5.11-3.85-.63-8.43-1.06-6.06,1.52,2,2.18,2.44,4,5,5.43,10.87,5.83,28.74,5.6,39.6-.24C323.51,394.6,331.6,387.37,321.27,388.67Z" transform="translate(-150.5 -150)" fill="#331907"/></svg>