<svg id="Layer_1" data-name="Layer 1" xmlns="http://www.w3.org/2000/svg" viewBox="0 0 300 300"><path d="M450.5,300a150,150,0,1,1-150-150A150,150,0,0,1,450.5,300Z" transform="translate(-150.5 -150)" fill="#6ebbc5"/><path d="M345.16,317.63c-2.36,13.43,5.6,24.61,17.8,27s24-4.87,26.34-18.3-5.6-26.28-17.79-28.68S347.52,304.19,345.16,317.63Z" transform="translate(-150.5 -150)" fill="#f4cd98"/><path d="M256.26,317.63c2.37,13.43-5.6,24.61-17.79,27s-24-4.87-26.35-18.3,5.61-26.28,17.8-28.68S253.9,304.19,256.26,317.63Z" transform="translate(-150.5 -150)" fill="#f4cd98"/><rect x="132.09" y="237.24" width="36.96" height="45.25" fill="#f4cd98"/><path d="M338.42,419.77,338,419a.69.69,0,0,0-.59-.39l-7.84-2.67v1L327,415.6l-26,4.53-26-4.3s-1.21.57-2.58,1.18l0-1.1-7.85,2.67a.69.69,0,0,0-.59.39l-.41.81c-13.23,4.78-22.92,9-29.65,14.68a150.15,150.15,0,0,0,18.36,7.6c6.69,2.27,90.56,2,97.2-.31a149.78,149.78,0,0,0,18.1-7.63C361,428.64,351.39,424.45,338.42,419.77Z" transform="translate(-150.5 -150)" fill="#8c7454"/><path d="M365,232.56c-11.68-16.82-33-29.21-53.05-30l-1,0,0-.79-9.9.39-9.91-.39,0,.79-1,0c-20.11.8-40.87,13.55-53.06,30-20.18,27.25-11.15,88.23-6.79,109.7,12.2,45.61,42.53,53.4,70.77,53.4s59.58-7.79,70.76-53.4C376.19,323.13,385.66,262.2,365,232.56Z" transform="translate(-150.5 -150)" fill="#f4cd98"/><path d="M272.46,315.47a10.36,10.36,0,0,1-10.63,10.07c-5.88,0-10.64-4.51-10.64-10.07S256,305.4,261.83,305.4A10.36,10.36,0,0,1,272.46,315.47Z" transform="translate(-150.5 -150)" fill="#3a1e0a"/><path d="M278.33,328.29c-.71,5.51-9.18,9-18.93,7.72s-17.07-6.74-16.36-12.25,9.18-9,18.93-7.72S279,322.77,278.33,328.29Z" transform="translate(-150.5 -150)" fill="#f4cd98"/><path d="M329.84,315.47c0,5.56,4.77,10.07,10.64,10.07s10.64-4.51,10.64-10.07-4.77-10.07-10.64-10.07S329.84,309.91,329.84,315.47Z" transform="translate(-150.5 -150)" fill="#3a1e0a"/><path d="M324,328.29c.71,5.51,9.18,9,18.92,7.72s17.08-6.74,16.37-12.25-9.19-9-18.93-7.72S323.27,322.77,324,328.29Z" transform="translate(-150.5 -150)" fill="#f4cd98"/><path d="M251,297a2.84,2.84,0,0,1-2.06-4.78c4.85-5.11,19.06-8.27,27.39-2.51a2.83,2.83,0,1,1-3.21,4.65c-6.08-4.2-17.05-1.43-20.07,1.76A2.86,2.86,0,0,1,251,297Z" transform="translate(-150.5 -150)" fill="#3a1e0a"/><path d="M352.48,297.22a2.83,2.83,0,0,1-2.05-.87c-4.34-4.55-14.67-4.42-20.86.25a2.83,2.83,0,0,1-3.41-4.51c8.53-6.44,22-6.27,28.36.36a2.82,2.82,0,0,1-.09,4A2.79,2.79,0,0,1,352.48,297.22Z" transform="translate(-150.5 -150)" fill="#3a1e0a"/><path d="M296.55,347.72h-.21a2.74,2.74,0,0,1-2.62-2.85c.37-4.81.94-23.67.94-29.44a2.83,2.83,0,0,1,5.65,0c0,6-.56,24.82-.94,29.82A2.77,2.77,0,0,1,296.55,347.72Z" transform="translate(-150.5 -150)" fill="#c68659"/><path d="M299.28,371.32c-.71,0-1.4,0-2.07-.05-8.15-.41-14.8-3-18.24-7.22a2.83,2.83,0,1,1,4.36-3.6c2.36,2.86,7.79,4.84,14.17,5.17,7.85.4,15.34-1.71,19.05-5.38a2.83,2.83,0,1,1,4,4C315.24,369.49,306.44,371.32,299.28,371.32Z" transform="translate(-150.5 -150)" fill="#c68659"/><path d="M369.72,214.64c-14.11-16.75-36.53-25.25-66.65-25.25h0a200,200,0,0,0-27.76,2.1c-1,.13-25.24,3.62-41.89,26.56-14.45,19.89-18.48,47.87-12,83.15a1.8,1.8,0,0,0,1.36,1.44,2,2,0,0,0,.42,0,1.79,1.79,0,0,0,1.45-.72c.65-.86,15.18-20.31,19.24-46.88a39.92,39.92,0,0,0,23.87,15.5,1.84,1.84,0,0,0,.41.05,1.8,1.8,0,0,0,1.66-1.1c.44-1,1.21-5.86-5.17-27.08,9,9.08,28.45,25.09,55.53,28.17h.21a1.83,1.83,0,0,0,1.71-2.45L315.39,250a204.31,204.31,0,0,0,37.85,22.55c12.28,5.73,22.16,6.58,27,6.58a27.25,27.25,0,0,0,3.6-.19,1.82,1.82,0,0,0,1.52-1.49C385.59,275.91,391.4,240.37,369.72,214.64Z" transform="translate(-150.5 -150)" fill="#331907"/><path d="M322,392.62c-6.51,1.68-13.51.11-14.07-4.76-.67-5.74-10.64-5.74-11.31,0-.56,4.87-6.44,6.19-13.08,5.11-3.85-.63-6.84-3.05-7.86-3.16-2.64-.3-2.49,2.24-.12,4.82a26,26,0,0,0,7,5.29c10.86,5.84,28.73,5.6,39.59-.23,2.12-1.14,9-5.83,9-7.53C331.27,387.79,324.58,392,322,392.62Z" transform="translate(-150.5 -150)" fill="#331907"/><path d="M279.32,363.22c6.51-1.69,31.82-1.44,38.46-.36,3.85.63,6.84,3.05,7.86,3.17,2.64.29,2.49-2.25.12-4.83a26.23,26.23,0,0,0-7-5.29c-10.86-5.83-28.73-5.6-39.59.24-2.12,1.14-9,5.82-9,7.53C270.08,368.05,276.77,363.88,279.32,363.22Z" transform="translate(-150.5 -150)" fill="#331907"/><path d="M329.59,416.94,327,415.6s-7.76-7.31-7.49-7.21-18.48,11.74-18.48,11.74l-18.48-11.74-7.53,7.44s-1.21.57-2.58,1.18l-.05,5,.59,25.44a150,150,0,0,0,21.44,2.41c2,.08,4,.15,6,.15,2.39,0,4.77-.07,7.13-.18a149.4,149.4,0,0,0,21.42-2.57l.59-25.25Z" transform="translate(-150.5 -150)" fill="#fff"/><path d="M272.48,417l0-1.1-7.85,2.67a.69.69,0,0,0-.59.39l-.41.81-11.29,22.28A148.44,148.44,0,0,0,273,447.44L272.43,422Z" transform="translate(-150.5 -150)" fill="#ad8e6c"/><path d="M338,419a.69.69,0,0,0-.59-.39l-7.84-2.67v1l.05,5.06-.59,25.25a147.75,147.75,0,0,0,20.51-5.5l-11.14-22Z" transform="translate(-150.5 -150)" fill="#ad8e6c"/><path d="M281.59,439.18l-7.88-21.77a1.43,1.43,0,0,1,.86-1.83,1.42,1.42,0,0,1,1.83.86l6.49,17.91,16.91-14.16a1.43,1.43,0,1,1,1.84,2.19Z" transform="translate(-150.5 -150)" fill="#b0adb2"/><path d="M319.83,439.17l-20-16.79a1.43,1.43,0,1,1,1.84-2.19l16.92,14.17,6.56-17.7a1.43,1.43,0,0,1,2.69,1Z" transform="translate(-150.5 -150)" fill="#b0adb2"/><path d="M229.2,304.61c.91-18.95,1.15-53.24,17.89-53.24,12.4,0,10.1-20.53,47.75-20.53,33.32,0,48.05,15.34,60.52,15.34,13.36,0,17.29,22.11,17.55,46.88,0,5.1.41,10.21.7,15.31.18,3,.39,6,.55,8.95.06,1.22.37,4.47,2,4.16,1.77-.34,2-6.91,2.16-8.32a236,236,0,0,0,1.61-30c0-18.36,5.31-53.71-27.91-75.74-20.43-13.55-62.66-14.9-86.18-7.23-16.37,5.35-32.07,19.27-37.91,35.48-6.41,17.81-6.25,31.73-4.14,67,.23,3.83.68,7.65,1.21,11.45a75,75,0,0,0,1.3,7.58c1.33,5.39,3.19,1.54,3.14-1.82C229.31,314.82,229,309.74,229.2,304.61Z" transform="translate(-150.5 -150)" fill="#331907"/></svg>