<svg id="Layer_1" data-name="Layer 1" xmlns="http://www.w3.org/2000/svg" viewBox="0 0 300 300"><path d="M450.5,300a150,150,0,1,1-150-150A150,150,0,0,1,450.5,300Z" transform="translate(-150.5 -150)" fill="#b3365e"/><path d="M343.93,318.61c-2.41,13.7,5.7,25.11,18.14,27.57s24.46-5,26.87-18.67-5.71-26.79-18.15-29.25S346.33,304.91,343.93,318.61Z" transform="translate(-150.5 -150)" fill="#f7bf7c"/><path d="M257.17,318.61c2.41,13.7-5.71,25.11-18.15,27.57s-24.46-5-26.86-18.67,5.71-26.79,18.14-29.25S254.77,304.91,257.17,318.61Z" transform="translate(-150.5 -150)" fill="#f7bf7c"/><path d="M362.6,234.9c-12.15-16.49-31.08-27.32-51.18-28.12l-1,0a69.21,69.21,0,0,0-9.88-.4,69.21,69.21,0,0,0-9.88.4l-1,0c-20.1.8-39,11.63-51.17,28.12s-13.77,37.3-12.81,57.21c.72,15,3.39,30.76,4.13,45.81,12.2,45.61,42.53,53.4,70.77,53.4s59.58-7.79,70.76-53.4c.75-15.05,3.41-30.77,4.14-45.81C376.36,272.2,374.74,251.41,362.6,234.9Z" transform="translate(-150.5 -150)" fill="#f7bf7c"/><rect x="131.52" y="232.9" width="36.96" height="45.25" fill="#f7bf7c"/><path d="M300.5,450a149.37,149.37,0,0,0,72.4-18.62c-6.64-8.65-18.78-12.11-46-20.76L319,408.39s-4,10.54-18.48,10.54S282,408.39,282,408.39L273.87,411c-27.23,8.63-39.19,11.89-45.75,20.42A149.31,149.31,0,0,0,300.5,450Z" transform="translate(-150.5 -150)" fill="#b5ac9e"/><path d="M326,410.51c-2.34-.84-4.68-2.38-7-2.12,0,0-4,10.54-18.48,10.54S282,408.39,282,408.39c-2.41,0-5.15,1.61-8.15,2.58,3.71,9.84,14,15.79,27.11,16C310.65,427.09,323.27,423,326,410.51Z" transform="translate(-150.5 -150)" fill="#3c313f"/><path d="M296,345.7h-.21a2.83,2.83,0,0,1-2.61-3c.36-5.09.93-25.1.93-31.22a2.83,2.83,0,1,1,5.66,0c0,6.35-.57,26.32-.95,31.63A2.83,2.83,0,0,1,296,345.7Z" transform="translate(-150.5 -150)" fill="#c68659"/><path d="M301,368c-7.36,0-15.65-1.92-20.51-6.72a2.83,2.83,0,1,1,4-4c4.06,4,13.1,6,21.49,4.74,5.62-.85,9.89-3.07,11.42-5.95a2.83,2.83,0,0,1,5,2.67c-2.44,4.57-8,7.72-15.56,8.87A39.45,39.45,0,0,1,301,368Z" transform="translate(-150.5 -150)" fill="#c68659"/><path d="M246.76,299.73a3.17,3.17,0,0,1-2.9-1.7,2.67,2.67,0,0,1,1.67-3.64c10.26-3.86,21.81-3.86,28.73,0a2.6,2.6,0,0,1,1,3.83,3.39,3.39,0,0,1-4.34.88c-4.24-2.35-13.22-3.23-22.92.42A3.51,3.51,0,0,1,246.76,299.73Z" transform="translate(-150.5 -150)" fill="#c68659"/><path d="M261.42,357.43a3.18,3.18,0,0,1-3.36,0,2.69,2.69,0,0,1-.44-4,43.41,43.41,0,0,1,10-10c1.4-.94,3.68-1.34,4.54,0s-.05,3.47-1.34,4.56a52,52,0,0,0-8.42,8.57A3.23,3.23,0,0,1,261.42,357.43Z" transform="translate(-150.5 -150)" fill="#c68659" opacity="0.5"/><path d="M339.58,357.43a3.18,3.18,0,0,0,3.36,0,2.69,2.69,0,0,0,.44-4,43.41,43.41,0,0,0-10-10c-1.4-.94-3.68-1.34-4.54,0s.05,3.47,1.34,4.56a52,52,0,0,1,8.42,8.57A3.23,3.23,0,0,0,339.58,357.43Z" transform="translate(-150.5 -150)" fill="#c68659" opacity="0.5"/><path d="M327.76,299.76a3.23,3.23,0,0,1-2.55-1.18,2.58,2.58,0,0,1,.75-3.87c5.41-3.4,22.34-4.46,29.25-.84a2.62,2.62,0,0,1,1.11,3.81,3.35,3.35,0,0,1-4.28,1c-4.72-2.48-18.78-1.74-22.48.58A3.35,3.35,0,0,1,327.76,299.76Z" transform="translate(-150.5 -150)" fill="#c68659"/><path d="M274.06,311.45c-9.64-5.41-24.22-4.43-29-1.16a3.36,3.36,0,0,0-.86,4.68,3.38,3.38,0,0,0,4.68.86c2.48-1.71,13.89-3,21.86,1.48a3.3,3.3,0,0,0,1.47.43h.18a3.35,3.35,0,0,0,1.64-6.29Z" transform="translate(-150.5 -150)" fill="#331907"/><path d="M353.44,309c-6.78-2.59-20.69-2.86-28,2.58a3.37,3.37,0,0,0,4,5.39c5.08-3.81,16.37-3.65,21.51-1.69a3.3,3.3,0,0,0,1.49.22,3.37,3.37,0,0,0,.92-6.5Z" transform="translate(-150.5 -150)" fill="#331907"/></svg>