<svg id="Layer_1" data-name="Layer 1" xmlns="http://www.w3.org/2000/svg" viewBox="0 0 300 300"><path d="M450.5,300a150,150,0,1,1-150-150A150,150,0,0,1,450.5,300Z" transform="translate(-150.5 -150)" fill="#f56d65"/><path d="M207,243.82c-11.51,24.3-20.45,69.08,0,94.5,21.2,26.36,4.48,34.36-1.08,30.66s-1.39,18.07,11.58,18.53,14.37,5.53,5.76,8.44c9.71,14.77,42.07,19.2,52.73,6.23s37.12,1.91,37.12,1.91,37.13,6.22,53.6-2.77c18.24-9.94,19.16-21.08,19.16-21.08s-16.16-3.24-9.21-17.6,29.79-12.75,26.53-48.63c-2.22-24.32-13.82-32.33-12.16-54.71,2.21-29.84-20-67.88-58.58-74.61-41.54-7.25-92.67-3.21-103.9,33.71C219.67,225,211.93,233.32,207,243.82Z" transform="translate(-150.5 -150)" fill="#3a1e0a"/><rect x="131.64" y="223.16" width="36.75" height="45" fill="#e8ae7e"/><path d="M300.5,450a149.21,149.21,0,0,0,75-20.1c-6.35-13-19.24-17.63-46.34-26.7-.79-.26-7.12-5-7.12-5s-3.37-3.75-3.1-3.66S300.52,406,300.52,406l-18.38-11.39-4,3.76s-7.43,5.27-9.13,5.85c-25.15,8.46-37.34,13.23-43.47,25.75A149.28,149.28,0,0,0,300.5,450Z" transform="translate(-150.5 -150)" fill="#6d4a2b"/><path d="M343.7,309.23c-2.4,13.62,5.68,25,18.05,27.41s24.32-4.94,26.71-18.56-5.68-26.65-18-29.09S346.1,295.61,343.7,309.23Z" transform="translate(-150.5 -150)" fill="#e8ae7e"/><path d="M257.43,309.23c2.4,13.62-5.68,25-18,27.41s-24.33-4.94-26.72-18.56,5.68-26.65,18-29.09S255,295.61,257.43,309.23Z" transform="translate(-150.5 -150)" fill="#e8ae7e"/><path d="M362.27,217.46c-12.08-16.4-30.9-27.17-50.89-28l-1,0,0-.78-9.85.38-9.85-.38,0,.78-1,0c-20,.79-38.81,11.56-50.89,28S225.09,254.55,226,274.35c.72,15,3.37,39.12,4.11,54.08,12.12,45.36,42.29,53.1,70.37,53.1s59.25-7.74,70.37-53.1c.74-15,3.39-39.11,4.11-54.08C376,254.55,374.35,233.88,362.27,217.46Z" transform="translate(-150.5 -150)" fill="#e8ae7e"/><path d="M271,301.79c0,5.53-3.78,10-8.43,10s-8.44-4.48-8.44-10,3.77-10,8.44-10S271,296.26,271,301.79Z" transform="translate(-150.5 -150)" fill="#3a1e0a"/><path d="M330.09,301.79c0,5.53,3.78,10,8.43,10s8.44-4.48,8.44-10-3.78-10-8.44-10S330.09,296.26,330.09,301.79Z" transform="translate(-150.5 -150)" fill="#3a1e0a"/><path d="M296,336h-.21a2.8,2.8,0,0,1-2.6-3c.36-5.09.93-25,.93-31a2.81,2.81,0,1,1,5.62,0c0,6.29-.56,26.15-.94,31.45A2.81,2.81,0,0,1,296,336Z" transform="translate(-150.5 -150)" fill="#ba7e56"/><path d="M294.5,359.13c-6.61-1.18-12.93-3.93-16.2-8.56a2.82,2.82,0,0,1,4.6-3.25c3,4.23,11.9,7.18,20.75,6.86,8.43-.3,14.94-3.26,17.86-8.12a2.81,2.81,0,0,1,4.82,2.9c-3.93,6.52-12.12,10.47-22.48,10.84A44.08,44.08,0,0,1,294.5,359.13Z" transform="translate(-150.5 -150)" fill="#b27d56"/><path d="M229.82,295.53c.89-18.85,3.4-44.64,17.45-52.94,13.57-8,31-9.27,52.06,2.81,28.19,16.14,38.06,12.79,50.21,12.79,13,0,20.12,1.22,20.38,25.85,0,5.07.39,10.15.68,15.22.17,3,.38,5.94.53,8.91.06,1.21.36,4.44,1.91,4.13,1.73-.34,1.93-6.87,2.11-8.27a237.11,237.11,0,0,0,1.56-29.78c0-18.26,5.18-53.42-27.2-75.32-19.91-13.48-61.09-14.82-84-7.18-16,5.31-31.27,19.15-37,35.28-6.25,17.7-6.09,31.54-4,66.61.22,3.81.66,7.62,1.18,11.39a73.46,73.46,0,0,0,1.26,7.53c1.3,5.36,3.12,1.54,3.06-1.8C229.93,305.67,229.58,300.63,229.82,295.53Z" transform="translate(-150.5 -150)" fill="#3a1e0a"/><path d="M281.1,424.79l-7.83-21.64a1.43,1.43,0,1,1,2.68-1L282.4,420l16.81-14.08a1.42,1.42,0,1,1,1.83,2.18Z" transform="translate(-150.5 -150)" fill="#3a1e0a"/><path d="M319.14,424.78l-19.93-16.69a1.42,1.42,0,1,1,1.83-2.18L317.87,420l6.53-17.61a1.41,1.41,0,0,1,1.82-.84,1.44,1.44,0,0,1,.85,1.84Z" transform="translate(-150.5 -150)" fill="#3a1e0a"/><path d="M227.87,319c.65,5.26,2.24,10.15,3.41,15.49a65.8,65.8,0,0,0,10.33,23.25,58,58,0,0,0,31.61,22c8.69,2.45,17.78,3.17,26.78,3.17,9.31,0,18.7-.8,27.65-3.45,32.48-9.59,49.6-45.83,46.68-78-.9-.75-2.38-.16-3,.86a6.51,6.51,0,0,0-.47,3.43c.31,9.14-3.23,24.7-10,31.47-6.53,6.51-12.65,9.76-22,9.76-1.89,0-3.92-.93-6.73-2.23-5.88-2.71-13.71-7.81-32.18-6.8a87.43,87.43,0,0,0-28.66,5.94c-4.43,1.73-7.93,3.09-11.55,3.09a24.37,24.37,0,0,1-16.21-6c-5.29-4.6-8.56-12.08-10.35-18.64-2.41-8.84-3.09-17.37-5.08-26.31.28,1.27-1.59,4.85-1.74,6.45a30.51,30.51,0,0,0,.31,6.75C227.11,312.5,227.47,315.75,227.87,319Z" transform="translate(-150.5 -150)" fill="#4f2f19" opacity="0.15"/><path d="M249.69,286.18a2.89,2.89,0,0,1-1.13-5.55c9.41-4,20-4,26.34,0a2.89,2.89,0,0,1,.91,4C275,286,250.07,286.18,249.69,286.18Z" transform="translate(-150.5 -150)" fill="#331907"/><path d="M326.39,284.86a2.89,2.89,0,0,1-.52-5.64c9.79-2.94,20.31-1.79,26.18,2.87a2.89,2.89,0,0,1,.47,4.06C351.53,287.4,326.76,284.9,326.39,284.86Z" transform="translate(-150.5 -150)" fill="#331907"/></svg>