<svg id="Layer_1" data-name="Layer 1" xmlns="http://www.w3.org/2000/svg" viewBox="0 0 300 300"><path d="M450.5,300a150,150,0,1,1-150-150A150,150,0,0,1,450.5,300Z" transform="translate(-150.5 -150)" fill="#2d7e9e"/><path d="M339.73,402.42c-7.67-5.77-19.62-9.56-32.31-9.84h-.66v-.28l-6.25.14-6.25-.14v.28h-.66c-12.69.28-24.64,4.07-32.31,9.84S253,414,253.58,420.94c.45,5.26,93.43,6.75,93.88,1.48C348.06,415.46,347.4,408.19,339.73,402.42Z" transform="translate(-150.5 -150)" fill="#b5ac9e"/><rect x="131.54" y="233.94" width="36.96" height="53.15" fill="#f9c18f"/><path d="M345,314.39c-2.37,13.43,5.6,24.62,17.79,27s24-4.87,26.35-18.31-5.61-26.27-17.8-28.68S347.38,301,345,314.39Z" transform="translate(-150.5 -150)" fill="#f9c18f"/><path d="M256.12,314.39c2.36,13.43-5.6,24.62-17.8,27s-24-4.87-26.34-18.31,5.6-26.27,17.79-28.68S253.76,301,256.12,314.39Z" transform="translate(-150.5 -150)" fill="#f9c18f"/><path d="M363.21,230c-12.25-16.65-31.37-27.59-51.66-28.39l-1.05,0,0-.8-10,.4-10-.4,0,.8-1.05,0c-20.29.8-39.41,11.74-51.66,28.39s-13.33,33.37-12.37,53.47c.72,15.19,2.86,39.72,3.61,54.91,12.31,46.05,42.94,53.91,71.45,53.91s60.16-7.86,71.44-53.91c.76-15.19,2.89-35.43,3.62-50.62C376.54,267.66,375.48,246.66,363.21,230Z" transform="translate(-150.5 -150)" fill="#f9c18f"/><path d="M336.66,416a4.76,4.76,0,0,1-.53-.19h0c-4-1.38-17.1-6.36-17.1-6.36L301.41,433.5l-19-24.37s-12.7,4.77-17.56,6.31h0l-2,.77h0c-14.25,5.37-24.5,10.25-31.26,17A149,149,0,0,0,279,448.44c4.31.61,8.67,1.06,13.08,1.31.73,0,1.46.06,2.19.09,2.08.08,4.17.16,6.28.16s4.2-.08,6.28-.16c.84,0,1.69-.07,2.53-.12q6.53-.37,12.89-1.31a148.84,148.84,0,0,0,47.39-15.28C362.8,426.33,349.85,419.56,336.66,416Z" transform="translate(-150.5 -150)" fill="#b5ac9e"/><path d="M270.53,311.54c0,5.56-3.79,10.07-8.48,10.07s-8.49-4.51-8.49-10.07,3.8-10.07,8.49-10.07S270.53,306,270.53,311.54Z" transform="translate(-150.5 -150)" fill="#331907"/><path d="M345.58,311.54c0,5.56-3.8,10.07-8.49,10.07s-8.48-4.51-8.48-10.07,3.8-10.07,8.48-10.07S345.58,306,345.58,311.54Z" transform="translate(-150.5 -150)" fill="#331907"/><path d="M249.74,293.3a2.82,2.82,0,0,1-2-4.78c3.8-4,10.87-5.12,16.2-4.84,2.78.15,9.57.94,12.69,5a2.83,2.83,0,0,1-4.49,3.44c-.9-1.18-4-2.57-8.5-2.81-5.05-.26-9.79,1-11.81,3.09A2.83,2.83,0,0,1,249.74,293.3Z" transform="translate(-150.5 -150)" fill="#331907"/><path d="M293.6,345.91h-.2a2.82,2.82,0,0,1-2.62-3c.37-5.09.93-25.1.93-31.22a2.83,2.83,0,1,1,5.66,0c0,5.79-.54,26-.95,31.63A2.83,2.83,0,0,1,293.6,345.91Z" transform="translate(-150.5 -150)" fill="#bc835c"/><path d="M349.53,293.3a2.84,2.84,0,0,1-2-.88c-2.05-2.16-6.91-3.41-12.08-3.08-4.44.28-7.37,1.62-8.2,2.76a2.83,2.83,0,1,1-4.55-3.37c3-4,9.67-4.86,12.4-5,5.44-.34,12.65.75,16.53,4.82a2.83,2.83,0,0,1-2.05,4.78Z" transform="translate(-150.5 -150)" fill="#331907"/><path d="M300.86,441.44a2.15,2.15,0,0,1-.75-.13l-43.1-16a2.14,2.14,0,1,1,1.49-4L300.87,437l43.47-15.76a2.14,2.14,0,0,1,1.46,4l-44.21,16A2,2,0,0,1,300.86,441.44Z" transform="translate(-150.5 -150)" fill="#998f82"/><path d="M275.34,357.3c9.45,19.25,44.28,12.47,46.67-.88Z" transform="translate(-150.5 -150)" fill="#fff"/><path d="M297.83,371.61h0c-11.49,0-20.46-4.84-24.61-13.28a2.35,2.35,0,0,1,2.07-3.39l46.68-.88a2.35,2.35,0,0,1,2.36,2.77C322.68,366.08,309.56,371.61,297.83,371.61Zm-18.25-12c5.36,6.54,14.29,7.33,18.25,7.33,9,0,17.47-3.48,20.64-8.06Z" transform="translate(-150.5 -150)" fill="#bc835c"/><path d="M370.28,296.49c-.59-11.62,3.59-25.47-11.75-32-5.88-2.52-12.32-2.66-18.26-2.07-21.46,2.1-37,12.6-74.54,6.53-20.85-3.37-31.89-11.41-31.89-11.41-2.31-1.84-2.87,16.7-3,27.51,0,5,0,9.76.08,14.76,0,2.93,0,5.87.08,8.8,0,1.19.28,4.21-3.64,4.2-2.88,0-3.24-7.62-3.35-9-1.67-21.95-2.5-18.4-1.52-38.89.46-9.89.28-9.71,1.09-18.51a26.45,26.45,0,0,1-8.39-12.71,6.06,6.06,0,0,1,7.56-7.63l.51.15a41.77,41.77,0,0,1-8.06-18.24,6.07,6.07,0,0,1,8.35-6.64,23.67,23.67,0,0,0,11.37,1.61l-.06-.1c-3-5,2.38-11,7.67-8.57a45,45,0,0,0,11.57,3.35c19.95,3.36,53.44-22.28,101.09,13,16.7,12.36,22.91,34.94,22.93,56.61,0,28.15,0,4.59.05,32.42,0,2.49-.18,11.25-3.06,13.2s-4.91-.92-4.86-3.62C370.35,305.09,370.53,301.52,370.28,296.49Z" transform="translate(-150.5 -150)" fill="#3a1e0a"/><path d="M361.3,294.39H319a9.41,9.41,0,0,0-9,6.6H291a9.41,9.41,0,0,0-8.95-6.6H239.73a9.46,9.46,0,0,0-9.44,9.44v19.66a9.46,9.46,0,0,0,9.44,9.45h42.33a9.46,9.46,0,0,0,9.44-9.45V307.41h18v16.08a9.46,9.46,0,0,0,9.44,9.45H361.3a9.46,9.46,0,0,0,9.45-9.45V303.83A9.46,9.46,0,0,0,361.3,294.39Zm-76.22,29.1a3,3,0,0,1-3,3H239.73a3,3,0,0,1-3-3V303.83a3,3,0,0,1,3-3h42.33a3,3,0,0,1,3,3Zm79.24,0a3,3,0,0,1-3,3H319a3,3,0,0,1-3-3V303.83a3,3,0,0,1,3-3H361.3a3,3,0,0,1,3,3Z" transform="translate(-150.5 -150)" fill="#331907"/></svg>