<svg id="Layer_1" data-name="Layer 1" xmlns="http://www.w3.org/2000/svg" viewBox="0 0 300 300"><path d="M450.5,300a150,150,0,1,1-150-150A150,150,0,0,1,450.5,300Z" transform="translate(-150.5 -150)" fill="#9b6b4b"/><path d="M343.7,316.13c-2.39,13.62,5.68,25,18.05,27.41s24.33-4.94,26.72-18.57-5.68-26.64-18.05-29.09S346.1,302.51,343.7,316.13Z" transform="translate(-150.5 -150)" fill="#e0aa79"/><path d="M257.43,316.13c2.4,13.62-5.68,25-18,27.41S215.06,338.6,212.67,325s5.68-26.64,18-29.09S255,302.51,257.43,316.13Z" transform="translate(-150.5 -150)" fill="#e0aa79"/><path d="M362.27,228.64c-12.07-16.4-30.9-27.16-50.89-28,0,0-5.51-.51-11-.51s-10.74.51-10.74.51c-20,.8-38.82,11.56-50.89,28S225.09,265.73,226,285.53c.72,15,3.36,34.83,4.11,49.8,12.12,45.35,42.29,53.1,70.37,53.1s59.25-7.75,70.37-53.1c.74-15,3.39-34.84,4.11-49.8C376,265.73,374.35,245.05,362.27,228.64Z" transform="translate(-150.5 -150)" fill="#e0aa79"/><rect x="131.64" y="230.06" width="36.75" height="45" fill="#e0aa79"/><path d="M296,338.19h-.21a2.59,2.59,0,0,1-2.6-2.62c.36-4.43.93-21.8.93-27.11a2.83,2.83,0,0,1,5.62,0c0,5-.54,22.54-.94,27.46A2.69,2.69,0,0,1,296,338.19Z" transform="translate(-150.5 -150)" fill="#b27d56"/><path d="M300,418.66c-12.45,0-22.28-3.13-26.28-8.37a1.42,1.42,0,1,1,2.26-1.72c3.42,4.47,12.62,7.25,24,7.25,17.88,0,23.44-4,25-7.29a1.42,1.42,0,1,1,2.59,1.18C324.77,415.73,315.76,418.66,300,418.66Z" transform="translate(-150.5 -150)"/><path d="M300.5,450a149.34,149.34,0,0,0,70.13-17.4c-5.95-11.24-16.22-17-41.51-25.27-3.75-1.32-7.11-2.46-10.23-3.4-7.78,16.32-31,11.14-36.83-.17-3.86,1.16-8.14,2.65-13,4.51-23.4,7.65-32.95,13.52-38.62,24.35A149.32,149.32,0,0,0,300.5,450Z" transform="translate(-150.5 -150)" fill="#3c313f"/><path d="M301,365c-6.6,0-14-1.91-18.37-6.68a3,3,0,0,1,0-4,2.36,2.36,0,0,1,3.58,0c3.63,4,28.09,1.66,29.47-1.2a2.41,2.41,0,0,1,3.43-1.15,3,3,0,0,1,1,3.81c-2.18,4.54-7.13,7.67-13.93,8.81A30.56,30.56,0,0,1,301,365Z" transform="translate(-150.5 -150)" fill="#fff"/><path d="M270.68,308.65c0,5.53-3.78,10-8.44,10s-8.44-4.48-8.44-10,3.78-10,8.44-10S270.68,303.12,270.68,308.65Z" transform="translate(-150.5 -150)" fill="#331907"/><path d="M250.44,290.27a2.77,2.77,0,0,1-1.93-.77,2.82,2.82,0,0,1-.11-4c4.83-5.08,19-8.22,27.24-2.49a2.81,2.81,0,1,1-3.2,4.62c-6.05-4.17-16.95-1.42-20,1.75A2.79,2.79,0,0,1,250.44,290.27Z" transform="translate(-150.5 -150)" fill="#331907"/><path d="M348.16,292.38a2.77,2.77,0,0,1-2-.87c-4.31-4.52-14.58-4.4-20.74.26a2.81,2.81,0,1,1-3.39-4.49c8.48-6.41,21.92-6.24,28.2.35a2.8,2.8,0,0,1-2,4.75Z" transform="translate(-150.5 -150)" fill="#331907"/><path d="M327,312.81a2.74,2.74,0,0,1-1-.2A2.81,2.81,0,0,1,324.4,309c2.28-5.68,7.59-9.15,13.23-8.64a11.07,11.07,0,0,1,9.95,9.13,2.81,2.81,0,1,1-5.51,1.1,5.43,5.43,0,0,0-4.95-4.62c-2.42-.22-5.84,1-7.49,5.12A2.82,2.82,0,0,1,327,312.81Z" transform="translate(-150.5 -150)" fill="#331907"/><path d="M319.17,345c-6.88-3.49-14.29-3.76-18.65-3.72s-11.77.23-18.65,3.72a22.69,22.69,0,0,0-9.72,9.44c-.72,1.34.43,2.86,2.15,2.86h52.44c1.71,0,2.87-1.52,2.15-2.86A22.69,22.69,0,0,0,319.17,345Z" transform="translate(-150.5 -150)" fill="#331907"/><path d="M311.92,377.73s-4.24-1.34-4.89-4-4.06-3.24-6.49-3.24-5.83.62-6.48,3.24-4.89,4-4.89,4c-44.07,6.87-57.43-36.35-57.43-36.35,11.69,53.3,68.8,50.41,68.8,50.41s57.12,2.89,68.81-50.41C369.35,341.38,356.24,385.81,311.92,377.73Z" transform="translate(-150.5 -150)" fill="#331907"/><path d="M325.2,311.57a3.32,3.32,0,0,1-1.95-.61,2.7,2.7,0,0,1-1.18-1.9,2.54,2.54,0,0,1,.6-2,17.49,17.49,0,0,1,13.4-6.11,17.9,17.9,0,0,1,13.59,5.95,2.59,2.59,0,0,1,.66,2,2.68,2.68,0,0,1-1.11,1.87,3.39,3.39,0,0,1-4.45-.45,11.27,11.27,0,0,0-8.52-3.78,11.12,11.12,0,0,0-8.56,3.89,3.21,3.21,0,0,1-2.46,1.1Z" transform="translate(-150.5 -150)" fill="#3a1e0a"/></svg>