<svg id="Layer_1" data-name="Layer 1" xmlns="http://www.w3.org/2000/svg" viewBox="0 0 300 300"><path d="M450.5,300a150,150,0,1,1-150-150A150,150,0,0,1,450.5,300Z" transform="translate(-150.5 -150)" fill="#b3365e"/><path d="M343.93,318.61c-2.41,13.7,5.7,25.11,18.14,27.57s24.46-5,26.87-18.67-5.71-26.79-18.15-29.25S346.33,304.91,343.93,318.61Z" transform="translate(-150.5 -150)" fill="#f9c18f"/><path d="M257.17,318.61c2.41,13.7-5.71,25.11-18.15,27.57s-24.46-5-26.86-18.67,5.71-26.79,18.14-29.25S254.77,304.91,257.17,318.61Z" transform="translate(-150.5 -150)" fill="#f9c18f"/><path d="M362.6,226.33c-12.15-16.49-31.08-27.32-51.18-28.12l-1,0,0-.79-9.91.4-9.9-.4,0,.79-1,0c-20.1.8-39,11.63-51.17,28.12s-13.77,37.3-12.81,57.21c.73,15,3.39,39.33,4.13,54.38,12.2,45.61,42.53,53.4,70.77,53.4s59.58-7.79,70.76-53.4c.75-15.05,3.42-39.33,4.14-54.38C376.36,263.63,374.74,242.84,362.6,226.33Z" transform="translate(-150.5 -150)" fill="#f9c18f"/><rect x="131.52" y="232.9" width="36.96" height="45.25" fill="#f9c18f"/><path d="M270.76,311.13c0,5.56-3.79,10.07-8.48,10.07s-8.48-4.51-8.48-10.07,3.8-10.07,8.48-10.07S270.76,305.57,270.76,311.13Z" transform="translate(-150.5 -150)" fill="#3a1e0a"/><path d="M348,311.13c0,5.56-3.79,10.07-8.48,10.07S331,316.69,331,311.13s3.8-10.07,8.49-10.07S348,305.57,348,311.13Z" transform="translate(-150.5 -150)" fill="#3a1e0a"/><path d="M250,292.89a2.83,2.83,0,0,1-2-4.78c3.81-4,10.87-5.12,16.21-4.84,2.77.15,9.56.94,12.69,5a2.83,2.83,0,0,1-4.49,3.44c-.91-1.18-3.95-2.56-8.51-2.81-5.05-.26-9.79,1-11.8,3.09A2.86,2.86,0,0,1,250,292.89Z" transform="translate(-150.5 -150)" fill="#3a1e0a"/><path d="M296,341.13h-.2a2.7,2.7,0,0,1-2.62-2.84c.37-4.78.93-23.59.93-29.34a2.84,2.84,0,0,1,5.66,0c0,5.44-.54,24.4-.95,29.72A2.77,2.77,0,0,1,296,341.13Z" transform="translate(-150.5 -150)" fill="#bc835c"/><path d="M300.5,450a149.37,149.37,0,0,0,72.4-18.62c-6.64-8.65-18.78-13.24-46-21.89l-7.88-2.8s-5.63,11.6-18.48,11.6S282,406.69,282,406.69l-8.15,3.15c-27.23,8.63-39.19,13-45.75,21.55A149.31,149.31,0,0,0,300.5,450Z" transform="translate(-150.5 -150)" fill="#fff"/><path d="M299.63,366.84h0c-11.5,0-20.47-4.83-24.62-13.27a2.37,2.37,0,0,1,2.08-3.4l46.68-.88a2.34,2.34,0,0,1,1.83.83,2.36,2.36,0,0,1,.53,1.94C324.48,361.32,311.36,366.84,299.63,366.84Zm-18.25-12c5.35,6.53,14.28,7.32,18.25,7.32,9,0,17.47-3.48,20.64-8.05Z" transform="translate(-150.5 -150)" fill="#bc835c"/><path d="M351.91,292.89a2.84,2.84,0,0,1-2.05-.88c-2.06-2.16-6.92-3.41-12.08-3.07-4.44.27-7.37,1.61-8.21,2.75a2.83,2.83,0,0,1-4.55-3.37c3-4,9.67-4.86,12.41-5,5.44-.34,12.65.75,16.52,4.82a2.82,2.82,0,0,1-2,4.78Z" transform="translate(-150.5 -150)" fill="#3a1e0a"/><path d="M264.37,361.65s12.64-3.32,20.93-3.94c13.41-1,35.64-.21,48.9,4.35.13,0,2.91-4.77-.41-8.63-4.09-4.77-12.22-9-34.53-9-20.18,0-29.09,2.91-33.86,9.12C263.17,356.47,264.37,361.65,264.37,361.65Z" transform="translate(-150.5 -150)" fill="#3a1e0a"/><path d="M372.25,310.24c-4.24,2.42-3.95-3.6-4.27.08a138.78,138.78,0,0,1-6.83,33.09c-1.36,4.25-4.36,13.88-16.17,22.59-13.35,9.83-34.19,12.83-37.3,11.4-1.33-.62-1.21-3.24-1.9-4.27-2.25-3.4-6-3.22-8.23-2.9s-4,2.44-4.59,3.44c-.83,1.34-.09,3.36-1.45,3.93-2.62,1.1-19.31-.45-34-10.91-8.8-6.28-16.35-15.76-19.62-25.77a143.48,143.48,0,0,1-6.22-28.46c-1.21-15-5.95-9.37-6.08,2.21,0,3.7,1.49,25.55,8.15,40.9,9.54,22,29.57,40.41,68.25,40.34,36.34-.07,56-19.55,64.11-41.17a118,118,0,0,0,6.63-24.8C373.36,323.22,376.32,307.92,372.25,310.24Z" transform="translate(-150.5 -150)" fill="#3a1e0a"/><path d="M231.32,298.85c.55-11-1.46-34.63,13-40.83,5.56-2.38,14.65-10,20-11.67,26.72-8.43,7.5-.73,42.89-6.46,19.69-3.19,39.68,10.67,50.31,12.24,8.46,1.25,12.51,23.76,11.52,43.11-.24,4.71-1.38,21.88-2.55,31-.14,1.11,1.49,2.9,4.15,2.9s3-6.67,4.14-14.92a318.09,318.09,0,0,0,3-59.23c-.31-6.65.55-29-12.93-32.77-43.31-12.19-142.93-23.82-142.93,36.05,0,26.58,3,68.61,5.75,70.45s4.6-2,4.55-4.56C232.17,320.31,231.07,303.6,231.32,298.85Z" transform="translate(-150.5 -150)" fill="#3a1e0a"/><path d="M365.9,255.44a22.58,22.58,0,0,1-16.4,3.94c-8.06-1.27-8.29-7.39-3.12-12.76-9.75,11.69-48,24.89-64.36,18.78a7,7,0,0,1-3.07-11c-2.35,2.28-23.11,17.35-35.44,11.22-5.78-2.88.11-10.27.11-10.27-7.2,6.48-23,12-29.56,4.58s1.92-17.74,8.57-21.82c-1.52.12-5.77.72-7.79-3.49-4.28-8.94,12.95-26.46,42.62-36.58,43.27-14.75,84.69-3.5,100.19,6.51,7.62,4.92,17.69,13.71,19.76,23.5C379.88,239.78,375.72,248.74,365.9,255.44Z" transform="translate(-150.5 -150)" fill="#3a1e0a"/><path d="M300.93,429.72h-.55a31.64,31.64,0,0,1-27.74-17.37l4.12-1.8a27.07,27.07,0,0,0,23.7,14.89c10.07.12,18.71-5.18,23.8-14.66l4.06,1.93C322.5,423.55,312.54,429.72,300.93,429.72Z" transform="translate(-150.5 -150)" fill="#b0adb2"/></svg>