<svg id="Layer_1" data-name="Layer 1" xmlns="http://www.w3.org/2000/svg" viewBox="0 0 300 300"><path d="M450.5,300a150,150,0,1,1-150-150A150,150,0,0,1,450.5,300Z" transform="translate(-150.5 -150)" fill="#b3365e"/><path d="M343.7,316.13c-2.39,13.62,5.68,25,18.05,27.41s24.33-4.94,26.72-18.57-5.68-26.64-18.05-29.09S346.1,302.51,343.7,316.13Z" transform="translate(-150.5 -150)" fill="#e0aa79"/><path d="M257.43,316.13c2.4,13.62-5.68,25-18,27.41S215.06,338.6,212.67,325s5.68-26.64,18-29.09S255,302.51,257.43,316.13Z" transform="translate(-150.5 -150)" fill="#e0aa79"/><path d="M362.27,228.64c-12.07-16.4-30.9-27.16-50.89-28,0,0-5.51-.51-11-.51s-10.74.51-10.74.51c-20,.8-38.82,11.56-50.89,28S225.09,265.73,226,285.53c.72,15,3.36,34.83,4.11,49.8,12.12,45.35,42.29,53.1,70.37,53.1s59.25-7.75,70.37-53.1c.74-15,3.39-34.84,4.11-49.8C376,265.73,374.35,245.05,362.27,228.64Z" transform="translate(-150.5 -150)" fill="#e0aa79"/><rect x="131.64" y="230.06" width="36.75" height="45" fill="#e0aa79"/><path d="M296,338.19h-.21a2.59,2.59,0,0,1-2.6-2.62c.36-4.43.93-21.8.93-27.11a2.83,2.83,0,0,1,5.62,0c0,5-.54,22.54-.94,27.46A2.69,2.69,0,0,1,296,338.19Z" transform="translate(-150.5 -150)" fill="#b27d56"/><path d="M300,418.66c-12.45,0-22.28-3.13-26.28-8.37a1.42,1.42,0,1,1,2.26-1.72c3.42,4.47,12.62,7.25,24,7.25,17.88,0,23.44-4,25-7.29a1.42,1.42,0,1,1,2.59,1.18C324.77,415.73,315.76,418.66,300,418.66Z" transform="translate(-150.5 -150)"/><path d="M300.5,450a149.34,149.34,0,0,0,70.13-17.4c-5.95-11.24-16.22-17-41.51-25.27-3.75-1.32-7.11-2.46-10.23-3.4-7.78,16.32-31,11.14-36.83-.17-3.86,1.16-8.14,2.65-13,4.51-23.4,7.65-32.95,13.52-38.62,24.35A149.32,149.32,0,0,0,300.5,450Z" transform="translate(-150.5 -150)" fill="#3c313f"/><path d="M301,365c-6.6,0-14-1.91-18.37-6.68a3,3,0,0,1,0-4,2.36,2.36,0,0,1,3.58,0c3.63,4,28.09,1.66,29.47-1.2a2.41,2.41,0,0,1,3.43-1.15,3,3,0,0,1,1,3.81c-2.18,4.54-7.13,7.67-13.93,8.81A30.56,30.56,0,0,1,301,365Z" transform="translate(-150.5 -150)" fill="#fff"/><path d="M270.68,308.65c0,5.53-3.78,10-8.44,10s-8.44-4.48-8.44-10,3.78-10,8.44-10S270.68,303.12,270.68,308.65Z" transform="translate(-150.5 -150)" fill="#331907"/><path d="M250.44,290.27a2.77,2.77,0,0,1-1.93-.77,2.82,2.82,0,0,1-.11-4c4.83-5.08,19-8.22,27.24-2.49a2.81,2.81,0,1,1-3.2,4.62c-6.05-4.17-16.95-1.42-20,1.75A2.79,2.79,0,0,1,250.44,290.27Z" transform="translate(-150.5 -150)" fill="#331907"/><path d="M330.36,308.65c0,5.53,3.78,10,8.44,10s8.44-4.48,8.44-10-3.78-10-8.44-10S330.36,303.12,330.36,308.65Z" transform="translate(-150.5 -150)" fill="#331907"/><path d="M350.59,290.27a2.78,2.78,0,0,0,1.94-.77,2.82,2.82,0,0,0,.11-4c-4.83-5.08-18.95-8.22-27.24-2.49a2.81,2.81,0,1,0,3.2,4.62c6-4.17,16.95-1.42,20,1.75A2.79,2.79,0,0,0,350.59,290.27Z" transform="translate(-150.5 -150)" fill="#331907"/><path d="M319.17,345c-6.88-3.49-14.29-3.76-18.65-3.72s-11.77.23-18.65,3.72a22.69,22.69,0,0,0-9.72,9.44c-.72,1.34.43,2.86,2.15,2.86h52.44c1.71,0,2.87-1.52,2.15-2.86A22.69,22.69,0,0,0,319.17,345Z" transform="translate(-150.5 -150)" fill="#331907"/><path d="M233.44,294c0,4,0,12.79-7.79,8.63-4.82-2.59-8.28-5.63-8.28-12.15l1.1-34.91c1.53-10.37,8.77-19.18,14.22-19.18-.37,3-2.2,6.16-1.12,9a26.42,26.42,0,0,1,1.88,9.32C233.45,256.37,233.44,287.37,233.44,294Z" transform="translate(-150.5 -150)" fill="#331907"/><path d="M366.31,294c0,4,0,12.79,7.79,8.63,4.82-2.58,8.28-5.63,8.28-12.15l-1.1-34.91c-1.53-10.37-8.77-19.18-14.22-19.18.37,3,2.2,6.16,1.12,9a26.42,26.42,0,0,0-1.88,9.32C366.3,256.37,366.31,287.37,366.31,294Z" transform="translate(-150.5 -150)" fill="#331907"/><path d="M374.62,312.21c-.05-1.61-.22-13.95-.37-15.54-.89-.76-2.95.22-3.52,1.24s-.16,13.34-.21,14.51c-.59,13.57-2.84,24-9.64,30.75-6.53,6.51-12.65,9.76-22,9.76-1.89,0-3.92-.93-6.73-2.23-5.88-2.71-13.71-7.81-32.18-6.8-13.37.72-21.86,3.3-28.66,5.94-4.43,1.73-7.93,3.09-11.56,3.09a24.36,24.36,0,0,1-16.2-6c-5.29-4.6-8.57-12.08-10.35-18.64-2.41-8.84-2.46-20.57-4.45-29.51.28,1.28-2.34-4.7-2.49-3.11-.21,2.28.14,17.26.42,19.51.41,3.31.78,6.56,1.18,9.78.65,5.26,2.24,10.15,3.4,15.49.25,1.13.55,2.27.88,3.42l.66.08c13.48,37.76,41.49,44.52,67.7,44.52,13.53,0,27.78-1.82,40.15-8.76a63.05,63.05,0,0,0,18-16.3,74.44,74.44,0,0,0,9.71-19.46l1-.12A84.32,84.32,0,0,0,374.62,312.21Z" transform="translate(-150.5 -150)" fill="#4f2f19" opacity="0.15"/></svg>