<svg id="Layer_1" data-name="Layer 1" xmlns="http://www.w3.org/2000/svg" viewBox="0 0 300 300"><path d="M450.5,300a150,150,0,1,1-150-150A150,150,0,0,1,450.5,300Z" transform="translate(-150.5 -150)" fill="#87c6db"/><rect x="135.87" y="230.75" width="30.28" height="46.75" fill="#684b75"/><path d="M249.57,318.47c1.27,10.23-4.62,19.37-13.16,20.43s-16.48-6.37-17.75-16.6,4.63-19.36,13.17-20.42S248.31,308.25,249.57,318.47Z" transform="translate(-150.5 -150)" fill="#8e5f35"/><path d="M351.43,318.47c-1.27,10.23,4.62,19.37,13.16,20.43s16.48-6.37,17.75-16.6-4.63-19.36-13.17-20.42S352.69,308.25,351.43,318.47Z" transform="translate(-150.5 -150)" fill="#8e5f35"/><path d="M358,236.07c-12.55-17.79-25.43-18.34-46.19-19.2H289.22c-20.77.86-33.65,1.41-46.19,19.2s-15,22.41-13.9,43.89c.83,16.22-1.86,4.84,4.85,50s45.9,59.6,66.52,59.6,56.87-12.1,66.52-59.6,4-33.74,4.85-50C373,258.48,370.52,253.87,358,236.07Z" transform="translate(-150.5 -150)" fill="#8e5f35"/><path d="M296,346.74h-.26a2.78,2.78,0,0,1-2.52-3c.35-3.9.89-19.19.89-23.87a2.79,2.79,0,0,1,5.57,0c0,4.45-.52,20-.92,24.36A2.78,2.78,0,0,1,296,346.74Z" transform="translate(-150.5 -150)" fill="#5f3a1b"/><path d="M299.48,367.09c-7.44,0-16.09-1.83-20.83-7.08a2.78,2.78,0,1,1,4.12-3.73c3.36,3.7,11,5.72,19.34,5.16,6.46-.44,11.94-2.4,13.62-4.87a2.78,2.78,0,0,1,4.6,3.14c-2.72,4-9.39,6.7-17.84,7.28C301.52,367.06,300.51,367.09,299.48,367.09Z" transform="translate(-150.5 -150)" fill="#5f3a1b"/><path d="M272.66,318.09c0,6-4.08,10.83-9.12,10.83s-9.13-4.85-9.13-10.83,4.09-10.83,9.13-10.83S272.66,312.11,272.66,318.09Z" transform="translate(-150.5 -150)" fill="#3a1e0a"/><path d="M275.46,301.34a2.79,2.79,0,0,1-2.08-.94,11.39,11.39,0,0,0-8.53-3.61c-3.8,0-8,1.41-10.11,3.68a2.78,2.78,0,1,1-4-3.83c3.27-3.44,8.73-5.5,14.24-5.42a17,17,0,0,1,12.61,5.49,2.79,2.79,0,0,1-2.09,4.63Z" transform="translate(-150.5 -150)" fill="#331907"/><path d="M327.39,301a2.78,2.78,0,0,1-2.19-4.5c2.34-3,6.76-5,11.54-5.21a16.54,16.54,0,0,1,13,5,2.78,2.78,0,1,1-4,3.84,11.17,11.17,0,0,0-8.7-3.29c-3.58.17-6.36,1.72-7.43,3.09A2.78,2.78,0,0,1,327.39,301Z" transform="translate(-150.5 -150)" fill="#331907"/><path d="M346.47,318.09c0,6-4.09,10.83-9.13,10.83s-9.12-4.85-9.12-10.83,4.09-10.83,9.12-10.83S346.47,312.11,346.47,318.09Z" transform="translate(-150.5 -150)" fill="#3a1e0a"/><path d="M270.44,341.73c0,4.92-5.77,8.91-12.89,8.91s-12.89-4-12.89-8.91,5.77-8.9,12.89-8.9S270.44,336.81,270.44,341.73Z" transform="translate(-150.5 -150)" fill="#af6751" opacity="0.6"/><path d="M356.22,341.73c0,4.92-5.77,8.91-12.89,8.91s-12.89-4-12.89-8.91,5.77-8.9,12.89-8.9S356.22,336.81,356.22,341.73Z" transform="translate(-150.5 -150)" fill="#af6751" opacity="0.6"/><path d="M358.58,436.89c-6.24-17.94-9.47-22.27-27.77-30.67l-14.16-5.62s-2.25,7.18-15.14,7.18c-12.44,0-15.14-7.18-15.14-7.18l-16.73,5.88c-17.81,8.27-21.13,12.89-27.22,30.41-.13.36-.27.8-.41,1.27a149.41,149.41,0,0,0,32.25,9.51,151.28,151.28,0,0,0,19.54,2.16c2.22.1,4.45.17,6.7.17,2.07,0,4.13-.08,6.18-.16a151.45,151.45,0,0,0,19.54-2.08,149.13,149.13,0,0,0,32.77-9.6C358.85,437.69,358.71,437.25,358.58,436.89Z" transform="translate(-150.5 -150)" fill="#684b75"/><path d="M335,338.69c-7.91,0-14.67-3.15-18.55-8.65-4.07-5.77-6.8-14.81-6.8-19.63,0-11,35.88-11.17,36.25-11.17,13.7,0,20.37,2.37,20.37,7.24C366.31,327.4,350.2,338.69,335,338.69Zm-19.78-28.14c.06,3.93,2.51,11.64,5.78,16.28,2.82,4,7.93,6.3,14,6.3,12.36,0,25.49-9.2,25.7-26.24-.95-.67-5-2.08-14.8-2.08C330,304.81,316.68,308.21,315.26,310.55Z" transform="translate(-150.5 -150)" fill="#e0aa79"/><path d="M264.62,338.69h0c-15.15,0-31.26-11.29-31.26-32.21,0-1.83,0-7.39,21.08-7.39,1.45,0,35.53.12,35.53,11.32,0,4.83-2.72,13.86-6.79,19.63C279.29,335.54,272.53,338.69,264.62,338.69Zm-25.7-31.81c.2,17.05,13.33,26.24,25.69,26.25h0c6.07,0,11.18-2.3,14-6.3,3.31-4.69,5.78-12.53,5.78-16.42-.93-2.25-13.93-5.76-30-5.76C244.07,304.65,239.88,306.17,238.92,306.88Z" transform="translate(-150.5 -150)" fill="#e0aa79"/><path d="M287.62,316.43a2.78,2.78,0,0,1-1.52-5.11c5-3.28,22.65-2.59,27-.77a2.78,2.78,0,0,1-2.16,5.13c-3.52-1.49-18.89-1.58-21.75.29A2.77,2.77,0,0,1,287.62,316.43Z" transform="translate(-150.5 -150)" fill="#e0aa79"/><path d="M221.91,280.58c0-33.87,9-53.3,36-68.15C295.21,192,358.07,197.49,378.2,248.71c16.34,41.58-11.85,76.81-11.85,76.81s.42-55.95-121-62.24C235.35,291.26,235,332,235,332,227.78,323.69,221.91,294.19,221.91,280.58Z" transform="translate(-150.5 -150)" fill="#3a1e0a"/></svg>