<svg id="Layer_1" data-name="Layer 1" xmlns="http://www.w3.org/2000/svg" viewBox="0 0 300 300"><path d="M450.5,300a150,150,0,1,1-150-150A150,150,0,0,1,450.5,300Z" transform="translate(-150.5 -150)" fill="#6daf6d"/><rect x="135.87" y="230.75" width="30.28" height="46.75" fill="#8e5f35"/><path d="M358.58,436.89c-6.24-17.94-9.47-22.27-27.77-30.67l-14.16-5.62s-2.25,7.18-15.14,7.18c-12.44,0-15.14-7.18-15.14-7.18l-16.73,5.88c-17.81,8.27-21.13,12.89-27.22,30.41-.13.36-.27.8-.41,1.27a149.41,149.41,0,0,0,32.25,9.51,151.28,151.28,0,0,0,19.54,2.16c2.22.1,4.45.17,6.7.17,2.07,0,4.13-.08,6.18-.16a151.45,151.45,0,0,0,19.54-2.08,149.13,149.13,0,0,0,32.77-9.6C358.85,437.69,358.71,437.25,358.58,436.89Z" transform="translate(-150.5 -150)" fill="#ff9cbd"/><path d="M313.88,368c.64,14.31-.45,22.78,2.77,32.6,5.1,15.6,14.91,30.52,13.16,46.49,3.69-.73,8.24,0,10.91-2.59,36.71-35.6,28-102.9,19.58-115.74C360.3,328.76,312.7,341.68,313.88,368Z" transform="translate(-150.5 -150)" fill="#331907"/><path d="M249.57,318.47c1.27,10.23-4.62,19.37-13.16,20.43s-16.48-6.37-17.75-16.6,4.63-19.36,13.17-20.42S248.31,308.25,249.57,318.47Z" transform="translate(-150.5 -150)" fill="#8e5f35"/><path d="M351.43,318.47c-1.27,10.23,4.62,19.37,13.16,20.43s16.48-6.37,17.75-16.6-4.63-19.36-13.17-20.42S352.69,308.25,351.43,318.47Z" transform="translate(-150.5 -150)" fill="#8e5f35"/><path d="M358,236.07c-12.55-17.79-25.43-18.34-46.19-19.2H289.22c-20.77.86-33.65,1.41-46.19,19.2s-7.8,22.41-6.81,43.89c.75,16.22-8.95,4.84-2.24,50s45.9,59.6,66.52,59.6,56.87-12.1,66.52-59.6-3-33.74-2.24-50C365.77,258.48,370.52,253.87,358,236.07Z" transform="translate(-150.5 -150)" fill="#8e5f35"/><path d="M296,346.74h-.26a2.78,2.78,0,0,1-2.52-3c.35-3.9.89-19.19.89-23.87a2.79,2.79,0,0,1,5.57,0c0,4.45-.52,20-.92,24.36A2.78,2.78,0,0,1,296,346.74Z" transform="translate(-150.5 -150)" fill="#5f3a1b"/><path d="M270.44,341.73c0,4.92-5.77,8.91-12.89,8.91s-12.89-4-12.89-8.91,5.77-8.9,12.89-8.9S270.44,336.81,270.44,341.73Z" transform="translate(-150.5 -150)" fill="#af6751" opacity="0.6"/><path d="M356.22,341.73c0,4.92-5.77,8.91-12.89,8.91s-12.89-4-12.89-8.91,5.77-8.9,12.89-8.9S356.22,336.81,356.22,341.73Z" transform="translate(-150.5 -150)" fill="#af6751" opacity="0.6"/><path d="M344.89,219.3c-20.5-13.6-50-15-73.61-7.25-12.88,4.2-44.07,15.34-47.46,57.23-4.49,30.44,6.23,49.42,6.23,49.42s1.55-27.32,55.31-42.31c35.22-9.82,47.06-20.93,47.06-20.93s3.81,15.15,18.84,30.77c20,20.8,18.2,36.43,18.2,36.43s7-10.65,8.05-28.55v0C381.45,274.09,378.21,241.4,344.89,219.3Z" transform="translate(-150.5 -150)" fill="#331907"/><ellipse cx="154.81" cy="62.71" rx="32.88" ry="29.29" fill="#331907"/><path d="M305.32,183.42c35.64-1.1,49.34,28.89,52.66,52.65s-57.36-6.23-57.36-6.23Z" transform="translate(-150.5 -150)" fill="#331907"/><path d="M319.52,357.73c-7.33,17.87-36.57,12.12-38.6-.17Z" transform="translate(-150.5 -150)" fill="#fff"/><path d="M278.82,357.91a2.12,2.12,0,0,1,2.1-2.48h0l38.6.17a2.11,2.11,0,0,1,1.76.95,2.16,2.16,0,0,1,.21,2c-3.25,7.92-11,12.65-20.82,12.65h0C291,371.2,280.19,366.23,278.82,357.91Zm5.18,1.8c2.55,4.1,9.4,7.22,16.67,7.22h0c3.37,0,11-.76,15.29-7.07Z" transform="translate(-150.5 -150)" fill="#5f3a1b"/><path d="M253.48,301.7a2.82,2.82,0,0,1-2-4.78c3.8-4,10.87-5.11,16.21-4.83,2.77.15,9.56.94,12.69,5a2.84,2.84,0,0,1-4.5,3.45c-.9-1.18-3.95-2.57-8.5-2.81-5-.26-9.79,1-11.81,3.09A2.82,2.82,0,0,1,253.48,301.7Z" transform="translate(-150.5 -150)" fill="#331907"/><path d="M349.48,301.43a2.82,2.82,0,0,0,2-4.78c-3.8-4-10.87-5.12-16.2-4.84-2.78.15-9.56.94-12.69,5a2.83,2.83,0,0,0,4.49,3.44c.9-1.18,3.95-2.56,8.5-2.81,5.05-.26,9.79,1,11.81,3.09A2.84,2.84,0,0,0,349.48,301.43Z" transform="translate(-150.5 -150)" fill="#331907"/><path d="M254,318.33a3.27,3.27,0,0,1-1.89-.58,2.73,2.73,0,0,1-1.17-1.86,2.63,2.63,0,0,1,.61-2.05,17.77,17.77,0,0,1,13.43-6.33h.38a17.48,17.48,0,0,1,13.18,5.79,2.62,2.62,0,0,1,.65,2,2.79,2.79,0,0,1-1.13,1.94,3.3,3.3,0,0,1-1.95.66h0a3.22,3.22,0,0,1-2.48-1.05,11.09,11.09,0,0,0-8.35-3.68H265a11.27,11.27,0,0,0-8.49,4A3.3,3.3,0,0,1,254,318.33Z" transform="translate(-150.5 -150)" fill="#3a1e0a"/><path d="M325.89,318.14a3.34,3.34,0,0,1-1.95-.61,2.77,2.77,0,0,1-1.18-1.89,2.56,2.56,0,0,1,.6-2,17.49,17.49,0,0,1,13.4-6.11,17.94,17.94,0,0,1,13.6,5.95,2.62,2.62,0,0,1,.65,2,2.66,2.66,0,0,1-1.11,1.87,3.39,3.39,0,0,1-4.45-.45,11.31,11.31,0,0,0-8.52-3.78,11.15,11.15,0,0,0-8.56,3.89,3.2,3.2,0,0,1-2.46,1.1Z" transform="translate(-150.5 -150)" fill="#3a1e0a"/></svg>