<svg id="Layer_1" data-name="Layer 1" xmlns="http://www.w3.org/2000/svg" viewBox="0 0 300 300"><path d="M450.5,300a150,150,0,1,1-150-150A150,150,0,0,1,450.5,300Z" transform="translate(-150.5 -150)" fill="#f56d65"/><path d="M408.09,404.47a21,21,0,0,0-5.21-10.41c12.4,1.38,17.13-18.23,7.43-27.73,13.6-6.58,9.91-24.07,1.65-26.2,11.57-3.72,10.81-18.14-1.2-24.08,6.25-4.51,1.48-17.64-8.43-18.7,5.39-11.6-4-19.77-13-18.79,6.81-6.53,2-20.55-11-21.82,9.67-15.48-3.27-29.19-14.58-29.45,2.12-18.63-13.83-27.46-29.55-17,0-3-3.11-9.35-9.75-12.69-15.39-7.73-27.3,8.17-27.3,8.17a26.13,26.13,0,0,0-17-8.92c-9.82-1.18-23.08,2.41-27.5,17.61-16.31-3-29.84,9.67-26.53,26.25-13.39,3.7-21.63,17.16-14.64,31.77-12.16,1.39-15.61,20.68-7.11,27.66-19.23,2.68-19.23,23.43-9.24,30.83-15.94,8.48-11,31.27,2.29,32.81-17.1,8.09-11.45,33,1.62,33.05a21.65,21.65,0,0,0-3.3,10.4,149.89,149.89,0,0,0,63.16,36.86c3.75-7.46,7.51-15.36,11.57-15.36,9.25,0,19.22,1.68,28.37,1.06,11.72-.79,22.89-1.28,34.2-4.25,1.87-.49,6,9.57,9.87,18.36A149.8,149.8,0,0,0,408.09,404.47Z" transform="translate(-150.5 -150)" fill="#331907"/><path d="M249,312.31c1.27,10.2-4.61,19.32-13.13,20.38s-16.44-6.36-17.71-16.56,4.62-19.33,13.14-20.38S247.76,302.11,249,312.31Z" transform="translate(-150.5 -150)" fill="#8e5f35"/><path d="M350.64,312.31c-1.26,10.2,4.61,19.32,13.13,20.38s16.45-6.36,17.71-16.56-4.62-19.33-13.14-20.38S351.9,302.11,350.64,312.31Z" transform="translate(-150.5 -150)" fill="#8e5f35"/><path d="M352.31,249c-12.51-17.75-25.21-19.44-45.93-20.3L288,231.56c-20.72.86-28.58-2.08-41.09,15.67s-12,5.23-11,26.65c.75,16.19-8.92,4.83-2.23,49.85s45.79,59.45,66.36,59.45,56.74-12.07,66.37-59.45-3-33.66-2.24-49.85C365.18,252.46,364.83,266.77,352.31,249Z" transform="translate(-150.5 -150)" fill="#8e5f35"/><path d="M268.05,442.69c.68-2.82,1.37-5.59,2.08-8.29A11.58,11.58,0,0,0,268.05,442.69Z" transform="translate(-150.5 -150)" fill="#fc9"/><path d="M330,434.4c.7,2.7,1.39,5.47,2.07,8.29A11.55,11.55,0,0,0,330,434.4Z" transform="translate(-150.5 -150)" fill="#fc9"/><rect x="136.95" y="225.8" width="25.23" height="51.85" fill="#8e5f35"/><path d="M295.6,340.3h-.23A2.57,2.57,0,0,1,293,337.5c.35-3.89.89-19.16.89-23.83a2.57,2.57,0,0,1,5.13,0c0,4.44-.52,19.93-.91,24.29A2.57,2.57,0,0,1,295.6,340.3Z" transform="translate(-150.5 -150)" fill="#5f3a1b"/><path d="M252,292.73a2.78,2.78,0,0,1-1.65-5c5.16-3.82,20.68-5.18,26.28.24a2.78,2.78,0,0,1-3.87,4c-3.41-3.3-15.75-2.25-19.1.24A2.86,2.86,0,0,1,252,292.73Z" transform="translate(-150.5 -150)" fill="#331907"/><path d="M326.05,292.42a2.78,2.78,0,0,1-1.55-5.08c5.48-3.68,19.25-5.56,27.52,0a2.78,2.78,0,0,1-3.1,4.61c-6.26-4.22-17.57-2.52-21.32,0A2.74,2.74,0,0,1,326.05,292.42Z" transform="translate(-150.5 -150)" fill="#331907"/><path d="M345.92,311.93c0,6-.67,2.89-9.1,2.89s-9.11,3.07-9.11-2.89,4.08-10.82,9.11-10.82S345.92,306,345.92,311.93Z" transform="translate(-150.5 -150)" fill="#3a1e0a"/><path d="M268.05,442.69c.68-2.82,1.37-5.59,2.08-8.29A11.58,11.58,0,0,0,268.05,442.69Z" transform="translate(-150.5 -150)" fill="#fc9"/><path d="M330,434.4c.7,2.7,1.39,5.47,2.07,8.29A11.55,11.55,0,0,0,330,434.4Z" transform="translate(-150.5 -150)" fill="#fc9"/><path d="M270.07,335.51c0,4.91-5.76,8.89-12.86,8.89s-12.86-4-12.86-8.89,5.76-8.89,12.86-8.89S270.07,330.61,270.07,335.51Z" transform="translate(-150.5 -150)" fill="#af6751" opacity="0.6"/><path d="M355.65,335.51c0,4.91-5.76,8.89-12.86,8.89s-12.85-4-12.85-8.89,5.75-8.89,12.85-8.89S355.65,330.61,355.65,335.51Z" transform="translate(-150.5 -150)" fill="#af6751" opacity="0.6"/><path d="M272.29,311.93c0,6-.67,2.89-9.11,2.89s-9.1,3.07-9.1-2.89,4.08-10.82,9.1-10.82S272.29,306,272.29,311.93Z" transform="translate(-150.5 -150)" fill="#3a1e0a"/><path d="M272.29,311.45c0,6-4.07,10.8-9.1,10.8s-9.11-4.84-9.11-10.8,4.08-10.81,9.11-10.81S272.29,305.48,272.29,311.45Z" transform="translate(-150.5 -150)" fill="#3a1e0a"/><path d="M345.92,311.45c0,6-4.08,10.8-9.1,10.8s-9.11-4.84-9.11-10.8,4.08-10.81,9.11-10.81S345.92,305.48,345.92,311.45Z" transform="translate(-150.5 -150)" fill="#3a1e0a"/><path d="M279.24,350.31c3.87,20.83,37.24,16.56,38.94,0Z" transform="translate(-150.5 -150)" fill="#fff"/><path d="M298,366.52h0c-8.76,0-18.9-4.17-21.07-15.85a2,2,0,0,1,.52-1.74,2.48,2.48,0,0,1,1.8-.76h38.94a2.46,2.46,0,0,1,1.75.7,2,2,0,0,1,.6,1.64C319.47,360.9,308.12,366.52,298,366.52Zm-15.78-14.07c3.14,9,12.72,9.79,15.77,9.79,7.21,0,15.18-3.41,17.34-9.79Z" transform="translate(-150.5 -150)" fill="#5f3a1b"/><path d="M237.33,281.57c12.56,4.88,32.29-17.86,26.9-35-.54,6.85,32.27,19.52,42.48,3.74,2.52,19.7,26.77,23.84,34.92,16.11-.36,14.63,15.68,26.35,21.36,20.32-3.41,3.62,1.41,17.09,10,17.09,12.82,0,1.92-23.59,1.18-29.68-2.31-19.1-11.87-39.84-28.14-50.93-1-.71-2.11-1.38-3.21-2-26-14.54-45.67.59-75.58,3.91-24.92,2.77-39.6,19.23-43.9,42.55a63.84,63.84,0,0,0-.33,22.73c.71,3.81,3.76,11.23,7.05,13.46C239.43,310.25,239.69,286.68,237.33,281.57Z" transform="translate(-150.5 -150)" fill="#331907"/><path d="M348.32,428.84c-5.77-17-8.45-19.74-28.65-28.78-.26-.12-7.17-4.12-7.17-4.12L300,421.15,293.83,410l-6.55-14s-5.89,3.55-6.09,3.64C260,409,257.25,411.73,251.45,428.84c-.7,2.06-1.77,6.35-3,11.9a149.57,149.57,0,0,0,50,9.21c.64,0,1.27.05,1.92.05l.79,0a149.77,149.77,0,0,0,50.27-8.91C350.14,435.35,349,430.94,348.32,428.84Z" transform="translate(-150.5 -150)" fill="#facb4c"/><circle cx="81.07" cy="184.1" r="6.08" fill="#fff"/><circle cx="217.59" cy="184.1" r="6.08" fill="#fff"/></svg>