<svg id="Layer_1" data-name="Layer 1" xmlns="http://www.w3.org/2000/svg" viewBox="0 0 300 300"><path d="M450.5,300a150,150,0,1,1-150-150A150,150,0,0,1,450.5,300Z" transform="translate(-150.5 -150)" fill="#6daf6d"/><path d="M346.92,215.81c0,24.11-20.78,43.66-46.42,43.66s-46.42-19.55-46.42-43.66,20.78-43.66,46.42-43.66S346.92,191.7,346.92,215.81Z" transform="translate(-150.5 -150)" fill="#eae2da"/><ellipse cx="150" cy="130" rx="89.66" ry="83.3" fill="#eae2da"/><rect x="138.38" y="220.73" width="24.42" height="37.71" fill="#8e5f35"/><path d="M358.4,228.05c-12.51-17.75-25.36-18.29-46.08-19.16H289.81c-20.73.87-33.57,1.41-46.08,19.16s-14.22,2.08-13.23,23.51c.75,16.18-4.63,25.1,2.06,70.12s40.73,59.45,68.5,59.45,58.87-12.06,68.5-59.45-5.12-33.66-4.37-49.85C366.18,250.41,370.92,245.8,358.4,228.05Z" transform="translate(-150.5 -150)" fill="#8e5f35"/><path d="M311.78,417.66c11.12-3.71,20.51-10,22.9-22.49-4.09-2.33-21.41-9.72-21.41-9.72h-24s-15.84,6.73-19.45,8.63C267.64,410.82,295,421.38,311.78,417.66Z" transform="translate(-150.5 -150)" fill="#8e5f35"/><path d="M334.68,395.17c-5.13,9.7-14.64,15-25.77,18.73-16.74,3.72-35.06-6.4-39.11-19.82-14,4.93-30.56,24.82-30.92,42.67a148.51,148.51,0,0,0,17.72,6.71c.89.27,1.79.5,2.69.76a149.75,149.75,0,0,0,37.7,5.69c.88,0,1.75.06,2.62.07l.89,0a150,150,0,0,0,43-6.27l2.64-.81a149.93,149.93,0,0,0,17.33-6.76C362.76,418.9,347.84,402.32,334.68,395.17Z" transform="translate(-150.5 -150)" fill="#facb4c"/><path d="M296.6,338.25l-.24,0a2.55,2.55,0,0,1-2.32-2.78c.35-3.89.89-19.16.89-23.83a2.57,2.57,0,0,1,5.13,0c0,4.44-.52,19.93-.91,24.29A2.57,2.57,0,0,1,296.6,338.25Z" transform="translate(-150.5 -150)" fill="#5f3a1b"/><path d="M299.49,360.31c-8.9,0-16.43-3.34-20.3-9a2.57,2.57,0,1,1,4.25-2.88c3,4.46,9.38,7,17,6.76,7.19-.21,13.74-2.94,15.93-6.63a2.56,2.56,0,1,1,4.41,2.62c-3.14,5.27-11.06,8.87-20.18,9.14Z" transform="translate(-150.5 -150)" fill="#5f3a1b"/><path d="M271.07,326.1c0,4.9-5.76,8.89-12.86,8.89s-12.86-4-12.86-8.89,5.76-8.89,12.86-8.89S271.07,321.19,271.07,326.1Z" transform="translate(-150.5 -150)" fill="#af6751" opacity="0.6"/><path d="M356.65,326.1c0,4.9-5.76,8.89-12.86,8.89s-12.86-4-12.86-8.89,5.76-8.89,12.86-8.89S356.65,321.19,356.65,326.1Z" transform="translate(-150.5 -150)" fill="#af6751" opacity="0.6"/><path d="M322.25,238.2S310,269,222.16,287.91c0,0-1.24-72.86,42.17-81.4s88.69,7.8,88.69,7.8,28.84,39,26.17,84.76C379.19,299.07,332.2,274.68,322.25,238.2Z" transform="translate(-150.5 -150)" fill="#eae2da"/><path d="M345.2,309.89c0,6-.67,2.89-9.11,2.89s-9.1,3.09-9.1-2.89,4.08-10.81,9.1-10.81S345.2,303.92,345.2,309.89Z" transform="translate(-150.5 -150)" fill="#331907"/><path d="M271.57,309.89c0,6-.67,2.89-9.11,2.89s-9.1,3.09-9.1-2.89,4.08-10.81,9.1-10.81S271.57,303.92,271.57,309.89Z" transform="translate(-150.5 -150)" fill="#331907"/><path d="M251.7,294.24a2.78,2.78,0,0,1-2.11-4.84c4.78-4.29,20.1-7.1,26.18-2.23a2.78,2.78,0,0,1-3.48,4.34c-3.7-3-15.88-.76-19,2A2.83,2.83,0,0,1,251.7,294.24Z" transform="translate(-150.5 -150)" fill="#331907" opacity="0.7"/><path d="M325.12,292.22a2.78,2.78,0,0,1-1.28-5.16c5.67-3.39,19.53-4.52,27.48,1.48A2.78,2.78,0,1,1,348,293c-6-4.54-17.41-3.46-21.28-1.15A2.71,2.71,0,0,1,325.12,292.22Z" transform="translate(-150.5 -150)" fill="#331907" opacity="0.7"/><path d="M267.84,426.3a1.39,1.39,0,0,0-1.38-1.37h0a1.38,1.38,0,0,0-1.37,1.4c0,2.6-2.44,6.25-3.43,7.47a32.35,32.35,0,0,0-5,9.66c.89.27,1.79.5,2.69.76a29.1,29.1,0,0,1,4.53-8.72C264,435.29,267.89,430.42,267.84,426.3Z" transform="translate(-150.5 -150)" fill="#e8b434"/><path d="M337.82,426.33a1.37,1.37,0,0,0-1.36-1.4h0a1.39,1.39,0,0,0-1.38,1.37c-.05,4.12,3.85,9,4,9.16a29.43,29.43,0,0,1,4.42,8.27l2.64-.81a32.67,32.67,0,0,0-4.87-9.16C340.27,432.58,337.79,428.93,337.82,426.33Z" transform="translate(-150.5 -150)" fill="#e8b434"/><path d="M265.37,349.63a3.18,3.18,0,0,1-3.36,0,2.69,2.69,0,0,1-.45-4,43.7,43.7,0,0,1,10-10c1.4-.93,3.68-1.33,4.54,0s-.06,3.47-1.35,4.55a52.5,52.5,0,0,0-8.41,8.58A3.33,3.33,0,0,1,265.37,349.63Z" transform="translate(-150.5 -150)" fill="#5f3a1b" opacity="0.4"/><path d="M335,350.46a3.18,3.18,0,0,0,3.36,0,2.7,2.7,0,0,0,.44-4,43.82,43.82,0,0,0-10-10c-1.4-.94-3.68-1.33-4.54,0s.05,3.48,1.34,4.56a52.52,52.52,0,0,1,8.42,8.58A3.2,3.2,0,0,0,335,350.46Z" transform="translate(-150.5 -150)" fill="#5f3a1b" opacity="0.4"/><path d="M352.24,314.59a3.2,3.2,0,0,0,2.7-2,2.7,2.7,0,0,0-2.07-3.44,43.9,43.9,0,0,0-14-1.89c-1.68.11-3.73,1.18-3.6,2.77s2.16,2.72,3.84,2.8a52.28,52.28,0,0,1,11.9,1.69A3.27,3.27,0,0,0,352.24,314.59Z" transform="translate(-150.5 -150)" fill="#331907" opacity="0.2"/><path d="M246.65,314.8a3.18,3.18,0,0,1-2.69-2,2.7,2.7,0,0,1,2.06-3.44,43.67,43.67,0,0,1,14-1.9c1.68.11,3.73,1.18,3.6,2.78s-2.16,2.72-3.84,2.8a51.73,51.73,0,0,0-11.9,1.69A3.27,3.27,0,0,1,246.65,314.8Z" transform="translate(-150.5 -150)" fill="#331907" opacity="0.2"/></svg>