<svg id="Layer_1" data-name="Layer 1" xmlns="http://www.w3.org/2000/svg" viewBox="0 0 300 300"><path d="M150.5,300a150,150,0,1,0,150-150A150,150,0,0,0,150.5,300Z" transform="translate(-150.5 -150)" fill="#87c6db"/><path d="M210.55,382.14c0,42.44,30,61.34,72.41,61.34H318c42.44,0,72.41-18.9,72.41-61.34l-2.22-106c0-42.45-37-88-87.73-88h0c-54.89,0-87.73,45.51-87.73,88Z" transform="translate(-150.5 -150)" fill="#82512f"/><rect x="138.5" y="222.89" width="25.23" height="38.95" fill="#f4cd98"/><path d="M350.05,421c-5.2-15.36-7.94-19.07-23.18-26.27L317,390.27v.08c-1.51-1.17-12.79,16-15.48,16.84-2.68-.82-14.2-17.84-15.85-16.75l0-.09-9.75,4.59C261,402,258.26,406,253.18,421c-1,2.95-2.76,10.42-4.79,19.7a149.52,149.52,0,0,0,20.57,6l2.5.52a151.08,151.08,0,0,0,24.89,2.73c1.38,0,2.76.1,4.15.1.6,0,1.2,0,1.8-.05,1.4,0,2.79-.05,4.18-.1a149.71,149.71,0,0,0,25.6-3.21c.7-.15,1.38-.32,2.07-.48a147.53,147.53,0,0,0,20.51-6.28C352.71,431,351,423.86,350.05,421Z" transform="translate(-150.5 -150)" fill="#fff"/><path d="M317,390.35c-1.51-1.17-2.78-2.26-2.78-2.26l-.21.3a15.35,15.35,0,0,1-25-.29h0s-1.68,1.26-3.33,2.35l.83,3.4,14,56.11h1.81l14.3-57.33Z" transform="translate(-150.5 -150)" fill="#ff9cbd"/><path d="M244.31,225.73c12.51-17.74,25.36-18.29,46.08-19.15h22.52c20.72.86,30,8.7,42.47,26.45s11.38,15.07,10.4,36.49c-.75,16.18,8.92,4.83,2.23,49.85s-45.79,59.45-66.36,59.45-56.73-12.07-66.37-59.45,3-33.67,2.24-49.85C236.53,248.1,231.79,243.49,244.31,225.73Z" transform="translate(-150.5 -150)" fill="#f4cd98"/><path d="M297.15,336.12h-.24a2.55,2.55,0,0,1-2.32-2.78c.35-3.89.89-19.16.89-23.83a2.57,2.57,0,1,1,5.13,0c0,4.44-.52,19.94-.91,24.29A2.56,2.56,0,0,1,297.15,336.12Z" transform="translate(-150.5 -150)" fill="#c68e75"/><path d="M317.38,199.32c17.13,3.9,29.57,10.48,39.93,24.63,5.23,7.13,5.24,8.19.42,16.8-3.5,6.25-27.89,23.33-80.65,19.66a40,40,0,0,0-38.51,21.27c-2.93,5.69-6.77,9.93-7.61,22.95-.68,10.61-10.27-15-11.25-25-2-19.86,7.18-38.79,19-53.92C258.18,200.68,285.19,192,317.38,199.32Z" transform="translate(-150.5 -150)" fill="#82512f"/><path d="M371.07,303.21c5.79-13.85,5-90.08-17.69-68.52C350.62,275,368.68,275.3,371.07,303.21Z" transform="translate(-150.5 -150)" fill="#82512f"/><path d="M271.62,324.77c0,4.9-5.76,8.88-12.86,8.88s-12.86-4-12.86-8.88,5.76-8.89,12.86-8.89S271.62,319.86,271.62,324.77Z" transform="translate(-150.5 -150)" fill="#f2ba94"/><path d="M357.2,324.77c0,4.9-5.76,8.88-12.86,8.88s-12.86-4-12.86-8.88,5.76-8.89,12.86-8.89S357.2,319.86,357.2,324.77Z" transform="translate(-150.5 -150)" fill="#f2ba94"/><path d="M253.25,290.7a2.79,2.79,0,0,1-1.09-5.35c9.07-3.86,19.27-3.86,25.39,0a2.78,2.78,0,1,1-3,4.71c-3.74-2.35-11.68-3.22-20.26.42A2.76,2.76,0,0,1,253.25,290.7Z" transform="translate(-150.5 -150)" fill="#54280a" opacity="0.7"/><path d="M324.91,290.73a2.78,2.78,0,0,1-1.61-5.06c4.82-3.4,19.9-4.46,26.06-.83a2.78,2.78,0,0,1-2.83,4.79c-4.2-2.48-16.73-1.74-20,.58A2.75,2.75,0,0,1,324.91,290.73Z" transform="translate(-150.5 -150)" fill="#54280a" opacity="0.7"/><path d="M277.44,310a2.73,2.73,0,0,1-1.62-.53c-5.78-4.15-13.35-4.79-21.31-1.79a2.79,2.79,0,1,1-2-5.22c9.76-3.66,19.17-2.78,26.51,2.49a2.79,2.79,0,0,1-1.62,5Z" transform="translate(-150.5 -150)" fill="#54280a"/><path d="M323.64,310a2.79,2.79,0,0,1-1.62-5c7.33-5.26,16.75-6.15,26.51-2.49a2.79,2.79,0,0,1-2,5.22c-8-3-15.53-2.36-21.31,1.79A2.73,2.73,0,0,1,323.64,310Z" transform="translate(-150.5 -150)" fill="#54280a"/><path d="M281.25,346.83c7.33,17.86,36.57,12.11,38.6-.17Z" transform="translate(-150.5 -150)" fill="#fff"/><path d="M300.09,360.29h0c-9.79,0-17.57-4.73-20.82-12.65a2.16,2.16,0,0,1,.21-2,2.11,2.11,0,0,1,1.76-.95l38.6-.17h0A2.13,2.13,0,0,1,322,347C320.58,355.32,309.76,360.29,300.09,360.29ZM284.8,349c4.3,6.31,11.91,7.07,15.29,7.07h0c7.28,0,14.12-3.12,16.68-7.21Z" transform="translate(-150.5 -150)" fill="#c68e75"/></svg>