<svg id="Layer_1" data-name="Layer 1" xmlns="http://www.w3.org/2000/svg" viewBox="0 0 300 300"><path d="M150.5,300a150,150,0,1,0,150-150A150,150,0,0,0,150.5,300Z" transform="translate(-150.5 -150)" fill="#b3365e"/><rect x="135.87" y="230.75" width="30.28" height="46.75" fill="#f7bf7c"/><path d="M358.58,436.89c-6.24-17.94-9.47-22.27-27.77-30.67l-14.16-5.62s-2.25,7.18-15.14,7.18c-12.44,0-15.14-7.18-15.14-7.18l-16.73,5.88c-17.81,8.27-21.13,12.89-27.22,30.41-.13.36-.27.8-.41,1.27a149.41,149.41,0,0,0,32.25,9.51,151.28,151.28,0,0,0,19.54,2.16c2.22.1,4.45.17,6.7.17,2.07,0,4.13-.08,6.18-.16a151.45,151.45,0,0,0,19.54-2.08,149.13,149.13,0,0,0,32.77-9.6C358.85,437.69,358.71,437.25,358.58,436.89Z" transform="translate(-150.5 -150)" fill="#6daf6d"/><path d="M250.35,336.5c-10.31,3.13-19,14.23-19.23,37.44-.33,37.5,28.35,45.66,26.8,56.28,0,0,6.35-.09,14.22-6.25,14.38-11.25,26.61-35.16,1-67.77S260.66,333.37,250.35,336.5Z" transform="translate(-150.5 -150)" fill="#eae2da"/><path d="M249.57,318.47c1.27,10.23-4.62,19.37-13.16,20.43s-16.48-6.37-17.75-16.6,4.63-19.36,13.17-20.42S248.31,308.25,249.57,318.47Z" transform="translate(-150.5 -150)" fill="#f7bf7c"/><path d="M351.43,318.47c-1.27,10.23,4.62,19.37,13.16,20.43s16.48-6.37,17.75-16.6-4.63-19.36-13.17-20.42S352.69,308.25,351.43,318.47Z" transform="translate(-150.5 -150)" fill="#f7bf7c"/><path d="M358,236.07c-12.55-17.79-25.43-18.34-46.19-19.2H289.22c-20.77.86-33.65,1.41-46.19,19.2s-7.8,22.41-6.81,43.89c.75,16.22-8.95,4.84-2.24,50s45.9,59.6,66.52,59.6,56.87-12.1,66.52-59.6-3-33.74-2.24-50C365.77,258.48,370.52,253.87,358,236.07Z" transform="translate(-150.5 -150)" fill="#f7bf7c"/><path d="M296.28,348.29h-.23a2.57,2.57,0,0,1-2.33-2.79c.35-3.89.89-19.16.89-23.82a2.57,2.57,0,1,1,5.13,0c0,4.43-.52,19.92-.91,24.28A2.57,2.57,0,0,1,296.28,348.29Z" transform="translate(-150.5 -150)" fill="#c68659"/><path d="M330.25,334.94c0,4.9,5.76,8.88,12.86,8.88s12.85-4,12.85-8.88-5.75-8.89-12.85-8.89S330.25,330,330.25,334.94Z" transform="translate(-150.5 -150)" fill="#f79872" opacity="0.5"/><path d="M244.67,334.94c0,4.9,5.76,8.88,12.86,8.88s12.86-4,12.86-8.88-5.76-8.89-12.86-8.89S244.67,330,244.67,334.94Z" transform="translate(-150.5 -150)" fill="#f79872" opacity="0.5"/><path d="M275.22,319.28A2.7,2.7,0,0,1,274,319c-8.36-4.13-20-2.19-22.47-.29a2.83,2.83,0,1,1-3.45-4.48c4.47-3.44,18.69-5.11,28.43-.29a2.83,2.83,0,0,1-1.26,5.36Z" transform="translate(-150.5 -150)" fill="#331907"/><path d="M348.46,318.81a2.74,2.74,0,0,1-1.23-.29c-5.06-2.45-16.56-3.59-22.09-.14a2.83,2.83,0,0,1-3-4.8c7.56-4.71,21.14-3.25,27.56-.15a2.83,2.83,0,0,1-1.24,5.38Z" transform="translate(-150.5 -150)" fill="#331907"/><path d="M300.83,368c-7.38,0-15.94-1.81-20.63-7a2.57,2.57,0,0,1,3.81-3.44c3.38,3.74,11,5.8,19.46,5.22,6.51-.44,12-2.43,13.76-4.95a2.56,2.56,0,1,1,4.23,2.9c-2.68,3.92-9.27,6.59-17.64,7.16C302.86,368,301.85,368,300.83,368Z" transform="translate(-150.5 -150)" fill="#c68659"/><path d="M265.34,361.08a3.2,3.2,0,0,1-3.36,0,2.7,2.7,0,0,1-.45-4,43.62,43.62,0,0,1,10-10c1.4-.94,3.68-1.33,4.54,0s-.06,3.47-1.35,4.56a52.5,52.5,0,0,0-8.41,8.58A3.5,3.5,0,0,1,265.34,361.08Z" transform="translate(-150.5 -150)" fill="#c68659" opacity="0.5"/><path d="M334.93,361.91a3.2,3.2,0,0,0,3.36,0,2.71,2.71,0,0,0,.45-4,43.61,43.61,0,0,0-10-10c-1.4-.94-3.68-1.33-4.54,0s.06,3.47,1.34,4.56a52.42,52.42,0,0,1,8.42,8.57A3.37,3.37,0,0,0,334.93,361.91Z" transform="translate(-150.5 -150)" fill="#c68659" opacity="0.5"/><path d="M250.74,297.05a2.89,2.89,0,0,1-1.13-5.55c9.41-4,20-4,26.34,0a2.87,2.87,0,0,1,.9,4C276,296.82,251.11,297.05,250.74,297.05Z" transform="translate(-150.5 -150)" fill="#c68659"/><path d="M322.14,297.69a2.88,2.88,0,0,1-1.45-5.3c5.14-3.33,20.81-3.79,27,.23a2.89,2.89,0,0,1,.86,4C347.73,298,322.72,297.72,322.14,297.69Z" transform="translate(-150.5 -150)" fill="#c68659"/><path d="M344.89,212.11c-20.5-13-50-14.25-73.61-6.91-12.88,4-43.33,16.63-47.46,54.57-4.49,29,6.23,47.12,6.23,47.12,5.63-10.46,19.45-12.94,35.75-21.78,31.65-17.17,37.44-37.26,37.44-37.26s7,13.51,22.52,27.86c19.76,18.24,32.33,16.58,43.7,35,0,0,7-10.15,8.05-27.22v0C380.2,263.55,378.21,233.18,344.89,212.11Z" transform="translate(-150.5 -150)" fill="#eae2da"/></svg>