<svg id="Layer_1" data-name="Layer 1" xmlns="http://www.w3.org/2000/svg" viewBox="0 0 300 300"><path d="M150.5,300a150,150,0,1,0,150-150A150,150,0,0,0,150.5,300Z" transform="translate(-150.5 -150)" fill="#facb4c"/><path d="M410.35,359.19c6.27-5.64,7.93-17.55,1.51-25.59a9.85,9.85,0,0,1-1.32-10.54c3.64-7.3,2.66-17.53-5.23-22.78a9.91,9.91,0,0,1-4.42-10.35c1.56-6.58-.51-14.74-5.63-18.73a9.13,9.13,0,0,1-3.52-8.87,22,22,0,0,0-11.44-23.8,9.42,9.42,0,0,1-4.85-8A21.78,21.78,0,0,0,353.9,209a8.83,8.83,0,0,1-7.55-4.9c-5.62-11-12-13.76-19.92-13.55a14.79,14.79,0,0,0-7.56,2.12,8.91,8.91,0,0,1-10.56-1.13c-2.41-2.06-6-3.62-11.1-3.11a12.92,12.92,0,0,0-7.08,3.14,8.78,8.78,0,0,1-9.56,1.18,15.29,15.29,0,0,0-4.91-1.35c-8.32-1-14.71,1.5-20.5,11.74a11.7,11.7,0,0,1-9.31,5.93,21.7,21.7,0,0,0-20.25,20.42,12,12,0,0,1-5.78,9.51,22,22,0,0,0-10.71,22.41,11.55,11.55,0,0,1-4,10.25c-4.38,3.87-6.29,11-5.27,17,.74,4.48-.75,9.17-4.43,11.71-7.38,5.11-8.51,14.68-5.35,21.83a12.28,12.28,0,0,1-1.49,12,19.81,19.81,0,0,0,.12,22.76,11.49,11.49,0,0,1,.51,12.66c-4.64,8.08-2.56,18.89,3.1,23.78a12.41,12.41,0,0,1,3.64,11,22.55,22.55,0,0,0-.31,2.7,149.89,149.89,0,0,0,63.16,36.86c3.75-7.46,7.51-15.36,11.57-15.36h60.22c4.06,0,7.82,7.9,11.57,15.36a149.89,149.89,0,0,0,63.16-36.86,21.64,21.64,0,0,0-.4-3.17,11.26,11.26,0,0,1,3.56-10.42c6.41-5.33,8.37-18.16,1.53-26.43A5.81,5.81,0,0,1,410.35,359.19Z" transform="translate(-150.5 -150)" fill="#331907"/><path d="M249,312.31c1.27,10.2-4.61,19.32-13.13,20.38s-16.44-6.36-17.71-16.56,4.62-19.33,13.14-20.38S247.76,302.11,249,312.31Z" transform="translate(-150.5 -150)" fill="#e8ae7e"/><path d="M350.64,312.31c-1.26,10.2,4.61,19.32,13.13,20.38s16.45-6.36,17.71-16.56-4.62-19.33-13.14-20.38S351.9,302.11,350.64,312.31Z" transform="translate(-150.5 -150)" fill="#e8ae7e"/><path d="M352.31,249c-12.51-17.75-25.21-19.44-45.93-20.3L288,231.56c-20.72.86-28.58-2.08-41.09,15.67s-12,5.23-11,26.65c.75,16.19-8.92,4.83-2.23,49.85s45.79,59.45,66.36,59.45,56.74-12.07,66.37-59.45-3-33.66-2.24-49.85C365.18,252.46,364.83,266.77,352.31,249Z" transform="translate(-150.5 -150)" fill="#e8ae7e"/><path d="M268.05,442.69c.68-2.82,1.37-5.59,2.08-8.29A11.58,11.58,0,0,0,268.05,442.69Z" transform="translate(-150.5 -150)" fill="#fc9"/><path d="M330,434.4c.7,2.7,1.39,5.47,2.07,8.29A11.55,11.55,0,0,0,330,434.4Z" transform="translate(-150.5 -150)" fill="#fc9"/><rect x="136.95" y="225.8" width="25.23" height="51.85" fill="#e8ae7e"/><path d="M295.6,340.3h-.23A2.57,2.57,0,0,1,293,337.5c.35-3.89.89-19.16.89-23.83a2.57,2.57,0,0,1,5.13,0c0,4.44-.52,19.93-.91,24.29A2.57,2.57,0,0,1,295.6,340.3Z" transform="translate(-150.5 -150)" fill="#ba7e56"/><path d="M252,292.73a2.78,2.78,0,0,1-1.65-5c5.16-3.82,20.68-5.18,26.28.24a2.78,2.78,0,0,1-3.87,4c-3.41-3.3-15.75-2.25-19.1.24A2.86,2.86,0,0,1,252,292.73Z" transform="translate(-150.5 -150)" fill="#331907"/><path d="M326.05,292.42a2.78,2.78,0,0,1-1.55-5.08c5.48-3.68,19.25-5.56,27.52,0a2.78,2.78,0,0,1-3.1,4.61c-6.26-4.22-17.57-2.52-21.32,0A2.74,2.74,0,0,1,326.05,292.42Z" transform="translate(-150.5 -150)" fill="#331907"/><path d="M345.92,311.93c0,6-.67,2.89-9.1,2.89s-9.11,3.07-9.11-2.89,4.08-10.82,9.11-10.82S345.92,306,345.92,311.93Z" transform="translate(-150.5 -150)" fill="#3a1e0a"/><path d="M268.05,442.69c.68-2.82,1.37-5.59,2.08-8.29A11.58,11.58,0,0,0,268.05,442.69Z" transform="translate(-150.5 -150)" fill="#fc9"/><path d="M330,434.4c.7,2.7,1.39,5.47,2.07,8.29A11.55,11.55,0,0,0,330,434.4Z" transform="translate(-150.5 -150)" fill="#fc9"/><path d="M270.07,335.51c0,4.91-5.76,8.89-12.86,8.89s-12.86-4-12.86-8.89,5.76-8.89,12.86-8.89S270.07,330.61,270.07,335.51Z" transform="translate(-150.5 -150)" fill="#ef9d75"/><path d="M355.65,335.51c0,4.91-5.76,8.89-12.86,8.89s-12.85-4-12.85-8.89,5.75-8.89,12.85-8.89S355.65,330.61,355.65,335.51Z" transform="translate(-150.5 -150)" fill="#ef9d75"/><path d="M272.29,311.93c0,6-.67,2.89-9.11,2.89s-9.1,3.07-9.1-2.89,4.08-10.82,9.1-10.82S272.29,306,272.29,311.93Z" transform="translate(-150.5 -150)" fill="#3a1e0a"/><path d="M272.29,311.45c0,6-4.07,10.8-9.1,10.8s-9.11-4.84-9.11-10.8,4.08-10.81,9.11-10.81S272.29,305.48,272.29,311.45Z" transform="translate(-150.5 -150)" fill="#3a1e0a"/><path d="M345.92,311.45c0,6-4.08,10.8-9.1,10.8s-9.11-4.84-9.11-10.8,4.08-10.81,9.11-10.81S345.92,305.48,345.92,311.45Z" transform="translate(-150.5 -150)" fill="#3a1e0a"/><path d="M246,276.43c9.38-.27,19.93-6.08,23.12-15.75a6.94,6.94,0,0,1,8.32-4.65c6.4,1.65,15.52,1.35,22.69-3.33a6.9,6.9,0,0,1,9.67,2c5.6,8.88,17.24,11.62,25.43,10.09a6.61,6.61,0,0,1,7.52,4.33,18.62,18.62,0,0,0,15.92,13.21,4.47,4.47,0,0,1,3.85,3.71c.79,5.2,3.48,19.4,10.94,11.8,5.24-5.33,1.47-21.91.73-28-2.31-19.1-11.87-39.85-28.14-50.94-1-.7-2.11-1.37-3.21-2-26-14.54-45.67.59-75.58,3.91-24.92,2.77-39.6,19.23-43.9,42.54a63.89,63.89,0,0,0-.33,22.74c.71,3.81,3.76,11.22,7.05,13.45,6.71,4.55,9.25-7.21,9.3-16.17A7,7,0,0,1,246,276.43Z" transform="translate(-150.5 -150)" fill="#331907"/><path d="M348.32,428.84c-5.77-17-8.45-19.74-28.65-28.78-.26-.12-7.17-4.12-7.17-4.12L300,421.15l-12.69-25.21s-5.89,3.55-6.09,3.64C260,409,257.25,411.73,251.45,428.84c-.7,2.06-1.77,6.35-3,11.9a149.57,149.57,0,0,0,50,9.21c.64,0,1.27.05,1.92.05l.79,0a149.77,149.77,0,0,0,50.27-8.91C350.14,435.35,349,430.94,348.32,428.84Z" transform="translate(-150.5 -150)" fill="#87c6db"/><path d="M299.82,423.89a1.35,1.35,0,0,1-1.17-2l7.53-13.21,11.9,5.64L316.26,401a1.36,1.36,0,0,1,2.69-.36l2.48,18.29-14.14-6.7-6.29,11A1.36,1.36,0,0,1,299.82,423.89Z" transform="translate(-150.5 -150)" fill="#5ea8bc"/><path d="M301.18,422.53v-.35l-.9-1.64-6.15-11.18L294,409l-12.24,5.36L283.54,401a1.36,1.36,0,0,0-2.69-.36l-2.47,18.21,14.38-6.31,5.71,10.39C299.82,423.89,300.22,424.77,301.18,422.53Z" transform="translate(-150.5 -150)" fill="#5ea8bc"/><path d="M298.12,361.79h.55c9.07-.15,16.54-3.78,20.47-10a2.57,2.57,0,1,0-4.34-2.76c-4.24,6.66-12.75,7.51-16.21,7.57-6.42.09-12.46-2-14.46-4.89a2.57,2.57,0,0,0-4.25,2.9C282.82,359,290.11,361.79,298.12,361.79Z" transform="translate(-150.5 -150)" fill="#ba7e56"/></svg>