<svg id="Layer_1" data-name="Layer 1" xmlns="http://www.w3.org/2000/svg" viewBox="0 0 300 300"><path d="M150.5,300a150,150,0,1,0,150-150A150,150,0,0,0,150.5,300Z" transform="translate(-150.5 -150)" fill="#9b6b4b"/><path d="M338.7,390.52c0,16.94-16.73,30.67-37.37,30.67S264,407.46,264,390.52s16.73-30.67,37.37-30.67S338.7,373.58,338.7,390.52Z" transform="translate(-150.5 -150)" fill="#eae2da"/><rect x="135.87" y="230.75" width="30.28" height="46.75" fill="#e8ae7e"/><path d="M358.58,436.89c-6.24-17.94-9.47-22.27-27.77-30.67l-14.16-5.62s-2.25,7.18-15.14,7.18c-12.44,0-15.14-7.18-15.14-7.18l-16.73,5.88c-17.81,8.27-21.13,12.89-27.22,30.41-.13.36-.27.8-.41,1.27a149.41,149.41,0,0,0,32.25,9.51,151.28,151.28,0,0,0,19.54,2.16c2.22.1,4.45.17,6.7.17,2.07,0,4.13-.08,6.18-.16a151.45,151.45,0,0,0,19.54-2.08,149.13,149.13,0,0,0,32.77-9.6C358.85,437.69,358.71,437.25,358.58,436.89Z" transform="translate(-150.5 -150)" fill="#ec6f46"/><path d="M249.57,318.47c1.27,10.23-4.62,19.37-13.16,20.43s-16.48-6.37-17.75-16.6,4.63-19.36,13.17-20.42S248.31,308.25,249.57,318.47Z" transform="translate(-150.5 -150)" fill="#e8ae7e"/><path d="M351.43,318.47c-1.27,10.23,4.62,19.37,13.16,20.43s16.48-6.37,17.75-16.6-4.63-19.36-13.17-20.42S352.69,308.25,351.43,318.47Z" transform="translate(-150.5 -150)" fill="#e8ae7e"/><path d="M358,236.07c-12.55-17.79-25.43-18.34-46.19-19.2H289.22c-20.77.86-33.65,1.41-46.19,19.2s-7.8,22.41-6.81,43.89c.75,16.22-8.95,4.84-2.24,50s45.9,59.6,66.52,59.6,56.87-12.1,66.52-59.6-3-33.74-2.24-50C365.77,258.48,370.52,253.87,358,236.07Z" transform="translate(-150.5 -150)" fill="#e8ae7e"/><path d="M296.28,348.29h-.23a2.57,2.57,0,0,1-2.33-2.79c.35-3.89.89-19.16.89-23.82a2.57,2.57,0,1,1,5.13,0c0,4.43-.52,19.92-.91,24.28A2.57,2.57,0,0,1,296.28,348.29Z" transform="translate(-150.5 -150)" fill="#c68659"/><path d="M330.25,337.08c0,4.91,5.76,8.88,12.86,8.88S356,342,356,337.08s-5.75-8.88-12.85-8.88S330.25,332.17,330.25,337.08Z" transform="translate(-150.5 -150)" fill="#ef9d75"/><path d="M244.67,337.08c0,4.91,5.76,8.88,12.86,8.88s12.86-4,12.86-8.88-5.76-8.88-12.86-8.88S244.67,332.17,244.67,337.08Z" transform="translate(-150.5 -150)" fill="#ef9d75"/><path d="M300.83,368c-7.38,0-15.94-1.81-20.63-7a2.57,2.57,0,0,1,3.81-3.44c3.38,3.74,11,5.8,19.46,5.22,6.51-.44,12-2.43,13.76-4.95a2.56,2.56,0,1,1,4.23,2.9c-2.68,3.92-9.27,6.59-17.64,7.16C302.86,368,301.85,368,300.83,368Z" transform="translate(-150.5 -150)" fill="#c68659"/><path d="M265.34,361.08a3.2,3.2,0,0,1-3.36,0,2.7,2.7,0,0,1-.45-4,43.62,43.62,0,0,1,10-10c1.4-.94,3.68-1.33,4.54,0s-.06,3.47-1.35,4.56a52.5,52.5,0,0,0-8.41,8.58A3.5,3.5,0,0,1,265.34,361.08Z" transform="translate(-150.5 -150)" fill="#c68659" opacity="0.5"/><path d="M334.93,361.91a3.2,3.2,0,0,0,3.36,0,2.71,2.71,0,0,0,.45-4,43.61,43.61,0,0,0-10-10c-1.4-.94-3.68-1.33-4.54,0s.06,3.47,1.34,4.56a52.42,52.42,0,0,1,8.42,8.57A3.37,3.37,0,0,0,334.93,361.91Z" transform="translate(-150.5 -150)" fill="#c68659" opacity="0.5"/><path d="M250.54,298.28a2.8,2.8,0,0,1-2.24-1.12,2.77,2.77,0,0,1,.59-3.88c5.16-3.83,20.67-5.19,26.27.23a2.78,2.78,0,0,1-3.86,4c-3.41-3.3-15.75-2.24-19.11.24A2.74,2.74,0,0,1,250.54,298.28Z" transform="translate(-150.5 -150)" fill="#6b3f22" opacity="0.8"/><path d="M349,298a2.74,2.74,0,0,1-1.54-.48c-6.27-4.21-17.57-2.52-21.32,0a2.78,2.78,0,1,1-3.1-4.61c5.48-3.68,19.25-5.56,27.52,0A2.78,2.78,0,0,1,349,298Z" transform="translate(-150.5 -150)" fill="#6b3f22" opacity="0.8"/><path d="M344.89,212.11c-20.5-13-50-14.25-73.61-6.91-12.88,4-43.33,16.63-47.46,54.57-4.49,29,6.23,47.12,6.23,47.12,5.63-10.46,13.42-27.49,31.33-32.28,39.24-10.5,41.86-26.76,41.86-26.76s4.56,12.39,21.69,20.68c24.2,11.71,32.61,9.94,44.53,42.13,0,0,7-10.15,8.05-27.22v0C380.2,263.55,378.21,233.18,344.89,212.11Z" transform="translate(-150.5 -150)" fill="#eae2da"/><path d="M351.62,320.13a3.19,3.19,0,0,0,2.69-2,2.7,2.7,0,0,0-2.07-3.44,43.56,43.56,0,0,0-14-1.89c-1.69.11-3.73,1.18-3.6,2.77s2.16,2.72,3.84,2.8a52.28,52.28,0,0,1,11.9,1.69A3.25,3.25,0,0,0,351.62,320.13Z" transform="translate(-150.5 -150)" fill="#c68659" opacity="0.5"/><path d="M246,320.34a3.2,3.2,0,0,1-2.69-2,2.7,2.7,0,0,1,2.07-3.44,43.67,43.67,0,0,1,14-1.9c1.68.11,3.73,1.18,3.59,2.78s-2.15,2.72-3.84,2.8a51.65,51.65,0,0,0-11.89,1.69A3.31,3.31,0,0,1,246,320.34Z" transform="translate(-150.5 -150)" fill="#c68659" opacity="0.5"/><path d="M344.57,315.43c0,6-.66,2.89-9.1,2.89s-9.11,3.09-9.11-2.89,4.09-10.81,9.11-10.81S344.57,309.46,344.57,315.43Z" transform="translate(-150.5 -150)" fill="#331907"/><path d="M270.94,315.43c0,6-.66,2.89-9.1,2.89s-9.1,3.09-9.1-2.89,4.07-10.81,9.1-10.81S270.94,309.46,270.94,315.43Z" transform="translate(-150.5 -150)" fill="#331907"/><path d="M295.34,417.08a10.83,10.83,0,0,1-17.14-4.62l-1.92-5.28a1.31,1.31,0,1,1,2.46-.89l1.61,4.46a8.84,8.84,0,0,0,14,3.77l5.74-4.81a1.3,1.3,0,1,1,1.67,2Z" transform="translate(-150.5 -150)" fill="#d65634"/><path d="M323.69,412.62a10.83,10.83,0,0,1-17.11,4.54l-6.5-5.45a1.3,1.3,0,0,1,1.67-2l5.84,4.89a8.84,8.84,0,0,0,14-3.71l1.63-4.4a1.31,1.31,0,0,1,2.45.91Z" transform="translate(-150.5 -150)" fill="#d65634"/></svg>