<svg id="Layer_1" data-name="Layer 1" xmlns="http://www.w3.org/2000/svg" viewBox="0 0 300 300"><path d="M450.5,300a150,150,0,1,1-150-150A150,150,0,0,1,450.5,300Z" transform="translate(-150.5 -150)" fill="#dd6f8e"/><path d="M299.58,444.3c18.05,0,35.37-3.31,52.3-3.35a149.83,149.83,0,0,0,33.93-17.6L384,282.79c0-51.53-28.57-85.81-83.46-85.81-50.69,0-83.44,32.68-83.44,85.81l-1.86,140.56a149.36,149.36,0,0,0,36,18.33C272.22,438.22,282.29,444.3,299.58,444.3Z" transform="translate(-150.5 -150)" fill="#331907"/><path d="M359,232.55c-12.51-17.75-25.36-18.29-46.08-19.15H290.35c-20.72.86-33.57,1.4-46.08,19.15s-7.78,22.36-6.79,43.79c.75,16.18-8.92,4.83-2.23,49.84s45.79,59.46,66.36,59.46,56.73-12.07,66.37-59.46-3-33.66-2.24-49.84C366.72,254.91,371.47,250.31,359,232.55Z" transform="translate(-150.5 -150)" fill="#f9c18f"/><path d="M348,426.21c-4.94-14.22-9-13.82-20.79-20,0-.06-7.27-6.57-7.54-6.39a1,1,0,0,0-.32.37c-2.25-1.56-8.17-2.54-8.17-2.54-.11.64-7,.61-9.57,1.42-2.62-.82-9.7-1.88-9.77-2.53,0,0-6.43,3-8.29,4,0-.3.26,1.66,0,1.5s-7.77,4.45-7.74,4.69c0-.11,1.13-1,1.11-1.1-12.27,6.49-17.2,11.67-18,13.12-4.85,8.49-6.91,19.33-7.71,22.92q6.85,2.38,14,4.12a150.65,150.65,0,0,0,34.54,4.2l.79,0c.88,0,1.75-.05,2.62-.07a148.43,148.43,0,0,0,48.77-9A74,74,0,0,0,348,426.21Z" transform="translate(-150.5 -150)" fill="#f9c18f"/><rect x="138.5" y="230.57" width="25.22" height="38.96" fill="#f9c18f"/><path d="M297.14,342.75h-.23a2.56,2.56,0,0,1-2.32-2.78c.35-3.9.89-19.16.89-23.83a2.57,2.57,0,1,1,5.13,0c0,4.44-.52,19.93-.91,24.29A2.57,2.57,0,0,1,297.14,342.75Z" transform="translate(-150.5 -150)" fill="#bc835c"/><path d="M273.84,314.38c0,6-4.08,10.81-9.11,10.81s-9.1-4.84-9.1-10.81,4.08-10.81,9.1-10.81S273.84,308.42,273.84,314.38Z" transform="translate(-150.5 -150)" fill="#3a1e0a"/><path d="M276.22,297.32a2.76,2.76,0,0,1-2.08-.93,11.35,11.35,0,0,0-8.51-3.61c-3.89-.07-7.93,1.41-10.09,3.68a2.78,2.78,0,0,1-4-3.83c3.26-3.43,8.73-5.48,14.21-5.4a16.86,16.86,0,0,1,12.58,5.48,2.78,2.78,0,0,1-2.08,4.61Z" transform="translate(-150.5 -150)" fill="#3a1e0a"/><path d="M329.26,297a2.77,2.77,0,0,1-2.19-4.49c2.35-3,6.76-5,11.53-5.19a16.48,16.48,0,0,1,13,5,2.79,2.79,0,0,1-.1,3.93,2.76,2.76,0,0,1-3.92-.1,11.1,11.1,0,0,0-8.68-3.27c-3.57.16-6.35,1.71-7.42,3.07A2.75,2.75,0,0,1,329.26,297Z" transform="translate(-150.5 -150)" fill="#3a1e0a"/><path d="M347.47,314.38c0,6-4.08,10.81-9.1,10.81s-9.11-4.84-9.11-10.81,4.08-10.81,9.11-10.81S347.47,308.41,347.47,314.38Z" transform="translate(-150.5 -150)" fill="#3a1e0a"/><path d="M282.11,420.44a1.43,1.43,0,0,1-.88-2.56l9.81-7.67a1.43,1.43,0,0,1,2,.25,1.41,1.41,0,0,1-.25,2L283,420.13A1.39,1.39,0,0,1,282.11,420.44Z" transform="translate(-150.5 -150)" fill="#b0adb2"/><path d="M321.47,420.44a1.45,1.45,0,0,1-.85-.29l-10.71-8.08a1.43,1.43,0,1,1,1.73-2.28l10.7,8.08a1.43,1.43,0,0,1-.87,2.57Z" transform="translate(-150.5 -150)" fill="#b0adb2"/><path d="M320.52,400.38" transform="translate(-150.5 -150)" fill="#3c313f"/><path d="M271.62,338c0,4.91-5.76,8.89-12.86,8.89s-12.86-4-12.86-8.89,5.76-8.88,12.86-8.88S271.62,333.06,271.62,338Z" transform="translate(-150.5 -150)" fill="#f9a280" opacity="0.6"/><path d="M357.2,338c0,4.91-5.76,8.89-12.86,8.89s-12.86-4-12.86-8.89,5.76-8.88,12.86-8.88S357.2,333.06,357.2,338Z" transform="translate(-150.5 -150)" fill="#f9a280" opacity="0.6"/><path d="M343.91,415.46c-2.83-4.27-6.56-7.15-13-10.57,0-.06-16.65-8.82-16.65-8.82-.12.64-.27,1.28-.41,1.92C310.53,412.52,301,425.1,301,425.1S291.4,410.76,289.28,398c-.11-.65-.22-1.31-.28-1.95,0,0-17.05,9.15-17.07,9-6.7,3.55-10.3,6.44-12.95,10.62,0,0,7.37,27.27,6.19,30.06a150.65,150.65,0,0,0,34.54,4.2l.79,0c.88,0,1.75-.05,2.62-.07a150.24,150.24,0,0,0,34.44-4.55C338.26,432.7,343.91,415.46,343.91,415.46Z" transform="translate(-150.5 -150)" fill="#7c7c89"/><path d="M345.46,214.12c-20.5-13-50-14.25-73.6-6.91-12.89,4-43.34,16.63-47.47,54.57-4.49,29,6.24,59.11,6.24,59.11,5.63-10.46-1-30.77,31.32-44.28,37.47-15.67,41.87-26.75,41.87-26.75a56.93,56.93,0,0,0,24.49,22.85c24.2,11.71,36.2,18.51,41.73,52,0,0,7-22.14,8-39.21a0,0,0,0,1,0,0C380.77,265.56,378.79,235.19,345.46,214.12Z" transform="translate(-150.5 -150)" fill="#331907"/><path d="M300.89,365c-7.37,0-15.93-1.8-20.62-7a2.56,2.56,0,1,1,3.8-3.44c3.39,3.74,11,5.8,19.47,5.22,6.5-.44,12-2.43,13.75-4.95a2.56,2.56,0,1,1,4.23,2.9c-2.68,3.92-9.27,6.59-17.63,7.16C302.92,365,301.92,365,300.89,365Z" transform="translate(-150.5 -150)" fill="#bc835c"/></svg>