<svg id="Layer_1" data-name="Layer 1" xmlns="http://www.w3.org/2000/svg" viewBox="0 0 300 300"><path d="M150.5,300a150,150,0,1,0,150-150A150,150,0,0,0,150.5,300Z" transform="translate(-150.5 -150)" fill="#6daf6d"/><path d="M249.57,307.55c1.27,10.23-4.62,19.37-13.16,20.43s-16.48-6.38-17.75-16.6S223.29,292,231.83,291,248.3,297.33,249.57,307.55Z" transform="translate(-150.5 -150)" fill="#e8ae7e"/><path d="M351.43,307.55c-1.27,10.23,4.62,19.37,13.16,20.43s16.48-6.38,17.75-16.6S377.71,292,369.17,291,352.69,297.33,351.43,307.55Z" transform="translate(-150.5 -150)" fill="#e8ae7e"/><path d="M354.43,421.16c-5.71-14.3-11.73-17.43-38.79-29.57-4.76-1.72-11.92.12-15.14,1.13-3.22-1-10.38-2.85-15.15-1.13-20.11,9-28.59,13.07-34,20.42C283,425.2,320.68,428.52,354.43,421.16Z" transform="translate(-150.5 -150)" fill="#e8ae7e"/><path d="M358,225.15c-12.55-17.79-25.43-18.34-46.19-19.2H289.21c-20.77.86-33.64,1.41-46.18,19.2s-7.8,22.41-6.81,43.88c.75,16.23-8.95,4.85-2.24,50s45.9,59.6,66.52,59.6S358.25,366.2,367,319c8.86-47.65-3-33.74-2.24-50C365.77,247.56,370.52,243,358,225.15Z" transform="translate(-150.5 -150)" fill="#e8ae7e"/><rect x="134.86" y="219.4" width="30.28" height="46.75" fill="#e8ae7e"/><path d="M296,335.6h-.23a2.57,2.57,0,0,1-2.33-2.79c.35-3.9.89-19.2.89-23.88a2.58,2.58,0,0,1,5.15,0c0,4.44-.53,20-.92,24.34A2.57,2.57,0,0,1,296,335.6Z" transform="translate(-150.5 -150)" fill="#ba7e56"/><path d="M273.49,307.17c0,6-4.08,10.83-9.12,10.83s-9.13-4.85-9.13-10.83,4.09-10.83,9.13-10.83S273.49,301.19,273.49,307.17Z" transform="translate(-150.5 -150)" fill="#3a1e0a"/><path d="M275.88,287.93a2.81,2.81,0,0,1-2.09-.94,11.39,11.39,0,0,0-8.53-3.61c-3.8-.06-7.95,1.41-10.11,3.68a2.78,2.78,0,1,1-4-3.83c3.26-3.44,8.72-5.48,14.23-5.42A17,17,0,0,1,278,283.3a2.79,2.79,0,0,1-2.08,4.63Z" transform="translate(-150.5 -150)" fill="#3a1e0a"/><path d="M325.06,287.62a2.78,2.78,0,0,1-2.19-4.5c2.34-3,6.77-5,11.55-5.21a16.57,16.57,0,0,1,13,5,2.78,2.78,0,0,1-4,3.84,11.16,11.16,0,0,0-8.7-3.29c-3.57.17-6.36,1.72-7.43,3.08A2.74,2.74,0,0,1,325.06,287.62Z" transform="translate(-150.5 -150)" fill="#3a1e0a"/><path d="M343.32,307.17c0,6-4.09,10.83-9.13,10.83s-9.13-4.85-9.13-10.83,4.09-10.84,9.13-10.84S343.32,301.18,343.32,307.17Z" transform="translate(-150.5 -150)" fill="#3a1e0a"/><path d="M270.43,330.81c0,4.92-5.76,8.9-12.88,8.9s-12.89-4-12.89-8.9,5.77-8.9,12.89-8.9S270.43,325.89,270.43,330.81Z" transform="translate(-150.5 -150)" fill="#ef9d75"/><path d="M356.22,330.81c0,4.92-5.77,8.9-12.89,8.9s-12.89-4-12.89-8.9,5.77-8.9,12.89-8.9S356.22,325.89,356.22,330.81Z" transform="translate(-150.5 -150)" fill="#ef9d75"/><path d="M344.33,208.37c-20.49-13.59-50-14.94-73.6-7.24-12.89,4.2-44.08,15.33-47.47,57.23-4.49,30.44,6.24,49.42,6.24,49.42s1.55-27.32,55.3-42.31c35.23-9.82,47.06-20.93,47.06-20.93s3.82,15.15,18.84,30.76c20,20.81,18.21,36.44,18.21,36.44s7-10.65,8-28.56v0C380.89,263.17,377.66,230.47,344.33,208.37Z" transform="translate(-150.5 -150)" fill="#3a1e0a"/><path d="M345.55,198.57c0,24.51-18.33,28.56-40.94,28.56s-40.93-6.08-40.93-28.56C263.68,182.8,282,170,304.61,170S345.55,182.8,345.55,198.57Z" transform="translate(-150.5 -150)" fill="#3a1e0a"/><path d="M358.64,429.63c-6.93-20.95-10.14-24.26-34.38-35.37a1.14,1.14,0,0,0-1,0,1.41,1.41,0,0,0-.57.84c-1.05,3-4.41,7.53-8.17,12a17.29,17.29,0,0,1-26.61,0c-3.77-4.55-7.15-9.21-8.23-12.39l-.05-.24a1.12,1.12,0,0,0-1.57-.83c-25.39,11.58-28.73,14.94-35.68,36-.53,1.6-1.24,4.3-2.07,7.76a150,150,0,0,0,120.42,0C359.88,433.93,359.17,431.23,358.64,429.63Z" transform="translate(-150.5 -150)" fill="#3c313f"/><path d="M279.9,345.78c7.33,17.87,36.57,12.11,38.6-.17Z" transform="translate(-150.5 -150)" fill="#fff"/><path d="M298.75,359.25h0c-9.78,0-17.56-4.74-20.81-12.66a2.14,2.14,0,0,1,2-2.95l38.59-.17h0a2.17,2.17,0,0,1,1.63.75,2.19,2.19,0,0,1,.48,1.74C319.23,354.28,308.41,359.25,298.75,359.25Zm-15.3-11.35c4.31,6.32,11.92,7.07,15.29,7.07h0c7.27,0,14.12-3.11,16.67-7.21Z" transform="translate(-150.5 -150)" fill="#ba7e56"/><path d="M372.79,298H227.62a2.78,2.78,0,1,1,0-5.55H372.79a2.78,2.78,0,0,1,0,5.55Z" transform="translate(-150.5 -150)" fill="#aa214b"/><path d="M272.57,325.46c-6.17,0-13.43-.22-18.48-.37-2.39-.07-4.18-.13-4.93-.13-2.29,0-5.6-.27-7.92-2.62-3.16-3.2-3.1-8.54-3-17.39,0-1.84,0-3.85,0-6a2.78,2.78,0,1,1,5.56,0c0,2.21,0,4.24-.05,6.1-.09,6.89-.15,11.87,1.38,13.42.24.24,1,1,4,1,.77,0,2.63,0,5.1.13,7.14.21,20.43.61,26.34.15,3.93-.31,4.35-.86,4.28-16.51,0-1.54,0-3.19,0-5a2.78,2.78,0,0,1,5.55,0c0,1.78,0,3.42,0,5,.07,14.64.1,21.32-9.4,22.07C278.86,325.39,275.87,325.46,272.57,325.46Z" transform="translate(-150.5 -150)" fill="#aa214b"/><path d="M329,326.24a71,71,0,0,1-9.52-.42c-10.89-1.79-10.78-8.52-10.58-20.73,0-2.06.07-4.35.07-6.89a2.78,2.78,0,0,1,5.55,0c0,2.58,0,4.89-.07,7-.22,13.23.17,14.22,5.93,15.17,3.74.61,17.44.24,24,.06,2.15-.06,3.77-.1,4.49-.1,4.68,0,5.17-.78,5.7-2.28,1-2.94,1-10.87,1-20.93l2.77,0,2.78,0c0,11,0,18.94-1.35,22.77-1.94,5.53-6.66,6-10.93,6-.69,0-2.26,0-4.34.1C339.27,326.11,333.69,326.24,329,326.24Z" transform="translate(-150.5 -150)" fill="#aa214b"/></svg>