<svg id="Layer_1" data-name="Layer 1" xmlns="http://www.w3.org/2000/svg" viewBox="0 0 300 300"><path d="M450.5,300a150,150,0,1,1-150-150A150,150,0,0,1,450.5,300Z" transform="translate(-150.5 -150)" fill="#2d7e9e"/><path d="M384.84,280.07c-5.78-51.1-39.68-83.34-84.49-83.34-40.16,0-78.21,24.92-84.48,83.34-3.34,31.06,1.91,41.31-.09,77s-8.87,60.1-8.87,60.1a150,150,0,0,0,32,19.58c9.26,4.17,108.51,6.82,124.55-.6a150.16,150.16,0,0,0,30.38-18.76s-7.69-12.61-8.77-58.61C384.12,319.83,388.68,314,384.84,280.07Z" transform="translate(-150.5 -150)" fill="#eae2da"/><rect x="136.67" y="221.38" width="27.84" height="36.4" fill="#e0aa79"/><path d="M343.5,236.94C331,219.19,333,209.76,312.32,208.89H289.81c-20.73.87-13.51,1.74-26,19.48s-23.65,12.84-22.66,34.27c.47,10.16-12.1,6.38-12,21.55.08,9,.9,20.74,3.39,37.49,6.7,45,40.73,59.45,68.5,59.45s58.87-12.06,68.5-59.45-5.12-33.66-4.37-49.85C366.18,250.41,356,254.7,343.5,236.94Z" transform="translate(-150.5 -150)" fill="#e0aa79"/><path d="M311.78,417.66c11.12-3.71,20.51-10,22.9-22.49-4.09-2.33-21.41-7.58-21.41-7.58h-24s-21.71,8.27-25.33,10.16C261.76,414.5,295,421.38,311.78,417.66Z" transform="translate(-150.5 -150)" fill="#e0aa79"/><path d="M334.68,395.17c-5.13,9.7-14.64,15-25.77,18.73-16.74,3.72-40.93-2.72-45-16.15-14,4.94-24.68,21.15-25,39a148.51,148.51,0,0,0,17.72,6.71c.89.27,1.79.5,2.69.76a149.75,149.75,0,0,0,37.7,5.69c.88,0,1.75.06,2.62.07l.89,0a150,150,0,0,0,43-6.27l2.64-.81a149.93,149.93,0,0,0,17.33-6.76C362.76,418.9,347.84,402.32,334.68,395.17Z" transform="translate(-150.5 -150)" fill="#d3577d"/><path d="M296.6,338.25l-.24,0a2.55,2.55,0,0,1-2.32-2.78c.35-3.89.89-19.16.89-23.83a2.57,2.57,0,0,1,5.13,0c0,4.44-.52,19.93-.91,24.29A2.57,2.57,0,0,1,296.6,338.25Z" transform="translate(-150.5 -150)" fill="#b27d56"/><path d="M299.49,360.31c-8.9,0-16.43-3.34-20.3-9a2.57,2.57,0,1,1,4.25-2.88c3,4.46,9.38,7,17,6.76,7.19-.21,13.74-2.94,15.93-6.63a2.56,2.56,0,1,1,4.41,2.62c-3.14,5.27-11.06,8.87-20.18,9.14Z" transform="translate(-150.5 -150)" fill="#b27d56"/><path d="M271.07,328.31c0,4.9-5.76,8.89-12.86,8.89s-12.86-4-12.86-8.89,5.76-8.89,12.86-8.89S271.07,323.4,271.07,328.31Z" transform="translate(-150.5 -150)" fill="#e88c70" opacity="0.6"/><path d="M356.65,328.31c0,4.9-5.76,8.89-12.86,8.89s-12.86-4-12.86-8.89,5.76-8.89,12.86-8.89S356.65,323.4,356.65,328.31Z" transform="translate(-150.5 -150)" fill="#e88c70" opacity="0.6"/><path d="M251.7,294.24a2.78,2.78,0,0,1-2.11-4.84c4.78-4.29,20.1-7.1,26.18-2.23a2.78,2.78,0,0,1-3.48,4.34c-3.7-3-15.88-.76-19,2A2.83,2.83,0,0,1,251.7,294.24Z" transform="translate(-150.5 -150)" fill="#b27d56"/><path d="M325.12,292.22a2.78,2.78,0,0,1-1.28-5.16c5.67-3.39,19.53-4.52,27.48,1.48A2.78,2.78,0,1,1,348,293c-6-4.54-17.41-3.46-21.28-1.15A2.71,2.71,0,0,1,325.12,292.22Z" transform="translate(-150.5 -150)" fill="#b27d56"/><path d="M269.93,349.9a2.77,2.77,0,0,1-2.92,0,2.34,2.34,0,0,1-.39-3.47,37.92,37.92,0,0,1,8.66-8.71c1.22-.81,3.2-1.16,4,0s-.06,3-1.18,4a46,46,0,0,0-7.31,7.46A2.88,2.88,0,0,1,269.93,349.9Z" transform="translate(-150.5 -150)" fill="#b27d56" opacity="0.4"/><path d="M330.4,350.62a2.77,2.77,0,0,0,2.92,0,2.35,2.35,0,0,0,.39-3.47,38.12,38.12,0,0,0-8.66-8.71c-1.22-.81-3.2-1.16-3.95,0s0,3,1.17,4a45.5,45.5,0,0,1,7.31,7.45A2.92,2.92,0,0,0,330.4,350.62Z" transform="translate(-150.5 -150)" fill="#b27d56" opacity="0.4"/><path d="M340.6,215.39c-20.89-11.8-39.83-16.19-63.41-9.12-12.88,3.86-47.68,20.67-51.81,57.19A104.72,104.72,0,0,0,229.94,314c2.07-9.12.48-33.17,32.77-46.17,37.47-15.09,41.86-25.76,41.86-25.76a55.87,55.87,0,0,0,24.5,22c24.2,11.28,36.19,17.83,41.72,50,0,0,7-21.32,8-37.76a0,0,0,0,0,0,0C381.52,257.22,365.25,229.3,340.6,215.39Z" transform="translate(-150.5 -150)" fill="#eae2da"/><path d="M345.2,308c0,6-.67,9.94-9.11,9.94s-9.1-4-9.1-9.94,4.08-10.81,9.1-10.81S345.2,302,345.2,308Z" transform="translate(-150.5 -150)" fill="#331907"/><path d="M271.57,308c0,6-.67,9.94-9.11,9.94s-9.1-4-9.1-9.94,4.08-10.81,9.1-10.81S271.57,302,271.57,308Z" transform="translate(-150.5 -150)" fill="#331907"/><path d="M327.46,390.79a10.3,10.3,0,0,0-5.09,1.84c-7.61,5.92-31.4,24.47-52.64,41.6-3.74,3,66.92,2.67,89.66-1.94l9.95-14.09S366,409.91,357.73,406c0,0-4.1-7.33-19.07-10.48a8.09,8.09,0,0,1-4.08-2.36C333.41,392,331.24,390.66,327.46,390.79Z" transform="translate(-150.5 -150)" fill="#d3577d"/><path d="M269.16,426.89c16.09-12.44,48.65-30.79,48.65-30.79l-57.34,47.52.54-3.21A21.62,21.62,0,0,1,269.16,426.89Z" transform="translate(-150.5 -150)" fill="#facb4c"/></svg>