<svg id="Layer_1" data-name="Layer 1" xmlns="http://www.w3.org/2000/svg" viewBox="0 0 300 300"><path d="M450.5,300a150,150,0,1,1-150-150A150,150,0,0,1,450.5,300Z" transform="translate(-150.5 -150)" fill="#9cceb4"/><rect x="131.54" y="233.94" width="36.96" height="45.25" fill="#7c522c"/><path d="M336.66,416a4.76,4.76,0,0,1-.53-.19c-1.78-.65-70.49-.64-71.26-.35l-2,.77h0c-14.25,5.37-24.5,10.25-31.26,17A149,149,0,0,0,279,448.44c4.31.61,8.67,1.06,13.08,1.31.73,0,1.46.06,2.19.09,2.08.08,4.17.16,6.28.16s4.2-.08,6.28-.16c.84,0,1.69-.07,2.53-.12q6.53-.37,12.89-1.31a148.84,148.84,0,0,0,47.39-15.28C362.8,426.33,349.85,419.56,336.66,416Z" transform="translate(-150.5 -150)" fill="#ec6f46"/><path d="M345,314.39c-2.37,13.43,5.6,24.62,17.79,27s24-4.87,26.35-18.31-5.61-26.27-17.8-28.68S347.38,301,345,314.39Z" transform="translate(-150.5 -150)" fill="#7c522c"/><path d="M256.12,314.39c2.36,13.43-5.6,24.62-17.8,27s-24-4.87-26.34-18.31,5.6-26.27,17.79-28.68S253.76,301,256.12,314.39Z" transform="translate(-150.5 -150)" fill="#7c522c"/><path d="M363.21,230c-12.25-16.65-31.37-27.59-51.66-28.39l-1.05,0,0-.8-10,.4-10-.4,0,.8-1.05,0c-20.29.8-39.41,11.74-51.66,28.39s-13.33,33.37-12.37,53.47c.72,15.19,2.86,39.72,3.61,54.91,12.31,46.05,42.94,53.91,71.45,53.91s60.16-7.86,71.44-53.91c.76-15.19,2.89-35.43,3.62-50.62C376.54,267.66,375.48,246.66,363.21,230Z" transform="translate(-150.5 -150)" fill="#7c522c"/><path d="M336.1,415.78c-4-1.38-17.1-6.36-17.1-6.36a196.81,196.81,0,0,0-36.54-.29s-12.75,4.79-17.59,6.32c10.25,9.07,23.23,11.17,35.65,11.17S325.87,424.57,336.1,415.78Z" transform="translate(-150.5 -150)" fill="#7c522c"/><path d="M299.84,368.45c-9,0-16.79-2.27-21.79-6.37a2.83,2.83,0,0,1,3.58-4.38c4.39,3.61,12.18,5.48,20.8,5,7.8-.41,14.84-2.68,17.52-5.64a2.82,2.82,0,1,1,4.19,3.79c-3.72,4.12-11.93,7-21.41,7.5C301.76,368.42,300.79,368.45,299.84,368.45Z" transform="translate(-150.5 -150)" fill="#563217"/><path d="M364.69,263.23c-5.47,6.5-13.05,9.33-20.33,6.09-3.41-1.52-13-7.57-12.33-12.45-1.7,11.88-20.73,8.72-21.21-1.27-.47,8.82-25.45,12.35-34.91.48.73,12.59-17.86,14.34-25,6.14,3.66,12.14-15,18.54-17.15,5.51-1.16,13.74-.76,42.88-3.64,46-5.81,6.38-9.53-3.1-10.18-8.08a202.44,202.44,0,0,1-1.8-26.17l-.08-19.45c0-2.7-.1-3.47-.1-3.47s-12.44-15.2,5.51-21.39c-7.16-8.27,2.42-26.33,16-22.27-3.25-12.32,18.75-20.81,28.3-9.92-4.6-10.89,14.25-12.85,21.13-5.6-4.39-3.59-5.51-12.12.56-13.61,8.43-2.07,16.37,4.24,18.37,12.56,2.94-12.88,20.15-10.67,18.94,1.94,6.39-9.31,21.24,1.06,20.87,13.75,7.44-8.92,25.35,1.45,22.05,14.65.72-2.87,9.32-.23,13.07,6.2a16.63,16.63,0,0,1-.34,16.24,18.25,18.25,0,0,0-1.53,2.45c-1.7,4.07,2.27,39.63-4.37,58.88-2.76,8-9.39,5-10-1.56C366,303.27,366.21,271.65,364.69,263.23Z" transform="translate(-150.5 -150)" fill="#331907"/><path d="M268.39,311.54c0,5.56-3.8,10.07-8.48,10.07s-8.49-4.51-8.49-10.07,3.8-10.07,8.49-10.07S268.39,306,268.39,311.54Z" transform="translate(-150.5 -150)" fill="#331907"/><path d="M345.58,311.54c0,5.56-3.8,10.07-8.49,10.07s-8.48-4.51-8.48-10.07,3.8-10.07,8.48-10.07S345.58,306,345.58,311.54Z" transform="translate(-150.5 -150)" fill="#331907"/><path d="M293.6,345.91h-.2a2.82,2.82,0,0,1-2.62-3c.37-5.09.93-25.1.93-31.22a2.83,2.83,0,1,1,5.66,0c0,5.79-.54,26-.95,31.63A2.83,2.83,0,0,1,293.6,345.91Z" transform="translate(-150.5 -150)" fill="#563217"/><path d="M249.45,295.62a4.17,4.17,0,0,1-3.88-2.86,4.6,4.6,0,0,1,2.36-5.81,36.18,36.18,0,0,1,24.2-1.15,4.53,4.53,0,0,1,2.92,5.51,4.13,4.13,0,0,1-5.11,3.15,28.43,28.43,0,0,0-19,.85A3.89,3.89,0,0,1,249.45,295.62Z" transform="translate(-150.5 -150)" fill="#331907"/><path d="M348.39,295.62a4.19,4.19,0,0,0,3.88-2.86,4.6,4.6,0,0,0-2.36-5.81,36.21,36.21,0,0,0-24.21-1.15,4.55,4.55,0,0,0-2.92,5.51,4.14,4.14,0,0,0,5.12,3.15,28.41,28.41,0,0,1,19,.85A3.9,3.9,0,0,0,348.39,295.62Z" transform="translate(-150.5 -150)" fill="#331907"/></svg>